<svg width="65" height="43" viewBox="0 0 65 43" fill="none" xmlns="http://www.w3.org/2000/svg">
<path d="M19.2498 0C21.1961 0 22.9727 0.182189 24.5796 0.542768C26.1864 0.903346 27.5586 1.49545 28.7032 2.31909C29.8479 3.14273 30.7362 4.23585 31.3681 5.60226C32 6.96866 32.3142 8.65389 32.3142 10.6617C32.3142 12.829 31.8448 14.6357 30.9095 16.0818C29.9743 17.5279 28.5877 18.7121 26.757 19.6345C29.2774 20.3974 31.1587 21.7334 32.4008 23.6388C33.643 25.5442 34.2641 27.8443 34.2641 30.5353C34.2641 32.7026 33.8633 34.5814 33.0616 36.1679C32.26 37.7545 31.1803 39.0488 29.8226 40.0508C28.4649 41.0566 26.9194 41.7968 25.1826 42.2788C23.4349 42.7608 21.6331 43.0038 19.8276 43H0V0H19.2498ZM18.1052 17.4027C19.7084 17.4027 21.0264 17.0003 22.0591 16.1995C23.0919 15.3948 23.6082 14.0929 23.6046 12.2862C23.6046 11.2842 23.4313 10.4606 23.0883 9.81913C22.7452 9.17768 22.2866 8.67287 21.7125 8.31229C21.1384 7.95171 20.4812 7.7012 19.7373 7.56077C18.9718 7.42033 18.1955 7.34822 17.4155 7.35201H8.99843V17.4103L18.1052 17.4027ZM18.6215 35.648C19.4701 35.6517 20.3151 35.5606 21.142 35.3785C21.9436 35.1963 22.6513 34.8964 23.2616 34.4751C23.8718 34.0538 24.3593 33.4807 24.724 32.7595C25.0851 32.0384 25.2693 31.1122 25.2693 29.9888C25.2693 27.7835 24.6771 26.2046 23.4927 25.2633C22.3083 24.3182 20.7412 23.8475 18.7949 23.8475H8.99843V35.6517L18.6215 35.648ZM45.5807 34.7446C46.8012 35.9896 48.5597 36.612 50.8527 36.612C52.4956 36.612 53.9075 36.1793 55.0919 35.3177C56.2763 34.4561 57.0021 33.5414 57.2693 32.5773H64.4297C63.2851 36.3122 61.5266 38.9805 59.1578 40.586C56.789 42.1915 53.9256 42.9962 50.5638 42.9962C48.2347 42.9962 46.1332 42.6052 44.2627 41.8233C42.3923 41.0414 40.8071 39.9256 39.5071 38.4794C38.2072 37.0333 37.2034 35.3101 36.4992 33.3023C35.7951 31.2944 35.4412 29.0854 35.4412 26.679C35.4412 24.3523 35.8023 22.1851 36.5281 20.1772C37.2539 18.1694 38.2866 16.4348 39.6227 14.9697C40.9587 13.5046 42.5548 12.3508 44.4072 11.5082C46.2596 10.6655 48.3142 10.2442 50.5674 10.2442C53.0878 10.2442 55.2833 10.7566 57.1573 11.7814C59.0278 12.8062 60.5661 14.1802 61.7685 15.9072C62.9709 17.6342 63.8412 19.6003 64.3756 21.8093C64.91 24.0183 65.1014 26.326 64.9497 28.7362H43.5803C43.6922 31.4956 44.3602 33.5035 45.5807 34.7446ZM54.7777 18.3667C53.8028 17.2433 52.3223 16.6815 50.3363 16.6815C49.0364 16.6815 47.9567 16.913 47.1009 17.3723C46.2415 17.8354 45.5554 18.4047 45.0391 19.0879C44.5227 19.7711 44.1616 20.4923 43.9522 21.2552C43.7427 22.0181 43.6164 22.7013 43.5803 23.301H56.8143C56.4279 21.1375 55.7491 19.4902 54.7777 18.3667ZM42.1864 2.18245H58.7209V7.00282H42.1864V2.18245Z" fill="white"/>
</svg>
