<svg width="44" height="45" viewBox="0 0 44 45" fill="none" xmlns="http://www.w3.org/2000/svg">
<path d="M2.42755 0C1.08613 0 0 1.11082 0 2.48272V42.5173C0 43.8888 1.08596 45 2.42755 45H23.5019V27.5773H17.7664V20.7839H23.5019V15.7748C23.5019 9.96262 26.9739 6.79883 32.0437 6.79883C34.4721 6.79883 36.5574 6.98345 37.1655 7.06621V13.1393H33.6496C30.8926 13.1393 30.3577 14.4797 30.3577 16.446V20.7839H36.9361L36.0771 27.5773H30.3577V45H41.5724C42.9133 45 44 43.889 44 42.5173V2.48272C44 1.11082 42.9135 0 41.5724 0H2.42755Z" fill="white"/>
</svg>
