<svg width="84" height="83" viewBox="0 0 84 83" fill="none" xmlns="http://www.w3.org/2000/svg">
<path fill-rule="evenodd" clip-rule="evenodd" d="M45.1389 10.8764C40.8578 10.8764 36.5767 10.8764 32.2945 10.8764C31.2873 10.8764 29.7765 11.4339 30.0277 9.48217C30.0277 7.80984 31.5386 8.0892 32.5457 8.0892C40.8578 8.0892 49.1688 8.0892 57.4809 8.0892C58.4881 8.0892 60 7.53174 60 9.20407C60 11.4351 58.2357 10.5983 57.2297 10.8764C53.1986 11.1545 49.1699 10.8764 45.1389 10.8764V10.8764Z" fill="#14414B"/>
<path d="M62.5983 14H28.4016C27.6275 14 27 14.8253 27 15.8435V16.1565C27 17.1746 27.6275 18 28.4016 18H62.5983C63.3724 18 64 17.1746 64 16.1565V15.8435C64 14.8253 63.3724 14 62.5983 14Z" fill="#14414B" stroke="#14414B" stroke-width="0.2" stroke-miterlimit="22.9256"/>
<path d="M58.8634 8H31.1366C30.5089 8 30 8.82523 30 9.84317V10.1568C30 11.1748 30.5089 12 31.1366 12H58.8634C59.4911 12 60 11.1748 60 10.1568V9.84317C60 8.82523 59.4911 8 58.8634 8Z" fill="#14414B" stroke="#14414B" stroke-width="0.2" stroke-miterlimit="22.9256"/>
<path fill-rule="evenodd" clip-rule="evenodd" d="M45.9745 82C36.5842 82 27.1938 82 17.6392 82C15.8272 82 15.1676 81.5147 15.1676 79.7364C15.3327 77.3116 15.1676 74.886 15.1676 72.4611C15.3327 70.6828 14.5089 70.0356 12.8619 70.3588C10.2253 70.8441 8.24891 69.2271 6.2718 68.2573C4.78916 67.4487 4.62485 66.3169 6.2718 65.5084C8.41323 64.3766 10.3903 62.9216 13.1905 63.2448C14.8382 63.5681 15.3327 62.7596 15.3327 61.1433C15.3327 59.6882 15.0033 58.8796 13.1905 59.0416C9.89585 59.2029 6.43611 59.0416 3.1422 59.0416C1.65879 59.0416 1 58.8797 1 57.1013C1 46.754 1 36.4066 1 25.8979C1 24.4429 1.49449 23.9576 2.97713 23.9576C6.10748 24.1188 9.40215 23.7956 12.5325 23.9576C14.6739 24.1188 15.4978 23.4723 15.3327 21.2088C15.1684 15.2273 15.3327 9.24505 15.1684 3.26282C15.1684 1.48451 15.6629 1 17.4749 1C36.2555 1 55.2005 1 73.9811 1C75.9582 1 76.4519 1.64652 76.4519 3.58684C76.4519 17.1676 76.4519 30.7484 76.4519 44.3291C76.4519 46.1067 76.6162 46.916 78.7584 47.0772C81.2292 47.0772 82.8762 49.0175 82.8762 51.4431C83.0413 57.9099 83.0413 64.3773 82.8762 70.8433C82.8762 73.4309 81.3935 75.0472 78.5925 75.2093C76.7813 75.3705 76.4512 76.017 76.4512 77.6341C76.4512 81.9993 76.4512 81.9993 72.0033 81.9993C63.4368 82 54.706 82 45.9745 82V82ZM45.9745 2.77905C37.0786 2.77905 28.182 2.77905 19.2869 2.77905C17.9686 2.77905 16.8161 2.6178 16.8161 4.55737C16.9804 10.3776 16.8161 16.3598 16.8161 22.18C16.8161 23.3118 16.9804 24.1204 18.4631 23.9584C20.4402 23.7964 20.2751 24.9281 20.2751 26.2212C20.2751 36.4073 20.2751 46.5927 20.2751 56.7781C20.2751 58.2331 20.11 59.0417 18.298 58.8796C16.3209 58.7184 16.9797 60.3347 16.8154 61.3045C16.6503 62.437 17.1448 63.0828 18.4623 63.0828C23.5698 63.0828 28.6765 63.0828 33.7832 63.0828C35.1015 63.0828 35.4301 62.5975 35.4301 61.4665C35.4301 58.5564 35.4301 55.6463 35.4301 52.5742C35.4301 48.3703 37.0778 46.754 41.3614 46.754C51.7399 46.754 61.9533 46.754 72.3326 46.754C74.1439 46.754 74.8034 46.4307 74.8034 44.4904C74.8034 31.2329 74.8034 17.9754 74.8034 4.71788C74.8034 2.77756 74.1439 2.45505 72.3326 2.45505C63.6018 2.94032 54.8703 2.77905 45.9745 2.77905V2.77905ZM59.3183 73.5929C65.4139 73.5929 71.5095 73.5929 77.6044 73.5929C80.2411 73.5929 81.3935 72.6232 81.3935 70.0356C81.3935 64.0541 81.3935 58.0719 81.3935 52.0904C81.3935 49.8268 80.0752 48.533 77.7695 48.533C65.5782 48.533 53.2226 48.533 41.0321 48.533C38.7256 48.533 37.4073 49.6648 37.4073 51.9284C37.4073 55.0005 37.4073 58.0719 37.4073 61.306C37.4073 62.9223 38.0668 63.2463 39.3844 63.0843C41.5266 63.0843 43.8331 62.9223 45.9745 63.0843C48.281 63.2456 49.7636 64.5394 49.7636 66.6409C49.7636 68.5813 48.281 70.0363 45.9745 70.1983C43.8331 70.3596 41.6909 70.1983 39.7145 70.1983C38.8907 70.1983 37.7374 69.7131 37.5731 71.0061C37.408 71.9759 38.2319 72.7844 39.2201 73.1084C40.0439 73.4317 40.867 73.4317 41.8559 73.4317C47.6214 73.5929 53.5528 73.5929 59.3183 73.5929V73.5929ZM45.9745 80.2217C54.8703 80.2217 63.7669 80.2217 72.662 80.2217C73.3215 80.2217 74.3097 80.545 74.8042 79.7364C75.9574 77.6349 74.4748 75.3713 72.0033 75.3713C61.7891 75.3713 51.7399 75.3713 41.5265 75.3713C38.5612 75.3713 36.2547 74.5627 35.596 71.4914C35.2666 70.1976 34.6071 70.3588 33.6189 70.3588C30.4885 70.3588 27.5232 70.1976 24.3929 70.3588C21.9221 70.5208 18.7925 69.2271 17.3098 70.8441C15.8272 72.4612 17.1448 75.5325 16.8154 77.9581C16.6503 79.8985 17.4742 80.383 19.4513 80.383C28.3471 80.2217 37.0786 80.2217 45.9745 80.2217V80.2217ZM25.3818 68.5805C29.5004 68.5805 33.6189 68.5805 37.7374 68.5805C39.0557 68.5805 39.7145 68.258 39.7145 66.8029C39.7145 65.5091 39.22 65.0246 37.9025 65.0246C29.8305 65.0246 21.7585 65.0246 13.5214 65.0246C12.0388 65.0246 11.5444 65.3479 11.5444 66.965C11.5444 68.42 12.3674 68.5813 13.5214 68.5813C17.4741 68.4193 21.4284 68.4192 25.3818 68.5805V68.5805ZM44.1624 68.5805C45.6451 68.4192 47.7873 69.0658 47.7873 66.8029C47.7873 64.5393 45.6451 65.0246 44.1624 65.0246C43.0092 65.0246 41.1972 64.3773 41.1972 66.8029C41.3615 69.0658 43.0092 68.4192 44.1624 68.5805Z" fill="#14414B" stroke="#14414B" stroke-width="0.1764" stroke-miterlimit="22.9256"/>
<path fill-rule="evenodd" clip-rule="evenodd" d="M46.4205 31.8802C42.2544 31.8802 38.089 31.8802 33.9229 31.8802C33.1224 31.8802 32 32.3788 32 30.3845C32 28.6378 33.1224 29.1375 33.7624 29.1375C42.2544 29.1375 50.7456 29.1375 59.2376 29.1375C59.8791 29.1375 61 28.3891 61 30.3845C61 32.6286 59.8784 31.8802 59.0771 31.8802C54.7527 31.8802 50.5866 31.8802 46.4205 31.8802Z" fill="#14414B"/>
<path fill-rule="evenodd" clip-rule="evenodd" d="M46.8338 37.9765C44 37.9765 41.3331 37.9765 38.5001 37.9765C37.8328 37.9765 37 38.1541 37 37.5325C37 36.911 37.8328 37.089 38.5001 37C44.1662 37 49.8338 37 55.4999 37C56.1672 37 57 37 57 37.5325C57 37.9765 56.1672 37.9765 55.4999 37.9765C52.6669 37.9765 49.6668 37.9765 46.8338 37.9765V37.9765Z" fill="#14414B"/>
<path fill-rule="evenodd" clip-rule="evenodd" d="M10 32.2357C10.1478 30.3942 10.8887 28.7197 12.6669 27.7154C14.8891 26.3757 15.6301 26.8782 15.6301 29.5569C15.6301 30.8959 15.7778 31.9009 17.259 31.7332C17.7037 31.7332 18 31.9009 18 32.5704C18 33.0729 17.7037 33.4077 17.259 33.4077C15.3331 33.2399 15.63 34.9144 15.7778 36.0864C15.9256 38.0957 15.0369 38.2627 13.7034 37.7602C11.3334 37.0907 10 34.9144 10 32.2357V32.2357ZM14.2966 32.5704C13.8519 31.5662 14.8891 29.5569 13.5556 29.3892C12.2222 29.2222 11.629 31.0637 11.629 32.5704C11.629 34.0772 12.2222 35.7509 13.4072 35.5839C14.8891 35.5839 13.7034 33.5754 14.2966 32.5704Z" fill="#EDF9FF"/>
<path fill-rule="evenodd" clip-rule="evenodd" d="M15 50.176C15 51.7642 15 53.3524 15 54.9406C15 55.4703 15 55.8232 14.5997 56C14.1999 56 14 55.6472 14 54.9406C14 51.5882 14 48.4118 14 45.0585C14 44.5288 14.1002 44.1768 14.4003 44C14.8001 44 15 44.3528 15 45.0585C15 46.8236 15 48.4118 15 50.176Z" fill="#EDF9FF"/>
<path fill-rule="evenodd" clip-rule="evenodd" d="M11 45.9591C11 46.5998 11 47.0794 11 47.5597C11 48.1997 11 49 10.4757 49C9.95133 49 10.0389 48.1997 10.0389 47.7194C10.0389 47.239 9.95134 46.9191 10.0389 46.4387C10.2133 45.6392 9.68896 44.0386 10.4757 44.0386C11.35 43.7186 10.738 45.4796 11 45.9591Z" fill="#EDF9FF"/>
<path fill-rule="evenodd" clip-rule="evenodd" d="M48.4203 64.008C48.4203 66.8691 49 65.5424 49 68.4035C37.5882 68.4035 27.545 70 16 70C16 67.2101 16.2701 65.8611 16.2701 63C27.6812 63 36.8754 64.008 48.4203 64.008Z" fill="#14414B"/>
<path d="M67.4088 36H28.5912C27.7124 36 27 36.6191 27 37.3828V37.6171C27 38.3809 27.7124 39 28.5912 39H67.4088C68.2876 39 69 38.3809 69 37.6171V37.3828C69 36.6191 68.2876 36 67.4088 36Z" fill="#14414B" stroke="#14414B" stroke-width="0.2" stroke-miterlimit="22.9256"/>
<path fill-rule="evenodd" clip-rule="evenodd" d="M60 66L70.5 57L81 48H60H39L49.5007 57L60 66Z" fill="#14414B" stroke="#2B2A29" stroke-width="0.2" stroke-miterlimit="22.9256"/>
<path d="M71.4467 29H33.5534C32.6955 29 32 29.8255 32 30.8438V31.1562C32 32.1745 32.6955 33 33.5534 33H71.4467C72.3046 33 73 32.1745 73 31.1562V30.8438C73 29.8255 72.3046 29 71.4467 29Z" fill="#14414B" stroke="#14414B" stroke-width="0.2" stroke-miterlimit="22.9256"/>
</svg>
