<svg width="134" height="133" viewBox="0 0 134 133" fill="none" xmlns="http://www.w3.org/2000/svg">
<path d="M67 132C103.451 132 133 102.675 133 66.5C133 30.3253 103.451 1 67 1C30.5492 1 1 30.3253 1 66.5C1 102.675 30.5492 132 67 132Z" stroke="#B4B4B4" stroke-width="0.2822" stroke-miterlimit="22.9256"/>
<path fill-rule="evenodd" clip-rule="evenodd" d="M64.5878 49.3155C66.2371 49.3155 67.7369 49.3155 69.5358 49.3155C69.5358 46.9763 69.5358 44.7843 69.5358 42.5923C69.5358 40.4002 69.5358 38.2075 69.5358 35.869C69.5358 31.9229 72.2348 29.2922 76.2833 29.1464C83.931 29.1464 91.4285 29.1464 99.0755 29.1464C103.124 29.1464 105.824 31.7772 105.973 35.7232C105.973 39.2306 105.973 42.8852 105.973 46.3926C105.973 51.5083 104.624 53.2616 99.5256 54.5769C99.5256 67.877 99.5256 81.1771 99.5256 94.7693C101.025 94.7693 102.375 94.7693 103.874 94.7693C105.673 94.6229 106.123 95.646 105.973 97.2536C105.223 101.785 101.475 105 96.5267 105C84.2308 105 71.935 105 59.6391 105C52.2913 105 44.7938 105 37.4466 105C32.6481 105 28.9001 101.785 28.1496 97.4007C27.8504 95.5002 28.2998 94.9158 30.249 94.9158C31.5985 94.9158 32.948 94.9158 34.4478 94.9158C34.4478 81.3235 34.4478 68.0235 34.4478 54.7234C29.1993 53.1158 28 51.654 28 46.1004C28 42.7387 28 39.5235 28 36.1619C28 31.7772 30.699 29.1465 35.1976 29C42.5455 29 50.043 29 57.3901 29C61.7385 29 64.4375 31.6314 64.4375 36.0161C64.4375 40.2545 64.4375 44.4928 64.4375 48.7311C64.4382 48.8775 64.4382 49.0233 64.5878 49.3155V49.3155ZM42.5455 59.6926C42.5455 69.6311 42.5455 79.5695 42.5455 89.6543C58.8899 89.6543 75.0841 89.6543 91.2782 89.6543C91.2782 79.5695 91.2782 69.6311 91.2782 59.6926C89.3291 59.254 87.83 59.4004 86.63 61.008C85.8802 61.8847 84.9808 62.762 83.9311 63.4929C83.3314 63.9316 82.5815 64.0774 81.8316 64.3696C81.5318 63.6387 81.0818 62.9078 81.0818 62.1776C80.9322 61.3002 81.0818 60.4235 81.0818 59.5462C71.6352 59.5462 62.3388 59.5462 52.742 59.5462C52.742 60.7158 52.8915 61.8854 52.742 63.0543C52.5924 64.5154 51.542 64.9541 50.3428 63.9309C49.2924 63.0542 48.2434 62.0304 47.3439 61.008C45.9944 59.5462 44.4947 59.1082 42.5455 59.6926V59.6926ZM83.7808 59.5462C83.9311 59.5462 84.2309 59.6926 84.3811 59.6926C85.2806 58.816 86.1807 57.9386 87.0801 56.9155C90.079 52.9694 93.8277 51.0696 99.0762 51.8005C101.626 52.092 102.975 50.4844 103.125 48.0002C103.125 43.9076 103.125 39.9616 103.125 35.869C103.125 33.2383 101.775 31.923 99.0762 31.923C91.4292 31.923 83.9317 31.923 76.284 31.923C73.7346 31.923 72.2355 33.2383 72.2355 35.7232C72.2355 39.8158 72.2355 43.9076 72.2355 48.0002C72.2355 50.4844 73.7346 51.8005 76.284 51.8005C78.0836 51.8005 79.8825 51.8005 81.6821 51.8005C83.1818 51.8005 83.9317 52.3849 83.9317 53.9925C83.7808 55.8923 83.7808 57.6464 83.7808 59.5462V59.5462ZM49.4426 59.6926C49.5929 59.6926 49.7424 59.5462 49.8927 59.5462C49.8927 57.7921 49.8927 56.0388 49.8927 54.139C49.7431 52.3849 50.6426 51.654 52.2926 51.8005C53.9419 51.8005 55.7416 51.8005 57.5411 51.8005C60.0899 51.8005 61.5897 50.3387 61.5897 47.8537C61.5897 43.7619 61.5897 39.6693 61.5897 35.5775C61.5897 33.2383 60.2401 31.7772 57.6906 31.7772C49.8934 31.7772 42.2457 31.7772 34.4484 31.7772C32.0492 31.7772 30.7004 33.0925 30.7004 35.431C30.5502 39.6687 30.7004 43.9076 30.7004 48.146C30.7004 50.4844 32.1995 51.6533 34.4484 51.7998C36.0978 51.7998 37.8973 51.6533 39.5467 51.9456C40.5964 52.092 41.7957 52.53 42.5455 53.2609C45.095 55.1614 47.1937 57.5006 49.4426 59.6926V59.6926ZM91.1286 56.7697C94.1275 57.0619 94.1275 57.0619 94.1275 59.9849C94.1275 69.7775 94.1275 79.5695 94.1275 89.5079C94.1275 92.1386 93.9779 92.4308 91.2782 92.4308C75.0841 92.4308 58.8899 92.4308 42.5455 92.4308C39.8465 92.4308 39.5467 92.2851 39.5467 89.5079C39.5467 79.8624 39.5467 70.0697 39.5467 60.4235C39.5467 59.5462 39.3971 58.3773 39.8465 57.6464C40.2965 57.0619 41.4958 56.9155 42.3953 56.6232C40.4461 54.2841 40.4461 54.2841 37.1475 54.7227C37.1475 68.0228 37.1475 81.3228 37.1475 94.6229C56.9401 94.6229 76.7334 94.6229 96.5267 94.6229C96.5267 81.1771 96.5267 68.0228 96.5267 54.7227C94.2777 53.9925 92.4781 54.577 91.1286 56.7697V56.7697ZM102.825 97.5465C78.8328 97.5465 54.8414 97.5465 30.9996 97.5465C32.0493 100.762 33.9984 102.369 37.2971 102.369C44.0446 102.369 50.7928 102.369 57.5404 102.369C70.4359 102.369 83.1811 102.369 96.0766 102.369C99.826 102.369 101.775 100.908 102.825 97.5465ZM80.9322 54.4312C79.4331 54.4312 77.9334 54.577 76.5838 54.4312C75.0848 54.2847 73.585 53.9925 72.2355 53.2616C69.3869 51.654 64.288 51.5076 61.4394 53.2616C60.2395 53.9925 58.5901 54.2847 57.2406 54.4312C55.7415 54.577 54.2418 54.4312 52.742 54.4312C52.742 55.4543 52.742 56.0381 52.742 56.7697C62.1886 56.7697 71.4856 56.7697 80.7826 56.7697C80.9322 56.0381 80.9322 55.3079 80.9322 54.4312V54.4312Z" fill="#14414B"/>
<path fill-rule="evenodd" clip-rule="evenodd" d="M42.1511 59.2571C44.1109 58.6574 45.6188 59.1068 46.8247 60.6067C47.729 61.6565 48.7851 62.7063 49.8399 63.6059C51.0464 64.6557 52.1012 64.2056 52.2529 62.7063C52.4033 61.5063 52.2529 60.4572 52.2529 59.1068C61.9016 59.1068 71.2495 59.1068 80.7478 59.1068C80.7478 60.1573 80.5974 61.0568 80.7478 61.8068C80.8981 62.5561 81.3507 63.306 81.5017 64.056C82.255 63.7561 83.0091 63.6059 83.612 63.1565C84.517 62.4065 85.5724 61.5069 86.3264 60.6067C87.5322 58.9572 89.0402 58.807 91 59.2571C91 69.4546 91 79.6522 91 90C74.7165 90 58.4338 90 42 90C42.1511 79.6522 42.1511 69.4546 42.1511 59.2571V59.2571ZM70.797 69.3051C70.6466 67.6556 70.6466 66.1556 70.4962 64.6557C70.0437 62.2562 67.7817 61.2064 64.465 61.5063C62.0527 61.8061 62.8066 63.6059 62.6556 64.9555C62.5052 65.7055 62.6556 66.4548 62.6556 67.2047C62.6556 71.404 60.8461 73.0535 56.6244 73.0535C55.1171 73.0535 53.6098 73.0535 52.1012 73.0535C50.2917 72.9039 49.5384 73.6539 49.6888 75.4537C49.8392 78.6031 49.8392 81.7518 49.6888 85.0508C49.6888 86.8506 50.2917 87.451 52.1012 87.451C60.3936 87.451 68.6861 87.451 76.8275 87.451C80.7478 87.451 83.4616 84.7517 83.612 80.8523C83.612 79.2028 83.612 77.7028 83.612 76.0533C83.4616 72.0044 80.7478 69.3051 76.526 69.1548C74.7166 69.3051 72.7575 69.3051 70.797 69.3051V69.3051Z" fill="#EDF9FF"/>
<path fill-rule="evenodd" clip-rule="evenodd" d="M83.1169 59.8464C83.1169 57.8625 83.1169 56.0315 83.1169 54.0469C83.1169 52.3682 82.3402 51.7579 80.787 51.7579C78.9225 51.7579 77.0588 51.7579 75.1943 51.7579C72.5533 51.7579 71 50.3836 71 47.7894C71 43.5158 71 39.2421 71 34.9685C71 32.3736 72.3983 31 75.1943 31C83.1169 31 90.8838 31 98.8057 31C101.602 31 103 32.3736 103 35.1207C103 39.3944 103 43.5158 103 47.7894C103 50.3836 101.447 52.0624 98.8057 51.7579C93.3686 50.9946 89.4855 53.1314 86.3783 57.0999C85.6017 58.1683 84.5138 59.0838 83.5823 60C83.583 59.9993 83.4274 59.8464 83.1169 59.8464ZM80.4765 40.0047C80.4765 41.0731 80.4765 41.6834 80.4765 42.5996C81.408 42.5996 82.1847 42.5996 82.962 42.5996C82.962 41.6841 82.962 40.9208 82.962 40.0047C82.0297 40.0047 81.2531 40.0047 80.4765 40.0047ZM93.8354 42.5996C93.8354 41.5305 93.8354 40.9208 93.8354 40.0047C92.9032 40.0047 92.1266 40.0047 91.3493 40.0047C91.3493 40.9202 91.3493 41.6834 91.3493 42.5996C92.1266 42.5996 92.9032 42.5996 93.8354 42.5996ZM88.2434 42.7518C88.2434 41.6834 88.2434 40.9202 88.2434 40.0047C87.3112 40.0047 86.6902 40.0047 85.9135 40.1569C85.9135 41.0724 85.9135 41.9886 85.9135 42.9047C86.8451 42.7518 87.4661 42.7518 88.2434 42.7518Z" fill="#14414B"/>
<path fill-rule="evenodd" clip-rule="evenodd" d="M49.6595 60C47.4022 57.8128 45.2954 55.4789 42.8877 53.437C42.1353 52.7083 40.9314 52.2704 39.878 52.1244C38.2233 51.979 36.4168 52.1244 34.7621 51.979C32.3537 51.8331 31 50.6664 31 48.3332C31 44.1041 31 39.875 31 35.6458C31 33.3119 32.5049 32 34.7621 32C42.5867 32 50.2621 32 58.0867 32C60.4951 32 61.8488 33.4586 62 35.7918C62 39.875 62 43.9588 62 48.0419C62 50.5211 60.4951 51.8337 57.9369 51.9797C56.2815 51.9797 54.4757 51.9797 52.6692 51.9797C50.8634 51.9797 50.111 52.563 50.2614 54.3129C50.4119 56.0635 50.2614 57.8128 50.2614 59.7087C49.9605 59.854 49.81 60 49.6595 60V60ZM46.3488 38.9997C45.8974 38.7077 45.7469 38.4157 45.4459 38.1244C43.4896 36.5205 41.0818 36.5205 39.577 38.2704C38.0721 39.8743 38.2226 42.2075 40.0284 43.9581C41.6838 45.708 43.4896 47.3119 45.1449 48.9165C45.8974 49.6452 46.7996 49.9371 47.7032 49.0619C49.6595 47.1659 51.6158 45.27 53.5721 43.3741C54.9265 41.9162 54.9265 39.7283 53.5721 38.2697C52.2178 36.8118 49.8107 36.5198 48.1547 37.6864C47.4023 37.979 46.9508 38.4164 46.3488 38.9997V38.9997Z" fill="#14414B"/>
<path fill-rule="evenodd" clip-rule="evenodd" d="M90.6364 56.3915C91.9773 54.1558 93.6161 53.559 96 54.3044C96 67.8696 96 81.2861 96 95C76.3331 95 56.6662 95 37 95C37 81.4348 37 67.8696 37 54.3044C40.2776 53.857 40.2776 53.857 42.2143 56.2428C41.3206 56.5402 40.1289 56.6902 39.6818 57.2863C39.2346 57.8824 39.3838 59.0754 39.3838 60.1182C39.3838 69.9567 39.3838 79.9445 39.3838 89.783C39.3838 92.4662 39.5325 92.7643 42.3636 92.7643C58.4543 92.7643 74.545 92.7643 90.785 92.7643C93.4675 92.7643 93.6162 92.4662 93.6162 89.783C93.6162 79.7952 93.6162 69.808 93.6162 59.6714C93.6162 56.8382 93.6161 56.8382 90.6364 56.3915V56.3915Z" fill="#EDF9FF"/>
<path fill-rule="evenodd" clip-rule="evenodd" d="M102 98C100.962 102.182 99.0356 104 95.3292 104C82.5819 104 69.9832 104 57.2358 104C50.5658 104 43.8952 104 37.2251 104C33.8159 104 31.8891 102 31 98C54.5679 98 78.2836 98 102 98Z" fill="#EDF9FF"/>
<path fill-rule="evenodd" clip-rule="evenodd" d="M81 53.5195C81 54.4494 81 55.0694 81 56C71.7164 56 62.4336 56 53 56C53 55.2247 53 54.6048 53 53.5195C54.4976 53.5195 55.9945 53.6741 57.4921 53.5195C58.9897 53.3642 60.4866 53.0542 61.6848 52.2789C64.53 50.5737 69.6208 50.5737 72.4653 52.2789C73.6635 53.0542 75.3104 53.3642 76.8073 53.5195C78.0055 53.8288 79.5031 53.5195 81 53.5195V53.5195Z" fill="#EDF9FF"/>
<path fill-rule="evenodd" clip-rule="evenodd" d="M71.0113 69.7006C72.9751 69.7006 74.9382 69.7006 76.902 69.7006C81.1303 69.7006 83.8487 72.4005 84 76.5999C84 78.2498 84 79.75 84 81.3999C83.8487 85.3001 81.1303 88 77.2033 88C68.8975 88 60.591 88 52.4358 88C50.6233 88 49.8681 87.4002 50.0187 85.6C50.17 82.4499 50.17 79.2998 50.0187 76.0001C50.0187 74.2 50.774 73.4498 52.4358 73.6001C53.9457 73.6001 55.4555 73.6001 56.9668 73.6001C61.195 73.6001 63.0074 71.9503 63.0074 67.7495C63.0074 67 63.0074 66.2499 63.0074 65.4998C63.1587 64.1498 62.2522 62.2001 64.8199 62.0498C68.1429 61.7506 70.408 62.7999 70.8613 65.1999C70.8606 66.5505 70.8607 68.0501 71.0113 69.7006V69.7006ZM61.7988 85.2994C67.2356 85.2994 72.5218 85.4497 77.8073 85.2994C79.9217 85.2994 81.1296 83.6496 81.1296 81.5502C81.1296 80.05 81.1296 78.5504 81.1296 77.0494C81.1296 74.0503 79.7704 72.6997 76.5987 72.6997C74.4842 72.6997 72.3705 72.6997 70.4067 72.6997C68.8968 72.6997 67.9902 72.0999 68.1415 70.45C68.2929 69.2504 68.1415 68.0501 68.1415 67C68.2929 65.1999 67.3863 64.6001 65.5738 65.0503C65.5738 66.2506 65.4232 67.4503 65.5738 68.5003C65.8758 70.9003 65.1205 72.6997 63.3087 74.0504C62.7048 74.4999 61.7988 75.4003 61.7988 76.1497C61.6475 78.9999 61.7988 81.9997 61.7988 85.2994V85.2994ZM58.7785 85.2994C58.7785 82.1493 58.7785 79.2998 58.7785 76.4496C56.6641 76.4496 54.7009 76.4496 52.7371 76.4496C52.7371 79.4494 52.7371 82.2996 52.7371 85.2994C54.8516 85.2994 56.8147 85.2994 58.7785 85.2994Z" fill="#14414B"/>
<path fill-rule="evenodd" clip-rule="evenodd" d="M62.0659 85C62.0659 81.9105 61.9177 78.9685 62.0659 76.0264C62.0659 75.2914 62.8057 74.4083 63.5448 73.9674C65.3201 72.4961 66.0599 70.7306 65.7634 68.5242C65.6159 67.3469 65.7634 66.3178 65.7634 65.1406C67.5387 64.699 68.2784 65.2873 68.2784 67.0528C68.2784 68.23 68.2784 69.4073 68.2784 70.4364C68.1309 72.0545 69.0182 72.6428 70.4971 72.6428C72.5682 72.6428 74.6392 72.6428 76.5621 72.6428C79.6687 72.6428 80.8518 73.9674 81 76.9088C81 78.3802 81 79.8509 81 81.3229C81 83.3819 79.8169 85 77.7459 85C72.5689 85 67.3911 85 62.0659 85V85Z" fill="#EDF9FF"/>
<path fill-rule="evenodd" clip-rule="evenodd" d="M59 85C57.0496 85 55.1 85 53 85C53 82.1021 53 79.2036 53 76C54.9504 76 56.9 76 59 76C59 78.8986 59 81.7971 59 85Z" fill="#14414B"/>
<path fill-rule="evenodd" clip-rule="evenodd" d="M100.572 105C76.5213 105 58.6128 104.546 32.7141 104.546C32.7141 101.476 30 99.3923 30 96C54.0503 96 78.1006 96 104 96C104 99.0694 100.572 101.608 100.572 105Z" fill="#14414B"/>
</svg>
