<svg width="65" height="78" viewBox="0 0 65 78" fill="none" xmlns="http://www.w3.org/2000/svg">
<path fill-rule="evenodd" clip-rule="evenodd" d="M14.8341 32C10.8892 31.6675 7.60299 30.3329 5.63126 26.6664C2.67292 21.9994 3.65803 19.3319 9.24534 19.3319C11.8758 19.3319 13.1903 18.6655 13.1903 15.6655C13.1903 14.665 13.8475 14 14.8341 14C15.8208 14 16.8059 14.3325 16.8059 15.333C16.478 19.666 19.1085 19.3335 22.0669 18.9995C26.3397 18.6655 26.3396 20.6665 25.6809 23.6665C24.0385 28.332 19.4363 32 14.8341 32ZM15.1635 22.332C12.8609 23.3325 9.24537 20.6665 8.58964 23.999C8.26026 26.6665 11.5481 27.9995 14.5064 27.9995C17.4647 27.9995 20.7509 26.999 20.7509 23.999C20.7509 20.999 17.1352 23.6665 15.1635 22.332V22.332Z" fill="#14414B"/>
<path d="M20.5082 22H8.49184C8.22024 22 8 23.0317 8 24.3044V24.6957C8 25.9683 8.22024 27 8.49184 27H20.5082C20.7798 27 21 25.9683 21 24.6957V24.3044C21 23.0317 20.7798 22 20.5082 22Z" fill="#14414B" stroke="#14414B" stroke-width="0.2" stroke-miterlimit="22.9256"/>
<path fill-rule="evenodd" clip-rule="evenodd" d="M0 39.2318C0 29.4287 0 19.776 0 9.97285C0 8.46435 0.148232 8.31393 1.62693 8.31393C2.51414 8.31393 3.40204 8.31393 4.28926 8.31393C4.88142 8.31393 5.17715 8.1628 5.32536 7.55968C5.76931 5.44806 6.95226 3.94025 9.02243 3.33713C11.0933 2.73332 13.1641 3.63799 14.3478 5.7503C14.6428 6.35342 14.9393 6.95725 15.0868 7.7108C15.0868 8.31462 15.3825 8.46504 15.974 8.31461C15.974 8.31461 15.974 8.31461 16.1222 8.31461C17.7491 8.31461 17.7491 8.31462 18.3406 6.6557C19.376 3.78983 22.0384 2.28202 24.5525 3.33713C26.3276 4.09138 27.363 5.44875 27.807 7.40924C27.9545 8.16348 28.2509 8.46574 28.9899 8.31461C29.1381 8.31461 29.1381 8.31461 29.2857 8.31461C30.3211 8.46504 30.9125 8.1635 31.0608 6.95726C31.0608 6.6557 31.3565 6.203 31.5047 5.90075C32.5401 4.09069 33.8713 2.88444 36.0904 3.03557C38.013 3.186 39.7875 4.6945 40.5278 6.80542C40.9718 8.16279 40.9718 8.16277 42.4505 8.16277C43.1902 8.16277 43.9298 8.16277 44.6689 8.16277C45.8525 8.16277 46 8.46435 46 9.52016C46 15.1008 46 20.8318 46 26.4124C46 40.4387 46 54.3147 46 68.3411C46 69.8489 45.8525 70 44.5213 70C30.3218 70 16.1229 70 1.92334 70C0.592171 70 0.296444 69.8489 0.296444 68.3411C2.26673e-05 58.8381 0 49.035 0 39.2318V39.2318ZM43.9299 39.2318C43.9299 31.2381 43.9299 23.0938 43.9299 15.1001C43.9299 13.7427 43.9299 12.2349 43.9299 10.8775C43.9299 10.4248 43.7816 10.1233 43.3377 10.1233C39.7881 10.1233 36.3861 10.1233 32.8359 10.1233C32.2444 10.1233 32.2444 10.2737 32.3919 10.7264C32.8359 12.3853 33.8713 13.4411 35.6464 13.7427C36.2379 13.8938 36.5337 14.0443 36.3855 14.6474C36.3855 15.2512 35.9415 15.4016 35.35 15.4016C35.2025 15.4016 35.0543 15.4016 34.9061 15.4016C32.5395 14.9489 31.3565 13.1396 30.765 10.8768C30.6168 10.4241 30.6168 10.1226 30.0254 10.1226C26.7709 10.1226 23.3695 10.1226 20.115 10.1226C19.6711 10.1226 19.5236 10.2737 19.6711 10.7264C19.9668 12.3846 21.298 13.5916 22.7774 13.742C23.3695 13.8931 23.6646 14.0436 23.6646 14.6474C23.5171 15.2505 23.0731 15.4009 22.6292 15.4009C21.7419 15.2505 21.0023 14.9483 20.2626 14.4963C19.0789 13.5916 18.3392 12.3846 18.0442 10.8768C17.896 10.5753 17.8959 10.1226 17.452 10.1226C14.05 10.1226 10.7962 10.1226 7.39417 10.1226C7.09843 10.1226 6.95022 10.2737 6.95022 10.5753C7.09843 12.0838 8.57712 13.5916 10.0565 13.7427C10.6487 13.8938 11.2401 14.0442 11.0926 14.7992C10.9444 15.5527 10.3529 15.5527 9.76075 15.4023C7.83811 15.1008 6.50696 13.7434 5.76728 11.9333C5.47222 11.3302 5.61974 10.4255 5.17579 10.1233C4.58431 9.82173 3.84463 9.97285 3.25315 9.97285C2.06951 9.97285 2.06951 9.97283 2.06951 11.1791C2.06951 29.8814 2.06951 48.4318 2.06951 67.1341C2.06951 68.1899 2.36525 68.3404 3.25315 68.3404C16.5648 68.3404 29.8765 68.3404 43.0406 68.3404C44.076 68.3404 44.2242 68.0388 44.2242 67.1341C43.9298 57.9334 43.9299 48.5823 43.9299 39.2318V39.2318ZM10.2061 8.31322C11.0933 8.31322 11.9812 8.31322 12.8684 8.31322C13.3123 8.31322 13.4599 8.16277 13.3123 7.71009C13.0166 6.50315 12.4251 5.44806 11.2415 4.99537C9.46639 4.08999 6.65652 6.05118 6.80405 8.01097C6.80405 8.46366 7.09979 8.31254 7.248 8.31254C8.43095 8.31323 9.31885 8.31322 10.2061 8.31322ZM35.4982 8.31322C36.0904 8.31322 36.8294 8.31322 37.4216 8.31322C37.8655 8.31322 38.6045 8.61477 38.9002 8.16277C39.196 7.71009 38.7527 7.10628 38.4563 6.50386C37.1251 4.08999 34.4628 4.08999 33.1316 6.35274C32.8359 6.80542 32.6877 7.25809 32.5401 7.71009C32.3919 8.16277 32.5401 8.31393 32.9841 8.31393C33.7238 8.31323 34.611 8.31322 35.4982 8.31322ZM22.778 8.31322C23.8135 8.31322 24.7007 8.31322 25.7361 8.31322C26.0318 8.31322 26.3276 8.31322 26.18 7.86053C26.0318 6.2016 24.4049 4.69311 22.9256 4.69311C21.4469 4.69311 19.9682 6.20091 19.6717 7.70941C19.6717 8.16209 19.6717 8.31254 20.1157 8.31254C21.0036 8.31323 21.8908 8.31322 22.778 8.31322Z" fill="#14414B"/>
<path fill-rule="evenodd" clip-rule="evenodd" d="M54 32.5252C54 23.1061 54 13.8344 54 4.4153C54 3.82677 54 3.23757 54.1354 2.64904C54.5431 0.882787 55.4938 0 57.1236 0C58.6174 0 60.2472 0 61.741 0C63.3708 0 64.593 1.03026 64.8639 2.94331C64.8639 3.38504 65 3.8261 65 4.26783C65 23.1054 65 42.0904 65 60.9287C65 61.5172 64.8639 62.1057 64.7285 62.6949C63.5063 67.257 62.284 71.8198 60.9257 76.3819V76.5287C60.7903 77.4115 60.3827 78 59.4326 78C58.4813 78 58.2104 77.2647 58.0743 76.5287C57.5312 74.7624 57.1236 72.8494 56.5805 71.0831C56.0375 68.8758 55.4944 66.8153 54.8152 64.6073C54.2722 62.6943 54.0006 60.7812 54.0006 58.8675C54 50.0383 54 41.3551 54 32.5252V32.5252ZM60.2472 60.7819C61.0618 60.3402 61.6049 59.8991 62.4201 60.0459C63.2347 60.1934 63.3708 59.8991 63.3708 59.1631C63.3708 45.9179 63.3708 32.6727 63.3708 19.28C63.3708 17.2195 63.3708 17.2195 61.4701 17.0727C60.6548 17.0727 60.3833 17.2195 60.3833 18.2504C60.3833 32.0841 60.3833 45.7711 60.3833 59.6048C60.2472 59.8991 60.2472 60.3408 60.2472 60.7819V60.7819ZM58.618 60.7819C58.618 60.1934 58.618 59.8991 58.618 59.6048C58.618 46.2121 58.618 32.8195 58.618 19.4268C58.618 17.2195 58.618 17.2195 56.7166 17.2195C55.6298 17.2195 55.6298 17.2195 55.6298 18.3965C55.6298 31.9367 55.6298 45.4761 55.6298 59.0156C55.6298 59.3099 55.6298 59.4574 55.6298 59.7516C55.6298 60.0459 55.7653 60.1934 56.0374 60.0459C56.8521 59.7523 57.6667 60.1934 58.618 60.7819ZM59.4326 8.09459C60.5187 8.09459 61.6055 8.09459 62.6917 8.09459C62.9632 8.09459 63.3708 8.24206 63.3708 7.65286C63.3708 6.03475 63.5062 4.41529 63.2347 2.79651C63.0993 2.06051 62.5556 1.61879 61.741 1.61879C60.3833 1.61879 58.8889 1.61879 57.5312 1.61879C56.1729 1.61879 55.6298 2.06052 55.6298 3.53251C55.6298 4.70956 55.6298 5.88728 55.6298 7.21113C55.6298 7.80033 55.7653 7.94713 56.309 7.94713C57.259 8.0946 58.3458 8.09459 59.4326 8.09459V8.09459ZM56.5805 61.8121C56.1729 61.9596 55.6292 61.8121 55.9014 62.6956C56.4444 64.7554 56.9882 66.816 57.5312 68.8765C57.6667 69.3182 57.8027 69.6125 58.3458 69.465C59.025 69.1708 59.8396 69.1708 60.5187 69.465C60.9263 69.6125 61.1979 69.465 61.1979 69.0233C61.741 66.816 62.2846 64.7555 62.9632 62.5475C63.0993 62.1057 62.9632 61.9589 62.6923 61.9589C61.8777 61.6647 61.334 62.2532 60.7909 62.8417C59.9763 63.7245 58.8895 63.7245 58.0749 62.8417C57.6667 62.2539 57.2591 61.8121 56.5805 61.8121V61.8121ZM59.4326 11.7739C60.5187 11.7739 61.6055 11.7739 62.5556 11.7739C63.3708 11.7739 63.2347 11.3322 63.2347 10.7436C63.2347 10.3019 63.2347 9.86086 62.5556 9.86086C60.3826 9.86086 58.3458 9.86086 56.1729 9.86086C55.3583 9.86086 55.4944 10.3019 55.4944 10.8911C55.4944 11.3328 55.4944 11.7739 56.1729 11.7739C57.2591 11.7739 58.3458 11.7739 59.4326 11.7739ZM59.4326 13.5402C58.3458 13.5402 57.2591 13.5402 56.1729 13.5402C55.4944 13.5402 55.6298 13.9819 55.6298 14.4229C55.6298 14.8647 55.4944 15.4532 56.1729 15.4532C58.3464 15.4532 60.5187 15.4532 62.6923 15.4532C63.5069 15.4532 63.2354 14.8647 63.2354 14.4229C63.2354 13.9812 63.3708 13.5402 62.6923 13.5402C61.6049 13.5402 60.5187 13.5402 59.4326 13.5402V13.5402ZM59.2965 75.2048H59.4326C59.7035 74.1746 59.9757 73.2918 60.2472 72.2622C60.5187 71.0845 60.3826 70.937 59.2959 70.937C59.025 70.937 58.7528 71.0845 58.4813 71.0845C58.3458 71.0845 58.2104 71.2313 58.2104 71.5262C58.7534 72.7033 59.025 73.8803 59.2965 75.2048Z" fill="#14414B"/>
<path fill-rule="evenodd" clip-rule="evenodd" d="M35.4743 29.6353C34.2777 29.7832 33.2317 30.2285 32.3342 30.6738C23.812 34.234 18.4287 40.7618 15.7373 49.5147C14.5415 53.2235 13.9429 57.081 13.7938 60.9385C13.7938 61.5318 13.4948 62.125 12.8969 61.977C12.1491 61.977 12 61.5318 12 60.7899C12.4488 54.4107 13.6439 48.1795 16.7841 42.5423C20.5221 35.5698 26.2044 30.8225 33.8297 28.3008C33.9795 28.3008 34.1286 28.1521 34.4283 28.1521C33.8297 27.8562 33.2318 27.8562 32.6338 27.7069C30.9892 27.4109 29.4937 27.1136 27.8491 26.817C27.4003 26.669 26.9522 26.5204 26.9522 25.9271C26.8024 25.1852 27.401 24.8886 28.2978 25.0372C31.8861 25.6305 35.475 26.2244 39.0632 26.8177C39.512 26.8177 39.811 26.9656 39.9601 27.4109C40.1099 27.8562 39.811 28.1528 39.5113 28.5981C37.4179 30.6752 35.1753 32.7522 33.0826 34.8286C32.6338 35.2739 32.185 35.7185 31.7363 36.1638C31.2882 36.609 30.8394 36.7577 30.2415 36.1638C29.7927 35.7185 29.9425 35.2739 30.3906 34.8286C32.0352 33.3455 33.5307 31.713 35.1753 30.2299C35.1753 30.0799 35.3245 29.9319 35.4743 29.6353V29.6353Z" fill="#14414B"/>
<path fill-rule="evenodd" clip-rule="evenodd" d="M33.2174 56.2539C32.9284 56.2539 32.7826 56.5421 32.6382 56.6865C31.3347 57.9836 30.1757 59.137 28.8722 60.4341C28.4375 60.8667 27.8583 61.1549 27.2791 60.7223C26.6999 60.1453 27.1346 59.7127 27.5687 59.2807C28.8722 57.9836 30.0312 56.6865 31.3347 55.5338C31.7694 55.1012 31.7694 54.9568 31.3347 54.5242C30.0312 53.3715 28.8722 52.0744 27.7138 50.9217C27.2791 50.4891 26.6999 49.9121 27.2791 49.3364C28.0034 48.6156 28.4381 49.192 28.8722 49.769C30.0312 50.9217 31.3347 52.2188 32.493 53.3715C32.7826 53.8041 33.0722 53.6597 33.3618 53.3715C34.6653 52.0744 35.8244 50.9217 37.1279 49.6246C37.5626 49.192 38.1417 48.9038 38.7209 49.3364C39.3001 49.9128 38.8654 50.3453 38.4313 50.7773C37.1278 52.0744 35.9688 53.2278 34.6653 54.5249C34.2306 54.9575 34.2306 55.2456 34.6653 55.6782C35.9688 56.8309 37.1278 58.128 38.2862 59.2807C38.7209 59.7133 39.155 60.1453 38.5751 60.7223C37.9959 61.2986 37.5612 60.866 36.9827 60.4341C35.6792 59.137 34.5202 57.9836 33.2167 56.6865C33.507 56.5421 33.3625 56.3983 33.2174 56.2539V56.2539Z" fill="#14414B"/>
<path fill-rule="evenodd" clip-rule="evenodd" d="M12.5 19C15.5397 19 18 21.6839 18 25C18 28.3161 15.5391 31 12.5 31C9.4596 31 7 28.3153 7 25C7 21.6839 9.46026 19 12.5 19Z" fill="#14414B"/>
<path fill-rule="evenodd" clip-rule="evenodd" d="M65 61C63.6999 61 62.3998 61 61 61C61 46.5092 61 32.0177 61 16C62.3001 16 63.6002 16 65 16C65 30.4936 65 44.985 65 61Z" fill="#14414B"/>
<path fill-rule="evenodd" clip-rule="evenodd" d="M56 61C57.6249 61 59.2505 61 61 61C61 46.5092 61 32.0177 61 16C59.3751 16 57.7502 16 56 16C56 30.4936 56 44.985 56 61Z" fill="#14414B"/>
</svg>
