<svg width="87" height="67" viewBox="0 0 87 67" fill="none" xmlns="http://www.w3.org/2000/svg">
<path fill-rule="evenodd" clip-rule="evenodd" d="M1 1.57807C2.47288 0.286878 4.24019 0 6.30126 0C31.4829 0 56.8115 0 81.9925 0C82.8758 0 83.7598 -5.18074e-06 84.4962 0.143755C86.116 0.574372 87 1.29121 87 3.15678C87 20.3728 87 37.5889 87 54.8049C87 56.9567 85.9691 57.818 83.3184 57.818C75.8086 57.818 68.298 57.818 60.7881 57.818C60.0516 57.818 59.1684 57.818 58.2844 57.818C58.2844 60.2572 58.2844 62.5521 58.2844 65.1351C60.1992 65.1351 62.1134 65.1351 63.8801 65.1351C65.3529 65.1351 65.9418 65.4213 65.3529 67C51.2157 67 37.2262 67 22.9421 67C22.5001 65.7088 22.7945 64.9914 24.4143 65.1351C26.3292 65.1351 28.0958 65.1351 30.1576 65.1351C30.1576 62.6959 30.1576 60.4003 30.1576 57.818C29.4218 57.818 28.6854 57.818 27.949 57.818C20.4391 57.818 12.9285 57.818 5.41859 57.818C3.5044 57.818 2.03154 57.2442 1.00066 55.6662C0.999984 37.732 1 19.6547 1 1.57807ZM85.3796 11.7638C57.6948 11.7638 30.3045 11.7638 2.91415 11.7638C2.91415 24.3888 2.91415 37.0145 2.91415 49.4964C30.4513 49.4964 57.9892 49.4964 85.3796 49.4964C85.3796 36.8707 85.3796 24.3888 85.3796 11.7638ZM2.76726 9.46891C30.452 9.46891 57.9899 9.46891 85.3802 9.46891C85.5271 9.18206 85.5271 9.0383 85.5271 9.0383C85.5271 7.74711 85.5271 6.45595 85.5271 5.30786C85.5271 2.29486 85.3802 2.15179 82.2876 2.15179C56.8114 2.15179 31.3354 2.15179 5.85926 2.15179C5.5655 2.15179 5.12349 2.15179 4.82837 2.15179C3.50306 2.15179 2.7666 2.72547 2.7666 4.01665C2.76728 5.73846 2.76726 7.46025 2.76726 9.46891ZM2.91415 51.7913C2.32528 55.378 2.7673 55.8086 6.15437 55.8086C31.4829 55.8086 56.6646 55.8086 81.9931 55.8086C85.3802 55.8086 85.6747 55.378 85.2333 51.7913C57.8423 51.7913 30.452 51.7913 2.91415 51.7913ZM55.9282 57.8173C47.9763 57.8173 40.3188 57.8173 32.5138 57.8173C32.5138 60.2559 32.5138 62.5514 32.5138 64.8469C40.4657 64.8469 48.1231 64.8469 55.9282 64.8469C55.9282 62.5521 55.9282 60.2559 55.9282 57.8173Z" fill="#14414B"/>
<path fill-rule="evenodd" clip-rule="evenodd" d="M39.9091 37.044C33.6453 37.044 27.6728 37.044 21.7003 37.044C20.244 37.044 19.6615 36.752 19.2242 35.2908C17.9132 30.7617 16.6023 26.2332 15 21.2662C15.8738 21.2662 16.6023 21.2662 17.4761 21.2662C25.7793 21.2662 34.2285 21.2662 42.5317 21.2662C44.2799 21.2662 45.0084 20.682 45.299 19.2208C45.299 19.0751 45.445 18.7824 45.445 18.6367C46.4647 15.1309 47.3385 14.5459 50.9802 15.2765C51.2715 15.2765 51.5628 15.8607 52 16.1528C51.7087 16.4449 51.4175 17.0291 50.9802 17.1762C49.9605 17.3219 49.086 17.1762 47.921 17.1762C45.5896 24.9184 43.2595 32.5149 41.0747 40.1114C40.9287 40.5499 41.22 41.2804 41.5119 41.5719C42.9682 43.1787 43.1142 44.932 41.8025 46.5388C40.6375 48 39.0353 48.2921 37.4323 47.7079C35.6841 46.9773 34.9563 45.3698 35.2475 43.1788C35.2475 43.033 35.2475 42.7403 35.2475 42.4488C32.6255 42.4488 30.0036 42.4488 27.3815 42.4488C27.3815 43.1787 27.5269 43.6172 27.5269 44.2021C27.5269 46.3932 25.7786 48 23.7391 48C21.7003 48 20.098 46.3938 19.9521 44.3485C19.8061 42.3031 21.4084 40.5499 23.5931 40.4042C27.8174 40.2578 32.0424 40.4042 36.4119 40.4042C39.3265 40.4042 39.3265 40.4042 39.9091 37.044V37.044ZM29.8582 27.9864C29.8582 26.3795 29.8582 24.772 29.8582 23.0194C28.9838 23.0194 28.256 23.0194 27.5269 23.0194C26.6531 23.0194 25.9246 23.0194 25.0508 23.0194C24.9055 28.1321 25.0508 28.2785 29.8582 27.9864ZM22.7207 23.3115C20.9725 23.3115 19.3703 23.3115 17.622 23.3115C18.0593 25.0648 18.4958 26.5253 18.933 27.9864C20.5352 27.9864 21.9923 27.9864 23.4486 27.9864C23.3026 26.3795 23.0113 24.9184 22.7207 23.3115ZM43.988 23.3115C38.3061 23.0194 39.1806 22.2889 38.598 27.9864C43.4055 28.2785 42.823 28.8634 43.988 23.3115ZM36.4132 27.9864C36.7045 26.3795 36.8505 24.772 37.1417 23.1652C35.2475 23.1652 33.7912 23.1652 32.043 23.1652C32.043 24.772 32.043 26.3795 32.043 27.9864C33.5 27.9864 34.811 27.9864 36.4132 27.9864ZM38.1615 30.1782C37.8702 31.785 37.7242 33.2462 37.433 34.853C38.744 34.853 39.7638 34.853 40.7835 34.853C41.2207 33.2462 41.6572 31.785 42.0945 30.1782C40.7835 30.1782 39.4725 30.1782 38.1615 30.1782ZM24.6136 34.853C24.323 33.2462 24.1764 31.785 23.8858 30.3239C22.4288 30.3239 21.1178 30.3239 19.9521 30.3239C20.9725 35.2909 21.1178 35.4365 24.6136 34.853ZM25.9246 30.3239C26.3618 35.5829 26.3618 35.5829 29.8582 34.853C29.8582 33.3919 29.8582 31.785 29.8582 30.3239C28.4012 30.3239 27.2356 30.3239 25.9246 30.3239ZM32.043 30.3239C32.043 32.0771 32.043 33.5383 32.043 34.853C35.5395 35.4372 36.2673 34.4146 35.6847 30.3239C34.519 30.3239 33.354 30.3239 32.043 30.3239ZM23.7398 41.5726C22.866 42.7417 21.9916 43.4722 21.9916 44.0564C22.1376 44.787 23.0113 45.3712 23.7398 45.9554C24.323 45.3712 25.342 44.787 25.342 44.2021C25.342 43.6179 24.4682 42.8874 23.7398 41.5726ZM39.1806 41.719C38.3068 42.7416 37.287 43.4722 37.4323 44.0564C37.5783 44.787 38.4528 45.3712 39.0346 46.1017C39.6178 45.5169 40.6368 44.9327 40.7828 44.2021C40.7835 43.6179 39.9091 42.8874 39.1806 41.719Z" fill="#14414B"/>
<path fill-rule="evenodd" clip-rule="evenodd" d="M59 26C64.5126 27.8571 69.4874 29.571 75 31.4287C72.5799 32.4288 70.4287 33.2859 68.0086 34.2853C69.891 35.9999 71.5046 37.4288 73.2523 39.1427C72.58 39.9997 72.1764 40.4284 71.3699 41.2854C69.891 39.2852 68.5463 37.4281 66.9333 35.2854C65.8573 38.1426 65.0508 40.286 64.1096 43C62.3619 37 60.7483 31.7137 59 26V26Z" fill="#14414B"/>
<path d="M82.7797 1H4.22035C2.4418 1 1 3.26995 1 6.07015V6.92978C1 9.72998 2.4418 12 4.22035 12H82.7797C84.5582 12 86 9.72998 86 6.92978V6.07015C86 3.26995 84.5582 1 82.7797 1Z" fill="#14414B" stroke="#14414B" stroke-width="0.2" stroke-miterlimit="22.9256"/>
<path d="M52.1436 4H6.8565C5.8312 4 5 5.0319 5 6.30481V6.69526C5 7.96816 5.8312 9 6.8565 9H52.1436C53.1689 9 54 7.96816 54 6.69526V6.30481C54 5.0319 53.1689 4 52.1436 4Z" fill="white" stroke="#14414B" stroke-width="0.2" stroke-miterlimit="22.9256"/>
<path d="M82.7795 51H4.22053C2.44188 51 1 52.4446 1 54.2267V54.7733C1 56.5554 2.44188 58 4.22053 58H82.7795C84.5581 58 86 56.5554 86 54.7733V54.2267C86 52.4446 84.5581 51 82.7795 51Z" fill="#14414B" stroke="#14414B" stroke-width="0.2" stroke-miterlimit="22.9256"/>
</svg>
