<svg width="84" height="70" viewBox="0 0 84 70" fill="none" xmlns="http://www.w3.org/2000/svg">
<path fill-rule="evenodd" clip-rule="evenodd" d="M41.6619 0C53.9338 0 66.2058 0 78.4785 0C82.0315 0 83 0.970411 83 4.36549C83 24.7345 83 45.2654 83 65.6352C83 69.0302 82.0315 70 78.6403 70C53.9338 70 29.2272 70 4.35974 70C0.807448 70 0 69.0303 0 65.4732C0 45.1034 0 24.7345 0 4.36549C0 0.808421 0.968509 0 4.35974 0C16.9553 0 29.3892 0 41.6619 0ZM2.09904 9.21548C2.09904 9.86195 1.93797 10.3472 1.93797 10.8317C1.93797 29.1 1.93797 47.3668 1.93797 65.6352C1.93797 67.8978 2.90646 68.0598 4.84441 68.0598C29.2272 68.0598 53.772 68.0598 78.1556 68.0598C81.2232 68.0598 81.2231 68.0598 81.2231 64.988C81.2231 47.2056 81.2231 29.4225 81.2231 11.6401C81.2231 10.8317 81.2231 10.0232 81.2231 9.21548C54.7413 9.21548 28.5816 9.21548 2.09904 9.21548ZM2.26084 7.11332C28.5816 7.11332 54.9023 7.11332 81.062 7.11332C81.062 6.6281 81.2231 6.14367 81.2231 5.82044C81.3842 1.77889 81.3843 1.77884 77.1862 1.77884C53.611 1.77884 30.0348 1.77884 6.45878 1.77884C1.61427 1.77884 1.61437 1.77889 2.09904 6.79088C2.09904 6.79014 2.09904 6.95208 2.26084 7.11332Z" fill="#14414B"/>
<path fill-rule="evenodd" clip-rule="evenodd" d="M41.2465 29C47.0147 29 52.7823 29 58.5505 29C62.0114 29 63 29.9521 63 33.2857C63 37.254 63 41.064 63 45.0316C63 47.8888 61.8463 49 58.88 49C47.0148 49 34.9845 49 23.1193 49C20.153 49 19.1644 48.0478 19 45.0316C19 41.064 19 37.095 19 33.1274C19 30.1112 19.9886 29 23.1193 29C29.2162 29 35.3139 29 41.2465 29ZM40.2581 45.5081C42.7298 43.4447 45.037 41.5405 47.1792 39.4764C48.3328 38.3652 49.157 38.3652 50.3106 39.4764C52.6172 41.8571 54.9244 44.0795 57.2317 46.3019C57.8907 46.9366 59.0444 47.0957 60.0337 47.0957C60.5283 47.0957 61.0222 45.8254 61.0222 45.0316C61.1866 41.064 61.0222 37.095 61.0222 33.1274C61.0222 31.5397 60.3632 30.905 58.7149 30.905C46.8497 30.905 34.9837 30.905 23.1193 30.905C21.471 30.905 20.8119 31.3814 20.8119 33.1274C20.8119 37.095 20.8119 40.905 20.8119 44.8733C20.8119 45.6671 21.3066 47.0957 21.8005 47.254C22.789 47.4131 24.1078 47.0957 24.7668 46.6193C27.2385 44.8733 29.3813 42.9683 31.6879 41.0633C32.6764 40.1112 33.5005 40.1112 34.4898 41.0633C36.4676 42.3336 38.2803 43.7621 40.2581 45.5081Z" fill="#14414B"/>
<path fill-rule="evenodd" clip-rule="evenodd" d="M61.9852 13C66.9894 13 71.9936 13 76.9978 13C79.166 13 80 13.6516 80 15.7675C80 19.8369 79.833 20 75.6629 20C66.156 20 56.6475 20 47.1405 20C46.14 20 44.3045 19.3483 44.1382 18.8598C43.8046 17.2325 44.1382 15.4413 44.4709 13.6517C44.4709 13.3262 45.9729 13 46.6399 13C51.8104 13 56.9818 13 61.9852 13ZM45.9729 18.0465C56.8146 18.0465 67.4893 18.0465 78.1647 18.0465C78.1647 16.9062 78.1647 15.9298 78.1647 14.9535C67.3229 14.9535 56.8146 14.9535 45.9729 14.9535C45.9729 16.0929 45.9729 17.0693 45.9729 18.0465Z" fill="#14414B"/>
<path fill-rule="evenodd" clip-rule="evenodd" d="M42.7462 63C33.9532 63 24.991 63 16.1988 63C15.5219 63 14.8456 62.4542 14 62.0907C14.6762 61.7271 15.3532 61 16.1988 61C34.1228 61 51.8772 61 69.8012 61C70.4781 61 71.1544 61.5458 72 61.9093C71.3238 62.2729 70.6468 63 69.8012 63C60.8396 63 51.8772 63 42.7462 63Z" fill="#14414B"/>
<path fill-rule="evenodd" clip-rule="evenodd" d="M46.0886 55C48.7432 55 51.3986 55 54.0532 55C54.761 55 55.2922 55.5458 56 55.9093C55.4688 56.2729 54.761 57 54.2297 57C48.7433 57 43.2559 57 37.7703 57C37.239 57 36.5304 56.2729 36 55.9093C36.7086 55.5458 37.239 55 37.9468 55C40.6014 55 43.2559 55 46.0886 55Z" fill="#14414B"/>
<path fill-rule="evenodd" clip-rule="evenodd" d="M25.2535 57C23.6085 57 21.9626 57 20.3168 57C19.8229 57 19.3298 56.454 19 56.0911C19.329 55.7274 19.8229 55 20.1527 55C23.6084 55 27.2275 55 30.6839 55C31.1771 55 31.5061 55.7274 32 56.0911C31.5061 56.454 31.1771 57 30.6839 57C28.874 57 27.0634 57 25.2535 57Z" fill="#14414B"/>
<path fill-rule="evenodd" clip-rule="evenodd" d="M63.5776 56.9269C62.8004 56.9269 61.8674 57.0913 61.0889 56.9269C60.7779 56.9269 60.4669 56.4345 60 56.1073C60.311 55.7793 60.622 55.2869 61.0889 55.1233C62.6446 54.9589 64.3554 54.9589 65.9111 55.1233C66.378 55.1233 66.6883 55.7793 67 56.1073C66.689 56.4345 66.2221 56.7633 65.9111 56.9269C65.1333 56.9269 64.3554 56.9269 63.5776 56.9269Z" fill="#14414B"/>
<path fill-rule="evenodd" clip-rule="evenodd" d="M29.4237 16.8302C28.8177 16.8302 28.2119 17 27.7578 16.8302C27.4548 16.6596 27.1511 16.1486 27 15.8089C27.303 15.6384 27.606 15.1274 27.9089 15.1274C28.8178 14.9575 29.7274 14.9575 30.6363 15.1274C31.0911 15.1274 31.5452 15.6384 32 15.9788C31.5452 16.3192 30.9392 16.6596 30.4851 17C30.1814 17 29.7273 16.8302 29.4237 16.8302Z" fill="#14414B"/>
<path d="M79.8932 1H4.10682C2.39102 1 1 2.44448 1 4.22631V4.77369C1 6.55551 2.39102 8 4.10682 8H79.8932C81.609 8 83 6.55551 83 4.77369V4.22631C83 2.44448 81.609 1 79.8932 1Z" fill="#14414B" stroke="#14414B" stroke-width="0.2" stroke-miterlimit="22.9256"/>
<path d="M77.6738 13H45.3262C44.5937 13 44 14.4444 44 16.2263V16.7737C44 18.5556 44.5937 20 45.3262 20H77.6738C78.4063 20 79 18.5556 79 16.7737V16.2263C79 14.4444 78.4063 13 77.6738 13Z" fill="#14414B" stroke="#14414B" stroke-width="0.2" stroke-miterlimit="22.9256"/>
</svg>
