<svg width="76" height="76" viewBox="0 0 76 76" fill="none" xmlns="http://www.w3.org/2000/svg">
<path fill-rule="evenodd" clip-rule="evenodd" d="M38.1609 75C26.6277 75 15.0953 75 3.56287 75C1.64055 75 1 74.3453 1 72.3805C1 51.9157 1 31.4508 1 10.986C1 4.76485 4.68345 1 10.7699 1C28.8703 1 46.9692 1 65.2294 1C71.3159 1 75 4.9289 75 10.986C75 31.4508 75 51.9157 75 72.3805C75 74.3453 74.3595 75 72.4372 75C61.2258 75 49.6925 75 38.1609 75ZM3.24188 14.425C4.36391 14.425 5.16422 14.425 5.96525 14.425C24.3852 14.425 42.9663 14.425 61.3863 14.425C62.1873 14.425 62.8278 15.0797 63.6288 15.4071C62.8278 15.7336 62.1873 16.0618 61.3863 16.3891C61.066 16.5524 60.5852 16.3891 60.1045 16.3891C42.0048 16.3891 23.7446 16.3891 5.64498 16.3891C4.84469 16.3891 4.04363 16.3891 3.2426 16.3891C3.2426 35.3798 3.2426 54.0438 3.2426 72.8711C26.468 72.8711 49.6933 72.8711 73.0792 72.8711C73.0792 72.2164 73.0792 71.5618 73.0792 70.9063C73.0792 50.9329 73.0792 31.1235 73.0792 11.1493C73.0792 5.9102 70.3558 3.12661 65.2301 3.12661C54.9788 3.12661 44.8879 3.12661 34.6365 3.12661C26.468 3.12661 18.4592 3.12661 10.2899 3.12661C6.28623 3.12661 3.40311 5.91018 3.08211 9.6758C3.24187 11.15 3.24188 12.6235 3.24188 14.425V14.425Z" fill="#14414B" stroke="#14414B" stroke-width="0.2646" stroke-miterlimit="22.9256"/>
<path fill-rule="evenodd" clip-rule="evenodd" d="M31.5483 28.6415C33.9673 28.6415 36.3871 28.6415 38.8061 28.6415C41.3875 28.6415 42.8384 30.0792 43 32.6353C43 39.5045 43 46.3737 43 53.2429C43 54.6806 42.355 55 41.0643 55C30.7417 55 20.2583 55 9.93569 55C8.64574 55 8 54.5206 8 53.2429C8 46.2136 8 39.3444 8 32.3151C8 29.9192 9.4516 28.6415 11.8714 28.6415C14.2904 28.6415 16.7101 28.6415 19.1292 28.6415C20.5807 21.9317 20.5807 21.7723 27.1936 22.0917C30.2576 22.0917 30.7417 22.8906 31.5483 28.6415V28.6415ZM10.2582 36.7891C10.9032 36.7891 11.7097 36.7891 12.5163 36.7891C19.7741 36.7891 27.032 36.7891 34.2906 36.7891C34.9355 36.7891 35.7422 37.4279 36.3871 37.9074C35.7422 38.2268 34.9355 38.7063 34.2906 38.7063C27.032 38.7063 19.7741 38.7063 12.5163 38.7063C11.7097 38.7063 11.0648 38.7063 10.2582 38.7063C10.2582 43.499 10.2582 48.1316 10.2582 52.9235C20.5808 52.9235 30.7417 52.9235 41.0643 52.9235C41.0643 52.1246 41.0643 51.4857 41.0643 50.8469C41.0643 45.096 41.0643 39.5045 41.0643 33.7536C41.0643 30.8781 40.7418 30.5587 38.0003 30.5587C30.4199 30.5587 22.8389 30.5587 15.2586 30.5587C9.61318 30.5587 9.29072 30.8782 10.2582 36.7891ZM29.9359 28.4815C29.2902 26.8844 29.1293 24.6478 28.4843 24.4885C26.5486 24.009 24.2905 24.0089 22.3555 24.6477C21.7098 24.8071 21.7098 27.0437 21.2257 28.4815C24.1289 28.4815 26.5486 28.4815 29.9359 28.4815Z" fill="#14414B"/>
<path fill-rule="evenodd" clip-rule="evenodd" d="M58.5 36C55.522 36 52.5448 36 49.5668 36C49.0964 36 48.6267 35.6664 48 35.4998C48.4704 35.3336 48.9401 35 49.5668 35C55.5221 35 61.6343 35 67.5896 35C68.06 35 68.5296 35.3336 69 35.5837C68.5296 35.7499 68.06 36 67.5896 36C64.6123 36 61.6343 36 58.5 36Z" fill="#14414B"/>
<path fill-rule="evenodd" clip-rule="evenodd" d="M58.5 55C55.522 55 52.7011 55 49.7231 55C49.0964 55 48.626 54.3328 48 53.9996C48.4704 53.6672 49.0971 53 49.5668 53C55.5221 53 61.478 53 67.4333 53C67.9037 53 68.5303 53.6672 69 53.9996C68.3733 54.3328 67.9029 55 67.2762 55C64.4553 55 61.478 55 58.5 55V55Z" fill="#14414B"/>
<path fill-rule="evenodd" clip-rule="evenodd" d="M56.5774 30C54.2382 30 51.8984 30 49.4037 30C48.9355 30 48.4681 29.636 48 29.4547C48.4681 29.2729 48.9355 29 49.4037 29C54.0827 29 58.9173 29 63.5963 29C64.0645 29 64.5319 29.2729 65 29.4547C64.5319 29.636 64.0645 30 63.5963 30C61.2565 30 58.9173 30 56.5774 30Z" fill="#14414B"/>
<path fill-rule="evenodd" clip-rule="evenodd" d="M56.4996 47.8337C54.1817 47.8337 51.863 47.8337 49.3909 47.8337C48.9271 47.8337 48.4639 47.1663 48 46.8337C48.4639 46.5004 49.0819 46 49.5451 46C54.1817 46 58.8183 46 63.4549 46C63.9188 46 64.382 46.6667 65 47C64.5361 47.3333 63.9181 47.8337 63.4549 48C61.1362 48 58.8183 47.8337 56.4996 47.8337Z" fill="#14414B"/>
<path fill-rule="evenodd" clip-rule="evenodd" d="M26 43.0677C26.7137 43.0677 27.4281 42.9158 28 43.0677C28.4281 43.2189 28.7137 43.674 29 43.9772C28.7144 44.2803 28.2856 44.8866 28 44.8866C26.7137 45.0378 25.4281 45.0378 24.1424 44.8866C23.7137 44.8866 23.4288 44.2803 23 43.8252C23.4288 43.5221 23.7137 43.2183 24.1424 43.067C24.7143 42.9158 25.2856 43.0677 26 43.0677Z" fill="#14414B"/>
<path d="M40.7495 33H10.2505C9.55989 33 9 34.0318 9 35.3047V35.6953C9 36.9682 9.55989 38 10.2505 38H40.7495C41.4401 38 42 36.9682 42 35.6953V35.3047C42 34.0318 41.4401 33 40.7495 33Z" fill="#14414B" stroke="#14414B" stroke-width="0.2" stroke-miterlimit="22.9256"/>
<path d="M69.1664 34H48.8336C48.3732 34 48 34.6191 48 35.3828V35.6172C48 36.3809 48.3732 37 48.8336 37H69.1664C69.6268 37 70 36.3809 70 35.6172V35.3828C70 34.6191 69.6268 34 69.1664 34Z" fill="#14414B" stroke="#14414B" stroke-width="0.2" stroke-miterlimit="22.9256"/>
<path d="M65.2042 27H45.7957C45.3562 27 45 27.6191 45 28.3828V28.6172C45 29.3809 45.3562 30 45.7957 30H65.2042C65.6437 30 66 29.3809 66 28.6172V28.3828C66 27.6191 65.6437 27 65.2042 27Z" fill="#14414B" stroke="#14414B" stroke-width="0.2" stroke-miterlimit="22.9256"/>
<path d="M67.2043 45H47.7958C47.3563 45 47 45.8255 47 46.8438V47.1562C47 48.1745 47.3563 49 47.7958 49H67.2043C67.6438 49 68 48.1745 68 47.1562V46.8438C68 45.8255 67.6438 45 67.2043 45Z" fill="#14414B" stroke="#14414B" stroke-width="0.2" stroke-miterlimit="22.9256"/>
<path d="M71.2719 3H4.72809C3.22142 3 2 5.47639 2 8.53115V9.46893C2 12.5237 3.22142 15 4.72809 15H71.2719C72.7786 15 74 12.5237 74 9.46893V8.53115C74 5.47639 72.7786 3 71.2719 3Z" fill="#14414B" stroke="#14414B" stroke-width="0.2" stroke-miterlimit="22.9256"/>
<path d="M60 12C61.6568 12 63 10.433 63 8.50004C63 6.56705 61.6568 5 60 5C58.3431 5 57 6.56705 57 8.50004C57 10.433 58.3431 12 60 12Z" fill="white" stroke="#14414B" stroke-width="0.2" stroke-miterlimit="22.9256"/>
<path d="M54.5 12C55.8807 12 57 10.433 57 8.50004C57 6.56705 55.8807 5 54.5 5C53.1193 5 52 6.56705 52 8.50004C52 10.433 53.1193 12 54.5 12Z" fill="white" stroke="#14414B" stroke-width="0.2" stroke-miterlimit="22.9256"/>
<path d="M67 12C68.6569 12 70 10.433 70 8.50004C70 6.56705 68.6569 5 67 5C65.3432 5 64 6.56705 64 8.50004C64 10.433 65.3432 12 67 12Z" fill="white" stroke="#14414B" stroke-width="0.2" stroke-miterlimit="22.9256"/>
</svg>
