<svg width="86" height="66" viewBox="0 0 86 66" fill="none" xmlns="http://www.w3.org/2000/svg">
<path fill-rule="evenodd" clip-rule="evenodd" d="M86 4.88826C86 23.7255 86 42.562 86 61.2552C84.5452 64.9941 83.0898 66 78.8699 66C67.2284 66 55.7327 66 44.0912 66C31.4317 66 18.6264 66 5.96623 66C2.47412 66 0 63.5552 0 60.1045C0 59.242 0 58.3788 0 57.5163C0 40.4054 0 23.2939 0 6.03895C0 3.30732 1.45542 1.15003 3.92886 0.28751C4.21982 0.143426 4.51146 0.143421 4.80174 0C30.2672 0 55.5869 0 81.0531 0C82.0718 0.43159 83.0898 0.862536 83.9633 1.58163C85.1271 2.44415 85.5639 3.73824 86 4.88826V4.88826ZM3.78371 14.0911C3.78371 14.5227 3.78371 14.8102 3.78371 14.9536C3.78371 30.0519 3.78371 45.1502 3.78371 60.392C3.78371 62.1177 4.22051 62.5486 5.96623 62.5486C30.8492 62.5486 55.5876 62.5486 80.4705 62.5486C82.2169 62.5486 82.6536 62.117 82.6536 60.392C82.6536 45.2937 82.6536 30.1953 82.6536 14.9536C82.6536 14.6667 82.6536 14.3786 82.6536 14.0911C56.1695 14.0911 29.9763 14.0911 3.78371 14.0911ZM67.811 8.05217C67.811 6.47056 66.5014 5.17642 64.9008 5.17642C63.3002 5.17642 61.9906 6.47056 61.9906 8.05217C61.9906 9.63378 63.3002 10.7838 64.755 10.9279C66.5013 10.7838 67.6652 9.63378 67.811 8.05217ZM77.5603 8.05217C77.5603 6.47056 76.2507 5.17642 74.6501 5.17642C73.0495 5.17642 71.7399 6.47056 71.7399 8.05217C71.7399 9.63378 73.0495 10.7838 74.5043 10.9279C76.2507 10.7838 77.4145 9.63378 77.5603 8.05217ZM58.0611 7.90874C58.0611 6.32713 56.7514 5.03305 55.1508 5.03305C53.5502 5.03305 52.3864 6.32713 52.2406 7.90874C52.2406 9.48968 53.5502 10.7838 55.1508 10.7838C56.7514 10.7838 58.0611 9.48968 58.0611 7.90874Z" fill="#14414B"/>
<path fill-rule="evenodd" clip-rule="evenodd" d="M77 19C77 28.6664 77 38.3336 77 48C54.3331 48 31.8127 48 9 48C9 38.3336 9 28.6664 9 19C31.6669 19 54.3331 19 77 19ZM30.0584 33.5C30.3508 40.4047 36.3465 45.5143 43.5119 45.2382C50.5313 44.9621 56.0881 39.3003 55.6499 32.5339C55.3575 26.0437 49.3617 20.7957 42.6347 21.0718C35.3228 21.3473 29.7654 27.0091 30.0584 33.5Z" fill="#14414B"/>
<path fill-rule="evenodd" clip-rule="evenodd" d="M47.8568 25.357C46.3681 26.2388 45.9619 27.1213 47.0449 28.7383C48.128 30.5027 48.263 32.4137 47.5862 34.3247C47.1806 35.5011 46.91 36.6769 46.5038 38C45.4207 34.4713 44.3376 31.2372 43.2558 28.0025C43.662 28.0025 43.932 28.0024 44.2032 27.8558C44.3382 27.8558 44.4738 27.5619 44.6095 27.4146C44.4738 27.2679 44.3389 27.1206 44.2032 27.1206C42.7146 27.1206 41.2253 27.1206 39.7372 27.1206C39.6016 27.1206 39.4666 27.4146 39.331 27.4146C39.466 27.5612 39.601 27.8558 39.7372 27.8558C40.5491 27.7092 40.6847 28.4437 40.9553 29.0323C41.9028 31.0899 41.9028 33.0016 40.9553 35.0599C40.5491 35.9417 40.2785 36.9709 39.8722 37.8527C38.7892 34.6186 37.8423 31.3839 36.7592 28.0025C37.0299 28.0025 37.3005 28.0024 37.5711 27.8558C37.8417 27.7092 37.9773 27.5619 38.1129 27.4146C37.9773 27.2679 37.7067 27.1206 37.5711 27.1206C36.7593 27.1206 35.9468 27.2679 35 27.2679C36.6237 23.1513 43.5258 21.093 47.8568 25.357V25.357Z" fill="#14414B"/>
<path fill-rule="evenodd" clip-rule="evenodd" d="M45 42.5683C42.9 43.1186 41.1 43.1186 39 42.7056C39.9004 40.2288 40.9503 37.7519 41.9996 35C43.0503 37.6147 43.95 40.0915 45 42.5683Z" fill="#14414B"/>
<path fill-rule="evenodd" clip-rule="evenodd" d="M33.834 29C35.2227 33 36.6107 37 38 41C34.1116 39.5182 31.6125 33.444 33.834 29Z" fill="#14414B"/>
<path fill-rule="evenodd" clip-rule="evenodd" d="M50.0369 29C52.1885 33.0485 50.5435 38.9764 47 41C47.6329 38.9764 48.2657 37.0963 48.7718 35.0728C49.4046 33.1927 50.2905 31.3133 50.0369 29Z" fill="#14414B"/>
<path fill-rule="evenodd" clip-rule="evenodd" d="M61.5033 59.8232C56.8965 59.8232 52.1408 59.8232 47.5333 59.8232C46.493 59.8232 45.7498 59.2936 45.3044 58.2352C44.8584 56.9992 44.8584 55.9408 45.6016 55.0592C46.0476 54.5296 46.7909 54 47.3852 54C56.7476 54 66.259 54 75.6215 54C76.959 54 78 55.236 78 57C78 58.7648 76.959 60 75.6215 60C70.8665 59.8232 66.259 59.8232 61.5033 59.8232Z" fill="#14414B"/>
<path fill-rule="evenodd" clip-rule="evenodd" d="M23.5 60C19.178 60 15.0054 60 10.6827 60C9.04337 60 8 58.764 8 57C8 55.236 9.04337 54 10.6827 54C19.1773 54 27.822 54 36.3173 54C37.9566 54 39 55.236 39 57C39 58.764 37.9566 60 36.3173 60C31.9953 60 27.6734 60 23.5 60Z" fill="#14414B"/>
</svg>
