<svg width="80" height="72" viewBox="0 0 80 72" fill="none" xmlns="http://www.w3.org/2000/svg">
<path fill-rule="evenodd" clip-rule="evenodd" d="M1 63.7355C1 42.4438 1 21.2924 1 0C1.72102 0 2.58584 0 3.30686 0C27.8169 0 52.1831 0 76.6932 0C77.4135 0 78.1345 0 79 0C79 21.2917 79 42.4431 79 63.7355C73.9535 63.7355 69.0522 63.7355 63.8613 63.7355C63.8613 65.1359 63.8613 66.2568 63.8613 67.3778C63.8613 70.1792 61.9871 72 59.1037 72C46.2725 72 33.4399 72 20.6087 72C17.8697 72 16.1394 70.1792 15.995 67.5175C15.995 66.2568 15.995 64.9961 15.995 63.5958C10.9485 63.7355 5.90201 63.7355 1 63.7355V63.7355ZM32.2868 37.1203C35.8906 37.1203 39.4957 37.1203 43.0994 37.1203C47.4256 37.1203 47.4255 37.1203 48.4342 41.0427C48.7225 42.1637 49.299 42.4431 50.3083 42.4431C53.1917 42.4431 56.2196 42.4431 59.103 42.4431C61.9864 42.4431 63.7168 44.2646 63.7168 46.9257C63.7168 50.9878 63.7168 55.0504 63.7168 59.1125C63.7168 59.9528 63.7168 60.7937 63.7168 61.6339C68.4743 61.6339 72.9442 61.6339 77.2697 61.6339C77.2697 44.9651 77.2697 28.4353 77.2697 11.7665C52.1831 11.7665 27.3842 11.7665 2.44205 11.7665C2.44205 28.4353 2.44205 45.1048 2.44205 61.6339C6.91131 61.6339 11.3805 61.6339 15.8498 61.6339C15.8498 56.8713 15.8498 52.1087 15.8498 47.4865C15.8498 43.9845 17.4357 42.4431 21.0401 42.3034C24.2124 42.3034 27.3841 42.3034 30.7003 42.3034C31.4213 40.6229 31.8541 38.9418 32.2868 37.1203V37.1203ZM40.2167 44.2646C34.0171 44.2646 27.6731 44.2646 21.4735 44.2646C19.0222 44.2646 18.1573 45.1048 18.0135 47.6261C18.0135 48.7471 18.1573 49.7271 18.0135 50.848C17.7253 53.5091 19.0228 55.4703 21.1852 57.0117C22.4828 57.8519 23.7804 58.6927 25.2224 59.2529C34.8826 62.8952 44.6867 62.8953 54.3462 59.3933C60.834 57.0117 62.1316 54.9107 62.1316 48.0466C62.1316 45.2451 61.2668 44.4043 58.3827 44.4043C52.4714 44.2646 46.2718 44.2646 40.2167 44.2646V44.2646ZM77.5579 1.96121C52.4714 1.96121 27.5286 1.96121 2.58583 1.96121C2.58583 4.62292 2.58583 7.14423 2.58583 9.80529C27.6724 9.80529 52.4714 9.80529 77.5579 9.80529C77.5579 7.00387 77.5579 4.48256 77.5579 1.96121ZM32.8627 42.3034C37.6209 42.3034 42.2347 42.3034 46.9922 42.3034C46.7039 41.1825 46.415 40.0621 46.1273 39.0815C41.9464 39.0815 37.9092 39.0815 33.7275 39.0815C33.4399 40.0628 33.2954 41.1831 32.8627 42.3034Z" fill="#14414B"/>
<path fill-rule="evenodd" clip-rule="evenodd" d="M33 15C33 20.8084 33 26.3336 33 32C24.6213 32 16.3787 32 8 32C8 26.3336 8 20.6664 8 15C16.3787 15 24.6219 15 33 15ZM31.244 29.7333C31.244 25.4832 31.244 21.8002 31.244 17.6913C19.4595 24.6766 21.2417 22.8953 31.244 29.7333ZM9.75724 29.5914C20.7187 22.0978 20.8373 24.984 9.75724 17.4087C9.75724 21.6582 9.75724 25.4838 9.75724 29.5914ZM28.5408 30.4418C28.5408 30.3005 28.5408 30.1592 28.6756 30.0166C26.1084 28.3164 23.6759 26.7588 21.1081 25.0586C20.8385 24.9167 20.2975 24.7754 20.1621 24.9167C17.4595 26.6169 14.8917 28.3164 12.3238 30.0166C12.3238 30.1585 12.4592 30.1586 12.4592 30.2999C17.8651 30.4418 23.2709 30.4418 28.5408 30.4418V30.4418ZM29.2166 16.8422C23.2703 16.8422 17.8651 16.8422 11.9188 16.8422C14.8923 18.825 17.4595 20.5252 20.0273 22.0834C20.2969 22.2254 20.7025 22.3667 20.9733 22.2254C23.5405 20.5252 26.1084 18.825 29.2166 16.8422Z" fill="#14414B"/>
<path fill-rule="evenodd" clip-rule="evenodd" d="M73 15C73 20.7142 73 26.2858 73 32C60.6667 32 48.477 32 36 32C36 26.4283 36 20.7142 36 15C48.3327 15 60.523 15 73 15Z" fill="#14414B"/>
<path fill-rule="evenodd" clip-rule="evenodd" d="M29 53C29 52.0632 29 51.1256 29 50C30.486 50 31.972 50 33.2932 50C38.4114 50 43.5304 50 48.6478 50C50.464 50 51.4551 50.5627 50.7949 53C43.5297 53 36.4291 53 29 53V53Z" fill="#14414B"/>
<path fill-rule="evenodd" clip-rule="evenodd" d="M50.7763 57C43.5173 57 36.4236 57 29 57C29 56.3749 29 55.7498 29 55C30.8146 55 32.6299 55 34.4437 55C39.2277 55 43.8471 55 48.6319 55C50.6118 55 51.436 55.3746 50.7763 57Z" fill="#14414B"/>
<path fill-rule="evenodd" clip-rule="evenodd" d="M69 34C69 36.3535 69 38.6472 69 41C64.3328 41 59.7203 41 55 41C55 38.7062 55 36.3535 55 34C59.6664 34 64.2789 34 69 34Z" fill="#14414B"/>
<path d="M77.3205 1H2.67949C1.75193 1 1 2.17282 1 3.61959V8.38041C1 9.82718 1.75193 11 2.67949 11H77.3205C78.248 11 79 9.82718 79 8.38041V3.61959C79 2.17282 78.248 1 77.3205 1Z" fill="#14414B" stroke="#14414B" stroke-width="0.2" stroke-miterlimit="22.9256"/>
<path d="M48.2569 5H5.74309C4.7804 5 4 5.82552 4 6.84385V7.15615C4 8.17448 4.7804 9 5.74309 9H48.2569C49.2196 9 50 8.17448 50 7.15615V6.84385C50 5.82552 49.2196 5 48.2569 5Z" fill="white" stroke="#14414B" stroke-width="0.2" stroke-miterlimit="22.9256"/>
</svg>
