<svg width="84" height="73" viewBox="0 0 84 73" fill="none" xmlns="http://www.w3.org/2000/svg">
<path fill-rule="evenodd" clip-rule="evenodd" d="M69.295 44C71.7216 44 74.2905 44 76.7164 44C78.2863 44 79 44.7463 79 46.388C79 48.1792 79 49.9704 79 51.7616C79 53.2537 78.2863 54 77.0018 54C71.8639 54 66.726 54 61.5881 54C60.5884 54 59.8753 53.552 60.0183 52.3583C60.0183 50.2687 60.0183 48.0303 60.0183 45.9407C60.0183 44.5975 60.589 44.1495 61.7311 44.1495C64.1571 44 66.726 44 69.295 44V44ZM76.145 51.3136C76.145 49.8208 76.145 48.1792 76.145 46.5375C71.7209 46.5375 67.2961 46.5375 62.8726 46.5375C62.8726 48.1792 62.8726 49.672 62.8726 51.3136C67.2967 51.3136 71.5785 51.3136 76.145 51.3136Z" fill="#14414B"/>
<path fill-rule="evenodd" clip-rule="evenodd" d="M71 36C71 36.357 71 36.643 71 37C69.105 37 67.2107 37 65.1582 37C65.1582 36.7143 65.1582 36.357 65 36C67.21 36 69.105 36 71 36Z" fill="#14414B"/>
<path fill-rule="evenodd" clip-rule="evenodd" d="M82 33C82 35.6888 82 38.3112 82 41C72.9995 41 64.1049 41 55 41C55 38.3777 55 35.6888 55 33C63.9998 33 72.8951 33 82 33Z" fill="#14414B"/>
<path fill-rule="evenodd" clip-rule="evenodd" d="M73 36C73 36.3361 73 36.6639 73 37C70.3336 37 67.6973 37 65 37C65 36.6722 65 36.3361 65 36C67.6664 36 70.302 36 73 36Z" fill="white"/>
<path fill-rule="evenodd" clip-rule="evenodd" d="M7 47C7 49.0167 7 50.9827 7 53C5.33307 53 3.68599 53 2 53C2 51.0334 2 49.0167 2 47C3.66693 47 5.31401 47 7 47Z" fill="#14414B"/>
<path fill-rule="evenodd" clip-rule="evenodd" d="M39.783 10C48.8913 10 58.1445 10 67.2528 10C70 10 70 10.1396 70 12.8C70 15.8799 69.8558 18.8203 70 21.9002C70 23.4402 69.277 24 67.9758 24C67.6867 24 67.2528 24 66.9637 24C48.8913 24 30.8189 24 12.7466 24C9.99998 24 10 24 10 21.3403C10 18.2597 10 15.1797 10 12.0998C10 10.5598 10.5782 10.1397 12.1684 10.1397C21.2767 10 30.5299 10 39.783 10V10ZM12.7472 12.2395C12.7472 15.4597 12.7472 18.4 12.7472 21.3403C30.9645 21.3403 49.1811 21.3403 67.2528 21.3403C67.2528 18.2597 67.2528 15.32 67.2528 12.2395C49.0362 12.2395 30.9638 12.2395 12.7472 12.2395Z" fill="#14414B"/>
<path fill-rule="evenodd" clip-rule="evenodd" d="M28.3463 72.8531C28.3463 72.1207 28.3463 71.3877 28.3463 70.5077C29.682 70.5077 30.8689 70.3615 32.2046 70.3615C32.2046 66.2569 32.2046 62.4454 32.2046 58.3415C31.4631 58.3415 30.7209 58.3415 30.1274 58.3415C20.9258 58.3415 11.7242 58.3415 2.52258 58.3415C0.147997 58.3415 0 58.1946 0 55.8493C0 38.113 0 20.2292 0 2.49229C0 0.293786 0.148019 0 2.37458 0C28.7918 0 55.2082 0 81.6254 0C83.8513 0 84 0.146893 84 2.34607C84 10.4077 84 18.3238 84 26.3861C81.3287 27.1185 81.1799 26.8254 81.1799 24.3338C81.1799 17.7369 81.1799 11.2877 81.1799 4.69148C81.1799 4.1053 81.1799 3.37222 81.1799 2.63916C55.0602 2.63916 29.0885 2.63916 2.96873 2.63916C2.96873 16.2715 2.96873 29.9045 2.96873 43.683C3.85895 43.683 4.60113 43.683 5.64005 43.683C5.64005 42.95 5.64005 42.2169 5.64005 41.4838C5.64005 30.1969 5.64005 18.7637 5.64005 7.47679C5.64005 5.13073 5.78876 4.8377 8.31138 4.8377C30.8696 4.8377 53.4285 4.8377 75.986 4.8377C78.3613 4.8377 78.9541 5.27763 78.9541 7.62301C78.9541 13.193 78.9541 18.7637 78.9541 24.3338C78.9541 26.6792 78.9541 26.8254 76.1347 26.3861C76.1347 20.083 76.1347 13.7792 76.1347 7.32992C53.5765 7.32992 31.315 7.32992 8.75682 7.32992C8.75682 19.3499 8.75682 31.3699 8.75682 43.683C22.2621 43.683 35.7675 43.683 49.2728 43.683C49.2728 44.5623 49.2728 45.2947 49.2728 46.1746C33.8383 46.1746 18.5526 46.1746 3.11744 46.1746C3.11744 49.3999 3.11744 52.4777 3.11744 55.8493C18.4039 55.8493 33.8383 55.8493 49.2728 55.8493C49.2728 56.7285 49.2728 57.4615 49.2728 58.3415C44.6723 58.3415 40.0712 58.3415 35.322 58.3415C35.322 62.4454 35.322 66.2569 35.322 70.5077C40.3679 70.5077 45.4138 70.5077 50.6085 70.5077C50.6085 71.5339 50.6085 72.2669 50.6085 73C43.1873 72.8531 35.7668 72.8531 28.3463 72.8531V72.8531Z" fill="#14414B"/>
<path fill-rule="evenodd" clip-rule="evenodd" d="M53.4495 72.8508C53.3001 72.1071 53 71.3626 53 70.6182C53 58.114 53 45.7583 53 33.2548C53 31.4683 53.5989 30.8723 55.3962 31.0221C64.2319 31.0221 72.9182 31.0221 81.7539 31.0221C83.4011 31.0221 84 31.6175 84 33.2548C84 45.7583 84 58.2632 84 70.7667C84 71.5111 83.5505 72.2556 83.2518 73C73.2176 72.8508 63.3336 72.8508 53.4495 72.8508V72.8508ZM80.8549 64.2173C80.8549 56.3275 80.8549 48.7353 80.8549 40.9947C72.4687 40.9947 64.2319 40.9947 55.8456 40.9947C55.8456 48.8845 55.8456 56.4766 55.8456 64.2173C64.3819 64.2173 72.4687 64.2173 80.8549 64.2173ZM80.8549 33.5517C72.3193 33.5517 64.0818 33.5517 55.8456 33.5517C55.8456 35.1891 55.8456 36.6787 55.8456 38.3153C64.2319 38.3153 72.468 38.3153 80.8549 38.3153C80.8549 36.6787 80.8549 35.1891 80.8549 33.5517ZM81.005 66.7476C72.4687 66.7476 64.2319 66.7476 55.995 66.7476C55.995 67.9388 55.995 69.13 55.995 70.1714C64.3812 70.1714 72.7681 70.1714 81.005 70.1714C81.005 68.9802 81.005 67.9381 81.005 66.7476Z" fill="#14414B"/>
<path fill-rule="evenodd" clip-rule="evenodd" d="M20.9997 42C18.3891 42 15.6253 42 13.0154 42C11.6335 42 10.8656 41.546 11.0194 40.0335C11.0194 36.4023 11.0194 32.6202 11.0194 28.9897C11.0194 27.4765 11.6335 26.8715 13.0154 27.0224C18.3898 27.0224 23.6097 27.0224 28.9841 27.0224C30.366 27.0224 31.1339 27.4765 30.9807 28.9897C30.9807 32.7711 30.9807 36.5539 30.9807 40.1844C30.9807 41.3951 30.5198 42 29.1379 42C26.3734 42 23.7635 42 20.9997 42V42ZM28.5232 29.5946C23.6097 29.5946 18.8492 29.5946 13.9357 29.5946C13.9357 32.9233 13.9357 36.0998 13.9357 39.4279C18.5422 39.4279 22.8418 39.4279 27.2945 39.4279C27.7553 39.4279 28.3694 38.672 28.3694 38.3688C28.5232 35.4948 28.5232 32.6201 28.5232 29.5946Z" fill="#14414B"/>
<path fill-rule="evenodd" clip-rule="evenodd" d="M47 33C47 34.0003 47 34.9997 47 36C42.3826 36 37.7659 36 33 36C33 34.9997 33 34.0003 33 33C37.6167 33 42.2341 33 47 33Z" fill="#14414B"/>
<path fill-rule="evenodd" clip-rule="evenodd" d="M33 38C37.7659 38 42.2341 38 47 38C47 39.0003 47 40.0006 47 41C42.3826 41 37.7659 41 33 41C33 40.0006 33 39.0012 33 38Z" fill="#14414B"/>
<path fill-rule="evenodd" clip-rule="evenodd" d="M45 28C45 28.714 45 29.286 45 30C41.0005 30 36.9995 30 33 30C33 29.286 33 28.714 33 28C36.8392 28 40.8394 28 45 28Z" fill="#14414B"/>
<path fill-rule="evenodd" clip-rule="evenodd" d="M77 46C77 48.3534 77 50.6473 77 53C71.6669 53 66.3958 53 61 53C61 50.7062 61 48.3534 61 46C66.3331 46 71.6049 46 77 46Z" fill="#14414B"/>
<path fill-rule="evenodd" clip-rule="evenodd" d="M68 10C68 14.0339 68 17.9661 68 22C49.3336 22 30.884 22 12 22C12 18.0671 12 14.0339 12 10C30.6664 10 49.1166 10 68 10Z" fill="#14414B"/>
<path fill-rule="evenodd" clip-rule="evenodd" d="M81 2C81 3.34473 81 4.65527 81 6C54.666 6 28.6399 6 2 6C2 4.68887 2 3.34473 2 2C28.3327 2 54.3601 2 81 2Z" fill="#14414B"/>
<path fill-rule="evenodd" clip-rule="evenodd" d="M49 50C49 52.3528 49 54.6465 49 57C33.3329 57 17.8485 57 2 57C2 54.7056 2 52.3528 2 50C17.6664 50 33.1509 50 49 50Z" fill="#14414B"/>
</svg>
