<svg width="1440" height="995" viewBox="0 0 1440 995" fill="none" xmlns="http://www.w3.org/2000/svg">
<g filter="url(#filter0_d)">
<mask id="mask0" mask-type="alpha" maskUnits="userSpaceOnUse" x="-1571" y="247" width="4016" height="641">
<path fill-rule="evenodd" clip-rule="evenodd" d="M-1548.99 247.96L-1558.78 528.289L2434.8 667.665L2444.67 384.755C2360.19 402.438 2302.61 500.193 2179.05 433.242C2107.91 394.69 2061.66 322.373 1942.37 385.022C1850.15 433.452 1804.44 479.294 1688.9 392.147C1598.81 324.201 1537.44 336.021 1450.84 392.522C1329.94 471.404 1272.65 390.88 1198.05 351.299C1076.65 286.885 1021.73 377.635 957.095 398.371C821.733 441.795 790.441 334.291 697.419 318.125C563.763 294.895 565.686 392.548 445.282 390.122C315.94 387.519 323.477 283.755 187.11 300.994C88.2512 313.486 65.903 408.871 -68.2619 364.547C-136.167 342.116 -191.922 238.616 -314.8 299.346C-386.82 334.94 -448.269 403.817 -562.795 326.41C-842.813 137.142 -772.34 477.167 -1051.22 283.211C-1167.31 202.472 -1225.08 282.819 -1299.32 313.478C-1423.57 364.789 -1474.73 271.845 -1548.99 247.96Z" fill="url(#paint0_linear)"/>
<path fill-rule="evenodd" clip-rule="evenodd" d="M-1570.51 745.566L-1560.72 465.238L2432.84 604.917L2422.96 887.828C2339.92 864.291 2289.3 762.756 2161.37 820.92C2087.71 854.413 2036.54 923.327 1921.9 852.505C1833.29 797.757 1790.88 748.836 1669.55 827.707C1574.94 889.201 1514.54 873.125 1432.09 810.718C1316.99 723.591 1254.22 799.92 1177.05 834.199C1051.45 889.983 1002.99 795.621 939.959 770.424C807.956 717.659 769.242 822.718 675.32 832.352C540.368 846.197 549.099 748.916 428.818 742.933C299.61 736.504 299.892 840.54 165.059 813.827C67.3124 794.465 51.6714 697.753 -85.258 732.605C-154.562 750.242 -217.4 849.599 -335.743 780.441C-405.105 739.907 -461.6 666.91 -581.246 736.136C-873.783 905.399 -779.766 571.121 -1071.49 745.141C-1192.93 817.582 -1244.96 733.398 -1316.88 697.632C-1437.25 637.775 -1494.77 726.922 -1570.51 745.566Z" fill="url(#paint1_linear)"/>
</mask>
<g mask="url(#mask0)">
<rect x="-2580.02" y="-376.485" width="8624.68" height="2455.93" transform="rotate(2 -2580.02 -376.485)" fill="url(#paint2_linear)"/>
</g>
</g>
<g filter="url(#filter1_d)">
<mask id="mask1" mask-type="alpha" maskUnits="userSpaceOnUse" x="-2646" y="240" width="5094" height="818">
<path fill-rule="evenodd" clip-rule="evenodd" d="M-2617.91 240.842L-2630.42 599.145L2435.05 775.911L2447.67 414.308C2340.5 436.939 2267.43 561.903 2110.73 476.373C2020.51 427.123 1961.87 334.707 1810.54 414.823C1693.56 476.755 1635.56 535.363 1489.03 424.016C1374.79 337.203 1296.94 352.332 1187.07 424.578C1033.69 525.441 961.053 422.541 866.446 371.977C712.481 289.688 642.784 405.698 560.796 432.224C389.086 487.773 349.43 350.378 231.446 329.748C61.921 300.103 64.3284 424.917 -88.3938 421.858C-252.452 418.574 -242.857 285.947 -415.834 308.027C-541.232 324.028 -569.611 445.952 -739.773 389.346C-825.898 360.699 -896.583 228.431 -1052.46 306.095C-1143.83 351.614 -1221.79 439.67 -1367.03 340.771C-1722.15 98.9574 -1632.88 533.532 -1986.55 285.726C-2133.77 182.569 -2207.08 285.284 -2301.25 324.497C-2458.87 390.123 -2523.73 271.344 -2617.91 240.842Z" fill="url(#paint3_linear)"/>
<path fill-rule="evenodd" clip-rule="evenodd" d="M-2645.38 876.859L-2632.87 518.556L2432.59 695.701L2419.97 1057.3C2314.63 1027.25 2250.46 897.491 2088.18 971.877C1994.73 1014.71 1929.8 1102.81 1784.42 1012.33C1672.04 942.384 1618.27 879.871 1464.34 980.722C1344.32 1059.35 1267.71 1038.83 1163.15 959.091C1017.18 847.77 937.544 945.351 839.641 989.19C680.312 1060.53 618.875 939.943 538.937 907.76C371.52 840.364 322.378 974.657 203.243 987.003C32.0634 1004.75 43.1697 880.405 -109.394 872.799C-273.282 864.627 -272.959 997.6 -443.975 963.503C-567.951 938.79 -587.758 815.184 -761.454 859.777C-849.367 882.344 -929.104 1009.36 -1079.19 921.005C-1167.16 869.221 -1238.79 775.94 -1390.57 864.462C-1761.69 1080.91 -1642.32 653.619 -2012.41 876.142C-2166.47 968.774 -2232.44 861.194 -2323.65 815.505C-2476.31 739.04 -2549.3 853.003 -2645.38 876.859Z" fill="url(#paint4_linear)"/>
</mask>
<g mask="url(#mask1)">
<rect x="-3925.48" y="-556.937" width="10939.6" height="3139.06" transform="rotate(2 -3925.48 -556.937)" fill="url(#paint5_linear)"/>
<rect x="-3925.48" y="-556.937" width="10939.6" height="3139.06" transform="rotate(2 -3925.48 -556.937)" fill="#005898" fill-opacity="0.13"/>
</g>
</g>
<g filter="url(#filter2_d)">
<mask id="mask2" mask-type="alpha" maskUnits="userSpaceOnUse" x="-5865" y="119" width="7889" height="1089">
<path fill-rule="evenodd" clip-rule="evenodd" d="M-5825.18 138.957L-5842.54 536.697L2005.6 879.139L2023.12 477.736C1857.23 499.791 1744.74 636.529 1501.5 536.981C1361.45 479.659 1270.11 375.288 1036.12 459.94C855.24 525.378 765.719 588.824 538.103 460.885C360.638 361.135 240.118 375.7 70.3266 452.803C-166.715 560.447 -279.818 444.023 -426.662 385.115C-665.638 289.247 -772.957 416.134 -899.82 443.242C-1165.51 500.011 -1227.72 346.211 -1410.61 319.889C-1673.39 282.063 -1668.96 420.81 -1905.57 413.007C-2159.74 404.629 -2145.62 257.548 -2413.46 277.093C-2607.63 291.256 -2650.91 425.903 -2914.83 358.105C-3048.41 323.793 -3158.66 174.795 -3399.7 256.592C-3540.98 304.533 -3661.27 400.121 -3886.82 286.05C-4438.31 7.13898 -4297.57 492.557 -4846.84 207.03C-5075.49 88.1707 -5188.48 200.181 -5334.15 241.034C-5577.96 309.404 -5679.11 175.563 -5825.18 138.957Z" fill="url(#paint6_linear)"/>
<path fill-rule="evenodd" clip-rule="evenodd" d="M-5864.14 844.806L-5846.78 447.066L2001.35 789.937L1983.82 1191.34C1820.48 1154.91 1720.34 1008.89 1469.35 1086.86C1324.84 1131.76 1224.74 1227.77 999.023 1123.05C824.535 1042.09 740.884 971.086 502.983 1078.7C317.5 1162.6 198.708 1137.59 36.2819 1045.98C-190.475 918.087 -313.294 1024.21 -464.714 1070.1C-711.136 1144.77 -806.988 1009.01 -931.005 970.952C-1190.74 891.243 -1266.11 1039.04 -1450.6 1049.32C-1715.68 1064.1 -1699.17 926.264 -1935.56 913.415C-2189.49 899.609 -2188.25 1047.36 -2453.36 1004.55C-2645.56 973.514 -2676.94 835.607 -2945.77 880.145C-3081.83 902.684 -3204.64 1041.51 -3437.64 939.013C-3574.21 878.941 -3685.7 773.233 -3920.34 867.212C-4494.04 1097 -4311.52 625.691 -4883.6 862.26C-5121.73 960.738 -5224.53 839.307 -5366.09 785.913C-5603.01 696.554 -5715.43 821.071 -5864.14 844.806Z" fill="url(#paint7_linear)"/>
</mask>
<g mask="url(#mask2)">
<path fill-rule="evenodd" clip-rule="evenodd" d="M332.613 745.857C318.904 747.497 297.761 734.621 288.73 728.062C280.754 722.269 273.442 726.466 260.877 726.035C223.486 724.749 170.357 694.305 243.622 665.619C263.932 657.667 263.554 664.748 283.265 646.04C327.188 604.354 316.815 650.014 324.003 668.042C337.195 701.127 370.722 663.141 391.264 673.026C405.631 685.815 402.686 722.737 379.42 719.737C368.871 718.377 354.123 710.018 348.918 710.056C348.363 710.06 320.424 717.31 318.154 717.975C321.485 727.003 331.735 739.281 332.613 745.857Z" fill="#0E465C" fill-opacity="0.45"/>
<rect x="-7016.22" y="-397" width="9788.41" height="2012.46" transform="rotate(2.5 -7016.22 -397)" fill="url(#paint8_linear)"/>
<rect x="-7016.22" y="-397" width="9788.41" height="2012.46" transform="rotate(2.5 -7016.22 -397)" fill="#090070" fill-opacity="0.2"/>
</g>
</g>
<g filter="url(#filter3_d)">
<mask id="mask3" mask-type="alpha" maskUnits="userSpaceOnUse" x="-5247" y="162" width="9198" height="1146">
<path fill-rule="evenodd" clip-rule="evenodd" d="M-5205.82 182.016L-5223.19 579.756L3932.36 979.281L3949.88 577.878C3756.56 598.735 3626.36 734.7 3341.96 633.355C3178.21 574.998 3070.92 469.93 2798.64 552.91C2588.16 617.056 2484.21 679.872 2217.82 550.24C2010.13 449.17 1869.67 462.866 1672.21 538.76C1396.54 644.718 1263.78 527.435 1092.1 467.443C812.689 369.81 688.447 495.958 540.688 522.154C231.232 577.011 157.569 422.712 -55.9228 395.053C-362.676 355.308 -356.501 494.13 -632.505 484.608C-928.995 474.382 -913.596 327.357 -1225.83 344.964C-1452.18 357.722 -1501.68 492.097 -1809.98 422.361C-1966.02 387.069 -2095.68 237.224 -2376.21 317.296C-2540.63 364.226 -2680.22 458.971 -2944.11 343.227C-3589.31 60.2243 -3421.65 546.818 -4064.33 257.212C-4331.85 136.656 -4462.82 247.881 -4632.42 287.69C-4916.26 354.312 -5035.2 219.694 -5205.82 182.016Z" fill="url(#paint9_linear)"/>
<path fill-rule="evenodd" clip-rule="evenodd" d="M-5246.14 887.806L-5228.78 490.066L3926.75 890.02L3909.23 1291.42C3718.46 1253.8 3600.61 1107 3308.45 1183.17C3140.24 1227.04 3024.2 1322.35 2760.19 1215.96C2556.1 1133.71 2458.02 1062.08 2181.35 1168C1965.63 1250.58 1826.91 1224.7 1636.81 1131.88C1371.42 1002.3 1228.95 1107.56 1052.69 1152.37C765.837 1225.27 653.062 1088.78 508.148 1049.8C204.65 968.184 117.819 1115.48 -97.2708 1124.42C-406.321 1137.28 -388.07 999.525 -663.853 984.956C-960.107 969.303 -957.581 1117.11 -1267.09 1072.36C-1491.47 1039.92 -1529.07 901.742 -1842.27 944.343C-2000.79 965.901 -2143.02 1103.88 -2415.5 999.658C-2575.21 938.576 -2706.01 832.025 -2978.98 924.33C-3646.4 1150.02 -3436.96 679.893 -4102.43 912.384C-4379.45 1009.16 -4500.22 886.948 -4665.71 832.51C-4942.66 741.402 -5072.88 865.143 -5246.14 887.806Z" fill="url(#paint10_linear)"/>
</mask>
<g mask="url(#mask3)">
<rect x="-6599.34" y="-371.219" width="11419" height="2012.46" transform="rotate(2.5 -6599.34 -371.219)" fill="url(#paint11_linear)"/>
<rect x="-6599.34" y="-371.219" width="11419" height="2012.46" transform="rotate(2.5 -6599.34 -371.219)" fill="url(#paint12_linear)" fill-opacity="0.2"/>
</g>
</g>
<g filter="url(#filter4_d)">
<mask id="mask4" mask-type="alpha" maskUnits="userSpaceOnUse" x="-7212" y="98" width="12680" height="1461">
<path fill-rule="evenodd" clip-rule="evenodd" d="M-7160.24 122.493L-7181.44 607.879L5445.28 1158.91L5466.67 669.055C5200.26 693.177 5021.68 858.243 4628.84 732.567C4402.65 660.2 4253.98 531.205 3879.13 630.612C3589.36 707.457 3446.47 783.415 3078.26 623.334C2791.19 498.525 2597.62 514.27 2325.88 605.546C1946.5 732.978 1762.65 588.897 1525.5 514.478C1139.57 393.368 969.136 546.492 765.583 577.446C339.275 642.268 236.637 453.41 -57.9226 418.171C-481.159 367.533 -471.684 537.032 -852.313 523.498C-1261.19 508.964 -1240.98 329.602 -1671.37 348.934C-1983.39 362.941 -2050.71 526.627 -2476.28 439.369C-2691.68 395.209 -2871.49 211.401 -3257.74 307.202C-3484.13 363.351 -3675.95 478.037 -4040.6 334.926C-4932.19 -14.9896 -4697.64 580.138 -5585.79 222.18C-5955.5 73.1704 -6135.31 208.033 -6368.88 255.452C-6759.79 334.812 -6924.72 169.665 -7160.24 122.493Z" fill="url(#paint13_linear)"/>
<path fill-rule="evenodd" clip-rule="evenodd" d="M-7210.95 983.745L-7189.76 498.359L5436.94 1049.91L5415.55 1539.77C5152.26 1492.52 4988.74 1312.52 4586.44 1403.48C4354.8 1455.86 4195.46 1571.4 3830.7 1439.7C3548.73 1337.9 3413 1249.77 3032.25 1377.15C2735.38 1476.47 2543.92 1443.91 2281.17 1329.3C1914.35 1169.29 1718.63 1296.8 1475.91 1350.26C1080.89 1437.28 924.446 1269.88 724.364 1221.3C305.328 1119.57 186.621 1298.77 -109.89 1308.2C-535.928 1321.76 -511.717 1153.73 -892.076 1134.04C-1300.67 1112.88 -1296.16 1293.32 -1723.24 1236.55C-2032.84 1195.4 -2085.64 1026.48 -2517.2 1076.31C-2735.62 1101.53 -2930.77 1268.96 -3307.2 1139.86C-3527.84 1064.2 -3708.93 933.231 -4084.67 1044.02C-5003.36 1314.89 -4717.83 742.472 -5633.8 1021.66C-6015.09 1137.88 -6182.46 987.86 -6411.01 920.264C-6793.52 807.136 -6972.21 957.28 -7210.95 983.745Z" fill="url(#paint14_linear)"/>
</mask>
<g mask="url(#mask4)">
<rect x="-9065.77" y="-727.168" width="15748.4" height="2455.93" transform="rotate(2.5 -9065.77 -727.168)" fill="url(#paint15_linear)"/>
<rect x="-9065.77" y="-727.168" width="15748.4" height="2455.93" transform="rotate(2.5 -9065.77 -727.168)" fill="url(#paint16_linear)"/>
</g>
</g>
<path fill-rule="evenodd" clip-rule="evenodd" d="M59.8718 901.89C71.4979 890.266 81.1853 882.777 99.8504 876.602L97.1054 892.481C92.6484 892.686 91.8398 890.709 86.5964 893.343C79.5904 896.862 69.4972 907.833 59.8718 901.89ZM966.819 869.74C983.081 863.176 974.96 886.539 969.252 890.756C975.315 892.857 976.744 895.418 974.536 904.212C970.642 919.725 964.803 921.169 960.053 927.932C957.11 932.121 962.18 936.686 959.004 941.362L956.1 941.393C951.455 935.815 957.323 927.507 961.237 922.779C962.279 921.52 962.277 921.525 963.457 920.382C970.468 913.596 975.403 897.648 971.935 894.268C968.971 892.766 968.243 893.89 965.54 892.266C962.646 890.528 965.415 890.409 961.721 889.175C949.304 889.617 964.645 910.687 942.922 907.854C940.708 903.632 941.029 899.634 939.589 896.484C937.475 891.858 934.037 895.089 930.967 896.372C927.329 894.679 928.749 892.736 923.571 894.719C916.542 906.674 942.467 929.004 941.658 942.244C929.58 942.179 938.181 942.028 929.741 943.476C932.956 936.89 936.547 931.911 933.155 926.713L924.102 912.706C921.686 920.868 917.011 936.814 919.226 944.883C915.184 944.145 918.755 945.636 915.994 942.561C915.983 942.548 914.545 939.019 909.748 939.196C903.795 939.416 905.865 944.735 903.9 948.126C900.606 947.185 902.228 943.028 904.237 936.419C907.011 927.295 910.851 922.508 916.529 915.422C930.719 897.71 911.42 902.725 910.625 902.739C908.828 900.311 908.125 897.989 903.752 897.513C899.081 899.136 899.432 903.519 899.266 909.024C898.834 923.206 896.709 925.374 894.843 937.447C894.302 940.947 894.537 947.67 891.947 950.506C892.5 928.76 899.068 935.671 885.107 919.369C878.901 912.121 870.327 904.774 865.502 896.309C858.72 884.411 867.935 873.948 877.125 869.842C881.813 867.748 887.629 866.253 892.818 863.805C898.811 860.978 902.206 858.978 899.051 852.458L889.792 850.377C887.416 844.997 889.434 844.295 884.567 840.944C875.32 839.949 874.424 848.36 874.077 855.914C872.855 860.832 869.42 865.832 863.232 863.49C859.077 861.917 857.029 855.016 859.416 850.58C858.882 846.007 858.279 843.775 853.633 843.085C850.264 845.172 849.778 849.299 847.845 852.507C841.133 852.766 840.392 848.291 834.029 852.599C833.424 861.165 840.655 862.552 844.757 868.892C848.677 874.949 847.51 884.086 841.473 886.223C833.579 889.017 826.461 883.727 825.09 878.227C823.698 872.647 825.724 863.612 824.35 855.903C822.492 853.313 817.573 847.428 813.741 853.495C814.504 858.966 816.975 860.664 814.948 866.019C808.715 867.312 803.021 864.41 799.728 868.134C792.736 875.956 815.368 882.51 817.942 891.135C813.629 902.589 799.441 894.05 800.795 903.505C802.214 913.416 818.315 903.671 819.991 902.92C832.651 897.253 852.162 906.053 839.649 915.791L830.938 921.609L833.029 924.583C835.846 928.149 836.346 928.378 838.163 933.22C842.192 932.797 846.31 930.998 851.721 930.895C860.452 930.729 859.219 933.405 863.085 935.345C868.384 938.005 875.045 931.56 879.145 949.152C884.286 941.703 890.936 948.113 888.503 951.729C887.262 949.007 886.414 945.563 882.333 947.97C878.059 950.492 882.625 952.962 877.8 954.356C876.385 950.758 877.649 946.535 875.552 942.472C871.245 934.133 860.836 936.027 861.135 947.601C861.259 952.384 863.196 954.891 864.545 958.486C855.428 960.427 855.086 960.249 848.823 954.749C839.179 946.277 840.003 937.094 833.338 927.023C830.875 923.302 824.048 916.505 819.765 920.758C814.69 927.32 824.402 935.755 827.008 940.012C833.56 950.716 820.872 950.259 817.907 955.667C822.249 963.831 836.957 952.907 843.555 963.734C835.451 967.799 801.358 973.672 789.857 974.763C768.674 976.775 749.581 975.246 729.838 971.952C693.276 965.853 662.357 952.001 623.632 949.256C583.238 946.393 543.562 953.2 505.849 959.409C467.748 965.684 424.674 963.242 389.792 954.061C389.6 953.872 389.429 953.569 389.319 953.417C381.305 942.313 372.749 951.806 367.22 949.393C368.096 947.993 368.698 946.775 372.09 945.66C380.176 943.004 387.751 946.735 391.567 947.331C398.192 941.302 403.116 924.01 402.472 914.082C389.319 918.575 387.237 921.088 369.268 917.121C367.929 923.969 363.241 928.574 358.812 932.477C348.588 941.488 350.57 944.564 346.3 945.895C348.898 939.053 358.18 930.374 362.646 927.107C362.878 918.318 360.829 910.928 358.113 903.326C353.857 891.414 351.315 891.628 347.905 885.686L344.646 883.549C343.073 882.344 342.86 882.193 341.304 881.271C341.395 881.452 343.604 880.71 339.629 884.101C335.616 887.523 331.132 887.779 325.568 887.717C323.579 906.681 329.798 902.822 332.792 915.411C335.636 927.37 329.151 928.533 331.09 937.657C331.442 939.314 332.354 943.079 330.27 944.219L326.12 930.019C323.114 946.231 302.304 931.323 299.229 929.346C289.875 923.337 287.792 928.221 282.333 917.277C278.255 923.08 272.885 928.439 270.728 939.461C268.246 937.261 265.45 944.357 271.102 930.205C274.731 921.119 268.957 922.375 261.066 910.849C256.963 914.927 248.49 920.57 239.112 918.338L238.954 931.299C237.754 934.852 239.064 932.82 235.938 935.003C235.953 929.396 236.387 925.583 236.016 919.801C235.446 910.895 238.018 911.725 239.805 909.06C238.124 905.391 237.418 901.887 235.333 897.703C234.648 901.389 232.568 902.579 227.852 903.656C218.716 905.741 198.278 905.848 197.267 893.819L192.643 905.374C190.468 898.24 193.125 910.13 192.202 903.671C189.576 885.29 214.17 885.644 215.739 883.982C219.111 875.774 219.747 852.772 217.093 843.356L213.932 825.409C212.946 833.566 193.578 832.612 186.292 831.525C176.45 830.055 166.555 827.779 162.713 820.559C154.774 839.442 160.502 857.851 164.655 876.656C165.803 881.853 167.235 880.434 170.617 883.601C175.312 887.998 178.348 892.943 179.377 901.734C179.138 901.514 178.898 901.221 178.734 901.008C175.9 897.324 177.282 898.424 176.1 895.73C171.417 903.708 166.805 900.036 156.142 900.594C149.885 900.984 138.506 902.049 134.532 899.201C135.008 895.501 133.733 896.45 138.741 893.468L139.934 892.746C147.282 888.047 147.818 893.049 152.329 888.857C148.868 888.935 143.43 888.585 140.24 889.044C136.164 889.631 137.525 890.539 131.534 890.8C131.488 890.504 131.481 889.966 131.419 889.815L128.993 886.653C133.678 884.065 134.919 885.191 134.784 882.006C134.619 878.144 132.062 880.811 131.977 880.824C127.021 881.541 132.321 881 125.81 880.675C128.332 882.681 122.755 885.155 122.217 885.481C120.094 882.889 119.628 878.564 118.316 874.618C117.378 879.261 105.82 879.733 102.555 875.001C109.11 871.298 108.84 878.296 113.932 873.209C112.914 870.042 111.725 871.227 109.357 869.596C113.058 866.101 119.561 858.751 117.4 850.597C110.038 849.252 109.828 857.142 105.101 861.213C97.391 867.851 94.1223 859.79 88.9999 858.273C80.0605 863.21 81.3201 884.646 46.4371 893.938L39.5445 895.152C36.9947 894.753 39.1501 895.485 37.3531 894.211C43.6171 892.373 50.9761 891.178 56.9676 888.269C87.0014 873.687 79.4128 848.822 94.3007 858.394C99.0931 853.2 108.222 846.243 114.507 842.151C134.301 829.264 120.788 829.661 128.195 819.896C131.037 816.148 135.118 815.275 137.921 811.047C141.75 805.271 137.992 802.45 137.021 796.989C135.665 789.363 145.16 772.564 132.5 770.047C123.227 775.764 133.54 786.774 122.187 808.932C119.477 814.22 119.141 813.958 114.782 817.825C107.3 817.037 110.14 814.012 102.533 815.048C93.9332 823.039 103.318 834.242 91.6844 840.743C81.814 846.259 80.3913 843.204 71.0309 857.395C64.8924 866.701 60.1765 866.656 55.3137 869.768C53.169 871.141 40.5161 889.988 32.746 892.988C33.1916 890.047 32.3256 890.995 37.1555 886.992C55.7601 871.573 54.842 857.884 62.5969 846.956C71.0998 834.975 77.1035 839.86 75.3761 823.846C74.3455 814.286 87.7587 810.711 83.0092 797.109C70.3861 795.161 74.2322 813.255 69.6342 820.267C65.9084 825.949 60.6765 822.368 55.8933 825.494C52.7288 827.562 52.4745 834.567 51.3344 839.03C48.2556 851.079 39.3798 853.343 34.0492 858.992C27.1412 866.315 31.0385 885.688 27.1335 888.634C24.4222 883.004 28.7583 862.34 31.5975 856.8C34.3394 851.448 36.9044 849.832 40.402 846.084C44.4594 841.737 49.6898 828.981 37.4128 834.278C14.2524 844.269 39.4863 804.365 25.2002 801.313C16.4982 802.224 16.7876 811.161 17.257 818.535C17.9331 829.164 17.8152 830.032 12.6499 837.361C3.58802 850.219 15.5755 857.122 13.584 870.393L11.8559 874.543C9.88729 867.53 13.9079 870.786 8.78012 855.134C6.44785 848.015 7.75104 845.762 2 841.548L2 996L1452 996L1452 860.661C1448.54 864.08 1449.5 869.532 1443.92 872.9C1437.6 876.72 1434.19 870.865 1428.8 869.776C1420.39 875.597 1424.2 887.718 1416.28 892.647C1416.6 890.394 1420.6 879.04 1421.89 875.712C1425.36 866.687 1426.4 867.455 1434.24 869.137C1440.05 862.505 1445.49 854.583 1452 849.057L1452 816.934C1449.15 818.596 1448.68 821.139 1443.74 820.001C1439.95 819.129 1440.39 816.96 1435.54 818.482C1428.94 820.549 1431.6 829.629 1432.26 835.89C1433.94 851.868 1420.59 850.959 1413.49 861.686C1404.8 874.821 1408.77 878.592 1394.58 888.097C1386.69 893.38 1385.84 911.22 1375.57 914.575C1380.18 905.858 1386.56 899.96 1389.86 889.1C1392.77 879.53 1393.32 867.02 1398.17 859.221C1400.57 855.376 1403.61 852.82 1406.35 847.932C1410.55 840.471 1407.22 839.888 1405.55 833.615C1402.98 823.945 1417.1 815.528 1408.3 802.732C1393.05 802.098 1403.1 824.274 1397.63 832.639C1393.95 838.276 1386.43 836.573 1383.67 840.271C1380.92 843.95 1382.53 853.529 1381.83 858.536C1380 871.538 1368.96 875.132 1365.93 883.919C1363.09 892.17 1365.91 902.153 1366.73 910.823C1367.02 913.886 1367.7 917.697 1365.97 919.924C1363.59 915.893 1363.9 905.433 1363.35 900.849C1358.93 864.031 1382.35 866.086 1372.53 850.167C1364.72 850.068 1365.39 857.034 1356.3 855.197C1346.76 847.274 1360.33 818.749 1342.77 818.549C1333.17 825.961 1339.56 836.466 1341.21 845.851C1343.51 858.879 1333.5 862.408 1336.85 873.282C1339.71 882.535 1346.03 886.488 1346.75 898.262C1347.03 902.945 1347.75 928.592 1346.63 930.51C1344.82 928.854 1346.47 931.126 1345.43 928.639C1344.02 925.252 1344.52 920.612 1344.48 917.131C1344.23 899.058 1346.29 897.132 1337.64 880.583C1335.74 876.954 1334.86 872.423 1332.3 870.385C1318.27 859.188 1323.26 855.828 1314.48 843.858C1304.53 830.313 1307.81 813.874 1304.05 809.6C1296.78 801.355 1287.43 795.94 1282.15 786.006C1274.48 771.574 1287.42 772.727 1289.95 768.792C1292.23 760.971 1286.29 759.817 1281.97 755.693C1277.91 751.814 1276.2 744.952 1269.3 746.178C1262.62 749.194 1270.15 768.957 1269.76 778.22C1269.09 793.735 1281.16 784.428 1283.53 804.268L1290.69 803.27C1294.47 807.823 1295.39 808.375 1293.97 815.513C1290.05 835.227 1299.44 825.952 1303.3 834.553C1305.56 839.595 1301.18 841.667 1299.31 844.57C1293.17 854.089 1304.73 857.464 1308.6 863.702C1312.93 870.677 1306.88 885.914 1315.7 887.366C1319.92 884.09 1316.52 877.605 1321.53 871.558C1341.99 867.698 1327.93 891.673 1330.34 901.702C1332.71 911.597 1344.33 920.467 1345.18 931.806C1341.5 930.105 1344.4 933.289 1342.03 928.542L1336.69 917.401C1334.08 913.263 1330.54 909.063 1328.77 904.032C1324.91 893.104 1338.88 871.16 1322.74 873.564C1318.81 878.869 1322.66 884.391 1317.46 889.061C1302.35 890.887 1312.72 869.774 1304.18 861.504C1301.03 858.446 1295.48 856.154 1295.32 849.884C1295.12 842.2 1301.75 842.65 1301.27 835.565C1297.31 829.754 1290.39 832.821 1290.43 823.039C1290.45 814.315 1295.1 812.462 1289.69 805.243C1281.98 806.048 1281.04 811.128 1281.37 819.455C1281.7 827.964 1285.31 829.943 1280.23 836.592C1274.8 835.573 1276.81 833.38 1270.72 834.975C1268.67 846.081 1280.64 852.051 1284.04 861.36C1289.28 875.702 1288.6 876.821 1299.73 886.209C1313.97 898.22 1322.05 939.767 1320.53 942.848C1317.19 939.997 1320.21 939.293 1315.84 936.714C1308.81 932.575 1299 932.067 1290.97 929.367C1280.12 925.717 1270.85 920.652 1266.55 911.546C1257.87 893.148 1266.93 898.013 1244.11 892.175C1232.69 889.253 1226.95 881.517 1224.61 869.768C1220.52 849.227 1221.73 852.146 1204.55 847.325C1191.71 843.723 1189.39 829.395 1180.36 829.335C1173.75 829.29 1170.76 835.935 1173.92 841.54C1178.44 849.563 1188.14 856.114 1194.91 862.434C1203.69 870.637 1203.41 881.38 1189.14 874.944C1172.93 867.636 1173.56 882.031 1189.07 886.636C1197.3 889.079 1200.35 888.614 1207.21 893.211C1221.44 902.737 1217.54 907.105 1237.69 912.384C1265.59 919.695 1263.28 937.892 1278.13 945.644C1281.6 947.456 1284.28 946.673 1287.61 948.543C1290.24 950.016 1288.87 949.826 1291.42 951.406C1292.94 952.342 1293.32 952.13 1294.87 953.203L1285.92 955.807C1287.11 953.876 1287.87 953.226 1287.73 950.304C1278.75 947.189 1270.45 949.571 1260.16 945.343C1244.46 938.901 1251.9 941.716 1234.48 941.891C1214.76 942.089 1212.4 916.189 1193.21 921.849C1191.94 928.701 1200.9 933.068 1205.73 936.627C1218.14 945.771 1201.09 952.438 1210.65 956.452C1217.55 959.348 1227.02 953.98 1235.11 955.998L1256.81 963.734C1245.27 970.419 1174.5 978.74 1155.23 979.22C1122.84 980.03 1085.56 972.587 1055.82 961.817C1056.5 951.822 1061.84 958.685 1069.2 952.979C1070.33 945.259 1064.35 945.095 1057.7 946.691C1049 948.78 1048.17 948.816 1039.39 946.556C1019.36 941.402 1018.11 950.052 1007.1 948.76C1008.38 942.785 1014.27 935.445 1020.8 933.344C1030.95 930.076 1035.78 935.067 1042.49 938.263C1050.56 942.101 1058.66 935.94 1067.88 937.325C1074.84 938.37 1082.68 946.47 1088.53 941.465C1091.71 935.662 1085.64 933.141 1086.09 928.96C1086.46 925.421 1092.59 922.209 1086.6 917.768C1078.61 915.461 1076.33 922.523 1071.81 923.252C1065.67 924.241 1063.64 917.526 1070.6 913.081C1075.45 909.981 1081.11 908.034 1083.34 904.218C1087.85 896.504 1081 895.315 1074.03 895.667C1061.4 878.773 1061.81 905.741 1058.82 910.217C1055.92 914.574 1044.59 919.094 1038.02 915.537C1034.02 912.423 1035.46 906.666 1038.71 904.161C1043.88 900.184 1047.85 905.115 1053.58 903.826C1060.17 902.344 1057.03 896.499 1055.01 893.509C1051.13 887.763 1057.27 887.255 1053.64 880.34C1048.59 878.589 1046.23 880.177 1043.1 883.047C1036.82 888.799 1042.49 888.577 1034.64 890.072C1033.68 884.663 1036.59 872.718 1032.16 869.82C1026.83 866.033 1026.67 871.496 1020.9 872.256C1018.49 872.574 1019.98 871.693 1016.03 872.631C1009.28 879.397 1018.17 884.398 1019.76 890.372C1021.22 895.876 1018.51 909.251 1016.1 913.522L990.9 944.438C987.253 944.207 983.079 943.695 980.115 942.331C975.105 940.024 977.783 939.768 971.332 941.559C972.495 940.11 971.201 940.877 973.534 939.633C975.407 938.633 974.17 939.186 976.504 938.887C976.583 915.294 1001.03 919.387 1011.21 902.876C1019.59 889.282 1006.44 892.796 1003.47 892.723C1002.27 889.279 1003.05 882.865 996.463 886.254C991.591 888.761 995.818 902.204 987.795 907.082C977.912 913.093 968.864 908.402 982.685 893.368C990.977 884.35 986.575 882.295 990.016 877.774C994.005 872.532 1001.54 875.292 1007.85 871.96C1010.88 870.36 1018.38 863.892 1017.97 859.742C1017.44 854.355 1012.64 857.361 1008.33 857.019C1003.56 856.639 1004.97 853.38 1000.73 853.723C996.026 854.103 994.515 862.714 990.101 865.33C983.427 869.287 977.197 865.521 977.675 858.163C978.121 851.299 983.828 848.684 979.143 842.138C973.348 841.005 974.791 842.893 970.6 844.193C967.584 841.84 962.838 836.172 958.992 842.006C956.47 846.014 960.352 851.994 962.67 855.41C966.499 861.054 966.538 861.743 966.819 869.74Z" fill="#001337" fill-opacity="0.48"/>
<path fill-rule="evenodd" clip-rule="evenodd" d="M29.877 696.5C29.4489 691.174 29.3448 691.695 34.8669 690.632C36.7612 693.025 36.7589 695.037 37.5093 698.014C39.072 704.218 42.6639 710.157 43.7236 716.724C30.599 713.673 30.4627 703.795 29.877 696.5ZM6.2013 701.641C8.11321 697.298 11.9286 694.064 17.4844 692.805C17.7784 698.2 18.3955 695.264 13.5296 698.352C10.4194 700.327 11.4317 701.057 6.2013 701.641ZM2 642.584L2 649.333C4.35447 648.653 9.76402 644.986 12.6139 642.844C16.4813 639.938 17.3657 638.195 20.5846 634.993C27.2376 628.376 33.6288 629.265 42.415 624.802C65.9153 612.867 50.2671 590.993 65.1657 583.724C60.6704 593.684 61.031 590.711 61.5494 603.433C61.8503 610.827 59.1597 616.201 55.5916 620.831C44.6071 635.082 30.7958 626.56 22.214 635.617C16.6728 641.465 19.9798 643.993 10.581 648.128C4.43181 650.833 1.6631 655.202 4.67989 663.775C8.62545 674.99 20.4989 681.636 2 694.207L2 837.634L6.83299 842.601C13.5564 831.013 15.6582 833.216 14.8979 816.739C14.5962 810.187 14.4362 805.638 17.8289 801.858C22.3243 796.85 20.2975 794.432 23.1703 789.735L23.8855 798.435C40.033 806.016 28.0118 816.597 29.6005 829.744C30.9053 823.016 43.1524 815.742 36.9197 805.77C34.3776 801.705 31.2789 800.253 30.8984 794.31C30.5898 789.478 31.9343 782.801 34.1196 779.355C38.6762 780.411 46.578 790.539 47.9417 797.394C48.9164 802.298 47.6324 807.352 47.9516 812.309C48.3245 818.115 50.9056 820.292 52.414 824.887C63.2553 820.302 65.7744 823.822 68.5485 817.556C73.9175 805.428 57.2332 795.167 56.5694 785.378C56.0196 777.272 61.8036 774.937 65.0738 769.511C73.0408 756.29 54.6368 751.371 69.0393 733.728C74.0239 727.622 88.2487 716.042 80.4901 703.781C61.456 703.478 73.4818 728.987 56.7011 728.966C50.6155 723.472 49.9861 718.755 50.6736 708.769C51.0519 703.274 51.852 696.165 49.6775 690.973L47.0144 685.538C63.0968 678.256 44.4762 664.984 59.4017 653.927L69.4834 647.99C91.7219 636.008 74.9626 626.417 72.0653 609.053C70.8341 618.242 75.7306 630.491 73.3187 638.017C70.576 646.58 60.2286 646.294 53.8106 651.478C44.5911 658.924 51.2571 666.537 46.3215 675.829C43.6118 680.929 34.6479 688.744 31.2337 689.781C27.3081 690.973 29.2927 690.16 28.2384 689.465C30.8923 684.13 42.2917 684.365 44.1332 669.513C45.8629 655.559 45.8759 652.962 56.7922 646.608C56.1705 643.941 57.2279 643.08 57.391 639.363C62.8357 640.715 60.1719 640.138 60.0992 637.897C60.0938 637.732 59.9568 637.638 60.0004 637.512C66.9344 641.168 65.8717 635.252 66.4567 632.454C67.3609 628.131 68.498 628.256 68.0937 620.377C67.9474 617.516 68.3624 619.708 67.5087 617.264C63.3694 605.42 67.8624 607.194 67.9972 597.473C71.2437 596.807 71.3938 596.212 73.6288 595.481C78.6494 593.842 81.1286 595.244 85.8345 593.361L90.1224 590.755C80.8453 590.299 81.4518 593.89 79.4572 589.978L84.0918 589.241C85.5972 589.244 87.323 589.439 88.9999 589.444C90.0772 587.69 89.63 587.461 89.2051 585.722C94.499 585.684 93.7823 586.701 95.8497 583.704C94.0664 582.614 94.0151 582.593 90.375 582.967C82.9594 583.728 79.3316 583.722 77.7229 587.044C76.4006 583.031 77.0751 586.634 76.3569 584.582C76.0667 583.756 74.7406 584.27 76.4618 582.822C77.4947 581.954 86.6132 582.212 94.7808 579.811C92.3727 578.548 81.4594 576.573 77.2382 576.113C68.2713 575.137 65.1673 575.336 61.6153 580.661C52.2885 594.644 59.4124 599.8 52.2885 610.517C45.6362 620.524 39.0315 621.658 25.3066 625.067C16.1774 627.335 19.3281 629.383 14.927 635.116C12.1506 638.732 7.3169 640.064 2 642.584Z" fill="#001337" fill-opacity="0.48"/>
<path fill-rule="evenodd" clip-rule="evenodd" d="M1331.38 765.035C1323.52 774.819 1354.27 793.871 1359.22 797.907C1379.28 814.258 1362.68 818.111 1380.46 839.538C1382.72 838.305 1383.17 837.49 1385.43 836.503C1387.59 835.561 1389.99 835.341 1391.93 834.511C1395.84 832.836 1397.57 829.188 1396.99 823.973C1396.09 815.767 1387.96 809.161 1383.64 804.829C1362.13 783.291 1393.3 781.676 1380.25 760.38C1366.74 738.337 1384.89 733.893 1389.3 715.81C1391.22 707.944 1388.19 692.922 1378.48 701.954C1369.64 710.175 1375.86 718.825 1371.88 727.2C1370.22 730.68 1366.11 732.818 1361.67 730.237C1352.35 724.826 1353.58 703.331 1350.13 694.328C1345.57 682.409 1318.56 676.299 1342.81 712.718C1349.04 722.062 1348.03 725.374 1346.16 737.461C1344.35 749.158 1350.76 752.653 1356.84 757.966C1370.57 769.961 1354.84 782.922 1341.23 769.767C1339.88 768.454 1336.43 764.706 1334.52 764.289C1330 763.304 1332.07 764.452 1331.38 765.035Z" fill="#001337" fill-opacity="0.48"/>
<path fill-rule="evenodd" clip-rule="evenodd" d="M1231.42 817.722C1227.47 815.787 1224.73 817.994 1223.74 821.05C1218.16 838.142 1241.37 846.033 1232.75 859.928C1222.95 875.73 1248.67 879.031 1258.85 883.798C1270.28 889.153 1274.12 904.382 1280.86 915.418C1289.26 929.164 1293.62 927.945 1306.33 931.224C1310.41 932.279 1313.29 933.677 1316.97 934.533C1312.52 905.679 1310.81 913.283 1305.92 904.683C1304.22 901.692 1303.06 899.127 1301.33 896.379C1294.23 885.071 1278.17 884.343 1272.04 871.554C1269.01 865.235 1268.37 857.527 1265.34 851.729C1261.71 844.779 1255.31 845.59 1248.54 841.389C1240.13 836.173 1237.75 820.82 1231.42 817.722Z" fill="#001337" fill-opacity="0.48"/>
<path fill-rule="evenodd" clip-rule="evenodd" d="M1323.52 765.627C1315.19 763.012 1314.81 771.183 1311.5 776.198C1306.61 783.591 1301.93 773.409 1302.02 768.35C1302.15 761.548 1308.18 756.835 1307.7 750.476C1307.23 744.244 1296.62 744.297 1302.8 735.785C1306.07 731.281 1310.2 727.916 1312.29 721.236C1314.74 713.407 1309.17 707.863 1302.01 710.759C1294.63 713.747 1288.32 734.778 1289.11 745.042C1289.62 751.635 1293.01 761.305 1292.9 765.68C1292.59 778.669 1262.69 767.401 1303.17 805.958C1314.01 816.287 1316.79 818.652 1319.18 836.727C1321.45 853.961 1321.89 859.693 1333.1 868.516C1334.12 867.026 1337.6 858.123 1338.36 855.763C1340.19 850.116 1338.95 845.711 1337.55 840.44C1335.61 833.182 1335.64 816.093 1330.88 812.547C1326.44 809.236 1312.76 806.411 1317.58 792.434C1320.75 783.211 1328.36 778.172 1323.52 765.627Z" fill="#001337" fill-opacity="0.48"/>
<path fill-rule="evenodd" clip-rule="evenodd" d="M98.8552 564.883C99.5114 564.108 99.0244 564.44 100.24 563.524C101.409 562.644 100.373 563.453 101.354 562.835L113.218 554.17C115.724 553.072 118.915 553.24 121.864 553.235C118.698 557.378 119.826 555.634 115.353 557.983C110.042 560.772 106.366 566.85 98.8552 564.883ZM177.58 526.167C175.184 527.376 172.919 528.129 170.509 529.307L165.193 532.968C165.085 532.796 164.8 533.354 164.57 533.508C159.19 534.19 153.933 545.322 142.13 548.678C139.857 549.612 137.737 549.544 134 551.024L125.215 550.889C116.121 550.648 110.84 548.047 103.001 554.608C102.849 554.736 102.629 554.904 102.485 555.036C97.5176 559.558 101.23 561.981 96.1592 564.878C91.3913 572.129 85.7513 570.24 76.106 571.367L70.8986 571.673C72.8121 573.483 71.4239 572.882 74.5165 573.584C77.1006 574.172 80.387 573.059 85.3754 573.921C86.3899 574.096 88.017 574.446 88.7497 574.664L98.6638 577.435C96.052 580.797 99.2495 579.44 94.7825 579.812C86.615 582.213 77.4965 581.955 76.4636 582.823C74.7423 584.271 76.0685 583.757 76.3587 584.583C77.0769 586.635 76.4023 583.032 77.7247 587.045C79.3334 583.723 82.9612 583.729 90.3768 582.968C94.0168 582.594 94.0682 582.615 95.8514 583.705C93.7841 586.702 94.5008 585.685 89.2068 585.723C89.6318 587.462 90.0789 587.691 89.0016 589.445C87.3248 589.44 85.5989 589.245 84.0936 589.242L79.4589 589.979C81.4535 593.891 80.8471 590.3 90.1241 590.756L85.8363 593.362C81.1304 595.245 78.6511 593.843 73.6306 595.482C71.3955 596.213 71.2455 596.808 67.999 597.474C67.8642 607.195 63.3712 605.421 67.5105 617.265C68.3642 619.709 67.9492 617.517 68.0954 620.378C68.4997 628.257 67.3627 628.132 66.4584 632.455C65.8734 635.253 66.9362 641.169 60.0022 637.513C59.9585 637.639 60.0956 637.733 60.101 637.898C60.1737 640.139 62.8375 640.716 57.3927 639.365C57.2296 643.081 56.1723 643.942 56.794 646.609C62.2234 644.635 68.3137 639.22 69.77 632.91C73.7217 615.79 59.6048 600.614 81.9168 596.039C85.5162 595.301 89.4251 594.372 92.183 593.019C96.8438 590.729 96.1217 589.947 99.6354 586.278C101.455 592.807 99.0191 593.29 98.7901 593.594C95.5268 597.929 89.4763 597.019 82.7552 598.713C79.3081 599.581 77.5738 601.236 77.4015 601.027C82.5906 599.906 85.1303 600.088 90.5361 601.015C103.236 601.212 105.124 597.82 103.546 585.753C112.138 587.808 124.699 592.431 131.309 586.574C133.798 583.948 134.636 581.377 136.645 577.662C138.665 573.933 141.787 573.55 145.869 571.942C151.557 572.155 163.95 571.652 169.102 569.959C178.692 563.991 175.702 555.194 175.852 540.054C166.502 553.942 179.611 563.225 156.729 565.557C152.446 565.994 147.733 566.04 143.426 566.335C132.667 567.07 130.67 577.342 127.48 579.952C120.342 585.79 111.725 582.477 101.573 581.908C103.769 579.765 102.244 580.05 106.092 579.857C106.733 579.824 109.615 580.766 110.301 580.907C121.401 583.174 123.439 574.691 129.146 569.842C131.95 567.46 133.09 565.736 137.212 564.712C140.708 563.843 149.602 563.23 153.615 563.076C168.215 562.514 169.679 554.785 171.381 547.088C173.245 538.657 178.596 532.452 187.071 528.937C188.05 528.171 187.342 529.153 187.426 527.408C185.784 524.32 184.347 524.608 181.415 526.015L177.58 526.167Z" fill="#001337" fill-opacity="0.48"/>
<path fill-rule="evenodd" clip-rule="evenodd" d="M1424.36 745.983C1423.22 753.31 1408.84 750.922 1415.53 767.121C1418.73 774.854 1423.7 780.482 1423.75 789.858C1423.8 798.83 1417.68 804.629 1416.69 814.156C1414.29 837.354 1408.07 827.891 1409.93 838.637C1412.71 854.719 1399.47 846.269 1393.36 885.53C1407.88 880.556 1409.84 853.765 1424.82 834.575C1430.21 827.68 1427.28 832.644 1429.25 823.304C1430.26 818.481 1430.91 822.428 1433.77 812.441C1434.87 808.624 1437.07 805.215 1439.15 802.094C1447.44 789.661 1444.15 791.528 1438.73 780.605C1434.77 772.6 1440.6 762.627 1442.35 755.032C1445.39 741.826 1439.04 740.78 1434.14 732.929C1430.62 727.281 1428.38 717.413 1424.91 711.065C1419.03 700.32 1410.77 711.55 1415.72 722.132C1418.39 727.841 1425.53 738.422 1424.36 745.983Z" fill="#001337" fill-opacity="0.48"/>
<path fill-rule="evenodd" clip-rule="evenodd" d="M56.0313 866.858C71.0723 862.111 74.5784 842.578 91.0023 827.558C95.8529 823.122 94.6507 826.377 97.1361 818.981L109.52 800.846C120.841 789.594 114.092 789.457 112.812 780.845C111.729 773.554 118.328 765.615 120.885 759.551C125.324 749.022 118.757 746.875 116.533 738.271C114.445 730.192 115.728 719.765 109.298 715.31C90.9908 718.833 118.061 747.553 102.253 753.848C84.2168 761.031 106.641 777.796 95.8276 795.153C85.2956 812.057 93.0887 797.455 86.7994 813.689C85.5207 816.989 82.9917 820.223 81.3325 822.184C75.8042 828.721 80.3508 825.1 78.0423 832.514C75.5684 840.457 62.9798 841.96 56.0313 866.858Z" fill="#001337" fill-opacity="0.48"/>
<path fill-rule="evenodd" clip-rule="evenodd" d="M1309.69 906.076C1305.28 888.472 1291.58 886.792 1285.47 872.539C1281.6 863.505 1282.51 860.686 1275.93 852.749C1269.44 844.913 1262.12 833.116 1273.24 832.484C1276.65 832.29 1277.02 833.778 1279.37 834.043C1279.68 831.279 1274.42 825.192 1272.72 821.685C1270.19 816.494 1270.27 811.448 1268.16 806.111C1264.46 796.749 1261.7 803.444 1251.45 782.117C1244.15 766.953 1233.08 769.965 1240.73 788.474C1243.8 795.917 1245.31 796.604 1240.71 803.717C1227.55 824.09 1251.28 819.806 1256.95 838.928C1258.44 843.964 1257.15 842.322 1261.19 844.925C1269.17 850.08 1268.83 854.815 1271.58 863.846C1275.39 876.328 1280.87 879.389 1291.36 884.954C1303.1 891.178 1302.54 895.61 1309.69 906.076Z" fill="#001337" fill-opacity="0.48"/>
<path fill-rule="evenodd" clip-rule="evenodd" d="M233.864 841.84L233.035 850.547C241.749 847.263 253.868 847.192 261.395 851.241C269.532 855.618 267.546 865.979 268.184 875.318C275.093 874.749 279.661 873.679 287.206 874.193C298.419 874.958 301.509 877.821 303.607 877.948C304.745 871.274 302.856 869.641 302.918 864.213C302.989 858.051 306.907 857.25 309.377 854.383L307.649 843.083L306.734 835.885C304.59 839.773 305.194 845.17 291.235 842.58C284.321 841.298 279.471 838.535 273.089 837.087C266.171 835.519 258.946 835.979 251.683 835.411C239.813 834.485 241.426 832.985 237.139 826.368L233.864 841.84Z" fill="#001337" fill-opacity="0.48"/>
<path fill-rule="evenodd" clip-rule="evenodd" d="M146.997 625.01C147.775 616.03 146.763 609.714 159.245 611.821C164.379 618.835 163.85 621.736 172.21 625.537L179.506 628.249L191.175 628.696L193.374 626.605L189.946 625.598L188.573 625.383C186.39 623.777 185.679 623.878 182.893 623.017C182.176 622.796 180.582 622.288 180.13 622.074C177.241 620.701 178.664 621.218 178.178 620.694C174.527 619.283 173.016 617.903 171.001 615.171C168.372 611.605 168.653 610.176 169.117 605.823C170.985 601.547 171.322 603.419 171.349 597.673L161.396 598.999C161.857 603.533 163.389 610.946 165.239 614.488C168.372 620.485 169.813 619.245 174.495 624.468C170.168 623.799 169.25 623.226 166.855 620.891C158.083 612.345 161.166 610.853 158.341 599.064L151.784 597.41L149.233 597.116C142.706 596.967 141.041 596.829 138.172 600.732C141.873 601.113 142.358 600.69 144.867 602.965C141.868 603.905 139.941 605.218 136.506 606.396C133.583 607.399 128.308 607.755 126.556 608.729C119.867 612.445 124.702 635.051 99.3723 625.2C93.0003 622.723 87.2837 621.371 79.2188 620.972C80.8627 627.742 83.5885 629.842 82.6038 638.175C97.7513 646.122 94.1924 636.586 104.476 636.32C110.244 636.17 133.957 647.383 133.648 627.59C133.533 620.261 136.414 622.478 139.495 618.895C141.176 616.94 142.028 604.183 157.747 608.879C151.269 612.486 146.548 610.912 143.437 617.048C138.583 626.621 136.887 617.805 137.762 631.202C138.836 647.62 117.656 639.651 105.093 641.211C107.7 642.802 112.701 643.509 117.826 645.675C121.784 647.347 126.682 649.924 131.544 649.864C145.325 649.692 139.702 636.883 142.277 626.738L146.997 625.01Z" fill="#001337" fill-opacity="0.48"/>
<path fill-rule="evenodd" clip-rule="evenodd" d="M1179.79 786.393C1175.48 785.962 1174.48 785.254 1174.14 789.747C1173.64 796.21 1179.87 801.756 1183.82 805.46C1203.72 824.1 1203.13 831.498 1214.19 841.849C1217.68 845.123 1220.51 847.334 1223.3 849.545C1228.92 854.011 1229.78 857.896 1231.75 856.067C1235.06 850.282 1226.06 841.918 1223.75 837.422C1219.26 828.691 1220.5 823.807 1223.62 815.893C1221.98 814.971 1214.35 809.906 1212.9 808.108C1209.8 804.255 1210.46 799.918 1209 794.757C1207.47 789.368 1204.26 787.787 1203.71 781.649C1203.25 776.523 1205.05 771.411 1205.48 766.021C1206 759.991 1204.86 756.104 1197.31 758.844C1192.71 760.513 1191.97 764.432 1192 769.184C1192.06 779.496 1194.75 790.041 1179.79 786.393Z" fill="#001337" fill-opacity="0.48"/>
<path fill-rule="evenodd" clip-rule="evenodd" d="M1312.9 735.174C1314.21 744.195 1329.2 743.453 1326.2 757.43C1325.56 760.389 1324.25 761.471 1325.04 764.251C1325.88 767.198 1327.06 766.783 1327.35 771.053C1327.81 777.756 1324.36 781.095 1324.4 786.263C1332.89 794.25 1341.38 799.851 1342.37 816.238C1349.53 816.302 1353.22 821.211 1354.59 827.221C1355.88 832.879 1354.41 842.277 1355.29 849.151C1357.72 845.746 1359.16 840.437 1360.85 836.172C1366.84 820.998 1354.42 820.265 1350.43 811.5C1348.15 806.481 1349.07 798.891 1349.32 793.433C1340.32 784.83 1322.78 776.813 1330.15 762.079C1335.11 761.529 1336.66 763.21 1339.78 764.849C1339.82 757.64 1341.82 751.742 1341.51 745.064C1341.19 737.822 1338.17 734.26 1335.26 728.704C1329.63 717.971 1330.75 703.662 1324.51 693.841C1319.6 686.114 1310.33 686.373 1310.02 692.109C1309.57 700.378 1324.05 712.577 1324.13 723.561C1324.21 734.041 1317.06 727.713 1312.9 735.174Z" fill="#001337" fill-opacity="0.48"/>
<path fill-rule="evenodd" clip-rule="evenodd" d="M903.99 847.03C903.159 858.21 908.394 860.114 911.13 869.224C913.264 876.327 914.319 888.063 911.455 894.448C903.786 895.589 901.11 887.942 900.034 881.195C898.869 873.897 897.931 867.417 889.514 867.866C887.821 871.895 889.021 876.822 884.965 876.403C880.497 875.941 880.312 871.603 874.715 873.771C864.615 881.717 882.913 892.937 886.233 895.863C894.436 903.092 894.467 912.565 894.933 925.637C897.365 922.095 897.453 913.381 897.685 909.35C898.004 903.769 897.677 897.863 902.987 896.756C906.517 893.724 905.159 895.77 905.764 895.744C910.172 895.552 911.175 899.667 911.52 900.409C916.549 899.673 914.809 898.607 920.515 900.065C920.126 892.777 921.108 894.093 925.726 891.131C925.35 884.334 923.157 879.649 920.431 873.89C917.357 867.398 915.652 865.023 920.83 861.879C924.973 859.363 922.621 863.371 924.056 859.349C924.265 851.394 928.503 853.626 928.654 844.837C925.932 842.89 924.67 840.124 920.415 842.693C917.479 844.464 918.786 845.951 914.535 847.782C911.711 845.959 907.573 839.807 903.99 847.03Z" fill="#001337" fill-opacity="0.48"/>
<path fill-rule="evenodd" clip-rule="evenodd" d="M2 613.719L2 633.646C9.87504 632.351 16.9201 625.041 19.6053 617.065C27.6159 593.267 30.0377 602.222 43.0781 589.52C44.4992 588.136 45.5689 586.858 46.7802 584.917C48.5757 582.042 48.3169 581.9 49.8789 578.768C52.9094 572.694 62.4606 561.486 60.3825 555.284C55.8933 555.338 47.934 564.213 44.3905 567.418C32.8914 577.819 15.0786 573.62 11.0986 593.054C9.02972 603.156 10.7579 606.931 2.6248 613.257C2.48545 613.364 2.21209 613.569 2 613.719Z" fill="#001337" fill-opacity="0.48"/>
<path fill-rule="evenodd" clip-rule="evenodd" d="M266.002 911.709C269.095 914.672 271.945 918.965 274.603 922.245C278.48 917.205 280.617 911.791 289.105 911.417C295.684 911.128 301.703 914.442 309.423 914.442C309.971 906.07 307.66 897.202 306.504 889.26C296.998 899.201 292.552 890.057 281.376 889.936C277.88 889.898 258.226 895.048 255.361 889.352L252.986 903.703C258.087 904.517 257.712 904.135 260.711 906.683C262.883 908.528 263.924 909.719 266.002 911.709Z" fill="#001337" fill-opacity="0.48"/>
<path fill-rule="evenodd" clip-rule="evenodd" d="M242.701 907.273C243.899 906.139 247.096 905.455 249.468 904.258C250.491 898.006 251.658 893.044 252.634 886.488C253.872 878.169 258.81 879.993 264.942 875.897C265.755 871.599 265.235 863.018 263.972 858.858C263.444 859.092 262.916 861.362 255.32 861.499C248.595 861.619 230.279 863.269 230.505 856.689C227.965 861.921 223.639 881.487 227.817 886.198C229.827 888.465 231.876 885.926 237.426 895.338C239.563 898.963 240.888 903.5 242.701 907.273Z" fill="#001337" fill-opacity="0.48"/>
<path fill-rule="evenodd" clip-rule="evenodd" d="M338.861 857.186C338.188 861.139 338.46 859.331 336.768 860.951C335.554 862.114 334.643 862.576 333.358 863.31C327.006 866.932 313.124 869.794 306.498 866.687C304.664 879.503 307.73 882.909 309.525 889.517C311.938 898.402 311.011 907.831 313.26 915.333C323.556 916.61 325.012 921.107 328.731 928.816C333.045 922.806 330.359 914.626 327.251 909.413C322.301 901.109 321.605 900.396 322.338 889.31C322.898 880.816 324.964 875.728 334.489 875.509C342.531 875.324 341.618 878.247 346.635 882.575L349.988 885.271C350.217 880.491 348.286 874.005 346.681 869.086C344.524 862.482 342.609 860.24 339.893 855.334L338.861 857.186Z" fill="#001337" fill-opacity="0.48"/>
<path fill-rule="evenodd" clip-rule="evenodd" d="M925.64 863.482C913.07 862.866 924.7 873.012 927.16 885.014C928.212 890.142 926.686 891.177 930.356 892.761C932.496 894.137 928.821 893.154 931.637 892.961C932.628 892.893 931.264 893.003 933.447 892.59C946.138 890.19 939.777 903.252 945.464 905.948C953.688 909.846 955.02 890.955 956.102 887.659C962.263 886.876 962.226 885.316 966.784 889.812C970.8 886.455 975.333 877.273 973.667 870.69L966.494 872.386C962.755 871.794 962.697 869.483 958.03 869.367C952.413 874.241 954.961 882.153 948.364 885.552C942.151 884.252 941.961 878.513 941.643 872.344C941.273 865.156 942.975 860.395 936.764 857.757C932.23 859.496 934.196 860.893 930.383 865.053L925.64 863.482Z" fill="#001337" fill-opacity="0.48"/>
<path fill-rule="evenodd" clip-rule="evenodd" d="M1407.43 832.199C1413.98 828.2 1415.13 815.381 1413.8 809.07C1410.1 791.469 1414.75 790.05 1413.43 781.82C1412.1 773.574 1404.67 772.419 1404.05 760.262C1403.6 751.509 1402.09 742.732 1391.97 743.278C1381.56 754.592 1400.78 761.479 1399.47 772.569C1398.82 778.079 1394.13 781.645 1394 788.074C1393.87 794.636 1397.6 798.461 1399.34 803.602L1403.63 801.386C1413.1 797.558 1413.91 809.786 1412.74 816.761C1411.64 823.31 1407.25 825.094 1407.43 832.199Z" fill="#001337" fill-opacity="0.48"/>
<path fill-rule="evenodd" clip-rule="evenodd" d="M130.563 855.322C130.255 855.5 129.773 855.292 129.554 855.699C129.34 856.096 128.851 855.959 128.563 856.049C128.301 856.132 127.01 856.503 126.691 856.607C123.645 857.61 124.798 855.694 123.714 857.976C120.123 859.313 122.843 857.467 121.161 861.223C119.001 866.046 119.386 868.189 122.368 873.797C123.62 873.718 123.023 873.756 123.96 873.142C123.961 873.142 124.514 872.413 125.209 871.934C124.832 875.65 124.208 874.851 124.157 878.969C130.2 877.287 127.502 877.858 134.37 878.116C140.488 878.347 141.461 877.137 146.627 876.86C150.514 874.524 156.176 876.933 160.275 877.581C159.437 875.116 158.224 874.232 156.801 871.191C152.477 861.954 153.678 859.672 146.036 848.967C145.834 849.084 145.549 849.081 145.468 849.365C145.427 849.506 142.369 852.444 139.155 853.541C136.607 854.412 133.312 854.927 130.563 855.322Z" fill="#001337" fill-opacity="0.48"/>
<path fill-rule="evenodd" clip-rule="evenodd" d="M75.2505 796.347C79.6096 794.788 79.5223 794.114 84.3928 795.134C91.3988 807.912 79.0782 814.019 77.4726 822.161C82.1662 819.632 84.5368 814.435 85.987 808.75C87.6064 802.4 85.6232 796.819 88.2319 789.123C90.5933 782.155 92.4822 779.507 88.7924 772.104C84.1041 762.698 87.0895 763.116 87.1079 753.988C87.1179 749.093 82.6241 739.161 77.0951 744.665C72.1633 749.575 77.4013 756.356 79.5575 761.039C83.0291 768.578 78.8347 772.658 75.553 777.338C70.6113 784.386 73.9244 789.506 75.2505 796.347Z" fill="#001337" fill-opacity="0.48"/>
<path fill-rule="evenodd" clip-rule="evenodd" d="M802.655 938.307C807.618 940.705 803.282 955.158 812.068 951.229C814.981 949.926 814.396 947.218 821.027 941.568C821.909 940.816 821.489 941.233 822.547 940.213C823.867 938.939 822.93 939.901 823.997 938.638C821.72 935.023 819.312 930.521 817.018 926.96C806.701 922.543 788.711 923.769 794.2 934.516C796.161 938.358 798.603 936.351 802.655 938.307Z" fill="#001337" fill-opacity="0.48"/>
<path fill-rule="evenodd" clip-rule="evenodd" d="M952.609 876.256C953.695 872.806 955.756 869.698 956.22 867.697C957.658 861.499 955.115 851.177 951.267 848.156C947.859 848.428 947.612 849.108 945.742 851.627C943.912 850.884 937.73 844.964 935.432 850.427C932.987 856.241 938.83 855.692 941.253 859.18C945.948 865.938 939.911 879.654 947.4 884.217C951.147 882.606 951.276 880.487 952.609 876.256Z" fill="#001337" fill-opacity="0.48"/>
<path fill-rule="evenodd" clip-rule="evenodd" d="M242.838 825.705C243.091 825.83 243.512 825.675 243.655 825.957C244.245 827.118 249.437 824.992 249.869 824.867C247.915 826.721 246.991 826.685 246.412 829.29C252.19 831.536 248.669 827.353 259.309 826.221C280.182 824.001 296 835.838 300.958 837.72C303.991 826.617 286.176 823.24 278.043 821.436C270.971 819.868 245.678 816.226 242.838 825.705Z" fill="#001337" fill-opacity="0.48"/>
<path fill-rule="evenodd" clip-rule="evenodd" d="M136.322 842.686C157.231 846.856 152.235 866.574 162.379 875.912C160.237 861.642 156.59 853.994 156.583 837.484C149.068 839.974 144.533 838.773 137.332 837.398L136.322 842.686Z" fill="#001337" fill-opacity="0.48"/>
<path fill-rule="evenodd" clip-rule="evenodd" d="M168.746 820.823C171.401 820.312 180.246 810.204 200.136 816.775C204.368 818.174 205.251 818.429 206.555 822.346C201.741 817.316 177.172 815.109 171.397 823.013C171.671 823.194 172.109 823.074 172.298 823.434C173.512 825.746 182.311 821.132 189.539 821.35C198.011 821.606 202.877 825.68 207.045 825.689C208.588 823.18 209.514 822.099 209.102 817.894C202.585 813.123 165.18 806.11 168.746 820.823Z" fill="#001337" fill-opacity="0.48"/>
<path fill-rule="evenodd" clip-rule="evenodd" d="M229.553 841.956C225.798 843.57 224.238 843.183 219.843 842.578C221.932 850.298 221.824 855.746 221.49 863.793C221.207 870.575 219.039 878.704 219.272 884.373L224.061 884.935C223.769 866.959 221.692 867.887 229.115 853.55C230.451 850.97 230.651 846.397 231.258 842.73L229.553 841.956Z" fill="#001337" fill-opacity="0.48"/>
<path fill-rule="evenodd" clip-rule="evenodd" d="M20.0127 624.476L27.805 622.914C29.9107 613.312 28.4199 605.718 37.4297 601.279C45.1056 597.498 52.1935 594.774 50.689 584.106C43.7848 594.813 31.2253 596.098 24.6711 611.8C23.2339 615.242 21.8542 621.858 20.0127 624.476Z" fill="#001337" fill-opacity="0.48"/>
<path fill-rule="evenodd" clip-rule="evenodd" d="M205.966 899.111C206.208 898.954 206.499 898.375 206.616 898.554C206.731 898.729 207.103 898.139 207.26 898.015C210.071 895.795 219.291 890.527 227.737 896.063L231.094 898.133C230.281 884.938 208.949 887.604 204.224 891.512C200.738 894.395 204.289 896.604 205.966 899.111Z" fill="#001337" fill-opacity="0.48"/>
<path fill-rule="evenodd" clip-rule="evenodd" d="M2.55645 608.857C9.8779 603.549 7.23707 592.696 13.4674 583.568C18.7238 575.867 28.5797 574.337 36.6316 569.448C30.6302 570.604 14.3702 575.01 10.6558 580.055C7.99432 583.67 7.79831 589.707 6.8994 594.416C5.73939 600.5 2.44543 603.486 2.55645 608.857Z" fill="#001337" fill-opacity="0.48"/>
<path fill-rule="evenodd" clip-rule="evenodd" d="M916.475 939.532C916.563 931.317 919.127 920.976 921.531 913.123L916.423 919.71C915.125 921.272 913.099 923.484 911.835 925.305C910.107 927.795 907.376 936.784 905.842 937.809C912.117 935.627 912.151 937.059 916.475 939.532Z" fill="#001337" fill-opacity="0.48"/>
<path fill-rule="evenodd" clip-rule="evenodd" d="M374.798 914.673C380.864 913.718 377.746 912.126 384.207 910.609C387.127 909.923 387.608 909.817 390.503 910.249C394.177 910.797 391.67 911.625 393.667 910.863C390.055 911.217 389.177 910.431 384.9 911.575C381.725 912.425 381.655 913.084 378.307 913.728C379.82 915.366 375.917 916.343 383.802 916.008C388.644 915.803 393.632 914.82 396.359 911.749C393.515 902.62 376.303 906.929 374.798 914.673Z" fill="#001337" fill-opacity="0.48"/>
<path fill-rule="evenodd" clip-rule="evenodd" d="M77.4238 646.44C87.6304 650.109 91.9358 654.023 99.5007 645.481L100.982 643.835C101.139 643.658 101.384 643.374 101.514 643.227C101.646 643.076 101.884 642.82 102.056 642.607C97.2902 643.597 92.899 645.139 87.9351 643.828C80.9031 641.972 81.4674 638.255 77.4238 646.44Z" fill="#001337" fill-opacity="0.48"/>
<path fill-rule="evenodd" clip-rule="evenodd" d="M102.995 622.589L90.523 614.499C86.2627 611.995 81.3547 609.728 74.792 609.499C75.6779 619.569 76.377 614.88 87.3415 617.566C92.6783 618.872 97.7625 620.977 102.995 622.589Z" fill="#001337" fill-opacity="0.48"/>
<path fill-rule="evenodd" clip-rule="evenodd" d="M2 689.061C4.91955 688.057 4.89352 688.162 6.30237 685.475C7.46851 683.249 7.85747 680.556 7.676 677.808C7.35442 672.926 4.96089 667.503 2 665.235L2 689.061Z" fill="#001337" fill-opacity="0.48"/>
<path fill-rule="evenodd" clip-rule="evenodd" d="M235.929 857.069C243.488 858.327 248.139 858.145 256.32 857.965L250.438 854.384C255.931 854.62 254.114 854.637 258.498 856.419C256.817 853.667 251.338 853.014 246.565 852.932C243.08 852.873 236.18 852.823 235.929 857.069Z" fill="#001337" fill-opacity="0.48"/>
<path fill-rule="evenodd" clip-rule="evenodd" d="M312.295 862.451C314.762 862.352 313.819 860.653 321.294 858.098L330.68 855.556C332.663 855.498 329.921 854.48 334.529 856.177C334.243 855.977 333.148 849.828 322.155 854.806C319.337 856.081 322.689 854.796 318.935 856.264C318.664 856.371 317.863 856.65 317.587 856.75C314.172 857.988 314.447 857.359 312.994 859.457L312.283 861.06C311.997 862.174 312.021 861.59 312.295 862.451Z" fill="#001337" fill-opacity="0.48"/>
<path fill-rule="evenodd" clip-rule="evenodd" d="M124.098 852.25C129.251 853.213 137.717 852.224 137.86 847.21C132.677 845.498 125.153 849.128 124.098 852.25Z" fill="#001337" fill-opacity="0.48"/>
<path fill-rule="evenodd" clip-rule="evenodd" d="M242.695 914.442C247.459 915.9 255.398 913.113 254.622 908.902C249.358 907.397 244.433 911.502 242.695 914.442Z" fill="#001337" fill-opacity="0.48"/>
<path fill-rule="evenodd" clip-rule="evenodd" d="M-50 616C-39.9255 615.151 -28.3714 599.356 -24.0798 593.464C-18.4412 585.723 -9.5496 569.218 -3.39799 564.608C-0.960663 564.447 1.69841 564.782 3.88533 565.223C8.87996 566.229 6.14708 565.927 8.72898 568.506C10.0275 567.654 11.0339 566.826 12.8864 567.507C14.5469 568.117 15.0872 569.908 16.3881 571.228C18.084 570.205 19.4445 568.725 21.8613 569.743C23.5174 570.441 23.359 571.198 24.4209 572.972C24.948 573.851 24.8254 573.765 25.3238 574.316C29.886 571.385 31.1003 571.763 33.019 577.299C39.0627 575.475 39.5285 577.192 42.557 581.408C47.3807 579.97 48.0682 580.235 50.8544 584.942C57.2992 583.683 54.6549 584.404 58.8158 586.485C62.1967 588.177 63.8407 587.036 64.7399 592.216C60.3442 597.589 51.2119 599.879 48.7824 603.434C55.792 605.895 64.8481 602.22 70.8174 599.491C81.6987 594.515 78.8223 593.46 91.2812 598.23C98.1685 600.867 104.304 603.604 111.684 605.417C119.4 607.312 127.27 607.335 134.801 609.112L130.075 611.086C131.54 613.849 131.696 610.794 131.962 613.782C132.122 615.565 131.294 613.033 131.914 614.785C142.172 614.289 150.461 607.732 160.612 607.352C171.286 606.951 182.489 604.643 192.944 602.703C203.064 600.825 224.814 593.45 234.927 588.556C238.953 586.608 245.038 585.141 246 580.472C243.998 577.771 241.604 577.977 237.997 577.313L229.265 575.269C229.138 575.21 228.921 575.108 228.763 574.991C231.248 571.319 237.358 568.207 242.003 566.657C240.063 560.971 222.331 552.318 217.775 549.52C204.358 541.281 189.629 536.207 174.66 532.02C157.934 527.342 167.003 532.043 152.301 524.134C150.205 523.006 147.923 521.766 145.514 520.673C139.611 517.996 132.433 514.453 134.445 523.32C130.122 525.353 134.337 526.028 127.473 526.506C118.87 527.105 107.313 528.736 99.3329 528.425C92.4149 528.155 80.1831 516.605 67.6298 519.715C68.8263 520.263 75.1541 524.101 76.2727 525.014C78.9662 527.213 82.8837 529.458 83.2146 533.376C81.303 535.076 70.8116 537.902 70.6172 537.903C65.0604 537.945 69.3311 536.492 64.7884 539.584C61.7755 541.634 60.0756 541.098 57.2372 539.583C57.1226 539.722 56.9665 539.763 56.915 540.025L53.0032 543.321C49.9555 544.437 49.4025 543.373 47.0248 542.227C43.5373 545.753 42.2027 547.35 37.4508 544.704C34.1247 548.466 32.9283 550.467 27.8767 546.925C24.7809 550.089 24.1789 552.968 18.941 549.849C18.8187 549.969 18.6552 550 18.6063 550.256C18.5578 550.511 18.3435 550.58 18.2767 550.667C17.2488 551.999 16.8255 552.976 15.463 553.445C13.2592 554.203 11.844 552.835 10.0056 552.19C6.55386 555.805 5.81882 555.071 0.919907 556.127C-4.94018 557.391 -5.0915 555.463 -7.57028 551.922C-16.6152 538.998 -32.3665 510.024 -47.4451 510C-46.4943 512.364 -44.9302 513.12 -43.2974 515.113C-41.9496 516.759 -40.7421 518.241 -39.4483 520.56L-27.0867 547.613C-24.9183 553.81 -26.2347 554.086 -25.5223 558.355C-24.1476 566.588 -25.1772 559.473 -25.5755 564.201C-26.0126 569.383 -22.39 563.657 -28.9191 578.143C-31.0818 582.942 -33.0826 586.735 -35.4923 591.21L-50 616Z" fill="black" fill-opacity="0.27"/>
<path fill-rule="evenodd" clip-rule="evenodd" d="M637.804 729.755C649.277 730.76 665.848 718.988 671.066 714.442C673.523 712.302 674.478 711.008 679.486 711.21C685.736 711.463 705.889 715.926 709.644 718.298C706.989 721.268 698.885 721.916 695.276 724.274C693.3 726.875 695.234 743.036 711.336 744.464C720.475 745.275 734.163 734.327 738.555 733.499C743.915 732.488 759.545 741.49 765.296 743.403C777.477 747.453 784.768 748.006 799.106 747.888C797.706 750.209 797.274 749.989 794.016 752.048C791.91 753.379 790.618 754.097 789.075 755.936C788.45 764.318 792.968 762.627 794.1 768.261C800.07 766.049 793.976 767.739 798.456 768.839C801.597 769.611 802.245 767.455 803.167 765.58C804.906 766.236 806.721 766.208 808.688 765.537C814.923 763.408 813.142 754.326 813.592 749.245C821.998 747.746 827.83 747.193 835.91 745.104C843.291 743.197 849.273 741.275 856.982 739.69C870.591 736.893 868.393 735.471 875.055 731.723C882.769 727.384 891.5 733.979 898.625 733.227C902.123 727.433 898.362 725.868 893.874 723.289C888.167 720.01 887.374 718.7 883.234 715.579C884.421 711.392 884.846 714.877 883.469 709.584C882.761 706.86 883.004 703.603 883.123 700.751C883.531 690.981 887.794 687.899 885.902 686.305C882.055 684.858 879.052 686.708 875.059 685.448C871.431 684.303 869.8 683.683 865.656 683.068C856.839 681.761 853.291 681.176 845.149 679.096C835.478 676.627 823.864 677.872 810.952 676.93C800.872 676.195 808.639 673.214 804.156 668.738C801.704 666.289 802.464 666.954 800.937 663.901C796.381 667.533 793.879 665.104 791.978 660.386C790.786 661.069 791.637 660.564 790.678 661.336C789.813 662.033 790.235 661.853 789.066 662.725C786.425 662.044 788.266 662.943 786.218 661.13C785.596 663.56 785.47 664.204 784.305 665.746C781.035 665.575 780.331 664.608 778.463 662.709L777.339 666.384C774.482 666.597 773.288 665.802 771.395 665.132L769.098 668.282C767.462 668.483 765.494 668.21 764.032 668.696C760.255 669.951 763.851 667.959 761.708 671.732C756.68 672.325 760.093 676.516 744.16 664.786C741.318 662.693 737.145 661.641 733.23 661.029C729.068 660.379 725.18 658.651 721.211 658.513C713.892 658.258 707.163 666.055 704.356 670.379C698.744 679.02 708.817 682.464 715.778 684.369C714.178 685.612 713.572 685.62 709.917 685.663L689.411 685.126C679.626 684.473 677.831 680.743 673.689 674.976C669.375 668.971 653.586 645.818 645.777 653.571C645.677 653.669 645.549 653.822 645.447 653.918L643.1 655.683C639.715 658.843 642.694 662.165 641.345 665.124C640.195 667.644 639.38 666.066 639.544 669.435C639.653 671.658 640.231 671.514 639.425 674.352C638.747 676.738 638.389 677.291 638.439 679.999C638.507 683.704 639.576 687.527 639.136 691.692C638.797 694.902 636.687 695.982 635.985 701.104C635.245 706.507 634.074 705.669 632.958 710.532C632.084 714.344 631.44 717.821 632.725 721.65C633.352 723.521 636.718 728.414 637.804 729.755Z" fill="#002230" fill-opacity="0.2"/>
<path fill-rule="evenodd" clip-rule="evenodd" d="M1104.06 644.198C1103.47 645.12 1100.92 647.996 1099.97 648.816C1099.93 648.83 1061.11 648.463 1059.73 649.643C1059.47 649.904 1058.99 649.436 1059.43 650.659C1059.68 651.372 1060.06 650.574 1061.45 654.031C1062.02 655.45 1063.15 657.975 1063.29 659.466C1061.99 659.488 1059.89 660.126 1059.27 660.047C1057.25 659.79 1060 659.445 1057.62 659.585C1056.98 659.623 1056.28 660.146 1056 660.337C1055.88 663.444 1059.62 663.575 1061.77 664.775C1062.71 665.303 1067.72 668.088 1068.33 668.658C1070.69 670.865 1067.85 670.435 1074.63 672.837C1077.4 673.818 1079.22 675.134 1082.18 676.086C1084.97 676.981 1087.48 677.732 1090.2 678.566C1091.65 679.009 1092.6 679.299 1094.05 679.765C1098.45 681.176 1094.7 682.665 1100.25 689.364C1101.35 690.684 1104.14 693.618 1106.49 694C1109.62 688.995 1110.33 686.23 1107.58 682.723C1126.29 683.882 1127.28 683.793 1147.07 680.56C1151.12 679.9 1160.34 687.614 1164.44 687.475C1166.39 685.836 1167.85 679.507 1167.44 676.266C1166.09 675.547 1165.83 675.634 1163.87 675.46C1168.34 674.467 1180.03 669.458 1184.08 670.968L1192.99 674.9C1196.11 676.324 1199.39 677.568 1203.46 677.562C1207.47 677.556 1205.76 670.566 1204.83 668.241C1203.72 665.451 1201.01 663.165 1199.18 661.232C1199.91 656.689 1203.02 651.693 1200.3 646.625C1197.53 641.467 1193.77 643.842 1189.18 647.496C1186.7 649.471 1184.39 651.783 1182.72 654.505C1180.82 657.595 1181 659.471 1174.94 660.572C1172.62 660.994 1168.78 661.683 1166.47 661.574C1167.91 660.448 1169.35 660.516 1170.14 659.227C1167.45 657.801 1164.65 656.728 1161.95 655.327C1154.78 651.597 1152.69 651.416 1144.37 657.175C1142.13 658.728 1140.93 659.805 1137.26 658.539C1136.46 658.263 1136.28 658.194 1136.01 657.524C1136 657.495 1135.98 657.381 1135.97 657.357C1135.96 657.332 1135.96 657.239 1135.94 657.188L1132.83 656.33C1132.93 656.202 1133.05 656.04 1133.1 656.117L1133.92 655.787C1134.17 655.73 1134.86 655.686 1135.15 655.66C1135.74 655.608 1136.54 655.542 1137.24 655.369L1134.92 655.237C1134.88 655.137 1134.09 655.452 1135.11 654.37L1132.94 654.224C1133.51 653.223 1133.14 653.875 1134.17 653.211C1133.34 652.736 1133.28 652.929 1132.08 652.965C1132.82 652.106 1132.99 652.388 1132.88 651.936L1130.55 651.891C1130.5 650.566 1130.83 650.45 1130.85 650.294L1127.45 650.467L1127.79 649.115L1124.44 649.236L1124.81 647.103L1121.56 647.703C1121.88 646.515 1121.81 646.577 1122.57 645.983L1119.86 646.28C1119.94 644.712 1119.83 645.284 1120.6 644.303C1118.91 644.703 1118.63 645.14 1116.48 645.01C1116.83 643.418 1116.91 643.986 1117.61 642.862L1114.26 644.148C1114.17 643.961 1114.14 643.705 1114.13 643.758C1114.12 643.809 1114.06 643.542 1114.04 643.481L1113.88 642.3L1111.56 643.445L1110.83 642C1110.17 642.45 1106.85 644.823 1106.04 644.869C1105.09 644.922 1105.68 644.901 1104.99 644.642L1104.06 644.198Z" fill="#001C2C" fill-opacity="0.27"/>
<defs>
<filter id="filter0_d" x="-1656.51" y="191.96" width="4103.18" height="727.868" filterUnits="userSpaceOnUse" color-interpolation-filters="sRGB">
<feFlood flood-opacity="0" result="BackgroundImageFix"/>
<feColorMatrix in="SourceAlpha" type="matrix" values="0 0 0 0 0 0 0 0 0 0 0 0 0 0 0 0 0 0 127 0"/>
<feOffset dx="-42" dy="-12"/>
<feGaussianBlur stdDeviation="22"/>
<feColorMatrix type="matrix" values="0 0 0 0 1 0 0 0 0 1 0 0 0 0 1 0 0 0 0.29 0"/>
<feBlend mode="normal" in2="BackgroundImageFix" result="effect1_dropShadow"/>
<feBlend mode="normal" in="SourceGraphic" in2="effect1_dropShadow" result="shape"/>
</filter>
<filter id="filter1_d" x="-2731.38" y="184.842" width="5181.05" height="904.461" filterUnits="userSpaceOnUse" color-interpolation-filters="sRGB">
<feFlood flood-opacity="0" result="BackgroundImageFix"/>
<feColorMatrix in="SourceAlpha" type="matrix" values="0 0 0 0 0 0 0 0 0 0 0 0 0 0 0 0 0 0 127 0"/>
<feOffset dx="-42" dy="-12"/>
<feGaussianBlur stdDeviation="22"/>
<feColorMatrix type="matrix" values="0 0 0 0 1 0 0 0 0 1 0 0 0 0 1 0 0 0 0.29 0"/>
<feBlend mode="normal" in2="BackgroundImageFix" result="effect1_dropShadow"/>
<feBlend mode="normal" in="SourceGraphic" in2="effect1_dropShadow" result="shape"/>
</filter>
<filter id="filter2_d" x="-5951" y="63.355" width="7976.81" height="1175.71" filterUnits="userSpaceOnUse" color-interpolation-filters="sRGB">
<feFlood flood-opacity="0" result="BackgroundImageFix"/>
<feColorMatrix in="SourceAlpha" type="matrix" values="0 0 0 0 0 0 0 0 0 0 0 0 0 0 0 0 0 0 127 0"/>
<feOffset dx="-42" dy="-12"/>
<feGaussianBlur stdDeviation="22"/>
<feColorMatrix type="matrix" values="0 0 0 0 1 0 0 0 0 1 0 0 0 0 1 0 0 0 0.29 0"/>
<feBlend mode="normal" in2="BackgroundImageFix" result="effect1_dropShadow"/>
<feBlend mode="normal" in="SourceGraphic" in2="effect1_dropShadow" result="shape"/>
</filter>
<filter id="filter3_d" x="-5333" y="106.414" width="9285.57" height="1232.73" filterUnits="userSpaceOnUse" color-interpolation-filters="sRGB">
<feFlood flood-opacity="0" result="BackgroundImageFix"/>
<feColorMatrix in="SourceAlpha" type="matrix" values="0 0 0 0 0 0 0 0 0 0 0 0 0 0 0 0 0 0 127 0"/>
<feOffset dx="-42" dy="-12"/>
<feGaussianBlur stdDeviation="22"/>
<feColorMatrix type="matrix" values="0 0 0 0 1 0 0 0 0 1 0 0 0 0 1 0 0 0 0.29 0"/>
<feBlend mode="normal" in2="BackgroundImageFix" result="effect1_dropShadow"/>
<feBlend mode="normal" in="SourceGraphic" in2="effect1_dropShadow" result="shape"/>
</filter>
<filter id="filter4_d" x="-7340" y="0.571167" width="12851.5" height="1632.39" filterUnits="userSpaceOnUse" color-interpolation-filters="sRGB">
<feFlood flood-opacity="0" result="BackgroundImageFix"/>
<feColorMatrix in="SourceAlpha" type="matrix" values="0 0 0 0 0 0 0 0 0 0 0 0 0 0 0 0 0 0 127 0"/>
<feOffset dx="-42" dy="-12"/>
<feGaussianBlur stdDeviation="43"/>
<feColorMatrix type="matrix" values="0 0 0 0 1 0 0 0 0 1 0 0 0 0 1 0 0 0 0.29 0"/>
<feBlend mode="normal" in2="BackgroundImageFix" result="effect1_dropShadow"/>
<feBlend mode="normal" in="SourceGraphic" in2="effect1_dropShadow" result="shape"/>
</filter>
<linearGradient id="paint0_linear" x1="-95.6291" y1="375.773" x2="-84.5194" y2="490.048" gradientUnits="userSpaceOnUse">
<stop stop-color="#96D5CD"/>
<stop offset="1" stop-color="#44B6C6"/>
</linearGradient>
<linearGradient id="paint1_linear" x1="-107.843" y1="606.866" x2="-96.7333" y2="721.141" gradientUnits="userSpaceOnUse">
<stop stop-color="#96D5CD"/>
<stop offset="1" stop-color="#44B6C6"/>
</linearGradient>
<linearGradient id="paint2_linear" x1="679.832" y1="167.439" x2="408.165" y2="184.589" gradientUnits="userSpaceOnUse">
<stop stop-color="#6CEADA" stop-opacity="0.64"/>
<stop offset="1" stop-color="#7ADAE7" stop-opacity="0.57"/>
</linearGradient>
<linearGradient id="paint3_linear" x1="-774.49" y1="403.703" x2="-760.145" y2="549.73" gradientUnits="userSpaceOnUse">
<stop stop-color="#96D5CD"/>
<stop offset="1" stop-color="#44B6C6"/>
</linearGradient>
<linearGradient id="paint4_linear" x1="-790.058" y1="699.073" x2="-775.713" y2="845.1" gradientUnits="userSpaceOnUse">
<stop stop-color="#96D5CD"/>
<stop offset="1" stop-color="#44B6C6"/>
</linearGradient>
<linearGradient id="paint5_linear" x1="-554.893" y1="719.049" x2="180.231" y2="754.27" gradientUnits="userSpaceOnUse">
<stop stop-color="#179A7B" stop-opacity="0.36"/>
<stop offset="0.0001" stop-color="#B2F4E5" stop-opacity="0.36"/>
<stop offset="1" stop-color="#34C0D3" stop-opacity="0.85"/>
</linearGradient>
<linearGradient id="paint6_linear" x1="-2968.53" y1="373.055" x2="-2960.06" y2="536.472" gradientUnits="userSpaceOnUse">
<stop stop-color="#96D5CD"/>
<stop offset="1" stop-color="#44B6C6"/>
</linearGradient>
<linearGradient id="paint7_linear" x1="-2990.98" y1="700.766" x2="-2982.51" y2="864.183" gradientUnits="userSpaceOnUse">
<stop stop-color="#96D5CD"/>
<stop offset="1" stop-color="#44B6C6"/>
</linearGradient>
<linearGradient id="paint8_linear" x1="1706.85" y1="81.4968" x2="-322.519" y2="-509.282" gradientUnits="userSpaceOnUse">
<stop offset="0.147172" stop-color="#005CC8" stop-opacity="0.52"/>
<stop offset="1" stop-color="#09A1B6" stop-opacity="0.38"/>
</linearGradient>
<linearGradient id="paint9_linear" x1="-1872.5" y1="436.927" x2="-1866.23" y2="600.64" gradientUnits="userSpaceOnUse">
<stop stop-color="#96D5CD"/>
<stop offset="1" stop-color="#44B6C6"/>
</linearGradient>
<linearGradient id="paint10_linear" x1="-1896.31" y1="764.579" x2="-1890.04" y2="928.292" gradientUnits="userSpaceOnUse">
<stop stop-color="#96D5CD"/>
<stop offset="1" stop-color="#44B6C6"/>
</linearGradient>
<linearGradient id="paint11_linear" x1="1449.07" y1="-86.9267" x2="1416.54" y2="1068.83" gradientUnits="userSpaceOnUse">
<stop offset="0.147172" stop-color="#034F86" stop-opacity="0.86"/>
<stop offset="1" stop-color="#00E0FF"/>
</linearGradient>
<linearGradient id="paint12_linear" x1="1179.38" y1="6.55556" x2="838.177" y2="559.465" gradientUnits="userSpaceOnUse">
<stop stop-color="#002091"/>
<stop offset="1" stop-opacity="0"/>
</linearGradient>
<linearGradient id="paint13_linear" x1="-2562.39" y1="456.716" x2="-2556.61" y2="656.714" gradientUnits="userSpaceOnUse">
<stop stop-color="#96D5CD"/>
<stop offset="1" stop-color="#44B6C6"/>
</linearGradient>
<linearGradient id="paint14_linear" x1="-2592.95" y1="856.504" x2="-2587.18" y2="1056.5" gradientUnits="userSpaceOnUse">
<stop stop-color="#96D5CD"/>
<stop offset="1" stop-color="#44B6C6"/>
</linearGradient>
<linearGradient id="paint15_linear" x1="1525.33" y1="-132.664" x2="12.6799" y2="-456.949" gradientUnits="userSpaceOnUse">
<stop stop-color="#004F71" stop-opacity="0.97"/>
<stop offset="1" stop-color="#1E828F" stop-opacity="0.32"/>
<stop offset="1" stop-color="#007A8B" stop-opacity="0.1"/>
</linearGradient>
<linearGradient id="paint16_linear" x1="746.97" y1="603.072" x2="691.331" y2="-327.387" gradientUnits="userSpaceOnUse">
<stop stop-color="#00060A" stop-opacity="0.6"/>
<stop offset="1" stop-color="#00507C" stop-opacity="0"/>
</linearGradient>
</defs>
</svg>
