<svg width="78" height="80" viewBox="0 0 78 80" fill="none" xmlns="http://www.w3.org/2000/svg">
<path fill-rule="evenodd" clip-rule="evenodd" d="M41.2296 41.477C42.4056 42.8088 44.3158 43.4005 41.8179 45.1764C44.6096 45.1764 46.8135 45.1764 49.0182 45.1764C54.8967 45.1764 60.7746 45.1764 66.5058 45.1764C72.0898 45.324 76.0574 48.8752 76.7923 54.2023C77.3799 58.6417 74.4403 63.2288 69.8857 64.7088C68.5631 65.153 67.24 65.153 65.9175 65.3013C64.1539 65.4489 62.2443 65.4489 60.4807 65.3013C56.9541 65.0054 53.5742 65.153 51.5168 69C50.7819 68.2607 50.1942 67.8165 49.4593 67.0765C49.7531 66.6323 50.0476 66.0406 50.6353 65.3006C43.7288 65.3006 37.1161 65.3006 30.5027 65.3006C30.5027 64.2647 30.5027 63.5246 30.5027 62.637C37.1161 62.637 43.7288 62.637 50.7819 62.637C50.1942 61.897 49.9004 61.4528 49.4593 60.7128C50.0476 60.1211 50.6353 59.5293 51.3702 58.6417C53.5742 63.2288 57.3952 62.637 60.9218 62.4887C62.8319 62.4887 64.8894 62.4887 66.7996 62.4887C70.9145 62.3412 74.0006 59.2334 73.854 55.0899C73.854 51.0946 70.7672 47.9869 66.653 47.9869C58.424 47.9869 50.3415 47.9869 41.8179 47.9869C42.259 48.7269 42.5528 49.171 42.9939 49.9111C42.4063 50.3552 41.8179 50.947 41.3775 51.3905C41.231 51.3905 40.9365 51.3904 40.9365 51.2428C38.8797 48.2834 36.0874 47.8393 32.7074 47.9869C28.5932 48.1352 24.3318 48.2828 20.2162 47.5427C13.3097 46.5068 8.45996 39.8487 9.04829 32.8933C9.63593 25.642 15.5138 20.0191 22.7141 19.8715C24.3305 19.8715 26.094 19.8715 28.1514 19.8715C27.5638 19.1314 27.27 18.6873 26.8289 18.0955C27.4165 17.5031 27.8576 16.9114 28.5925 16.3196C30.65 17.9473 32.119 21.0549 35.6462 19.5749C36.2339 13.5078 38.8797 8.32831 43.8754 4.48128C48.8717 0.634254 54.4563 -0.697507 60.7745 0.338389C70.9144 2.11431 78.5559 11.8802 77.9683 22.3867C77.3806 32.745 68.857 41.6239 59.1588 42.5122C48.7244 43.5481 37.41 36.8893 35.4998 22.9791C32.1198 21.3515 30.6499 24.6068 28.5932 26.2344C28.0049 25.6427 27.4172 25.0509 26.8296 24.4585C27.1227 24.0144 27.4172 23.5709 27.8583 22.9791C27.5645 22.8309 27.4172 22.6833 27.2706 22.6833C25.6543 22.6833 24.0373 22.5357 22.4209 22.6833C16.1028 23.1274 11.8407 28.0103 11.9872 34.2257C12.1345 40.1445 16.837 44.8799 22.8614 45.0275C27.4173 45.1757 31.8252 45.1757 36.3811 45.0275C37.116 45.0275 38.1448 44.5833 38.7324 43.9916C39.7605 43.4005 40.3482 42.5122 41.2296 41.477V41.477ZM38.5845 19.7246C41.9645 20.1687 41.9645 20.1687 42.9932 17.061C45.1973 9.80971 52.3982 5.37096 59.5992 6.85033C66.7995 8.33037 71.6493 14.5451 71.3555 22.2405C71.0617 29.1952 65.477 34.9664 58.1294 36.0017C51.5167 36.8893 44.9041 32.1546 42.8467 25.3475C41.9652 22.3881 41.8179 22.2398 38.7318 22.9798C38.7318 31.858 47.1081 39.7011 56.6604 39.8487C66.212 39.9969 74.7355 32.1546 75.3231 22.8315C76.058 11.7339 67.9755 3.59503 59.0115 2.70673C48.1367 1.96671 39.6132 9.06972 38.5845 19.7246V19.7246ZM45.1971 22.8315C46.3731 29.6387 51.8105 33.7816 58.4232 33.1898C64.1545 32.5981 69.0037 26.9751 68.8571 21.0556C68.7105 14.6927 63.5669 9.51385 57.2481 9.36557C51.223 9.21798 45.9328 13.805 45.3452 19.8721C47.9903 19.8721 50.6353 19.8721 53.2804 19.8721C52.8393 19.2804 52.5455 18.8362 52.3989 18.6887C52.9865 17.9486 53.4276 17.2086 53.868 16.4686C60.1869 22.3881 59.3054 20.6122 54.4564 25.9392C54.3091 26.0875 54.1625 26.0875 54.0153 26.2351C53.427 25.6434 52.8393 25.1992 52.2517 24.7558C52.6927 24.1633 52.9859 23.5716 53.427 22.9798C50.3408 22.8315 47.8429 22.8315 45.1971 22.8315V22.8315Z" fill="#14414B"/>
<path fill-rule="evenodd" clip-rule="evenodd" d="M29 64.523C28.4221 64.8261 27.6993 64.978 27.2655 65.2811C18.8826 70.1324 10.3555 74.9836 1.97329 79.8349C1.54016 80.138 0.672559 79.9861 0.238765 79.683C-0.0495407 79.5318 -0.0494208 78.4705 0.0947321 78.0162C0.961652 75.7418 1.82913 73.4674 2.84087 71.1936C3.41882 69.9812 3.27466 69.223 2.5519 68.1618C-0.483324 63.9174 -0.483324 63.9175 2.5519 59.8243C3.27466 58.7624 3.56364 58.0049 2.98569 56.7925C2.11877 54.9731 1.25117 53.0025 0.672559 51.0319C0.384253 50.1225 0.528515 49.0606 0.384362 48C1.3961 48.1512 2.40708 48.1512 3.27467 48.6062C6.88717 50.5775 10.3562 52.6994 13.8245 54.6707C18.3053 57.2482 22.6406 59.8243 27.1213 62.4019C27.6993 62.705 28.2772 63.3112 28.711 63.9182C28.5669 63.7656 28.8558 64.2206 29 64.523V64.523ZM20.184 63.9168C20.184 63.7656 20.184 63.6136 20.3288 63.4617C16.2819 62.4005 12.2356 61.6423 8.33277 60.4299C6.16513 59.6724 4.72021 60.1267 3.56365 62.2492C3.12985 63.1586 2.40708 63.9167 3.41948 64.6756C4.43122 65.5849 4.43126 67.8594 6.74371 67.2524C11.079 66.0393 15.7039 65.1299 20.184 63.9168ZM4.28642 52.2436C4.1416 52.3948 3.99745 52.5468 3.70781 52.6987C4.5754 54.2142 5.15337 56.488 6.45408 56.943C9.4893 58.3074 12.9576 58.7624 16.2818 59.5205C16.2818 59.3693 16.426 59.2174 16.426 59.0655C12.3797 56.943 8.33271 54.6693 4.28642 52.2436ZM16.1377 68.3137C16.1377 68.1618 15.9928 68.0106 15.9928 67.8587C13.3914 68.4649 10.79 69.0718 8.1886 69.6781C5.58718 70.2843 4.43057 71.9518 4.28642 75.1355C8.33271 72.8611 12.2355 70.5874 16.1377 68.3137V68.3137Z" fill="#14414B"/>
<path fill-rule="evenodd" clip-rule="evenodd" d="M39 19.8447C40.0348 9.25248 48.6077 2.19189 59.5464 3.07429C68.5624 3.80997 76.6924 12.0477 75.9532 23.0808C75.3621 32.3491 66.7884 40.1453 57.1806 39.9979C47.7204 39.8512 39.2956 31.9076 39.1474 23.2282C42.2517 22.4926 42.3992 22.4926 43.2859 25.582C45.208 32.3491 52.0068 36.9092 58.6591 36.1735C66.1973 35.2911 71.8141 29.5538 71.9622 22.4932C72.2578 14.8437 67.3802 8.66487 60.1369 7.19352C52.8942 5.72285 45.6516 10.1356 43.434 17.3442C42.548 20.2856 42.548 20.2856 39 19.8447V19.8447Z" fill="#EDF9FF"/>
<path fill-rule="evenodd" clip-rule="evenodd" d="M45.1557 22.6653C47.9684 22.6653 50.624 22.6653 53.5925 22.6653C53.1236 23.2591 52.8113 23.8537 52.3423 24.4475C52.9671 24.8933 53.5925 25.4871 54.2173 25.9328C54.3738 25.9328 54.5296 25.784 54.6862 25.6359C59.8413 20.438 60.7791 22.0721 54.0614 16.1316C53.5925 16.8743 53.1243 17.4681 52.4989 18.3589C52.6554 18.5077 52.9678 18.9534 53.436 19.5473C50.4682 19.5473 47.6562 19.5473 45 19.5473C45.6247 13.6068 51.2495 8.8546 57.6548 9.0034C64.3717 9.15152 69.8399 14.3494 69.9965 20.7349C70.1523 26.6748 65.1529 32.3177 58.9034 32.9122C52.1865 33.6542 46.4059 29.6454 45.1557 22.6653V22.6653ZM57.6548 29.0515C62.4975 28.9027 66.0908 25.339 66.0908 21.0319C66.0908 16.7255 62.4975 13.3105 57.6548 13.161C57.6548 14.0518 57.6548 14.7944 57.6548 15.5378C61.2473 16.4285 62.9656 18.2107 63.1222 20.7356C63.2787 23.5567 61.8728 25.0413 57.6548 26.5273C57.6548 27.4174 57.6548 28.1601 57.6548 29.0515V29.0515Z" fill="#EDF9FF"/>
<path fill-rule="evenodd" clip-rule="evenodd" d="M19.8504 64.2162C15.2219 65.3845 10.5927 66.5529 5.96487 67.8884C3.57512 68.5558 3.57509 66.0527 2.53052 65.0508C1.48458 64.2162 2.23199 63.3815 2.67946 62.3797C3.87433 60.0437 5.2182 59.5428 7.60656 60.3766C11.6387 61.7122 15.819 62.7133 20 63.7144C19.8504 64.0497 19.8504 64.2162 19.8504 64.2162V64.2162Z" fill="#14414B"/>
<path fill-rule="evenodd" clip-rule="evenodd" d="M4.54594 53C8.36374 55.1425 12.1822 57.4281 16 59.5712C16 59.7137 15.864 59.8562 15.864 60C12.7275 59.2856 9.59103 58.7137 6.59119 57.5712C5.36393 57.1425 4.8186 55 4 53.5712C4.27328 53.4287 4.40929 53.1431 4.54594 53Z" fill="#EDF9FF"/>
<path fill-rule="evenodd" clip-rule="evenodd" d="M15 68.5002C11.3335 70.9999 7.66646 73.5003 4 76C4.13607 72.4998 5.2222 70.8337 7.6665 70.0002C10.1108 69.3337 12.5557 68.6665 15 68C14.8639 68.1662 15 68.3332 15 68.5002V68.5002Z" fill="#EDF9FF"/>
<path fill-rule="evenodd" clip-rule="evenodd" d="M58 29C58 28.0947 58 27.3399 58 26.5844C61.9977 25.0755 63.3302 23.5659 63.1818 20.6979C63.0342 18.1317 61.4049 16.321 58 15.4149C58 14.6608 58 13.7548 58 13C62.5898 13.1505 65.8477 16.6221 65.9954 20.9996C66.1431 25.226 62.7375 28.8481 58 29Z" fill="#14414B"/>
</svg>
