<svg width="77" height="76" viewBox="0 0 77 76" fill="none" xmlns="http://www.w3.org/2000/svg">
<path fill-rule="evenodd" clip-rule="evenodd" d="M51 59.0898C55.1473 62.5711 59.1299 65.8865 63.2779 69.0364C66.5962 71.5226 71.7395 70.6936 74.5606 67.7098C77.5471 64.5607 77.8789 59.0899 75.0586 56.1061C71.0768 52.128 66.7625 48.6467 62.4482 45C61.6192 45.9943 61.1211 46.6571 60.4569 47.32C64.1077 50.4699 67.7577 53.4538 71.4078 56.6029C74.3943 59.0899 74.8923 62.7366 72.5693 65.3889C70.4125 68.042 66.5962 68.2073 63.6097 65.7203C60.1251 62.7366 56.4751 59.9182 52.8251 56.769C52.327 57.598 51.6635 58.2608 51 59.0898ZM63.2787 61.0793C63.2787 63.5655 65.27 65.555 67.7586 65.555C70.2471 65.555 72.2383 63.3994 72.2383 61.0793C72.2383 58.5923 70.0816 56.6029 67.7586 56.6029C65.2693 56.6029 63.2787 58.5923 63.2787 61.0793Z" fill="#14414B"/>
<path fill-rule="evenodd" clip-rule="evenodd" d="M75 17.0692C74.1742 18.7133 73.8429 20.5228 72.6865 21.838C61.9422 35.8167 51.0331 49.6298 40.1247 63.4437C39.9591 63.7725 39.7942 63.9373 39.463 64.2661C34.0088 67.8838 28.7194 71.831 23.0996 75.1191C19.2978 77.4216 15.1649 74.9551 15 70.679C15 70.0214 15.1649 69.3637 15.3305 68.7053C15.661 67.5541 16.1571 66.4038 16.4876 65.2518C18.8018 54.234 25.413 45.5178 32.3555 36.9664C39.9583 27.5927 47.2314 17.89 54.6701 8.51627C56.6537 5.88502 59.1327 4.40495 62.604 5.22735C63.4306 5.39138 64.4221 5.88498 65.0831 6.54336C67.3973 8.3522 69.7114 10.1611 71.8599 11.97C73.678 12.9579 74.6703 14.602 75 17.0692ZM56.6538 19.3715C56.3233 19.7003 56.1576 20.0292 55.8272 20.1939C46.9017 31.7046 37.9754 43.2169 29.0507 54.5643C27.8929 56.0443 28.5546 57.0307 29.7117 57.8523C30.8688 58.6747 31.8603 59.3331 33.183 57.6883C41.9436 46.5057 50.869 35.3231 59.6288 24.1405C59.9593 23.6469 60.2906 23.154 60.621 22.6604C59.4632 21.5092 58.1413 20.522 56.6538 19.3715ZM62.1079 23.6469C61.4469 24.4693 60.9508 25.1269 60.4547 25.7846C56.488 30.7183 52.5207 35.652 48.7189 40.7497C43.9257 46.8346 38.9668 53.0834 34.1736 59.1683C33.8439 59.6619 33.6775 60.8131 34.0087 61.3067C34.6697 62.2932 35.6612 62.622 36.819 61.6348C37.3152 61.1412 37.6449 60.8131 37.9761 60.3196C46.5711 49.301 55.0012 38.4472 63.5962 27.4294C63.926 26.9358 64.4221 26.443 64.7533 25.7846C63.926 25.1269 63.0994 24.4693 62.1079 23.6469ZM52.852 16.4116C43.4304 28.5806 34.1736 40.4208 24.9177 52.4259C24.5872 52.7547 24.7528 54.0707 24.9177 54.0707C25.7443 54.2347 26.5709 54.3988 27.5631 54.2347C27.8928 54.2347 28.0592 53.5771 28.389 53.2483C35.3315 44.3681 42.2732 35.3231 49.2158 26.4429C51.3643 23.8109 53.3481 21.0157 55.4967 18.2204C54.5044 17.7268 53.8434 17.2332 52.852 16.4116ZM67.3973 22.8245C68.3888 21.5085 69.381 20.358 70.3725 19.042C71.5296 17.2331 71.1991 15.5884 69.5459 14.2732C68.3888 13.2867 67.0668 12.2995 65.9097 11.3131C60.9508 7.20255 60.2899 6.54418 55.6615 12.7931C55.4959 12.9579 55.4959 13.1219 55.331 13.4515C59.2977 16.5756 63.265 19.7004 67.3973 22.8245ZM23.7606 55.5507C22.6035 59.0044 21.4463 62.2932 20.2893 65.7469C19.6283 67.8845 20.4541 70.0221 22.6035 70.8445C22.9332 71.0093 23.4293 70.8445 23.7606 70.6805C27.2318 68.378 30.7023 65.9116 34.6697 63.2804C32.5204 61.7996 30.868 60.4843 29.05 59.1691C28.5538 58.8403 28.0585 58.5114 27.8929 58.0178C27.067 56.2082 25.5794 55.8796 23.7606 55.5507Z" fill="#14414B"/>
<path fill-rule="evenodd" clip-rule="evenodd" d="M12.1644 3.99105C14.9439 6.31373 17.3973 8.47009 19.8499 10.6273C22.3024 12.7837 22.6292 14.6086 20.5036 17.263C19.3589 18.756 18.0512 20.2497 16.9065 21.5765C15.1078 23.5675 13.3084 23.7337 11.1828 21.9082C8.56565 19.7518 5.95006 17.4292 3.33366 15.1065C1.86198 20.7469 6.11313 28.3783 12.3268 30.3685C14.7793 31.1981 17.5595 31.1983 20.1767 31.0328C22.3023 30.8666 23.9371 30.8664 25.4088 32.5257C26.5543 33.687 27.6983 34.5167 29.0069 35.5118C28.3529 36.3415 27.6983 37.0049 26.8805 38C24.2641 34.0188 20.503 34.3505 16.4157 34.3505C6.44087 34.1842 -0.754461 25.3915 0.0633055 15.272C0.226406 13.448 1.04419 11.7879 1.535 9.79766C5.29613 12.95 8.73026 15.936 12.0006 18.9221C13.3084 20.0834 14.1262 20.2497 15.2702 18.7559C15.9249 17.7608 16.9057 16.765 17.7235 15.7699C19.0313 14.6086 19.0313 13.6134 17.5597 12.4521C14.7794 10.2956 12.3268 7.97286 9.71037 5.81642C8.8926 5.15301 8.07556 4.3235 6.76698 3.16216C8.89257 2.16628 10.5282 1.17116 12.3268 0.673225C23.6094 -2.47832 34.2381 5.81642 33.9111 17.5945C33.9111 19.5855 34.402 20.9123 35.8736 22.0737C36.5283 22.5716 37.1822 23.2358 38 23.8985C37.3453 24.5626 36.8553 25.2261 36.2013 26.2212C34.5666 24.8936 32.9311 23.5667 31.4594 22.0737C30.9686 21.5758 30.8055 20.2497 30.9686 19.4193C32.1133 8.80252 22.9562 0.839501 12.1644 3.99105Z" fill="#14414B"/>
<path fill-rule="evenodd" clip-rule="evenodd" d="M56.7626 19C58.1185 20.0074 59.475 21.1831 61 22.1904C60.661 22.6945 60.3221 23.1978 59.9831 23.7019C50.8286 35.1219 41.8441 46.5425 32.8587 57.9625C31.5021 59.6414 30.4853 58.9699 29.2985 58.13C28.111 57.2901 27.4338 56.2829 28.6198 54.7714C37.775 43.0157 46.9295 31.4281 56.0831 19.6716C56.2538 19.6716 56.4229 19.3358 56.7626 19Z" fill="#14414B" stroke="#14414B" stroke-width="0.1764" stroke-miterlimit="22.9256"/>
<path fill-rule="evenodd" clip-rule="evenodd" d="M62.1874 24C63.1797 24.6477 64.007 25.2954 65 26.1053C64.5035 26.7538 64.1727 27.2391 63.8412 27.7253C55.24 38.5764 46.8023 49.2659 38.2012 60.1178C37.8704 60.6039 37.3739 61.0893 37.0424 61.4131C36.0501 62.3846 34.8921 62.0615 34.2305 61.09C33.8998 60.6039 33.8998 59.4701 34.3956 58.984C39.1927 52.8296 43.9905 46.8376 48.9526 40.844C52.9225 35.985 56.893 31.1267 60.6979 26.1053C61.0294 25.4577 61.5259 24.81 62.1874 24Z" fill="#EDF9FF"/>
<path fill-rule="evenodd" clip-rule="evenodd" d="M52.5777 16C53.5464 16.6578 54.1923 17.3157 55 17.9743C52.9006 20.7704 50.8004 23.4025 48.8629 26.1994C42.0799 35.0824 35.2963 44.1302 28.5127 53.0132C28.1898 53.3422 28.0279 53.8359 27.705 54C26.8981 54 25.9292 54 25.1208 53.8359C24.9597 53.8359 24.9597 52.5195 25.1208 52.1906C34.3268 40.0169 43.3709 28.1729 52.5777 16Z" fill="#EDF9FF"/>
<path fill-rule="evenodd" clip-rule="evenodd" d="M67.8649 24C63.5771 20.5522 59.2886 17.1036 55 13.8369C55.179 13.474 55.179 13.2921 55.3573 13.1111C60.3603 6.21471 61.0748 6.94045 66.4351 11.4777C67.6859 12.5663 69.1149 13.6559 70.3665 14.7445C72.1527 16.196 72.5106 18.0112 71.259 20.0074C70.0091 21.2779 68.9366 22.5485 67.8649 24Z" fill="#14414B" stroke="#14414B" stroke-width="1.0583" stroke-miterlimit="22.9256"/>
</svg>
