<svg width="78" height="76" viewBox="0 0 78 76" fill="none" xmlns="http://www.w3.org/2000/svg">
<path fill-rule="evenodd" clip-rule="evenodd" d="M78 76C52.1586 76 26.1757 76 0.333649 76C0.333649 50.9008 0.333649 25.661 0.333649 0.562477C26.1757 0.562477 52.1586 0.562477 78 0.562477C78 25.661 78 50.7602 78 76ZM67.3264 3.52378C67.1864 3.52378 67.1864 3.52378 67.0456 3.52378C65.0799 3.52378 63.2537 3.52378 61.2873 3.52378C61.1472 3.52378 61.0071 3.52377 61.0071 3.24184C61.0071 2.39604 61.0071 1.54957 61.0071 0.562477C61.0071 0.421836 61.0071 0.281175 60.7263 0.281175C59.8839 0.281175 59.0408 0.281175 58.0576 0.281175H57.9175C57.9175 1.26827 57.9175 2.25473 57.9175 3.24248C57.7774 3.24248 57.7774 3.24248 57.6367 3.24248C55.8111 3.24248 53.8447 3.24248 52.0191 3.24248C51.8784 3.24248 51.7383 3.24247 51.7383 2.96054C51.7383 2.11474 51.7383 1.26839 51.7383 0.422589C51.7383 0.281297 51.7383 0.140651 51.4575 0.140651C50.615 0.140651 49.772 0.140651 48.7894 0.140651H48.6487C48.6487 0.281292 48.6487 0.281297 48.6487 0.422589C48.6487 1.26839 48.6487 2.11474 48.6487 2.96054C48.6487 3.24247 48.6487 3.24248 48.3679 3.24248C46.5423 3.24248 44.5759 3.24248 42.7503 3.24248C42.4695 3.24248 42.4695 3.24247 42.4695 2.96054C42.4695 2.11474 42.4695 1.26839 42.4695 0.422589C42.4695 0.281297 42.4695 0.140651 42.1886 0.140651C41.3462 0.140651 40.5031 0.140651 39.6607 0.140651H39.5206C39.5206 0.281292 39.5206 0.281297 39.5206 0.422589C39.5206 1.26839 39.5206 2.11474 39.5206 2.96054C39.5206 3.10118 39.5206 3.24248 39.2398 3.24248C37.4142 3.24248 35.4478 3.24248 33.6216 3.24248C33.4815 3.24248 33.3414 3.24247 33.3414 2.96054C33.3414 2.11474 33.3414 1.26839 33.3414 0.422589C33.3414 0.281297 33.3414 0.140651 33.0606 0.140651C32.2181 0.140651 31.3751 0.140651 30.3919 0.140651H30.2518C30.2518 1.12774 30.2518 2.11474 30.2518 3.10183C30.1117 3.10183 30.1117 3.10183 29.971 3.10183C28.1453 3.10183 26.179 3.10183 24.3534 3.10183C24.0725 3.10183 24.0725 3.10182 24.0725 2.81989C24.0725 1.97409 24.0725 1.12774 24.0725 0.281938C24.0725 0.141297 24.0725 0 23.7917 0C22.9493 0 22.1062 0 21.2638 0H21.1237C21.1237 0.141292 21.1237 0.141297 21.1237 0.281938C21.1237 1.12774 21.1237 1.97409 21.1237 2.81989C21.1237 2.96118 21.1237 3.10183 20.8429 3.10183C19.0166 3.10183 17.0509 3.10183 15.2246 3.10183C15.0845 3.10183 14.9438 3.10182 14.9438 2.81989C14.9438 1.97409 14.9438 1.12774 14.9438 0.281938C14.9438 0.141297 14.9438 0 14.6636 0C13.8212 0 12.9781 0 12.1356 0C12.1356 0 11.9949 0 11.8548 0C11.8548 0.141292 11.8548 0.141297 11.8548 0.281938C11.8548 1.12774 11.8548 1.97409 11.8548 2.81989C11.8548 3.10182 11.8549 3.10183 11.574 3.10183C9.8885 3.10183 8.34368 3.10183 6.65814 3.10183C5.95578 3.10183 5.25407 3.10183 4.55171 3.10183C4.27089 3.10183 4.27089 3.10183 4.27089 3.38376C4.27089 3.5244 4.27089 3.52441 4.27089 3.6657C4.27089 16.074 4.27089 28.4824 4.27089 40.8907C4.27089 41.032 4.27091 41.1726 4.13083 41.3139C1.74293 44.6984 0.338837 48.5055 0.0580222 52.5945C-0.0820609 54.1454 0.0580323 55.6969 0.198115 57.2479C0.47893 59.504 1.18193 61.6189 2.16446 63.7337C3.99007 67.2589 6.51869 70.0795 9.88912 72.1943C13.1195 74.1685 16.6306 75.2962 20.422 75.5782C22.1075 75.7188 23.9331 75.5782 25.6186 75.155C28.4274 74.5911 30.9554 73.4627 33.3433 71.9117C36.5737 69.7969 38.9609 66.8356 40.6464 63.3105C40.7865 63.0292 40.9266 63.0292 41.0673 63.0292C53.1463 63.0292 65.2246 63.0292 77.3022 63.0292C77.4429 63.0292 77.4429 63.0292 77.583 63.0292C77.583 62.8879 77.583 62.7473 77.583 62.7473C77.583 43.0061 77.583 23.2662 77.583 3.52505C77.583 3.24312 77.7237 3.24311 77.3022 3.24311C74.9149 3.24311 72.5277 3.24311 70.2799 3.24311C70.1398 3.24311 69.9997 3.24311 69.9997 2.96117C69.9997 2.11538 69.9997 1.26902 69.9997 0.423225C69.9997 0.282584 69.9997 0.282579 69.9997 0.141287C69.0159 0.141287 68.0334 0.141287 67.0502 0.141287C67.0502 0.705804 67.0502 1.12905 67.0502 1.69226C67.3265 2.53611 67.3264 3.10055 67.3264 3.52378Z" fill="#EDF9FF"/>
<path fill-rule="evenodd" clip-rule="evenodd" d="M67.395 4.21843C67.395 3.65823 67.395 3.23822 67.395 2.67932C67.395 2.11912 67.395 1.69976 67.395 1.14021C68.3828 1.14021 69.3705 1.14021 70.3582 1.14021C70.3582 1.27977 70.3582 1.27978 70.3582 1.41999C70.3582 2.25932 70.3582 3.09932 70.3582 3.93865C70.3582 4.07821 70.3582 4.21843 70.6403 4.21843C73.0393 4.21843 75.4376 4.21843 77.6952 4.21843C78.1187 4.21843 77.9773 4.21845 77.9773 4.49758C77.9773 24.0877 77.9773 43.6773 77.9773 63.2667C77.9773 63.407 77.9773 63.4068 77.9773 63.5464C77.836 63.5464 77.6952 63.5464 77.6952 63.5464C65.5609 63.5464 53.4267 63.5464 41.2924 63.5464C41.0103 63.5464 41.0103 63.5464 40.8689 63.8262C39.1756 67.3243 36.7772 70.1229 33.5319 72.3617C31.1336 73.9008 28.5939 75.0198 25.7721 75.58C24.0787 76 22.2446 76 20.5513 76C16.7417 75.8598 13.2143 74.7401 9.96896 72.6415C6.5829 70.5428 4.0432 67.7437 2.20911 64.2462C1.22073 62.2871 0.515771 60.0483 0.233654 57.8094C-0.0484626 56.2703 -0.0484728 54.7312 0.0929113 53.1921C0.374377 48.9942 1.78627 45.3564 4.18393 41.9978C4.32532 41.8576 4.32531 41.7181 4.32531 41.5778C4.32531 29.2645 4.32531 16.9505 4.32531 4.63715C4.32531 4.49759 4.32531 4.49758 4.32531 4.35737C4.32531 4.21781 4.32532 4.07759 4.60743 4.07759C5.3124 4.07759 6.01802 4.07759 6.72363 4.07759C8.41699 4.07759 9.96894 4.07759 11.6623 4.07759C11.9438 4.07759 11.9438 4.07757 11.9438 3.79844C11.9438 2.95911 11.9438 2.11911 11.9438 1.27978C11.9438 1.13957 11.9438 1.13956 11.9438 1C12.0852 1 12.0852 1 12.2259 1C13.0723 1 13.9193 1 14.7656 1C14.907 1 15.0477 1.00001 15.0477 1.27978C15.0477 2.11911 15.0477 2.95911 15.0477 3.79844C15.0477 3.93801 15.0477 4.07759 15.3298 4.07759C17.1639 4.07759 19.1394 4.07759 20.9735 4.07759C21.1148 4.07759 21.2556 4.07757 21.2556 3.79844C21.2556 2.95911 21.2556 2.11911 21.2556 1.27978C21.2556 1.13957 21.2556 1.13956 21.2556 1C21.397 1 21.397 1 21.397 1C22.2433 1 23.0903 1 23.9367 1C24.0774 1 24.2188 1.00001 24.2188 1.27978C24.2188 2.11911 24.2188 2.95911 24.2188 3.79844C24.2188 3.93801 24.2188 4.07759 24.5002 4.07759C26.335 4.07759 28.3098 4.07759 30.1445 4.07759C30.2853 4.07759 30.2853 4.07759 30.4266 4.07759C30.4266 3.09805 30.4266 2.11913 30.4266 1.13894C30.5674 1.13894 30.5674 1.13894 30.5674 1.13894C31.4137 1.13894 32.2608 1.13894 33.2485 1.13894C33.3892 1.13894 33.5299 1.13895 33.5299 1.41873C33.5299 2.25805 33.5299 3.09806 33.5299 3.93739C33.5299 4.0776 33.5299 4.21717 33.812 4.21717C35.6461 4.21717 37.6216 4.21717 39.4563 4.21717C39.5971 4.21717 39.7378 4.21716 39.7378 3.93739C39.7378 3.09806 39.7378 2.25805 39.7378 1.41873C39.7378 1.27916 39.7378 1.27916 39.7378 1.13894C39.8792 1.13894 39.8792 1.13894 39.8792 1.13894C40.7255 1.13894 41.5726 1.13894 42.4189 1.13894C42.5597 1.13894 42.701 1.13895 42.701 1.41873C42.701 2.25805 42.701 3.09806 42.701 3.93739C42.701 4.0776 42.701 4.21717 42.9832 4.21717C44.8172 4.21717 46.7927 4.21717 48.6267 4.21717C48.9089 4.21717 48.9089 4.21716 48.9089 3.93739C48.9089 3.09806 48.9089 2.25805 48.9089 1.41873C48.9089 1.27916 48.9089 1.27916 48.9089 1.13894C49.0496 1.13894 49.0496 1.13894 49.0496 1.13894C49.896 1.13894 50.743 1.13894 51.7307 1.13894C51.8715 1.13894 52.0128 1.13895 52.0128 1.41873C52.0128 2.25805 52.0128 3.09806 52.0128 3.93739C52.0128 4.0776 52.0128 4.21717 52.2943 4.21717C54.129 4.21717 56.1038 4.21717 57.9385 4.21717C58.0793 4.21717 58.0793 4.21717 58.2207 4.21717C58.2207 3.23763 58.2207 2.25806 58.2207 1.27852C58.3614 1.27852 58.3614 1.27852 58.3614 1.27852C59.2078 1.27852 60.0548 1.27852 61.0425 1.27852C61.1833 1.27852 61.324 1.27852 61.324 1.5583C61.324 2.39763 61.324 3.23764 61.324 4.21654C61.324 4.35675 61.324 4.49632 61.6061 4.49632C63.5815 4.49632 65.4156 4.49632 67.3911 4.49632C67.1129 4.35804 67.2537 4.21843 67.395 4.21843ZM7.42926 38.64C12.5087 34.5822 18.1523 32.7633 24.5016 33.7422C30.8508 34.5822 35.9302 37.7999 39.4577 43.2578C42.9851 48.5748 43.6907 54.4522 42.1381 60.7481C42.2795 60.7481 42.4202 60.7481 42.4202 60.7481C53.1439 60.7481 63.8669 60.7481 74.4492 60.7481C74.8727 60.7481 74.8727 60.7481 74.8727 60.3281C74.8727 51.7927 74.8727 43.117 74.8727 34.5822C74.8727 28.1454 74.8727 21.7086 74.8727 15.4121C74.8727 15.2725 74.8727 15.1323 74.8727 14.9921C52.2975 14.9921 29.8631 14.9921 7.28721 14.9921C7.42924 22.8284 7.42926 30.6641 7.42926 38.64ZM38.1878 62.5676C39.1755 60.6085 39.7398 58.5098 39.8812 56.2703C38.8934 56.2703 38.047 56.2703 37.0593 56.2703C37.0593 56.1308 37.0593 56.1307 37.0593 56.1307C37.0593 55.2914 37.0593 54.4514 37.0593 53.4719C37.0593 53.3323 37.0593 53.1929 37.3414 53.1929C38.047 53.1929 38.8934 53.1929 39.599 53.1929C39.7404 53.1929 39.7404 53.1929 39.8812 53.1929C39.7404 50.9534 39.1755 48.8547 38.1878 46.8956C37.3414 47.3156 36.6358 47.8758 35.7888 48.2951C35.2246 47.4558 34.8011 46.6158 34.2369 45.6362C35.0832 45.2163 35.7888 44.6567 36.6358 44.2373C35.366 42.4178 33.814 40.8794 31.9799 39.6201C31.5564 40.4595 30.9922 41.1586 30.5687 41.9986C29.7224 41.439 28.8753 41.019 27.8882 40.4595C28.3117 39.6201 28.876 38.7801 29.2989 38.081C27.324 37.1008 25.2072 36.5419 22.9496 36.4017C22.9496 37.3812 22.9496 38.2206 22.9496 39.2001C21.9619 39.2001 20.9741 39.2001 19.8457 39.2001C19.8457 38.22 19.8457 37.3806 19.8457 36.4017C17.5874 36.5413 15.4712 37.1008 13.4957 38.081C13.9192 38.9203 14.4841 39.6201 14.907 40.4595C14.0606 41.0197 13.0723 41.4397 12.2259 41.9986C11.8024 41.1593 11.2381 40.4595 10.8153 39.6201C8.98055 40.8794 7.42924 42.4178 6.15939 44.2373C7.00574 44.6573 7.85209 45.2169 8.55771 45.6362C7.99348 46.4756 7.56999 47.3156 7.00576 48.2951C6.15941 47.8751 5.3124 47.3156 4.60743 46.8956C3.61905 48.8547 3.05548 50.9534 2.9141 53.1929C3.90183 53.1929 4.74815 53.1929 5.73589 53.1929C5.73589 54.1724 5.73589 55.1512 5.73589 55.9912C5.73589 56.1307 5.59451 56.1307 5.59451 56.1307C4.74816 56.1307 4.04255 56.1307 3.19555 56.1307C3.05482 56.1307 3.05483 56.1307 2.9141 56.1307C3.05483 58.3696 3.61905 60.4683 4.60743 62.4274C5.45378 62.0074 6.30079 61.4478 7.00576 61.0285C7.57064 61.8678 7.99413 62.7078 8.55771 63.6867C7.71136 64.1067 6.86436 64.6668 6.15939 65.0861C7.42924 66.905 8.98055 68.4442 10.8153 69.7035C11.2388 68.8641 11.8031 68.0241 12.2259 67.3244C13.0723 67.8846 13.9192 68.3046 14.907 68.8635C14.4835 69.7028 13.9186 70.4026 13.4957 71.2426C14.6249 71.9423 18.8573 73.0615 19.8457 72.9219C19.8457 72.7817 19.8457 72.7817 19.8457 72.6421C19.8457 71.8028 19.8457 71.103 19.8457 70.263C19.8457 70.1235 19.8456 69.9839 20.1271 69.9839C20.9734 69.9839 21.8205 69.9839 22.8082 69.9839H22.9489C22.9489 70.9634 22.9489 71.8028 22.9489 72.7817C25.2072 72.6421 27.3234 72.0826 29.2989 71.1024C28.8754 70.263 28.3105 69.5639 27.8876 68.7239C28.734 68.1637 29.581 67.7437 30.5687 67.1848C30.9922 68.0241 31.5564 68.7239 31.9793 69.5639C33.8134 68.3046 35.3653 66.7654 36.6352 64.9459C35.7888 64.5259 35.0832 63.9665 34.2369 63.5472C34.8011 62.7078 35.2246 61.8678 35.7882 60.8883C36.6358 61.7276 37.3414 62.1476 38.1878 62.5676Z" fill="#14414B"/>
<path fill-rule="evenodd" clip-rule="evenodd" d="M8 37.7733C8 29.7556 8 21.8775 8 14C30.7136 14 53.2857 14 76 14C76 14.1403 76 14.2813 76 14.4222C76 20.8927 76 27.3638 76 33.6939C76 42.2749 76 50.9968 76 59.5778C76 60 76 60 75.5739 60C64.7845 60 53.9956 60 43.3478 60C43.2062 60 43.2062 60 43.0646 60C44.6254 53.8102 43.9161 47.9022 40.3671 42.4158C36.8186 36.9295 31.7074 33.8355 25.3193 32.8501C18.7888 31.8654 13.1099 33.694 8 37.7733ZM12.6845 29.1924C12.826 29.1924 12.9683 29.1924 12.9683 29.1924C22.0534 29.1924 31.1391 29.1924 40.0832 29.1924C40.3664 29.1924 40.3664 29.1923 40.3664 29.4729C40.3664 30.8799 40.3664 32.146 40.3664 33.5523C40.3664 33.6933 40.3664 33.6933 40.3664 33.8336C40.5087 33.8336 40.5087 33.8336 40.6503 33.8336C41.5018 33.8336 42.354 33.8336 43.2055 33.8336C43.4894 33.8336 43.4894 33.8336 43.4894 33.5523C43.4894 32.146 43.4894 30.8799 43.4894 29.4729C43.4894 29.3326 43.4894 29.1924 43.7732 29.1924C45.7608 29.1924 47.6061 29.1924 49.5937 29.1924C49.7353 29.1924 49.8776 29.1924 49.8776 29.3327C49.8776 31.3023 49.8776 33.1308 49.8776 35.1003C49.8776 35.2406 49.8776 35.2406 49.7353 35.2406H49.5937C47.7477 35.2406 45.9024 35.2406 44.0571 35.2406C43.9148 35.2406 43.7732 35.2406 43.7732 35.5219C43.7732 36.3657 43.7732 37.2102 43.7732 38.054C43.7732 38.054 43.7732 38.1949 43.7732 38.3353C43.9148 38.3353 43.9148 38.3353 44.0571 38.3353C45.9024 38.3353 47.89 38.3353 49.7353 38.3353C49.8776 38.3353 50.0192 38.3353 50.0192 38.6165C50.0192 39.4603 50.0192 40.3047 50.0192 41.1485C50.0192 41.2888 50.0192 41.2888 50.0192 41.4298C51.013 41.4298 51.8645 41.4298 52.8583 41.4298C52.9999 41.4298 53.1421 41.4298 53.1421 41.1485C53.1421 40.3047 53.1421 39.4603 53.1421 38.6165C53.1421 38.4762 53.1421 38.4762 53.1421 38.3353C53.2837 38.3353 53.2837 38.3353 53.2837 38.3353C55.2713 38.3353 57.1166 38.3353 59.1042 38.3353C59.2458 38.3353 59.2458 38.3353 59.2458 38.6165C59.2458 39.6013 59.2458 40.445 59.2458 41.4298C59.2458 42.4145 59.2458 43.3993 59.2458 44.3841C59.2458 44.5244 59.2458 44.6654 59.1042 44.5244H58.9626C56.1235 44.5244 53.2837 44.5244 50.4446 44.5244C50.303 44.5244 50.1608 44.5244 50.1608 44.8057C50.1608 45.6495 50.1608 46.494 50.1608 47.3378C50.1608 47.4787 50.1608 47.4787 50.1608 47.619C50.303 47.619 50.303 47.619 50.4446 47.619C53.2837 47.619 56.2651 47.619 59.1042 47.619C59.3881 47.619 59.3881 47.619 59.3881 47.9003C59.3881 49.7289 59.3881 51.6983 59.3881 53.5269C59.3881 53.6679 59.3881 53.6679 59.3881 53.8082C59.2458 53.8082 59.1042 53.8082 59.1042 53.8082C56.2651 53.8082 53.4253 53.8082 50.4446 53.8082C50.1607 53.8082 50.1608 53.8082 50.1608 54.0895C50.1608 54.9333 50.1608 55.7777 50.1608 56.6216C50.1608 56.7619 50.1608 56.7619 50.1608 56.9028C57.4012 56.9028 64.4993 56.9028 71.739 56.9028C71.739 56.7619 71.739 56.7619 71.739 56.6216C71.739 46.6336 71.739 36.5053 71.739 26.5173C71.739 26.377 71.739 26.2362 71.4552 26.2362H71.3136C65.3515 26.2362 59.531 26.2362 53.5682 26.2362C53.1421 26.2362 53.1421 26.2362 53.1421 25.9556C53.1421 23.1422 53.1421 20.3282 53.1421 17.3745C53.1421 17.0932 53.1421 17.0934 52.8589 17.0934C39.6564 17.0934 26.4533 17.0934 13.2515 17.0934C13.1092 17.0934 13.1092 17.0934 12.9676 17.0934C12.6844 21.174 12.6845 25.1131 12.6845 29.1924Z" fill="#EDF9FF"/>
<path fill-rule="evenodd" clip-rule="evenodd" d="M38.2587 63.2177C37.3887 62.7923 36.6634 62.2249 35.7927 61.8002C35.2127 62.6503 34.7774 63.501 34.1974 64.4931C35.0674 64.9185 35.7927 65.4851 36.6634 65.9098C35.3581 67.7526 33.7628 69.3109 31.8774 70.5863C31.4421 69.7362 30.8622 69.0281 30.4269 68.1774C29.5569 68.7441 28.6862 69.1695 27.6715 69.7362C28.1069 70.5863 28.6869 71.2944 29.1215 72.1451C27.0916 73.1379 24.9156 73.7039 22.595 73.8459C22.595 72.8539 22.595 72.0037 22.595 71.0117H22.4503C21.5803 71.0117 20.7097 71.0117 19.6944 71.0117C19.5497 71.0117 19.4044 71.0117 19.4044 71.295C19.4044 72.1451 19.4044 72.8539 19.4044 73.7046C19.4044 73.8459 19.4044 73.8459 19.4044 73.9879C18.3891 74.1293 14.0385 72.9952 12.8778 72.2871C13.3131 71.437 13.8931 70.7283 14.3284 69.8776C13.4578 69.3108 12.5878 68.8855 11.5725 68.3187C11.1372 69.1688 10.5572 69.8776 10.1225 70.7283C8.23655 69.4529 6.64123 67.894 5.33591 66.0518C6.2059 65.6265 7.07657 65.0591 7.8019 64.6344C7.22191 63.7843 6.78656 62.9336 6.20657 61.9422C5.33658 62.3669 4.61127 62.9343 3.74062 63.359C2.7253 61.3749 2.146 59.2493 2 56.9817C2.14533 56.9817 2.1453 56.9817 2.28997 56.9817C3.15995 56.9817 3.88529 56.9817 4.75595 56.9817C4.90061 56.9817 4.90059 56.9817 4.90059 56.8397C4.90059 55.8476 4.90059 54.9975 4.90059 54.0054C4.0306 54.0054 3.01532 54.0054 2 54.0054C2.14533 51.7379 2.7253 49.6124 3.74062 47.6283C4.61127 48.0536 5.48125 48.6204 6.20657 49.0457C6.78656 48.195 7.22191 47.3449 7.8019 46.3528C6.93191 45.9275 6.20657 45.3607 5.33591 44.936C6.64123 43.0932 8.23655 41.5345 10.1225 40.259C10.5572 41.1091 11.1378 41.8178 11.5725 42.6686C12.4425 42.1018 13.3131 41.6765 14.3284 41.1097C13.8931 40.2597 13.3125 39.5509 12.8778 38.7008C14.9084 37.7081 17.0838 37.142 19.4044 37C19.4044 37.9921 19.4044 38.8422 19.4044 39.8336C20.4204 39.8336 21.435 39.8336 22.5956 39.8336C22.5956 38.8416 22.5956 37.9914 22.5956 37C24.9162 37.1414 27.0916 37.7081 29.1222 38.7008C28.6869 39.5509 28.1068 40.259 27.6722 41.1097C28.5422 41.6771 29.4129 42.1025 30.4275 42.6686C30.8628 41.8185 31.4428 41.1097 31.8782 40.259C33.7635 41.5345 35.3588 43.0932 36.6641 44.936C35.7941 45.3614 35.0688 45.9281 34.1981 46.3528C34.7781 47.2029 35.2134 48.0537 35.7934 49.0457C36.6634 48.6204 37.3887 48.195 38.2593 47.6283C39.2747 49.6124 39.8547 51.7379 40 54.0054C39.8547 54.0054 39.8547 54.0054 39.71 54.0054C38.9847 54.0054 38.1147 54.0054 37.3894 54.0054C37.2441 54.0054 37.0994 54.0055 37.0994 54.2888C37.0994 55.1389 37.0994 55.9896 37.0994 56.9817V57.1231C38.1147 57.1231 38.9847 57.1231 40 57.1231C39.8547 59.1079 39.274 61.2335 38.2587 63.2177ZM22.7396 53.7221C22.7396 50.0371 22.7396 46.3528 22.7396 42.6678C21.7243 42.6678 20.7096 42.6678 19.549 42.6678C19.549 47.3449 19.549 52.0213 19.549 56.6984C23.3203 56.6984 27.0909 56.6984 30.8622 56.6984C30.8622 56.557 30.8622 56.557 30.8622 56.415C30.8622 55.5649 30.8622 54.7143 30.8622 53.8642C30.8622 53.5809 30.8622 53.5808 30.5722 53.5808C28.1062 53.5808 25.6409 53.5808 23.0303 53.5808C23.0296 53.7222 22.885 53.7221 22.7396 53.7221Z" fill="#EDF9FF"/>
<path fill-rule="evenodd" clip-rule="evenodd" d="M12 29.2973C12 25.1984 12 21.0989 12 17C12.1446 17 12.1446 17 12.2898 17C25.7676 17 39.2468 17 52.7252 17C53.0144 17 53.0143 17 53.0143 17.2826C53.0143 20.1094 53.0143 22.9362 53.0143 25.9046C53.0143 26.1872 53.0143 26.1872 53.4493 26.1872C59.5367 26.1872 65.4789 26.1872 71.5656 26.1872H71.7102C71.8554 26.1872 72 26.1873 72 26.4692C72 36.505 72 46.6816 72 56.7174C72 56.7174 72 56.8584 72 57C64.6089 57 57.3624 57 49.9706 57C49.9706 56.8584 49.9706 56.8584 49.9706 56.7174C49.9706 55.8695 49.9706 55.021 49.9706 54.1732C49.9706 53.8906 49.9707 53.8905 50.2604 53.8905C53.1589 53.8905 56.058 53.8905 59.1011 53.8905C59.2456 53.8905 59.3908 53.8905 59.3908 53.8905C59.3908 53.7496 59.3908 53.7496 59.3908 53.6079C59.3908 51.7706 59.3908 49.7917 59.3908 47.9544C59.3908 47.6718 59.3908 47.6718 59.1011 47.6718C56.2026 47.6718 53.1589 47.6718 50.2604 47.6718C50.1159 47.6718 50.1159 47.6718 49.9706 47.6718C49.9706 47.5308 49.9706 47.5308 49.9706 47.3892C49.9706 46.5413 49.9706 45.6928 49.9706 44.8449C49.9706 44.5623 49.9707 44.5623 50.2604 44.5623C53.1589 44.5623 56.058 44.5623 58.9565 44.5623H59.1011C59.2456 44.5623 59.2456 44.5623 59.2456 44.4213C59.2456 43.4319 59.2456 42.4425 59.2456 41.453C59.2456 40.4635 59.2456 39.6157 59.2456 38.6262C59.2456 38.4852 59.2456 38.3436 59.1011 38.3436C57.0719 38.3436 55.188 38.3436 53.1589 38.3436H53.0143C53.0143 38.4852 53.0143 38.4852 53.0143 38.6262C53.0143 39.474 53.0143 40.3225 53.0143 41.1704C53.0143 41.312 53.0143 41.453 52.7245 41.453C51.71 41.453 50.84 41.453 49.8261 41.453C49.8261 41.312 49.8261 41.312 49.8261 41.1704C49.8261 40.3225 49.8261 39.474 49.8261 38.6262C49.8261 38.4852 49.8261 38.3436 49.5363 38.3436C47.6524 38.3436 45.6232 38.3436 43.7393 38.3436C43.5941 38.3436 43.5941 38.3436 43.4495 38.3436C43.4495 38.2026 43.4495 38.2026 43.4495 38.0609C43.4495 37.2131 43.4495 36.3646 43.4495 35.5167C43.4495 35.3757 43.4496 35.2347 43.7393 35.2347C45.6232 35.2347 47.5071 35.2347 49.3917 35.2347H49.5363C49.6815 35.2347 49.6815 35.2347 49.6815 35.0931C49.6815 33.1142 49.6815 31.2769 49.6815 29.298C49.6815 29.157 49.6815 29.157 49.3917 29.157C47.3626 29.157 45.4787 29.157 43.4495 29.157C43.3043 29.157 43.1598 29.2979 43.1598 29.4396C43.1598 30.8527 43.1598 32.1247 43.1598 33.5384C43.1598 33.8204 43.1598 33.8204 42.87 33.8204C42.0006 33.8204 41.1307 33.8204 40.2613 33.8204C40.1168 33.8204 40.1168 33.8204 39.9715 33.8204C39.9715 33.6794 39.9715 33.6794 39.9715 33.5384C39.9715 32.1247 39.9715 30.8527 39.9715 29.4396C39.9715 29.157 39.9715 29.157 39.6824 29.157C30.4067 29.157 21.1311 29.157 12.0007 29.157C12.2898 29.2973 12.1446 29.2973 12 29.2973ZM49.8267 23.2194C49.8267 22.2299 49.8267 21.3821 49.8267 20.3926C49.8267 20.2516 49.8267 20.1101 49.5369 20.1101C47.653 20.1101 45.6239 20.1101 43.7393 20.1101C43.5948 20.1101 43.4503 20.11 43.4503 20.3926C43.4503 22.2299 43.4503 24.2089 43.4503 26.0469C43.4503 26.1879 43.4502 26.3289 43.7393 26.3289C45.6239 26.3289 47.653 26.3289 49.5369 26.3289C49.6815 26.3289 49.8267 26.3288 49.8267 26.0469C49.8267 25.0567 49.8267 24.2082 49.8267 23.2194ZM59.247 32.4066C59.247 31.4172 59.247 30.5694 59.247 29.5799C59.247 29.439 59.247 29.2973 58.9572 29.2973C56.9281 29.2973 55.0442 29.2973 53.015 29.2973C52.8705 29.2973 52.7252 29.2973 52.7252 29.5799C52.7252 31.5589 52.7252 33.3961 52.7252 35.3751C52.7252 35.5167 52.7253 35.6577 53.015 35.6577C55.0442 35.6577 56.9281 35.6577 58.9572 35.6577C59.1018 35.6577 59.247 35.6577 59.247 35.3751C59.247 34.3856 59.247 33.3961 59.247 32.4066ZM65.6241 29.2973C64.6089 29.2973 63.595 29.2973 62.7257 29.2973C62.5804 29.2973 62.4359 29.2972 62.4359 29.5792C62.4359 31.5581 62.4359 33.3962 62.4359 35.3745C62.4359 35.5161 62.4359 35.6571 62.7257 35.6571C64.7548 35.6571 66.6387 35.6571 68.6679 35.6571C68.8124 35.6571 68.9576 35.6571 68.9576 35.3745C68.9576 33.3962 68.9576 31.5581 68.9576 29.5792C68.9576 29.4382 68.9576 29.2973 68.6679 29.2973C67.5081 29.2973 66.638 29.2973 65.6241 29.2973ZM68.8124 41.5939C68.8124 40.6044 68.8124 39.7566 68.8124 38.7672C68.8124 38.6262 68.8124 38.4852 68.5226 38.4852C66.4942 38.4852 64.6096 38.4852 62.5805 38.4852C62.4359 38.4852 62.2913 38.4852 62.2913 38.7672C62.2913 40.7461 62.2913 42.584 62.2913 44.5623C62.2913 44.704 62.2913 44.8449 62.5805 44.8449C64.6096 44.8449 66.4942 44.8449 68.5226 44.8449C68.6679 44.8449 68.8124 44.8449 68.8124 44.5623C68.8124 43.5729 68.8124 42.584 68.8124 41.5939ZM65.6241 47.8134C64.6089 47.8134 63.595 47.8134 62.7257 47.8134C62.5804 47.8134 62.4359 47.8134 62.4359 48.096C62.4359 50.075 62.4359 51.9122 62.4359 53.8912C62.4359 54.0322 62.4359 54.1738 62.7257 54.1738C64.7548 54.1738 66.6387 54.1738 68.6679 54.1738C68.8124 54.1738 68.9576 54.1738 68.9576 53.8912C68.9576 51.9122 68.9576 50.075 68.9576 48.096C68.9576 47.955 68.9576 47.8134 68.6679 47.8134C67.5081 47.8134 66.638 47.8134 65.6241 47.8134ZM21.4202 26.3289C21.4202 26.1879 21.4202 26.1879 21.4202 26.0469C21.4202 24.2089 21.4202 22.2299 21.4202 20.3926C21.4202 20.11 21.2756 20.1101 21.1304 20.1101C19.2465 20.1101 17.362 20.1101 15.3335 20.1101C15.0437 20.1101 15.0437 20.11 15.0437 20.3926C15.0437 22.2299 15.0437 24.0679 15.0437 26.0469C15.0437 26.3288 15.0437 26.3289 15.3335 26.3289C17.2174 26.3289 19.1013 26.3289 21.1304 26.3289C21.2756 26.3289 21.2756 26.3289 21.4202 26.3289ZM24.6085 20.1101C24.6085 20.2511 24.6085 20.251 24.6085 20.3919C24.6085 22.3709 24.6085 24.2083 24.6085 26.1872C24.6085 26.3289 24.6085 26.4698 24.8983 26.4698C26.7829 26.4698 28.8113 26.4698 30.6959 26.4698C30.8405 26.4698 30.9857 26.4698 30.9857 26.1872C30.9857 24.3499 30.9857 22.3709 30.9857 20.5336C30.9857 20.251 30.9857 20.251 30.6959 20.251C28.8113 20.251 26.7829 20.251 24.8983 20.251C24.7537 20.11 24.7537 20.1101 24.6085 20.1101ZM40.4065 26.3289C40.4065 26.1879 40.4065 26.1879 40.4065 26.0469C40.4065 24.2089 40.4065 22.2299 40.4065 20.3926C40.4065 20.11 40.4065 20.1101 40.1167 20.1101C38.2322 20.1101 36.2037 20.1101 34.3191 20.1101C34.0294 20.1101 34.0294 20.11 34.0294 20.3926C34.0294 22.2299 34.0294 24.2089 34.0294 26.0469C34.0294 26.1879 34.0294 26.3289 34.3191 26.3289C36.2037 26.3289 38.2322 26.3289 40.1167 26.3289C40.1161 26.3289 40.2606 26.3289 40.4065 26.3289Z" fill="#14414B"/>
<path fill-rule="evenodd" clip-rule="evenodd" d="M48 23.4999C48 24.2955 48 24.9772 48 25.7728C48 25.8861 48 26 47.7728 26C46.2955 26 44.7044 26 43.2267 26C43.1133 26 43 26 43 25.7728C43 24.295 43 22.7044 43 21.2266C43 21.1133 43 21 43.2267 21C44.7044 21 46.2955 21 47.7728 21C47.8861 21 48 20.9999 48 21.2266C48 21.9088 48 22.7044 48 23.4999Z" fill="#EDF9FF"/>
<path fill-rule="evenodd" clip-rule="evenodd" d="M60 32.5779C60 33.6668 60 34.7559 60 35.689C60 35.8441 60 36 59.689 36C57.511 36 55.489 36 53.311 36C53.1559 36 53 36 53 35.689C53 33.511 53 31.489 53 29.311C53 29.1559 53 29 53.311 29C55.489 29 57.511 29 59.689 29C59.8441 29 60 29 60 29.311C60 30.5559 60 31.4896 60 32.5779Z" fill="#14414B" stroke="#14414B" stroke-width="0.2646" stroke-miterlimit="22.9256"/>
<path fill-rule="evenodd" clip-rule="evenodd" d="M64.5783 29C65.6673 29 66.6006 29 67.6896 29C67.8448 29 68 28.9999 68 29.3102C68 31.4884 68 33.5115 68 35.6889C68 35.8448 68 36 67.6896 36C65.5115 36 63.4885 36 61.3111 36C61.1552 36 61 36 61 35.6889C61 33.5115 61 31.4884 61 29.3102C61 29.1551 61 29 61.3111 29C62.4001 29 63.4885 29 64.5783 29Z" fill="#EDF9FF"/>
<path fill-rule="evenodd" clip-rule="evenodd" d="M23 29C22.796 29 22.796 29 22.591 29C19.932 29 17.2721 29 14.409 29C14 29 14 29 14 28.5466C14 25.591 14 22.6365 14 19.4543C14 18.9998 14 19 14.409 19C17.068 19 19.727 19 22.591 19C22.796 19 23 18.9998 23 19.4543C23 22.4087 23 25.591 23 28.5466C23 28.5455 23 28.7733 23 29Z" fill="#14414B"/>
<path fill-rule="evenodd" clip-rule="evenodd" d="M25 21C25.1366 21 25.1366 21 25.2726 21C27.0458 21 28.9542 21 30.7274 21C30.8634 21 31 20.9999 31 21.2266C31 22.7044 31 24.295 31 25.7728C31 25.8861 31 26 30.7274 26C28.9542 26 27.0458 26 25.2726 26C25.1366 26 25 26 25 25.7728C25 24.1817 25 22.7044 25 21.1133C25 21.1133 25 21.1134 25 21Z" fill="#EDF9FF"/>
<path fill-rule="evenodd" clip-rule="evenodd" d="M41 28C40.8178 28 40.8178 28 40.6365 28C38.2723 28 35.7277 28 33.3635 28C33 28 33 27.7959 33 27.5919C33 24.9319 33 22.0679 33 19.4088C33 18.9998 33 19 33.3635 19C35.7277 19 38.2723 19 40.6365 19C41 19 41 18.9998 41 19.4088C41 22.0679 41 24.9319 41 27.5919C41 27.591 41 27.796 41 28Z" fill="#14414B"/>
<path fill-rule="evenodd" clip-rule="evenodd" d="M22.6672 55.4447C22.8342 55.4447 23.0004 55.4447 23.0004 55.4447C25.834 55.4447 28.6669 55.4447 31.6668 55.4447C32 55.4447 32 55.4447 32 55.7679C32 56.7373 32 57.7075 32 58.6769C32 58.8381 32 58.8381 32 59C27.6664 59 23.3336 59 19 59C19 53.6664 19 48.3336 19 43C20.1667 43 21.3334 43 22.6672 43C22.6672 47.041 22.6672 51.2433 22.6672 55.4447Z" fill="#14414B"/>
<path fill-rule="evenodd" clip-rule="evenodd" d="M65.5783 48C66.6673 48 67.6006 48 68.6896 48C68.8448 48 69 48 69 48.311C69 50.489 69 52.511 69 54.689C69 54.8441 69 55 68.6896 55C66.5115 55 64.4885 55 62.3111 55C62.1552 55 62 55 62 54.689C62 52.511 62 50.489 62 48.311C62 48.1559 62 48 62.3111 48C63.4001 48 64.4885 48 65.5783 48Z" fill="#14414B" stroke="#14414B" stroke-width="0.2646" stroke-miterlimit="22.9256"/>
</svg>
