<svg width="81" height="105" viewBox="0 0 81 105" fill="none" xmlns="http://www.w3.org/2000/svg">
<path fill-rule="evenodd" clip-rule="evenodd" d="M68.1087 7.02038C70.2577 9.19358 72.406 11.3661 74.5543 13.706C73.3974 15.3768 72.0756 17.0484 70.9187 19.0542C70.5882 19.7225 70.5882 20.8916 70.7538 21.7281C70.9187 22.3964 71.5795 23.0655 71.5795 23.7339C72.0756 27.2437 74.3895 28.0796 77.3643 28.4137C81 28.7471 81 28.9145 81 32.591C81 38.4408 81 38.4409 75.3816 39.1092C73.5637 39.2767 72.9029 40.4466 71.9108 41.9507C68.4399 46.9647 71.7451 50.1404 74.7199 53.6495C72.4068 55.8219 70.0929 57.8276 67.6141 60C66.6228 59.3317 65.4651 58.3285 64.3089 57.3261C62.6559 55.8219 61.1685 54.4845 58.8553 56.657C58.5249 55.6545 58.3593 54.9861 58.0288 54.4845C61.4997 51.643 61.1685 51.9779 65.4659 55.3203C66.4572 55.9886 67.1188 57.1578 68.7711 55.8219C71.581 53.482 71.7459 53.3145 69.2671 50.4737C68.2758 49.303 67.4493 48.1338 66.7884 47.298C67.9454 44.1231 69.1023 41.1149 70.2592 38.1059C70.4241 37.6043 71.2506 37.1034 71.9115 36.936C73.895 36.4343 76.0433 36.2676 77.8619 35.9335C78.0267 35.7668 78.0267 35.5993 78.0267 35.5993C78.6876 31.087 78.5228 30.9204 74.0606 30.2513C73.2341 30.0846 72.4076 30.0846 71.7467 29.7496C71.0858 29.4162 70.2592 28.7471 69.9288 28.0788C68.9374 25.9064 68.111 23.5664 66.954 21.2265C66.458 20.224 66.2931 19.5558 67.1189 18.72C68.4414 17.0484 69.5984 15.3776 70.9202 13.5385C69.7632 12.536 68.6063 11.5327 67.1189 10.1961C65.7971 11.1994 64.144 12.3693 62.4918 13.5385C61.5004 14.3743 60.674 14.2076 59.6819 13.706C57.6984 12.7035 55.7157 11.7002 53.5666 11.1994C52.0792 10.6977 51.5832 10.0286 51.4183 8.52451C51.2535 6.68623 50.7574 4.84804 50.5918 3.00977C50.2621 2.84307 50.2621 2.6756 50.0958 2.6756C45.7992 2.34144 45.6336 2.34134 45.1375 6.68621C44.8078 9.36104 44.1462 11.0319 41.1714 11.5328C39.684 11.7002 38.0317 12.7035 36.7091 13.5385C35.5522 14.3743 34.5609 14.3743 33.4039 13.3718C31.9165 12.2019 30.2643 11.0319 28.7761 9.86193C28.4464 10.0286 28.2808 10.0286 28.1152 10.1961C25.1404 13.0369 24.81 13.3711 27.6192 16.3793C30.0979 19.2209 29.2722 21.3932 27.1231 23.9006C26.627 23.7331 25.9661 23.399 25.3052 23.2315C25.3052 22.8973 25.1404 22.7299 25.3052 22.7299C26.9582 20.5574 26.4629 18.7192 24.6443 16.8802C23.653 15.7102 22.8265 14.3736 22 13.2036C24.3139 11.0312 26.4622 8.85789 28.7761 6.68546C30.2635 7.85541 32.0814 9.1921 34.0648 10.5295C34.5609 10.8637 35.5522 10.8637 36.3779 10.6962C37.5356 10.3621 38.527 9.52626 39.5184 9.3588C41.9971 9.02541 42.658 7.52123 42.9892 5.18133C43.6501 -0.000102449 43.8157 0 49.1044 0C53.0705 0 53.2354 3.62104e-05 53.5666 4.01152C53.8963 7.18643 54.8884 9.3588 58.1937 9.86042C58.6897 9.86042 59.3514 10.1946 59.6811 10.5295C60.8388 11.3645 61.8301 11.1978 62.9863 10.3621C64.6386 9.52781 66.2908 8.3578 68.1087 7.02038Z" fill="#14414B"/>
<path fill-rule="evenodd" clip-rule="evenodd" d="M57.8093 44C57.3012 43.3323 56.7938 42.8312 56.2856 42.3308C60.5175 36.153 60.3486 30.3089 56.116 25.9684C51.7144 21.6278 46.1268 21.4605 39.3549 25.8018C39.0163 25.3007 38.5082 24.633 38 24.1326C42.7408 18.6225 52.2218 18.6225 57.8093 24.1326C63.3969 29.4747 63.3969 38.8244 57.8093 44Z" fill="#14414B"/>
<path fill-rule="evenodd" clip-rule="evenodd" d="M50.9922 56.5806C51.3202 68.7907 40.7965 81 25.8322 81C11.8551 81 0.83779 69.9153 1.00181 56.2593C1.00181 42.9246 12.3486 32 25.997 32C41.2901 32.161 51.3202 44.5322 50.9922 56.5806ZM9.38792 56.4203C9.38792 65.2565 16.6237 72.4857 25.5027 72.6459C33.8896 72.8069 42.1117 66.7023 42.2757 57.2237C42.4397 47.1019 35.2047 40.515 26.1602 40.3548C16.9517 40.1938 9.55193 47.2629 9.38792 56.4203Z" fill="#14414B" stroke="#14414B" stroke-width="0.5644" stroke-miterlimit="22.9256"/>
<path fill-rule="evenodd" clip-rule="evenodd" d="M9 56.418C9 47.2257 16.5889 39.8382 25.8281 40.0027C34.9027 40.1664 42.1626 46.8967 41.9972 57.2389C41.8327 66.9238 33.5832 73.1613 25.1684 72.9968C16.2599 72.8331 9 65.4465 9 56.418ZM11.6399 56.5817C11.6399 64.2966 17.9093 70.535 25.6643 70.535C33.4186 70.535 39.6888 64.7893 39.8534 56.5817C39.8534 47.8814 33.0887 42.7937 25.6643 42.6285C17.7447 42.4655 11.6399 48.8668 11.6399 56.5817Z" fill="#14414B"/>
<path fill-rule="evenodd" clip-rule="evenodd" d="M11 56.5016C11 48.4853 17.312 41.8331 25.3295 42.0032C33.0059 42.0032 40 47.4614 40 56.5016C40 65.2008 33.3469 71 25.3295 71C17.4822 71 11 64.5187 11 56.5016Z" fill="#EDF9FF"/>
<path fill-rule="evenodd" clip-rule="evenodd" d="M49 84.2233C51.5109 81.8158 54.0225 79.4075 56.5334 77C62.2254 82.457 68.0851 88.0757 73.7771 93.6942C74.2796 94.1761 74.7813 94.6571 75.1168 94.9788C77.6277 97.3864 77.6277 99.4729 75.1168 101.88C72.4374 104.45 70.0943 104.771 67.5827 102.362C61.389 96.5836 55.3622 90.6447 49.1677 84.7051C49.3347 84.7044 49.167 84.3834 49 84.2233ZM69.5918 95.2998C65.5735 91.4468 61.556 87.5937 57.7054 83.9016C57.2029 84.3834 56.5326 84.7044 55.6962 85.5072C59.379 88.8783 62.7271 92.0886 66.243 95.2989C66.7454 95.7807 67.2472 96.2618 67.9174 96.7436C68.4191 96.2625 68.9216 95.7808 69.5918 95.2998Z" fill="#14414B" stroke="#14414B" stroke-width="0.2822" stroke-miterlimit="22.9256"/>
<path fill-rule="evenodd" clip-rule="evenodd" d="M43.254 86C41.5595 84.4874 39.8643 82.6389 38 80.7896C40.881 78.6049 43.9326 76.7563 46.4746 74.4032C49.0167 71.8825 50.8818 68.8575 53.0849 66C54.6103 67.681 56.3048 69.5295 58 71.3781C53.4238 76.0842 48.5079 80.9587 43.254 86Z" fill="#14414B"/>
<path fill-rule="evenodd" clip-rule="evenodd" d="M69 95.5377C68.373 96.0247 67.9029 96.5123 67.4335 97C66.8072 96.5123 66.3371 96.0247 65.8677 95.5377C62.7354 92.2879 59.4462 89.0372 56 85.6253C56.7833 84.9747 57.4096 84.487 57.8797 84C61.4821 87.8996 65.0837 91.6373 69 95.5377Z" fill="#EDF9FF"/>
</svg>
