<svg width="75" height="76" viewBox="0 0 75 76" fill="none" xmlns="http://www.w3.org/2000/svg">
<path fill-rule="evenodd" clip-rule="evenodd" d="M49.73 52.8354C53.5429 56.908 49.5183 56.4163 52.3398 60.7421L64.5471 73.2575C66.5284 75.2252 69.4631 77.5712 73.066 74.5628C79.1495 69.4829 69.1431 62.0832 66.8508 59.7688C52.8722 45.659 59.3165 55.6433 52.3543 50.8342C52.5859 47.7226 59.995 42.0854 59.7231 29.284C59.6239 24.5823 58.5605 20.9808 56.8288 17.1832C44.4634 -9.93573 2.59005 -3.79573 0.0956725 27.4468C-1.19513 43.6063 10.7222 58.2789 26.969 59.9151C31.7515 60.3966 36.0449 59.7063 40.203 58.1363C44.5578 56.4922 46.5241 54.2767 49.73 52.8354Z" fill="#14414B"/>
<path fill-rule="evenodd" clip-rule="evenodd" d="M23.8473 3.7084C-10.1573 10.7964 0.08759 64.1144 35.4507 56.2012C68.7477 48.7503 59.2128 -3.66276 23.8473 3.7084Z" fill="#EDF9FF" stroke="#14414B" stroke-width="0.7056" stroke-miterlimit="22.9256"/>
<path fill-rule="evenodd" clip-rule="evenodd" d="M36.1912 37.6646C36.8742 36.2627 39.2345 34.9381 39.8702 30.9128C41.3892 21.2943 29.1952 16.2349 23.1233 23.3202C20.529 26.3473 20.1692 31.4894 22.8409 35.2357C24.068 36.9567 24.6328 36.1729 24.7486 38.743C24.9566 43.3768 26.4627 42.9857 30.8277 42.9953C35.5944 43.0055 36.1912 42.5361 36.1912 37.6646Z" fill="#14414B"/>
<path fill-rule="evenodd" clip-rule="evenodd" d="M27.0353 35.576L27.7938 39.7185L32.9181 40C33.478 39.9594 33.4219 39.9982 33.9534 39.8389C34.8537 39.5696 34.2401 39.8747 34.8111 39.4044C35.2625 31.8093 35.7687 36.3627 38.1502 32.0381C40.4601 27.8434 38.0534 21.1218 31.0231 21.0013C27.0662 20.9337 24.25 23.464 23.3608 26.4852C21.7267 32.0403 26.1202 34.0122 27.0353 35.576Z" fill="#FEFEFE"/>
<path fill-rule="evenodd" clip-rule="evenodd" d="M45.9726 10.0276C44.2494 9.8213 43.8055 10.7634 41.9362 13.1796C41.224 14.1004 38.1506 16.6896 39.226 17.7464C40.2804 18.7813 41.639 16.4262 43.1174 14.6923C44.2055 13.4167 46.2607 11.8969 45.9726 10.0276Z" fill="#14414B"/>
<path fill-rule="evenodd" clip-rule="evenodd" d="M13.1605 29.5972C14.1869 30.0822 13.1452 30.1501 14.557 29.6865L18.2939 27.1493C21.5178 24.9372 22.2023 25.1807 21.9535 23.0234C20.264 22.7113 16.7778 25.6015 14.5295 27.0918C13.3321 27.8848 12.6764 27.929 13.1605 29.5972Z" fill="#14414B"/>
<path fill-rule="evenodd" clip-rule="evenodd" d="M42.0379 32.0832C41.8532 34.1366 42.222 33.5823 45.9183 35.8451C46.9776 36.4939 50.2836 39.0693 50.971 37.5022C51.5441 36.1953 43.4558 31.3062 42.0379 32.0832Z" fill="#14414B"/>
<path fill-rule="evenodd" clip-rule="evenodd" d="M17.2123 0.105504C16.6716 1.90213 17.0711 1.0295 19.4948 4.68031C20.0687 5.54428 20.2635 5.84822 20.9384 6.6373C23.6979 9.86294 23.773 6.8044 20.6427 3.24889C19.4634 1.90962 18.6942 -0.536901 17.2123 0.105504Z" fill="#14414B"/>
<path fill-rule="evenodd" clip-rule="evenodd" d="M15.0163 8.25835C14.8686 10.1328 15.7304 9.98197 17.3591 10.8217C18.7217 11.524 19.5953 12.5006 20.9957 11.6994C21.0695 9.86274 20.1897 10.0041 18.592 9.17948C17.2742 8.49934 16.3782 7.53153 15.0163 8.25835Z" fill="#14414B"/>
<path fill-rule="evenodd" clip-rule="evenodd" d="M42.0017 20.9115C43.3465 21.4931 46.9856 19.0871 47 17.2271C45.5874 16.199 41.9103 18.8787 42.0017 20.9115Z" fill="#14414B"/>
<path fill-rule="evenodd" clip-rule="evenodd" d="M28.7135 45H34.2865C35.2288 45 36 45.9471 36 47.106V50.8932C36 52.0521 35.2288 53 34.2865 53H28.7135C27.7712 53 27 52.0521 27 50.8932V47.106C27 45.9471 27.7712 45 28.7135 45ZM29.5879 46.2542H33.4122C34.0595 46.2542 34.5884 46.9051 34.5884 47.7001V50.2993C34.5884 51.0949 34.0595 51.745 33.4122 51.745H29.5879C28.9413 51.745 28.4117 51.0949 28.4117 50.2993V47.7001C28.4117 46.9051 28.9413 46.2542 29.5879 46.2542Z" fill="#2A2829" stroke="#2B2A29" stroke-width="0.2" stroke-miterlimit="22.9256"/>
<path d="M35 47H28V52H35V47Z" fill="#14414B" stroke="#2B2A29" stroke-width="0.2" stroke-miterlimit="22.9256"/>
</svg>
