<svg width="94" height="74" viewBox="0 0 94 74" fill="none" xmlns="http://www.w3.org/2000/svg">
<path fill-rule="evenodd" clip-rule="evenodd" d="M34.6058 63.8563C34.6058 64.0229 34.7718 64.1888 34.7718 64.3554C34.2724 64.6879 33.9405 65.0204 33.4412 65.3529C31.4445 66.5178 29.4486 67.681 27.2852 68.6785C25.9538 69.3443 25.2885 70.5077 25.6219 72.0043C25.9538 73.5009 27.1192 74 28.6166 74C40.9278 74 53.073 74 65.3842 74C66.8815 74 68.0462 73.5009 68.3789 72.0043C68.8782 70.5077 68.2129 69.3435 66.7156 68.5119C64.7189 67.3478 62.723 66.3503 60.7263 65.1862C60.227 64.8537 59.8943 64.5213 59.5609 64.1888C59.5609 64.0229 59.7276 63.8563 59.7276 63.8563C60.227 63.8563 60.8923 63.8563 61.3909 63.8563C70.0421 63.8563 78.8601 63.8563 87.5114 63.8563C91.504 63.8563 94 61.3622 94 57.3707C94 56.5391 94 55.5416 94 54.71C94 38.7457 94 22.9481 94 6.98383C94 2.65988 91.3372 0 87.012 0C60.3929 0 33.7738 0 7.15395 0C2.662 0 0 2.66065 0 7.15045C0 23.7797 0 40.2423 0 56.8708C0 61.3614 2.49604 63.8556 6.988 63.8556C15.4726 63.8556 23.9571 63.8556 32.4424 63.8556C33.2744 63.8563 33.9405 63.8563 34.6058 63.8563Z" fill="#EDF9FF"/>
<path fill-rule="evenodd" clip-rule="evenodd" d="M34.4116 64.0214C33.7468 64.0214 33.0813 63.8556 32.4165 63.8556C23.9385 63.8556 15.4598 63.8556 6.98179 63.8556C2.49332 63.8556 0 61.3614 0 56.8708C0 40.2416 0 23.7789 0 7.15045C0 2.65988 2.65991 0 7.14762 0C33.7468 0 60.3453 0 86.9445 0C91.2664 0 93.9263 2.66065 93.9263 6.98383C93.9263 22.9481 93.9263 38.7458 93.9263 54.7101C93.9263 55.5417 94.0921 56.5391 93.9263 57.3707C93.9263 61.1955 91.433 63.8563 87.4427 63.8563C78.7982 63.8563 69.987 63.8563 61.3425 63.8563C60.8435 63.8563 60.1787 63.8563 59.6805 63.8563C59.6805 64.0229 59.5139 64.1888 59.5139 64.1888C59.8463 64.5213 60.3453 65.0204 60.6785 65.1863C62.6736 66.3512 64.6679 67.5144 66.6631 68.5119C67.9934 69.3435 68.6582 70.341 68.325 72.0043C67.9934 73.5009 66.8289 74 65.3327 74C53.0311 74 40.8952 74 28.5936 74C27.0974 74 25.9337 73.335 25.6013 72.0043C25.2689 70.5077 25.9337 69.3435 27.2632 68.6785C29.2584 67.681 31.2535 66.517 33.4144 65.3529C33.9134 65.0212 34.2458 64.6879 34.7448 64.3554C34.4116 64.3539 34.4116 64.1881 34.4116 64.0214ZM91.0998 54.2101C91.0998 51.2169 91.0998 48.3896 91.0998 45.7296C91.0998 33.0911 91.0998 20.2874 91.0998 7.64883C91.0998 4.32313 89.7703 2.82647 86.4455 2.82647C60.0129 2.82647 33.5803 2.82647 7.14762 2.82647C3.98949 2.82647 2.65916 4.32313 2.65916 7.4822C2.65916 11.4737 2.65916 15.4651 2.65916 19.4558C2.65916 30.2645 2.65915 41.2399 2.49334 52.0494C2.49334 53.8777 3.15813 54.5435 4.8201 54.211C6.48284 54.0451 8.14481 54.0451 9.80832 54.0451C14.1302 54.0451 18.4521 54.0451 22.9414 54.0451C30.2556 54.0451 37.5705 54.0451 44.8847 54.0451C49.7056 54.0451 54.5272 54.0451 59.3481 54.0451C65.3327 54.0451 71.3174 54.0451 77.3028 54.0451C81.6247 54.2102 86.279 54.2101 91.0998 54.2101ZM2.65916 56.8708C2.49335 60.0307 3.8229 61.3614 6.48282 61.3614C12.9664 61.3614 19.2835 61.3614 25.7663 61.3614C29.091 61.3614 32.2507 61.3614 35.5754 61.3614C37.0716 61.3614 37.5705 62.0265 37.4032 63.5231C37.0715 65.6846 36.2394 67.1811 34.2451 68.1794C32.2499 69.0102 30.2556 70.341 27.928 71.6718C40.7287 71.6718 53.0303 71.6718 65.831 71.6718C63.0052 70.0085 60.5119 68.6785 58.1843 67.3478C56.854 66.5162 56.0226 64.0222 56.6882 62.5256C57.1872 61.029 58.5167 61.5281 59.6805 61.5281C68.824 61.5281 77.9668 61.5281 87.1103 61.5281C89.9368 61.5281 91.2664 60.0314 91.0998 57.0382C61.5091 56.8708 32.0841 56.8708 2.65916 56.8708Z" fill="#14414B"/>
<path fill-rule="evenodd" clip-rule="evenodd" d="M91 53.8051C86.2211 53.8051 81.7717 53.8051 77.158 53.8051C71.2247 53.8051 65.2922 53.8051 59.3597 53.8051C54.5808 53.8051 49.8011 53.8051 45.0222 53.8051C37.7709 53.8051 30.5204 53.8051 23.2692 53.8051C18.9849 53.8051 14.7006 53.8051 10.2505 53.8051C8.603 53.8051 6.95552 53.8051 5.3065 53.9704C3.49387 54.1349 3 53.6407 3 51.8256C3.16437 41.1041 3.16434 30.2173 3.16434 19.4951C3.16434 15.5366 3.16434 11.5774 3.16434 7.6189C3.16434 4.48533 4.64749 3 7.61375 3C33.8162 3 60.0187 3 86.2203 3C89.3517 3 90.8349 4.48534 90.8349 7.78344C90.8349 20.32 90.8349 33.0211 90.8349 45.5569C91 48.0316 91 50.836 91 53.8051ZM52.7681 18.3411C53.0976 14.0521 50.9555 11.0831 47.3302 11.0831C43.2104 11.0831 41.0682 14.0521 41.3977 18.5056C39.7495 18.8354 38.5959 19.8257 38.4307 21.64C38.2664 23.289 39.2548 24.2793 40.9031 24.9389C41.2318 25.1034 41.3977 25.7629 41.5621 26.258C41.8916 31.7018 40.2433 36.4851 37.6073 41.104C37.4422 41.4338 36.7832 41.7636 36.2886 41.9289C34.4759 42.5885 33.3223 44.0731 33.4867 45.8874C33.6518 47.8671 35.135 49.0211 37.2771 49.0211C38.5959 49.0211 39.9146 49.0211 41.397 49.0211C46.6705 49.0211 51.944 49.0211 57.3819 49.0211C59.524 49.0211 60.8428 47.7018 61.0071 45.7229C61.1723 43.9086 60.0186 42.424 57.8765 41.9289C57.3819 41.7636 56.888 41.5991 56.7229 41.2685C54.0854 36.6504 52.4379 31.7018 52.7674 26.258C52.7674 25.7629 53.0969 25.1034 53.5915 24.9389C55.0746 24.2785 55.8988 23.289 55.8988 21.64C55.7344 19.8257 54.5808 18.8362 52.7681 18.3411ZM29.2025 30.5471C31.6741 30.5471 33.9813 30.7124 36.453 30.5471C37.1127 30.5471 37.7717 29.7222 38.2656 29.3924C37.6066 28.8973 36.9476 28.0724 36.453 28.0724C31.5089 27.9078 26.4013 27.9078 21.4573 28.0724C19.15 28.0724 17.9956 29.2279 17.5018 31.5365C17.3374 32.1969 16.8428 32.8565 16.3481 33.1863C14.7006 34.5056 13.7114 36.32 14.3704 38.1351C15.0294 40.2792 16.6776 41.5991 18.8198 41.7636C20.7975 41.7636 22.6102 40.4445 23.2692 38.6302C23.9289 36.6505 23.1048 34.5063 21.2914 33.1871C20.7968 32.8573 20.6324 32.1969 20.1378 31.7018C20.7968 31.3728 21.4565 30.7124 22.1155 30.7124C24.4235 30.5471 26.8952 30.5471 29.2025 30.5471ZM64.468 27.9087C61.9964 27.9087 59.524 27.9087 57.0524 27.9087C56.0639 27.9087 54.9103 28.0731 55.0746 29.2278C55.0746 29.7229 56.2282 30.2172 56.8872 30.3833C57.3819 30.5478 57.8758 30.3833 58.3704 30.3833C62.6554 30.3833 67.1048 30.3833 71.3891 30.3833C72.0481 30.3833 72.5427 31.0429 73.2017 31.2075C72.8722 31.7026 72.7071 32.363 72.2132 32.692C70.4006 34.012 69.5757 35.9909 70.0703 37.9705C70.5649 39.9501 72.5419 41.2693 74.5197 41.2693C76.4975 41.2693 78.3101 39.9494 78.8047 37.9705C79.4644 35.8264 78.6403 34.012 76.8269 32.692C76.3323 32.363 75.8384 31.7026 75.8384 31.2075C75.3438 28.8988 74.0258 27.7433 71.5534 27.7433C69.2477 27.9086 66.7753 27.9087 64.468 27.9087ZM26.7301 21.64C29.3676 21.64 32.0036 21.64 34.4752 21.64C34.9698 21.64 35.6296 20.8151 36.1235 20.32C35.6288 19.9902 35.135 19.4951 34.4752 19.1653C33.9813 19.0007 33.4867 19.1653 32.9921 19.1653C28.5427 19.1653 24.2577 19.1653 19.8083 19.1653C19.3137 19.1653 18.6547 18.6702 18.1608 18.3404C18.4903 17.8453 18.6554 17.3509 19.1493 17.0211C21.127 15.7011 21.7861 13.7223 21.2914 11.7427C20.6324 9.76309 18.9849 8.44381 16.842 8.44381C14.8643 8.44381 13.2168 9.59857 12.557 11.5774C11.898 13.7223 12.7221 15.5366 14.6999 17.0211C15.1945 17.3501 15.524 17.8453 15.6884 18.3404C16.183 20.6498 17.501 21.6392 19.9734 21.8045C21.9512 21.8053 24.4236 21.8053 26.7301 21.64ZM66.4458 21.8053C68.9182 21.8053 71.3898 21.8053 73.8622 21.8053C76.0043 21.8053 77.3231 20.6505 77.8169 18.8362C78.1464 18.0113 78.6411 17.3516 79.3001 16.692C80.9476 15.372 81.7717 13.2272 80.9476 11.2484C80.1242 9.26874 78.1465 8.11475 76.0036 8.44455C74.191 8.60908 72.5427 10.0936 72.2132 11.9087C71.7186 13.7223 72.5427 15.7018 74.3561 16.8573C74.8507 17.1863 75.0151 17.6815 75.3446 18.1766C74.8499 18.5064 74.3561 18.837 73.6963 19.166C73.3676 19.3313 72.873 19.166 72.3783 19.166C67.9289 19.166 63.6439 19.166 59.1945 19.166C58.5348 19.166 57.8757 19.9909 57.3819 20.486C58.0409 20.9811 58.7007 21.6407 59.3597 21.806C61.5018 21.8053 63.9742 21.8053 66.4458 21.8053ZM85.3977 46.7123C85.5621 44.7327 84.4085 43.0836 82.4307 42.2587C80.453 41.5991 78.3116 42.0942 77.158 43.9085C76.4982 45.0633 75.6741 45.2278 74.5204 45.2278C71.2247 45.2278 67.7638 45.2278 64.468 45.2278C63.4795 45.2278 62.4903 45.2278 62.4903 46.5478C62.4903 47.8678 63.4788 47.8678 64.468 47.8678C67.9289 47.8678 71.2247 47.8678 74.6856 47.8678C75.84 47.8678 76.6633 48.1969 77.3231 49.1871C78.8062 51.1667 80.4537 51.6618 82.5966 50.8369C84.2433 50.341 85.3977 48.692 85.3977 46.7123ZM23.5994 47.8671C25.2469 47.8671 27.0603 47.8671 28.7078 47.8671C29.6971 47.8671 30.6856 47.8671 30.8507 46.7123C30.8507 45.2278 29.6971 45.3923 28.7078 45.3923C25.4128 45.3923 22.1163 45.3923 18.6562 45.3923C17.5018 45.3923 16.8436 45.2278 16.1838 44.0723C14.8658 41.7637 11.7344 41.4331 9.59227 43.2482C7.44938 44.8972 7.28501 47.8663 9.09764 49.846C10.7451 51.6603 14.5355 51.6603 15.8543 49.6814C16.8428 47.8671 18.1615 48.0316 19.6447 48.0316C20.9627 47.8671 22.2807 47.8671 23.5994 47.8671Z" fill="#EDF9FF"/>
<path fill-rule="evenodd" clip-rule="evenodd" d="M53.0717 19.2251C54.6868 19.707 55.9784 20.51 55.9784 22.2754C55.9784 23.8813 55.1708 24.8452 53.7175 25.4865C53.3953 25.6474 53.0717 26.2895 52.9107 26.7714C52.5878 32.0696 54.2022 36.8865 56.7859 41.3825C56.947 41.7036 57.5935 41.8645 57.9164 42.0246C60.0162 42.5065 61.1459 43.9516 60.9848 45.7177C60.823 47.6446 59.6926 48.9288 57.4317 48.9288C52.2642 49.089 47.0966 48.9288 41.768 48.9288C40.4765 48.9288 39.1842 48.9288 37.7317 48.9288C35.7936 48.9288 34.3403 47.8048 34.0174 45.8786C33.8556 44.1125 34.8243 42.6674 36.7623 42.0246C37.247 41.8645 37.8935 41.7043 38.0545 41.2224C40.4765 36.7264 42.0916 31.9095 41.9298 26.7714C41.9298 26.2895 41.6077 25.4865 41.284 25.4865C39.8307 24.8444 38.8621 23.8813 38.8621 22.2754C39.0231 20.51 40.1543 19.5461 41.7687 19.2251C41.4458 15.0502 43.5449 12 47.582 12C51.2948 12.1601 53.5557 15.0502 53.0717 19.2251ZM54.2022 41.8644C51.6177 36.7264 50.1651 31.4283 50.4879 25.8083C48.3881 25.8083 46.6127 25.8083 44.6746 25.8083C45.1586 31.5884 43.5435 36.7264 41.1215 41.8644C45.4815 41.8644 49.6804 41.8644 54.2022 41.8644ZM41.7672 22.2754C41.7672 22.4363 41.7673 22.7573 41.9291 22.9182C45.8044 22.9182 49.6804 22.9182 53.5557 22.9182C53.5557 22.7573 53.5557 22.4363 53.5557 22.2754C52.7488 22.2754 52.1023 22.1152 51.2948 22.1152C49.6804 21.9551 49.3568 21.3122 50.0033 19.8672C50.3261 19.065 50.8108 17.9402 50.649 17.459C50.1643 16.4959 49.1957 15.372 48.2271 15.051C47.4195 14.8908 45.8051 15.5329 45.3204 16.175C44.8357 16.978 44.8357 18.583 45.1586 19.5469C45.9661 21.6347 45.8051 22.1167 43.5442 22.1167C42.8984 21.955 42.2519 22.1152 41.7672 22.2754ZM47.5813 46.6808C47.5813 46.6808 47.5813 46.5207 47.5813 46.6808C50.649 46.6808 53.7175 46.6808 56.6241 46.5206C57.2699 46.5206 57.7546 45.8786 58.4003 45.5575C57.7538 45.2365 57.2691 44.7546 56.6241 44.7546C50.4879 44.5944 44.5128 44.5944 38.3759 44.5944C37.8912 44.5944 37.2455 45.2365 36.7615 45.5575C37.2462 45.8786 37.8919 46.5206 38.3759 46.5206C41.6062 46.6808 44.6746 46.6808 47.5813 46.6808Z" fill="#14414B"/>
<path fill-rule="evenodd" clip-rule="evenodd" d="M29.1153 30.6995C26.6468 30.6995 24.3439 30.6995 21.8754 30.6995C21.2167 30.6995 20.5587 31.3748 19.9007 31.7113C20.229 32.2176 20.5587 32.8928 21.0526 33.2293C22.8623 34.5791 23.6851 36.7716 23.0272 38.7959C22.3692 40.6511 20.5595 42 18.5848 42C16.4453 42 14.8004 40.6511 14.1424 38.2896C13.6486 36.4344 14.4707 34.4101 16.1171 33.2293C16.6109 32.8921 17.104 32.2176 17.2689 31.5423C17.7627 29.3498 19.0787 28.169 21.2174 28C26.1537 28 31.254 28 36.1902 28C36.8482 28 37.5069 28.8435 38 29.3498C37.342 29.856 36.6833 30.5305 36.1902 30.5305C34.0514 30.8686 31.5837 30.6995 29.1153 30.6995ZM20.8884 37.7841C20.8884 37.4469 20.8884 37.1088 20.8884 36.9406C20.0656 36.4343 19.4077 35.4226 18.5848 35.4226C17.9261 35.4226 16.9391 36.4344 16.775 37.1089C16.446 38.2896 17.2689 39.3021 18.42 39.1331C19.4077 39.1331 20.0656 38.2896 20.8884 37.7841Z" fill="#14414B"/>
<path fill-rule="evenodd" clip-rule="evenodd" d="M64.2544 28C66.7297 28 69.039 28 71.5144 28C73.989 28 75.3093 29.1951 75.8045 31.5855C75.9691 32.0979 76.2998 32.7807 76.7942 33.122C78.6091 34.4875 79.4342 36.5366 78.7744 38.5856C78.2791 40.4628 76.4643 41.8289 74.4842 42C72.5041 42 70.5247 40.6338 70.0295 38.5856C69.3697 36.5366 70.1948 34.4875 72.1749 33.122C72.6701 32.7807 72.8347 32.0979 73.1646 31.5855C72.5041 31.2441 72.0088 30.7316 71.3498 30.7316C67.0596 30.7316 62.6049 30.7316 58.3155 30.7316C57.8203 30.7316 57.3258 30.9019 56.8306 30.7316C56.1708 30.3903 55.0158 30.0489 55.0158 29.5364C54.8512 28.3404 56.0055 28.1701 56.9959 28.1701C59.3052 27.9999 61.7798 28 64.2544 28ZM76.6297 37.9021C76.6297 37.5607 76.6297 37.2186 76.6297 37.0483C75.8046 36.5358 75.1448 35.5117 74.3197 35.5117C73.6599 35.5117 72.6701 36.5358 72.5048 37.3896C72.1749 38.5848 73.1646 39.609 74.3197 39.4387C75.1448 39.2676 75.8038 38.4138 76.6297 37.9021Z" fill="#14414B"/>
<path fill-rule="evenodd" clip-rule="evenodd" d="M26.8552 22C24.5284 22 22.0341 22 19.7073 22C17.2138 22 16.0492 20.8764 15.3844 18.6294C15.2186 18.1476 14.8854 17.6666 14.3871 17.345C12.3919 15.9005 11.5605 14.1353 12.2253 12.049C12.8909 10.1228 14.553 9 16.5482 9C18.71 9 20.3721 10.2837 21.0369 12.2091C21.7025 14.1353 20.8711 16.0614 18.8759 17.345C18.3769 17.6659 18.211 18.1476 17.8786 18.6294C18.3776 18.9503 19.0425 19.432 19.5407 19.432C24.0294 19.432 28.3523 19.432 32.841 19.432C33.34 19.432 33.8389 19.2712 34.3372 19.432C35.0028 19.7522 35.5018 20.2339 36 20.5555C35.501 21.0373 35.0028 21.8399 34.3372 21.8399C32.0095 22 29.5161 21.8392 26.8552 22ZM19.0417 13.8144C19.0417 13.4935 19.0417 13.3327 19.0417 13.0117C18.211 12.53 17.5454 11.7274 16.7148 11.5673C15.5502 11.4072 14.553 12.3699 14.8861 13.4935C15.052 14.1353 16.05 15.2587 16.7148 15.2587C17.3796 15.0986 18.211 14.2961 19.0417 13.8144Z" fill="#14414B"/>
<path fill-rule="evenodd" clip-rule="evenodd" d="M66.261 21.9295C63.7808 21.9295 61.4656 22.0881 58.9846 21.9295C58.3233 21.9295 57.662 21.1346 57 20.6575C57.662 20.1804 58.3233 19.5448 58.8189 19.3862C63.2837 19.227 67.5836 19.3862 72.0484 19.3862C72.5447 19.3862 73.0411 19.5448 73.3717 19.3862C74.033 19.227 74.5293 18.7498 75.0256 18.4328C74.695 17.9557 74.3636 17.4786 74.033 17.1608C72.3798 15.8887 71.3871 14.1405 71.8834 12.3921C72.3798 10.6437 73.868 9.21316 75.6869 9.05389C77.8365 8.73607 79.8203 9.8481 80.648 11.7557C81.475 13.6634 80.813 15.7295 78.9949 17.0015C78.3328 17.4786 77.8365 18.2728 77.5058 19.0677C76.8445 20.8161 75.5212 21.9288 73.5374 21.9288C71.2221 21.9296 68.742 21.9295 66.261 21.9295ZM78.6635 13.8227C78.6635 13.5049 78.6635 13.3456 78.6635 13.0278C77.8365 12.5507 77.1752 11.5972 76.3482 11.7557C75.6869 11.7557 74.695 12.7098 74.5293 13.504C74.1994 14.6175 75.1914 15.5709 76.3482 15.4116C77.1752 15.0946 78.0022 14.2998 78.6635 13.8227Z" fill="#14414B"/>
<path fill-rule="evenodd" clip-rule="evenodd" d="M54 42C49.5061 42 45.3331 42 41 42C43.407 36.8799 45.0122 31.7599 44.5312 26C46.4573 26 48.3826 26 50.3087 26C49.9878 31.6003 51.4322 36.8799 54 42Z" fill="#EDF9FF"/>
<path fill-rule="evenodd" clip-rule="evenodd" d="M41 21.5159C41.713 21.3548 42.2476 21.1936 42.9589 21.1936C45.4523 21.0317 45.6299 20.5469 44.7401 18.6082C44.384 17.6393 44.3841 16.1854 44.9178 15.2157C45.4523 14.4086 47.2327 13.7619 48.1234 14.0849C49.1916 14.246 50.2607 15.3776 50.7944 16.5077C51.1505 17.1544 50.6168 18.2845 50.0823 18.9305C49.3701 20.3843 49.7261 21.031 51.5074 21.1922C52.3972 21.1922 53.1102 21.354 54 21.354C54 21.5151 54 21.8389 54 22C49.7262 22 45.4515 22 41.1776 22C41 21.8396 41 21.6777 41 21.5159Z" fill="#14414B" stroke="#14414B" stroke-width="0.1764" stroke-miterlimit="22.9256"/>
<path fill-rule="evenodd" clip-rule="evenodd" d="M20.8432 37.8998C20.057 38.3065 19.4284 38.9851 18.6422 38.9851C17.5417 39.1211 16.7555 38.3065 17.0698 37.3566C17.2273 36.814 18.171 36 18.799 36C19.4283 36 20.2138 36.814 21 37.2212C20.8432 37.4925 20.8432 37.6285 20.8432 37.8998Z" fill="#EDF9FF"/>
<path fill-rule="evenodd" clip-rule="evenodd" d="M77 37.8175C76.2121 38.2066 75.5822 38.8558 74.7943 38.9859C73.6914 39.1153 72.7464 38.3366 73.0614 37.4279C73.2193 36.9082 74.1643 36 74.7943 36C75.4243 36 76.2121 36.7787 77 37.1683C77 37.2978 77 37.558 77 37.8175Z" fill="#EDF9FF"/>
<path fill-rule="evenodd" clip-rule="evenodd" d="M19 13.6025C18.0056 14.1195 17.0104 15.1528 16.2145 14.981C15.4178 14.981 14.224 13.9469 14.0254 13.0862C13.826 11.8796 14.8213 10.8463 16.2145 11.0189C17.2089 11.1907 18.0056 12.0522 19 12.5692C19 12.9136 19 13.2581 19 13.6025Z" fill="#EDF9FF"/>
<path fill-rule="evenodd" clip-rule="evenodd" d="M79 13.8176C78.2121 14.2073 77.5822 14.8564 76.7943 14.9859C75.6914 15.1153 74.7464 14.3367 75.0614 13.4279C75.2193 12.9088 76.165 12.1295 76.7943 12C77.5822 12 78.2121 12.6492 79 13.0389C79 13.2984 79 13.558 79 13.8176Z" fill="#EDF9FF"/>
<path fill-rule="evenodd" clip-rule="evenodd" d="M2.01411 57C31.9925 57 61.9708 57 91.9492 57C92.2879 60.0688 90.9333 61.6028 87.8847 61.6028C78.5692 61.6028 69.2537 61.6028 59.9382 61.6028C58.9222 61.6028 57.5677 61.0912 56.8896 62.6252C56.3812 64.1593 57.0593 66.7156 58.4139 67.568C60.7852 68.9312 63.3254 70.2952 66.2051 72C53.1637 72 40.6307 72 27.5885 72C29.9598 70.636 31.9925 69.4428 34.0244 68.4196C36.2267 67.3972 37.0737 65.8633 37.2427 63.6477C37.4116 62.1137 36.904 61.432 35.3797 61.432C31.9925 61.432 28.7741 61.432 25.3869 61.432C18.7813 61.432 12.3455 61.432 5.74077 61.432C3.19975 61.602 1.84517 60.068 2.01411 57Z" fill="#14414B" stroke="#14414B" stroke-width="0.1764" stroke-miterlimit="22.9256"/>
<path fill-rule="evenodd" clip-rule="evenodd" d="M83.9845 45.6446C83.8188 47.5583 82.8262 49.1531 81.1732 49.631C79.0231 50.4284 77.2051 49.9497 75.8819 48.0369C75.2207 47.0797 74.3938 46.7609 73.2363 46.7609C69.7638 46.9199 66.4569 46.7609 62.9844 46.7609C61.9918 46.7609 61 46.7609 61 45.4849C61 44.2096 61.9918 44.2096 62.9844 44.2096C66.2905 44.2096 69.7638 44.2096 73.0698 44.2096C74.2281 44.2096 75.0542 44.0498 75.7162 42.9336C76.8737 41.1797 79.0231 40.5421 81.0075 41.3395C82.9919 41.9779 84.1494 43.572 83.9845 45.6446ZM79.3544 47.7173C79.685 47.7173 79.8507 47.7173 80.1813 47.7173C80.6776 47.0797 81.3388 46.2823 81.5038 45.6446C81.6695 44.3686 80.6776 43.4122 79.5193 43.731C78.6932 43.89 77.7014 45.0063 77.7014 45.6446C77.5349 46.2823 78.6932 47.0797 79.3544 47.7173Z" fill="#14414B"/>
<path fill-rule="evenodd" clip-rule="evenodd" d="M22.7485 46.8569C21.4297 46.8569 20.1117 46.8569 18.7937 46.8569C17.3105 46.8569 15.9917 46.6931 15.0032 48.4997C13.8495 50.4718 9.89388 50.4718 8.24633 48.6644C6.43365 46.6923 6.59803 43.8992 8.74098 42.0911C10.8832 40.4483 14.0147 40.6122 15.3327 42.9128C15.9925 44.0631 16.8158 44.2278 17.8051 44.2278C21.1002 44.2278 24.3969 44.2278 27.8571 44.2278C28.8464 44.2278 30 44.2278 30 45.542C30 46.8569 28.8464 46.8569 27.8571 46.693C26.2095 46.8569 24.3961 46.8569 22.7485 46.8569ZM10.8824 43.4068C10.5537 44.0638 9.56435 44.721 9.56435 45.7066C9.39922 46.8577 10.3885 48.0072 11.7066 47.6787C12.5307 47.5148 13.3549 46.5284 13.6844 45.7066C13.8495 44.2278 12.8602 43.5706 10.8824 43.4068Z" fill="#14414B"/>
<path fill-rule="evenodd" clip-rule="evenodd" d="M47.3284 48C44.0669 48 40.8062 48 37.7168 48C37.2016 48 36.5144 46.6667 36 46C36.5152 45.3333 37.2016 44 37.7168 44C44.2389 44 50.5891 44 57.1121 44.3326C57.7985 44.3326 58.3136 45.3333 59 46C58.3128 46.6667 57.7977 48 57.1121 48C53.8506 48 50.5891 47.6674 47.3284 48C47.3284 47.6674 47.3284 48 47.3284 48Z" fill="#14414B"/>
<path d="M47.3284 48C44.0669 48 40.8062 48 37.7168 48C37.2016 48 36.5144 46.6667 36 46C36.5152 45.3333 37.2016 44 37.7168 44C44.2389 44 50.5891 44 57.1121 44.3326C57.7985 44.3326 58.3136 45.3333 59 46C58.3128 46.6667 57.7977 48 57.1121 48C53.8506 48 50.5891 47.6674 47.3284 48ZM47.3284 48C47.3284 47.6674 47.3284 48 47.3284 48Z" stroke="#14414B" stroke-width="0.1764" stroke-miterlimit="22.9256"/>
<path fill-rule="evenodd" clip-rule="evenodd" d="M78.9024 48C78.2108 47.2124 77 46.2275 77 45.4399C77 44.6515 78.0375 43.2737 78.9024 43.0763C80.2865 42.6825 81.1507 43.8639 80.9782 45.4399C80.9782 46.4239 80.1132 47.2124 79.5941 48C79.4208 48 79.2482 48 78.9024 48Z" fill="#EDF9FF"/>
<path fill-rule="evenodd" clip-rule="evenodd" d="M10.7865 43C13.1405 43.1574 14.3179 43.7885 13.9257 45.0514C13.7292 45.8406 12.5527 46.7872 11.5718 46.9453C10.0022 47.2608 8.82565 46.1561 9.02129 45.0514C9.21783 44.2622 10.3953 43.4729 10.7865 43Z" fill="#EDF9FF"/>
</svg>
