<svg width="77" height="90" viewBox="0 0 77 90" fill="none" xmlns="http://www.w3.org/2000/svg">
<path fill-rule="evenodd" clip-rule="evenodd" d="M29.068 28.4799C28.6135 28.4799 28.1598 28.4799 27.7054 28.4799C24.5259 28.4799 21.347 28.4799 18.3185 28.4799C8.17525 28.6276 0 36.6211 0 46.5395C0 53.2008 0 59.8629 0 66.6719C0 67.5598 1.09175e-05 68.3001 0.151017 69.1888C1.51427 76.5904 5.75286 81.475 12.8683 83.9919C13.6254 84.2879 13.9282 84.5839 13.7765 85.3242C13.7765 86.0645 13.7765 86.8041 13.9282 87.5444C14.0792 87.9887 14.3826 88.729 14.6846 88.8767C14.9873 89.025 15.7452 88.5807 16.0472 88.2847C16.8043 87.3968 17.4097 86.5081 18.3185 85.6201C18.6205 85.3242 19.2267 84.8798 19.6811 84.8798C31.944 84.8798 44.056 84.8798 56.3189 84.8798C56.7733 84.8798 57.3788 85.3242 57.6815 85.6201C58.5896 86.5081 59.3467 87.6927 60.2555 88.5807C61.0127 89.3203 61.6181 89.025 61.9208 88.1364C62.0718 87.2484 62.2229 86.3598 62.2229 85.4718C62.2229 84.5839 62.5256 84.2872 63.2834 83.9912C70.8533 81.6227 76 74.8131 76 67.1155C76 60.1582 76 53.2009 76 46.2429C76 37.509 69.1873 29.8122 60.2549 28.7752C56.3182 28.3309 52.3823 28.6276 48.2946 28.4799C47.8402 28.4799 47.2348 28.4799 46.7811 28.4799C46.024 25.963 46.0239 25.963 42.5417 23.2985C44.6614 20.1896 46.6294 17.0808 48.749 14.1203C48.9 13.8243 49.3545 13.676 49.6572 13.676C51.3224 13.38 52.3823 12.0477 52.2313 10.5671C51.9286 9.08654 50.4143 8.05036 48.9 8.34702C47.3865 8.64232 46.4776 10.1235 46.932 11.7511C47.0831 12.1954 46.932 12.9357 46.6293 13.2317C44.8124 16.1922 42.8451 19.0051 40.8764 21.818C40.422 22.4099 40.1193 22.7058 39.2112 22.5575C38.3031 22.4098 37.3942 22.4098 36.4861 22.5575C35.5779 22.7058 35.2753 22.4099 34.8209 21.818C31.1876 16.193 27.4027 10.5672 23.7695 5.08983C23.315 4.49786 23.1633 3.90519 23.4667 3.16558C23.9212 1.68498 22.8606 0.35269 21.4981 0.0567082C19.9845 -0.239274 18.6219 0.648694 18.3185 2.12929C18.0165 3.6092 18.9247 4.94149 20.4382 5.23816C20.8926 5.3858 21.4981 5.6818 21.8008 6.12612C23.7694 8.93829 25.5857 11.7511 27.4027 14.5633C29.3706 17.5238 31.1869 20.3366 33.1556 23.2971C31.0366 24.4824 29.2197 25.8147 29.068 28.4799Z" fill="#EDF9FF"/>
<path fill-rule="evenodd" clip-rule="evenodd" d="M29.2964 28.6089C29.6031 25.9139 31.444 24.5667 33.5915 23.5195C31.5977 20.5259 29.6031 17.5317 27.763 14.6881C25.9221 11.8438 24.082 9.00024 22.0874 6.15595C21.7814 5.70667 21.1673 5.40805 20.7069 5.25806C19.1735 4.80878 18.2527 3.61159 18.5601 2.11445C18.8661 0.617999 20.2465 -0.130593 21.7814 0.018706C23.1619 0.317996 24.2357 1.66518 23.7753 3.16232C23.6223 3.91089 23.7753 4.51017 24.082 5.10875C27.916 10.7966 31.5977 16.3346 35.2794 22.0232C35.7398 22.6225 36.0457 22.9211 36.9658 22.7718C37.8866 22.6225 38.8067 22.6225 39.7274 22.7718C40.6475 22.9211 40.9542 22.6225 41.4139 22.0232C43.2548 19.0296 45.2486 16.1852 47.2425 13.3416C47.5492 12.8923 47.5491 12.2932 47.5491 11.8446C47.2424 10.1981 48.0095 8.70096 49.5437 8.40167C51.0771 8.10308 52.765 9.15028 52.918 10.6467C53.2247 12.1439 51.9979 13.4909 50.3101 13.7909C50.0034 13.7909 49.5437 13.9402 49.39 14.2395C47.2424 17.3838 45.2486 20.5268 43.101 23.5203C46.782 26.2153 46.7821 26.2153 47.3962 28.7596C47.8566 28.7596 48.3162 28.7596 48.9296 28.7596C52.918 28.7596 57.0594 28.6103 61.0471 29.0589C69.9439 30.1067 76.8463 37.8904 77 46.7219C77 53.7569 77 60.7926 77 67.8277C77 75.462 71.6311 82.3469 64.1154 84.8919C63.1954 85.1912 62.8879 85.4905 63.0416 86.3884C63.0416 87.2863 62.8879 88.1849 62.7349 89.0828C62.4283 90.1313 61.8148 90.2806 61.0478 89.532C60.1277 88.6342 59.3607 87.437 58.4399 86.5391C58.1332 86.2398 57.5198 85.7905 57.0594 85.7905C44.6352 85.7905 32.364 85.7905 19.9398 85.7905C19.4795 85.7905 18.8661 86.2398 18.5594 86.5391C17.7923 87.437 17.1789 88.3355 16.2589 89.2334C15.9522 89.532 15.1844 89.9813 14.8784 89.832C14.5717 89.6827 14.2643 89.0834 14.1113 88.4848C13.9576 87.7363 13.8046 86.9877 13.9576 86.2398C13.9576 85.4912 13.8046 85.1914 13.0375 84.8928C5.6748 82.3478 1.38046 77.4084 0.153694 69.9241C-5.53895e-06 69.0262 0 68.2776 0 67.3791C0 60.6433 0 53.9069 0 47.0218C0 36.9925 8.28349 28.9096 18.5601 28.7596C21.7814 28.7596 25.002 28.7596 28.0703 28.7596C28.3763 28.6089 28.6831 28.6089 29.2964 28.6089ZM33.4385 39.3861C26.6892 39.3861 19.7868 39.3861 13.0375 39.3861C10.2766 39.3861 8.89614 40.7333 8.89614 43.4276C8.89614 52.5584 8.89614 61.6897 8.89614 70.9698C8.89614 73.5148 10.4303 75.0113 13.0375 75.0113C26.6892 75.0113 40.3408 75.0113 53.9917 75.0113C56.7527 75.0113 58.1332 73.5148 58.1332 70.9698C58.1332 61.839 58.1332 52.7077 58.1332 43.5776C58.1332 40.8826 56.7527 39.5354 53.9917 39.5354C46.9364 39.3861 40.1871 39.3861 33.4385 39.3861ZM61.3545 47.6189C61.3545 50.014 63.3491 51.9597 65.6496 51.9597C67.9501 51.9597 70.0977 50.0133 70.0977 47.6189C70.0977 45.2232 68.1038 43.2783 65.6496 43.2783C63.3484 43.2783 61.3545 45.2232 61.3545 47.6189ZM65.8025 68.4249C68.2575 68.4249 70.2507 66.4791 70.2507 64.2341C70.2507 61.8384 68.2568 59.8933 65.8025 59.8933C63.3483 59.8933 61.3545 61.8391 61.5082 64.2341C61.5082 66.4798 63.3483 68.4249 65.8025 68.4249Z" fill="#14414B"/>
<path fill-rule="evenodd" clip-rule="evenodd" d="M33.0749 39.1509C39.654 39.1509 46.2338 39.1509 52.9627 39.1509C55.6542 39.1509 57 40.5123 57 43.2349C57 52.4617 57 61.6892 57 70.9153C57 73.6386 55.6542 75 52.9627 75C39.654 75 26.3454 75 13.0374 75C10.495 75 9 73.4871 9 70.9153C9 61.6892 9 52.4617 9 43.084C9 40.3614 10.495 39 13.0374 39C19.7656 39.1509 26.3453 39.1509 33.0749 39.1509Z" fill="#FEFFFF"/>
</svg>
