<svg width="76" height="96" viewBox="0 0 76 96" fill="none" xmlns="http://www.w3.org/2000/svg">
<path fill-rule="evenodd" clip-rule="evenodd" d="M36.0415 7.08328C36.0415 5.43586 35.8752 3.78921 36.2085 2.14179C36.3748 1.31808 37.3754 0.659424 38.0412 0C38.7086 0.659424 39.7085 1.15379 39.8747 1.81169C40.0418 5.27081 40.0418 8.89423 39.8747 12.3534C39.8747 13.012 38.7078 14 38.0412 14C37.3747 14 36.3748 13.012 36.2085 12.3534C35.8752 10.5416 36.0415 8.89499 36.0415 7.08328V7.08328Z" fill="#14414B"/>
<path fill-rule="evenodd" clip-rule="evenodd" d="M14.4272 29C11.6834 26.8147 8.93966 24.7845 6.19592 22.4428C5.93469 22.2871 5.93469 21.0376 6.19592 20.7255C6.58805 20.2568 7.50264 19.7889 7.89478 20.1011C10.507 21.8185 13.1205 23.6923 15.603 25.7218C15.9951 26.034 16.1254 27.1269 15.8636 27.752C15.7333 28.2199 15.0799 28.5321 14.4272 29V29Z" fill="#14414B"/>
<path fill-rule="evenodd" clip-rule="evenodd" d="M68.4347 19C69.146 19.8602 70 20.2052 70 20.7211C70 21.4095 69.716 22.6147 69.2887 22.9589C66.7261 25.025 64.1628 26.9186 61.4582 28.8122C61.0309 29.1565 60.035 28.9847 59.465 28.6405C59.1804 28.468 58.8957 26.9186 59.0377 26.7469C62.3129 24.1649 65.3028 21.582 68.4347 19Z" fill="#14414B"/>
<path fill-rule="evenodd" clip-rule="evenodd" d="M50 50.3525C49.0889 51.5089 48.1771 52.6646 47.266 53.9645C42.7089 51.7972 41.0382 52.5198 40.4307 57C38.9115 57 37.3929 57 35.7215 57C34.9625 52.3757 33.2911 51.653 28.8863 53.9645C27.9752 52.8088 26.9118 51.6523 26 50.4966C29.0378 47.1728 29.0378 41.8265 26 38.6469C26.9118 37.4911 27.823 36.3347 28.7348 35.179C33.2918 37.3463 34.9626 36.6243 35.57 32.1441C36.3296 32.1441 37.2407 32 38.0003 32C38.76 32 39.5196 32.1441 40.127 32.1441C40.8867 36.7685 42.7096 37.6353 46.9622 35.179C47.8734 36.3354 48.9374 37.4911 49.8485 38.7917C46.9622 41.8265 46.9622 47.3176 50 50.3525ZM42.5574 44.5717C42.5574 42.2596 40.5822 40.2364 37.9997 40.0922C35.4178 40.0922 33.1396 42.1154 33.2911 44.5717C33.2911 46.8846 35.4178 48.9071 37.9997 48.9071C40.4307 48.9071 42.5574 46.8846 42.5574 44.5717Z" fill="#14414B"/>
<path fill-rule="evenodd" clip-rule="evenodd" d="M27.9666 76C27.5207 75.1061 26.7777 74.3608 26.6296 73.4662C25.8866 67.5055 23.3615 62.4386 20.0927 57.6697C14.8928 50.2185 14.5964 40.532 19.4986 33.2294C24.8466 25.1822 32.4229 22.0532 41.7827 23.245C50.1018 24.4369 57.2327 31.2922 59.3126 39.9361C60.7978 46.0462 59.9067 51.8583 56.3416 57.0738C52.7765 62.14 49.9536 67.5055 49.3595 73.7649C49.2113 74.5102 48.4684 75.2547 48.0225 76C47.5766 75.8514 47.2796 75.702 46.8337 75.5527C47.2796 73.1683 47.1307 70.7838 48.0225 68.5487C49.8054 64.3758 51.7365 60.2035 54.1135 56.3285C58.5705 49.0259 59.0157 41.7246 54.5594 34.5706C50.1025 27.4173 43.4174 24.4369 35.0976 25.6295C26.7785 26.822 21.4304 31.8882 19.0534 39.7868C17.2705 45.8969 18.4586 51.709 22.1733 56.7758C25.8866 61.992 28.4125 67.6548 29.0066 74.2122C29.0066 74.6595 29.0066 74.9568 29.0066 75.4041C28.7095 75.5527 28.2636 75.7013 27.9666 76V76Z" fill="#14414B"/>
<path fill-rule="evenodd" clip-rule="evenodd" d="M27 82C27 80.4614 27 79.3845 27 78C34.385 78 41.6158 78 49 78C49 79.2311 49 80.4614 49 82C41.7692 82 34.5384 82 27 82Z" fill="#14414B"/>
<path fill-rule="evenodd" clip-rule="evenodd" d="M49 88C41.615 88 34.3842 88 27 88C27 86.6667 27 85.4811 27 84C34.2308 84 41.6158 84 49 84C49 85.4811 49 86.6667 49 88Z" fill="#14414B"/>
<path fill-rule="evenodd" clip-rule="evenodd" d="M45 89C43.6765 95.8369 43.3825 96 35.7354 96C31.9116 96 31.1762 95.0235 30 89C35.1467 89 40 89 45 89Z" fill="#14414B"/>
<path fill-rule="evenodd" clip-rule="evenodd" d="M6.42337 50.0328C7.95241 50.0328 9.48213 49.902 11.0119 50.1629C11.776 50.2936 12.2351 51.0761 13 51.5978C12.3884 52.1195 11.9293 52.902 11.3177 52.902C8.10565 53.0327 4.74179 53.0327 1.52975 52.902C0.917432 52.902 0 51.9887 0 51.4677C0 50.9454 0.917432 50.1629 1.52975 50.1629C3.21134 50.0327 4.89293 50.1629 6.42337 50.0328C6.42337 50.1629 6.42337 50.1629 6.42337 50.0328V50.0328Z" fill="#14414B"/>
<path fill-rule="evenodd" clip-rule="evenodd" d="M69.929 50.0328C71.3409 50.0328 72.7523 49.902 74.1643 50.1629C74.8703 50.2936 75.294 51.0761 76 51.5978C75.4355 52.1195 74.8703 52.902 74.3057 52.902C71.3409 53.0327 68.3767 53.0327 65.5528 52.902C64.9882 52.902 64.4231 51.9887 64 51.5978C64.5645 51.0761 65.1297 50.1629 65.835 50.1629C67.1056 49.902 68.5176 50.0328 69.929 50.0328V50.0328Z" fill="#14414B"/>
<path fill-rule="evenodd" clip-rule="evenodd" d="M42 45.0856C42 47.7073 39.9345 50 37.5732 50C35.2127 50 33.1472 47.8707 33 45.0856C33 42.3012 35.0656 39.8436 37.5732 40.0078C40.0823 40.1719 42 42.4654 42 45.0856Z" fill="#EDF9FF"/>
</svg>
