<svg width="133" height="133" viewBox="0 0 133 133" fill="none" xmlns="http://www.w3.org/2000/svg">
<path d="M66.5 132C102.675 132 132 102.675 132 66.5C132 30.3253 102.675 1 66.5 1C30.3254 1 1 30.3253 1 66.5C1 102.675 30.3254 132 66.5 132Z" stroke="#B4B4B4" stroke-width="0.2822" stroke-miterlimit="22.9256"/>
<path fill-rule="evenodd" clip-rule="evenodd" d="M88.3305 86.3304C93.5353 86.4784 96.6575 89.5946 99.7803 92.8593C102.754 96.1235 106.025 99.0909 109 102.059C105.728 105.323 102.755 108.291 99.0367 112C98.442 111.259 97.8475 110.071 96.9548 109.181C95.1702 107.253 93.238 105.472 91.3044 103.543C89.5198 101.762 87.4385 100.278 86.1003 98.2015C84.762 96.2721 84.0183 93.75 83.1263 91.524C65.728 103.988 46.5458 97.4595 37.4752 85.4404C27.9582 72.8286 28.9999 55.0234 40.1518 43.5983C51.4533 32.1726 69.5945 30.8372 82.3827 40.1855C93.9809 49.0871 101.416 68.0798 88.3305 86.3304ZM63.1998 95.3814C79.2598 95.3814 92.3453 82.3243 92.3453 66.2991C92.3453 50.1258 79.2599 37.0687 63.0515 37.0687C46.9915 37.0687 34.055 50.1258 33.906 66.1511C33.906 82.3243 46.9914 95.3814 63.1998 95.3814ZM105.133 102.206C102.011 99.0902 98.5904 95.9747 95.6165 92.7106C93.3863 90.3359 90.7097 89.5939 87.8848 89.0012C87.4385 88.8532 86.1003 90.0399 86.2493 90.3366C86.6956 92.414 86.9922 94.7881 88.1821 96.1234C91.7506 100.13 95.7662 103.839 99.632 107.697C101.416 105.916 103.201 104.136 105.133 102.206V102.206Z" fill="#14414B"/>
<path fill-rule="evenodd" clip-rule="evenodd" d="M63.5748 96C47.211 96 34 82.5309 34 66C34 49.4691 47.0613 36.1534 63.4252 36C79.789 36 93 49.4691 93 66.1527C93 82.5309 79.789 95.8466 63.5748 96ZM37.9036 66.0007C37.9036 80.3887 49.4633 92.1735 63.5748 92.1735C77.6871 92.1735 89.2468 80.2346 89.2468 65.694C89.2468 51.1534 77.8368 39.6738 63.5748 39.6738C49.3129 39.8272 37.7532 51.4594 37.9036 66.0007V66.0007Z" fill="#14414B" stroke="#14414B" stroke-width="0.3528" stroke-miterlimit="22.9256"/>
<path fill-rule="evenodd" clip-rule="evenodd" d="M107 101.973C104.749 104.035 102.845 105.938 100.595 108C96.0932 103.876 91.4189 99.9105 87.2641 95.6278C85.7058 94.0416 85.5329 91.5029 85.0134 89.4407C84.8398 89.1239 86.3981 87.8552 86.9176 88.0136C90.2064 88.648 93.4959 89.2823 95.9195 91.9788C99.382 95.3103 103.191 98.6418 107 101.973V101.973Z" fill="#14414B"/>
<path fill-rule="evenodd" clip-rule="evenodd" d="M38 66.0756C38 51.6731 49.3337 40 63.4996 40C77.667 40 89 51.5219 89 65.7717C89 80.1735 77.5168 91.9985 63.4996 91.9985C49.4817 92.1498 38 80.4767 38 66.0756V66.0756ZM69.9119 49.5513C69.9119 55.3118 69.9119 60.7693 69.9119 66.6818C73.0437 66.6818 75.8773 66.6818 79.0084 66.6818C79.0084 71.078 79.0084 75.323 79.0084 79.4161C81.0962 80.1736 82.1401 79.2642 83.0346 77.5968C85.5701 73.0486 86.7628 68.0455 85.8683 62.8918C84.3768 53.1894 78.8589 46.6706 69.6131 43.79C60.9642 41.0613 51.2714 44.3962 45.9024 51.5212C39.9377 59.4042 39.4908 68.0455 43.6658 76.9898C44.8592 79.4161 46.35 80.3255 49.1836 79.2642C49.1836 73.1998 49.1836 66.9842 49.1836 60.4655C52.3154 60.4655 54.9995 60.4655 58.1306 60.4655C58.1306 56.6762 58.1306 53.0374 58.1306 49.3994C62.1576 49.5513 65.8863 49.5513 69.9119 49.5513V49.5513ZM78.7102 82.7511C68.4211 82.7511 58.4295 82.7511 48.2891 82.7511C56.1929 90.9373 70.2108 90.9373 78.7102 82.7511ZM57.8331 63.8012C55.7453 63.8012 53.9556 63.8012 51.8685 63.8012C51.8685 68.8036 51.8685 73.5036 51.8685 78.203C51.8685 78.658 52.7629 79.5673 53.3593 79.7192C54.7014 79.8704 56.1929 79.7192 57.8331 79.7192C57.8331 74.1099 57.8331 68.9555 57.8331 63.8012V63.8012ZM76.026 79.4161C76.026 76.0805 76.026 72.7455 76.026 69.5625C73.9382 69.5625 72.1485 69.5625 70.2101 69.5625C70.2101 72.8974 70.2101 76.0805 70.2101 79.4161C71.9998 79.4161 73.9382 79.4161 76.026 79.4161ZM66.9296 64.5593C61.2631 68.9548 60.5173 70.168 61.4118 74.413C63.6491 71.2292 68.2717 69.8649 66.9296 64.5593ZM66.9296 55.7669C60.3679 61.9825 60.5173 60.9205 61.5613 65.6206C63.6491 62.4368 68.2717 61.0724 66.9296 55.7669ZM66.9296 79.4161C66.9296 77.2936 66.9296 75.323 66.9296 74.2618C65.4388 75.7781 63.4997 77.7486 61.71 79.4161C63.2015 79.4161 64.9912 79.4161 66.9296 79.4161ZM65.5875 52.4312C63.9472 52.4312 62.6052 52.4312 61.2631 52.4312C61.2631 53.9475 61.2631 55.3119 61.2631 56.3731C62.6052 55.1599 63.9472 53.7956 65.5875 52.4312Z" fill="#14414B"/>
<path fill-rule="evenodd" clip-rule="evenodd" d="M69.4008 50.4249C65.4858 50.4249 61.7155 50.4249 57.8005 50.4249C57.8005 53.9785 57.8005 57.5327 57.8005 61.2347C54.7553 61.2347 52.1454 61.2347 49.1002 61.2347C49.1002 67.4536 49.1002 73.5249 49.1002 79.5961C46.3456 80.6327 44.8953 79.5961 43.7356 77.3752C39.5308 68.6386 40.1106 60.1981 45.9104 52.4974C51.1303 45.3895 60.5551 42.2804 68.9656 44.9458C77.9558 47.7595 83.4657 54.1268 84.7707 63.604C85.4958 68.6386 84.4808 73.3765 82.0161 77.9674C81.1457 79.4478 80.1306 80.3367 78.1005 79.7445C78.1005 75.7465 78.1005 71.7484 78.1005 67.306C75.2013 67.306 72.4453 67.306 69.2561 67.306C69.4008 61.3824 69.4008 55.9033 69.4008 50.4249V50.4249Z" fill="#EDF9FF"/>
<path fill-rule="evenodd" clip-rule="evenodd" d="M79 83C70.6182 89.6667 56.7944 89.6667 49 83C59.0007 83 68.8533 83 79 83Z" fill="#EDF9FF"/>
<path fill-rule="evenodd" clip-rule="evenodd" d="M58 64C58 69.3111 58 74.4695 58 79.9327C56.2697 79.9327 54.5385 80.0841 52.8074 79.9327C52.1152 79.7807 51.2497 79.0218 51.0771 78.4151C50.9036 73.7114 51.0771 69.007 51.0771 64C53.4996 64 55.7501 64 58 64V64Z" fill="#EDF9FF"/>
<path fill-rule="evenodd" clip-rule="evenodd" d="M76 79C73.8461 79 71.9998 79 70 79C70 75.6148 70 72.3845 70 69C71.9998 69 74.0002 69 76 69C76 72.2303 76 75.4613 76 79Z" fill="#EDF9FF"/>
<path fill-rule="evenodd" clip-rule="evenodd" d="M66.7713 65C67.9745 69.8459 64.125 71.0921 62.3202 74C61.4781 70.1228 62.0802 68.8766 66.7713 65Z" fill="#EDF9FF"/>
<path fill-rule="evenodd" clip-rule="evenodd" d="M66.7709 56C67.975 61.3843 64.1224 62.7697 62.4368 66C61.594 61.3844 61.4734 62.3079 66.7709 56Z" fill="#EDF9FF"/>
<path fill-rule="evenodd" clip-rule="evenodd" d="M67 79C65.1431 79 63.4288 79 62 79C63.5712 77.3825 65.4281 75.4709 67 74C67 75.0295 67 76.9411 67 79Z" fill="#EDF9FF"/>
<path fill-rule="evenodd" clip-rule="evenodd" d="M67 52C65.1035 53.5386 63.5518 54.769 62 56C62 54.9231 62 53.5386 62 52C63.5518 52 65.1035 52 67 52Z" fill="#EDF9FF"/>
</svg>
