<svg width="524" height="395" viewBox="0 0 524 395" fill="none" xmlns="http://www.w3.org/2000/svg">
<g opacity="0.9" filter="url(#filter0_d)">
<path fill-rule="evenodd" clip-rule="evenodd" d="M153.597 193.387C156.499 186.962 161.019 186.064 164.703 172.115C184.051 98.8575 236.114 98.0712 247.042 87.1812C260.206 74.0622 253.844 48.6083 234.714 46.1416C221.748 44.4697 196.021 58.0043 186.365 63.9874C94.2323 121.077 88.6217 259.772 186.055 322.111C195.67 328.262 221.848 341.979 234.602 340.086C252.457 337.436 260.729 313.981 247.744 299.91C240.068 291.591 225.746 292.897 204.19 276.56C183.84 261.137 171.648 241.761 164.977 215.342C161.925 203.254 158.786 201.345 153.597 193.387Z" fill="white"/>
<path fill-rule="evenodd" clip-rule="evenodd" d="M370.401 193.119C365.639 200.447 362.229 202.503 359.203 214.25C350.353 248.602 330.928 274.437 299.457 288.41C290.885 292.216 281.957 293.899 276.755 299.114C262.754 313.153 271.806 337.387 289.343 339.83C312.466 343.052 356.619 311.314 373.15 291.116C434.143 216.587 413.862 112.005 338.237 64.1528C266.649 18.8553 263.125 71.9648 276.435 86.4195C283.916 94.5444 299.349 93.4285 320.027 109.706C357.691 139.356 354.643 166.345 363.547 182.809C365.89 187.141 368.829 189.629 370.401 193.119Z" fill="white"/>
<path fill-rule="evenodd" clip-rule="evenodd" d="M271.169 255.57C233.937 261.318 204.114 233.128 199.54 202.344C193.981 164.936 221.123 134.988 253.08 130.529C290.922 125.249 320.365 153.141 324.51 184.449C329.524 222.314 302.091 250.795 271.169 255.57ZM184.848 204.069C190.759 243.517 226.818 277.058 274.06 270.065C312.107 264.433 346.093 227.539 339.114 181.3C333.188 142.034 296.5 109.358 250.734 115.869C211.75 121.415 177.929 157.893 184.848 204.069Z" fill="white"/>
<path fill-rule="evenodd" clip-rule="evenodd" d="M277.012 180.329C271.658 171.294 284.393 165.093 288.958 172.574C294.016 180.862 281.794 188.397 277.012 180.329ZM267.997 164.581C267.997 162.367 269.792 160.572 272.007 160.572C274.222 160.572 276.017 162.367 276.017 164.581C276.017 166.796 274.222 168.591 272.007 168.591C269.792 168.591 267.997 166.796 267.997 164.581ZM225.023 215.119C227.941 211.468 227.163 205.567 234.892 201.732C247.327 195.562 261.317 207.536 256.371 221.093C253.983 227.639 249.626 228.535 245.701 230.67L244.263 231.537C244.087 231.642 243.761 231.829 243.534 232.008C295.705 249.519 323.617 192.422 290.928 161.457C256.029 128.398 200.195 171.089 225.023 215.119Z" fill="white"/>
<path fill-rule="evenodd" clip-rule="evenodd" d="M453.604 166.731C437.767 162.76 423.943 174.018 421.217 186.445C417.485 203.459 428.474 215.965 441.255 218.9C475.218 226.702 487.954 175.344 453.604 166.731Z" fill="white"/>
<path fill-rule="evenodd" clip-rule="evenodd" d="M50.7773 198.553C59.2256 233.612 110.871 221.097 102.848 186.438C100.062 174.401 87.1511 163.123 71.0631 166.57C58.1492 169.337 46.8973 182.453 50.7773 198.553Z" fill="white"/>
</g>
<defs>
<filter id="filter0_d" x="0" y="0" width="523.891" height="394.264" filterUnits="userSpaceOnUse" color-interpolation-filters="sRGB">
<feFlood flood-opacity="0" result="BackgroundImageFix"/>
<feColorMatrix in="SourceAlpha" type="matrix" values="0 0 0 0 0 0 0 0 0 0 0 0 0 0 0 0 0 0 127 0" result="hardAlpha"/>
<feOffset dy="4"/>
<feGaussianBlur stdDeviation="25"/>
<feColorMatrix type="matrix" values="0 0 0 0 0.243438 0 0 0 0 0.634304 0 0 0 0 0.854167 0 0 0 0.74 0"/>
<feBlend mode="normal" in2="BackgroundImageFix" result="effect1_dropShadow"/>
<feBlend mode="normal" in="SourceGraphic" in2="effect1_dropShadow" result="shape"/>
</filter>
</defs>
</svg>
