<svg width="154" height="117" viewBox="0 0 154 117" fill="none" xmlns="http://www.w3.org/2000/svg">
<g filter="url(#filter0_d)">
<path fill-rule="evenodd" clip-rule="evenodd" d="M49.9064 54.5089C50.6321 53.0047 51.7623 52.7944 52.6835 49.5284C57.5218 32.376 70.5404 32.1919 73.2731 29.6422C76.565 26.5705 74.974 20.6108 70.1905 20.0332C66.9483 19.6418 60.5149 22.8107 58.1004 24.2116C35.0617 37.5784 33.6588 70.0522 58.0228 84.6482C60.427 86.0885 66.9731 89.3 70.1625 88.8568C74.6272 88.2365 76.6958 82.7448 73.4488 79.4502C71.5292 77.5023 67.9478 77.8082 62.5576 73.9831C57.469 70.3719 54.4202 65.8351 52.7521 59.6495C51.9889 56.8193 51.2039 56.3722 49.9064 54.5089Z" fill="white"/>
<path fill-rule="evenodd" clip-rule="evenodd" d="M104.118 54.4476C102.928 56.1635 102.075 56.6447 101.318 59.3953C99.1052 67.4383 94.2478 73.4872 86.3782 76.7589C84.2348 77.6501 82.0021 78.044 80.7014 79.2651C77.2004 82.5521 79.4639 88.2263 83.8491 88.7983C89.6312 89.5527 100.672 82.1217 104.806 77.3925C120.058 59.9425 114.986 35.4557 96.0754 24.2517C78.1743 13.6459 77.2931 26.0808 80.6212 29.4652C82.4919 31.3676 86.3512 31.1063 91.5219 34.9175C100.94 41.8598 100.178 48.1788 102.404 52.0336C102.99 53.0479 103.725 53.6306 104.118 54.4476Z" fill="white"/>
<path fill-rule="evenodd" clip-rule="evenodd" d="M79.3058 69.0684C69.9956 70.4144 62.538 63.8141 61.3941 56.6063C60.0042 47.8476 66.7913 40.8356 74.7823 39.7917C84.245 38.5555 91.6075 45.0859 92.6441 52.4163C93.8978 61.282 87.0379 67.9506 79.3058 69.0684ZM57.7203 57.0102C59.1984 66.2464 68.2154 74.0996 80.0286 72.4623C89.5427 71.1437 98.0412 62.5055 96.296 51.6791C94.814 42.4853 85.6399 34.8347 74.1957 36.3591C64.4474 37.6577 55.9901 46.1986 57.7203 57.0102Z" fill="white"/>
<path fill-rule="evenodd" clip-rule="evenodd" d="M80.7677 51.453C79.429 49.3377 82.6133 47.8857 83.7549 49.6373C85.0197 51.5778 81.9633 53.342 80.7677 51.453ZM78.5134 47.766C78.5134 47.2474 78.9622 46.8271 79.5161 46.8271C80.0699 46.8271 80.5188 47.2474 80.5188 47.766C80.5188 48.2846 80.0699 48.7049 79.5161 48.7049C78.9622 48.7049 78.5134 48.2846 78.5134 47.766ZM67.7673 59.5987C68.4971 58.7439 68.3024 57.3622 70.2352 56.4643C73.3446 55.0197 76.8431 57.8232 75.6063 60.9975C75.0091 62.5303 73.9196 62.74 72.9381 63.2398L72.5784 63.4429C72.5344 63.4674 72.453 63.5111 72.3963 63.5531C85.4421 67.6532 92.4216 54.2845 84.2474 47.0344C75.5206 39.2942 61.559 49.2897 67.7673 59.5987Z" fill="white"/>
<path fill-rule="evenodd" clip-rule="evenodd" d="M124.924 48.2679C120.964 47.3382 117.507 49.9741 116.825 52.8836C115.892 56.8672 118.64 59.7954 121.836 60.4827C130.329 62.3094 133.513 50.2846 124.924 48.2679Z" fill="white"/>
<path fill-rule="evenodd" clip-rule="evenodd" d="M24.1944 55.7192C26.3069 63.9279 39.2213 60.9976 37.2152 52.8828C36.5184 50.0643 33.29 47.4238 29.267 48.2309C26.0378 48.8787 23.2241 51.9495 24.1944 55.7192Z" fill="white"/>
</g>
<defs>
<filter id="filter0_d" x="0" y="0" width="153.997" height="116.898" filterUnits="userSpaceOnUse" color-interpolation-filters="sRGB">
<feFlood flood-opacity="0" result="BackgroundImageFix"/>
<feColorMatrix in="SourceAlpha" type="matrix" values="0 0 0 0 0 0 0 0 0 0 0 0 0 0 0 0 0 0 127 0" result="hardAlpha"/>
<feOffset dy="4"/>
<feGaussianBlur stdDeviation="12"/>
<feColorMatrix type="matrix" values="0 0 0 0 0.418333 0 0 0 0 0.7906 0 0 0 0 1 0 0 0 0.84 0"/>
<feBlend mode="normal" in2="BackgroundImageFix" result="effect1_dropShadow"/>
<feBlend mode="normal" in="SourceGraphic" in2="effect1_dropShadow" result="shape"/>
</filter>
</defs>
</svg>
