<svg width="361" height="357" viewBox="0 0 361 357" fill="none" xmlns="http://www.w3.org/2000/svg">
<g filter="url(#filter0_i)">
<path fill-rule="evenodd" clip-rule="evenodd" d="M271.044 243.387C268.285 247.608 271.68 260.068 258.916 261.518C242.475 263.385 237.558 233.363 259.485 227.187C266.407 225.238 271.58 225.809 279.104 230.26C281.305 231.562 282.583 230.846 281.064 228.162C273.221 214.302 267.966 216.066 253.126 208.981C254.44 207.045 259.095 180.029 259.12 173.184C267.368 173.525 270.895 174.522 276.024 173.687C291.479 173.11 306.864 159.441 310.983 151.839C314.49 145.368 311.941 146.079 307.358 148.515C291.951 161.55 274.434 155.935 264.617 151.531C255.56 147.468 239.225 126.749 222.469 112.884C216.889 108.267 210.727 105.912 203.951 103.306C191.227 98.4129 179.555 97.6875 177.671 98.5219C184.978 100.758 185.179 100.473 189.424 102.846C200.578 109.08 207.387 114.727 216.307 126.106C251.846 178.914 206.316 225.996 167.871 218.25C135.064 211.639 117.996 164.623 147.122 146.781C173.673 130.517 198.42 161.033 177.392 177.231C172.991 180.621 169.002 181.154 165.365 181.033C163.007 180.956 154.189 180.082 157.795 183.841C179.142 206.089 220.587 173.318 194.234 135.687C177.281 111.481 135.541 104.101 108.387 109.27C102.055 124.208 102.9 162.615 108.476 190.882C111.662 207.035 119.29 218.982 136.038 233.393C145.13 241.216 154.471 248.905 161.352 258.626C170.384 271.387 176.597 288.696 161.633 306.465C156.368 312.717 159.419 313.449 164.602 310C188.172 294.317 191.31 278.81 185.271 252.865C192.357 251.777 222.079 244.399 226.076 242.195C233.021 256.641 236.505 272.667 266.513 277.009C298.445 281.631 289.193 246.428 271.044 243.387Z" fill="#EBAD36"/>
<path fill-rule="evenodd" clip-rule="evenodd" d="M100.956 170.831C93.3387 170.376 85.6612 168.836 78.6749 168.511C69.4952 168.083 66.0322 168.342 57.9221 166.17C45.7612 162.913 29.4848 152.146 28.382 138.649C27.906 132.825 29.9426 133.162 34.1196 134.47C46.8617 138.462 45.3576 135.723 61.3865 124.41C71.3583 117.373 81.5607 112.843 90.4808 114.417C96.9986 115.568 95.0674 116.297 90.6258 117.294C76.015 120.574 64.5865 131.217 68.2067 136.069C69.9924 138.463 75.3476 139.846 77.5175 136.648C82.4386 129.392 71.0079 131.289 81.7652 127.382C87.988 125.121 93.4371 133.005 89.6966 139.614C86.4141 145.415 81.2484 149.732 72.8779 151.156C72.9174 151.146 61.8387 151.426 62.2935 151.5L50.0032 149.495C57.3553 155.972 66.2439 158.254 73.1475 157.924C78.6741 157.66 91.6415 156.064 99.496 153.993C99.8145 159.597 100.305 165.268 100.956 170.831Z" fill="#EBAD36"/>
<path fill-rule="evenodd" clip-rule="evenodd" d="M169.47 96.1109C168.357 88.5612 166.158 81.0458 165.23 74.1138C164.01 65.0054 163.969 61.533 161.103 53.6412C156.806 41.8077 144.671 26.5237 131.129 26.5927C125.286 26.6223 125.798 28.6221 127.463 32.6703C132.542 45.0193 129.683 43.7578 119.799 60.7053C113.651 71.2485 110.021 81.8046 112.361 90.555C114.071 96.9488 114.63 94.9618 115.239 90.4506C117.243 75.6108 126.857 63.3045 132.005 66.4913C134.544 68.0632 136.385 73.2787 133.386 75.7172C126.583 81.2475 127.484 69.6956 124.523 80.7506C122.809 87.1455 131.134 91.8922 137.395 87.594C142.89 83.8219 146.055 79.4128 147.439 69.8399C147.959 68.2512 147.207 61.2808 146.866 59.2653L143.806 47.1945C150.894 53.9588 153.937 62.6167 154.205 69.5229C154.42 75.0516 153.952 88.1085 152.568 96.1127C158.179 95.9452 163.871 95.9437 169.47 96.1109Z" fill="#EBAD36"/>
</g>
<defs>
<filter id="filter0_i" x="22.5933" y="20.5996" width="344.408" height="344.915" filterUnits="userSpaceOnUse" color-interpolation-filters="sRGB">
<feFlood flood-opacity="0" result="BackgroundImageFix"/>
<feBlend mode="normal" in="SourceGraphic" in2="BackgroundImageFix" result="shape"/>
<feColorMatrix in="SourceAlpha" type="matrix" values="0 0 0 0 0 0 0 0 0 0 0 0 0 0 0 0 0 0 127 0" result="hardAlpha"/>
<feOffset dx="7" dy="9"/>
<feGaussianBlur stdDeviation="7.5"/>
<feComposite in2="hardAlpha" operator="arithmetic" k2="-1" k3="1"/>
<feColorMatrix type="matrix" values="0 0 0 0 0 0 0 0 0 0 0 0 0 0 0 0 0 0 0.35 0"/>
<feBlend mode="normal" in2="shape" result="effect1_innerShadow"/>
</filter>
</defs>
</svg>
