<svg width="1440" height="2150" viewBox="0 0 1440 2150" fill="none" xmlns="http://www.w3.org/2000/svg">
<g filter="url(#filter0_d)">
<mask id="mask0" mask-type="alpha" maskUnits="userSpaceOnUse" x="-2024" y="56" width="8053" height="2062">
<path fill-rule="evenodd" clip-rule="evenodd" d="M-1887.99 56.6024L-1959.66 509.145L5955.92 1762.69L6028.25 1305.98C5856.95 1312.95 5724.25 1456.83 5491.01 1316.36C5356.71 1235.48 5278.22 1106.19 5029.33 1177.2C4836.94 1232.1 4737.49 1294.75 4523.96 1123.56C4357.47 990.094 4233.22 993.495 4050.49 1062.94C3795.37 1159.89 3696.45 1014.43 3555.48 930.993C3326.06 795.2 3199.94 928.387 3067.55 945.422C2790.28 981.093 2748.08 798.531 2566.11 748.361C2304.65 676.27 2290.29 835.286 2051.3 800.375C1794.58 762.877 1828.9 596.376 1554.51 589.28C1355.59 584.129 1293.39 733.219 1034.85 626.756C903.988 572.876 812.391 390.521 556.727 457.496C406.881 496.751 271.857 592.752 58.5299 437.635C-463.06 58.3645 -386.244 628.458 -904.695 241.87C-1120.51 80.9429 -1250.36 196.509 -1403.7 227.182C-1660.34 278.514 -1744.77 114.476 -1887.99 56.6024Z" fill="url(#paint0_linear)"/>
<path fill-rule="evenodd" clip-rule="evenodd" d="M-2023.45 858.835L-1951.78 406.292L5963.72 1660.31L5891.39 2117.02C5730.63 2057.45 5648.88 1879.61 5383.65 1941.12C5230.94 1976.54 5116.34 2075.25 4901.57 1930.79C4735.55 1819.13 4660.34 1728.81 4404.36 1825.63C4204.78 1901.11 4087.66 1859.48 3935.32 1736.97C3722.66 1565.92 3583.63 1673.68 3423.78 1709.48C3163.63 1767.72 3084.83 1602.08 2964.19 1544.96C2711.51 1425.35 2614.96 1585.94 2426.4 1577.42C2155.46 1565.18 2190.94 1409.51 1952.86 1368.85C1697.12 1325.18 1678.3 1494.14 1415.15 1416.09C1224.38 1359.52 1211.29 1198.5 932.504 1219.85C791.403 1230.65 647.942 1375.78 425.487 1233.07C295.104 1149.43 196.353 1016.4 -54.4644 1098C-667.72 1297.51 -418.505 779.063 -1031.04 986.509C-1286.01 1072.87 -1373.8 922.825 -1510.16 846.265C-1738.37 718.135 -1869.36 848.054 -2023.45 858.835Z" fill="url(#paint1_linear)"/>
</mask>
<g mask="url(#mask0)">
<rect x="-3822.44" y="-1221" width="17297.3" height="4011.65" transform="rotate(9 -3822.44 -1221)" fill="url(#paint2_linear)"/>
</g>
</g>
<defs>
<filter id="filter0_d" x="-2109.45" y="0.602417" width="8139.7" height="2148.42" filterUnits="userSpaceOnUse" color-interpolation-filters="sRGB">
<feFlood flood-opacity="0" result="BackgroundImageFix"/>
<feColorMatrix in="SourceAlpha" type="matrix" values="0 0 0 0 0 0 0 0 0 0 0 0 0 0 0 0 0 0 127 0"/>
<feOffset dx="-42" dy="-12"/>
<feGaussianBlur stdDeviation="22"/>
<feColorMatrix type="matrix" values="0 0 0 0 1 0 0 0 0 1 0 0 0 0 1 0 0 0 0.29 0"/>
<feBlend mode="normal" in2="BackgroundImageFix" result="effect1_dropShadow"/>
<feBlend mode="normal" in="SourceGraphic" in2="effect1_dropShadow" result="shape"/>
</filter>
<linearGradient id="paint0_linear" x1="978.333" y1="637.939" x2="969.025" y2="825.8" gradientUnits="userSpaceOnUse">
<stop stop-color="#96D5CD"/>
<stop offset="1" stop-color="#44B6C6"/>
</linearGradient>
<linearGradient id="paint1_linear" x1="911.01" y1="1009.93" x2="901.703" y2="1197.79" gradientUnits="userSpaceOnUse">
<stop stop-color="#96D5CD"/>
<stop offset="1" stop-color="#44B6C6"/>
</linearGradient>
<linearGradient id="paint2_linear" x1="1507.02" y1="409.686" x2="2667.96" y2="478.504" gradientUnits="userSpaceOnUse">
<stop stop-color="#B3F4E5" stop-opacity="0.57"/>
<stop offset="0.0001" stop-color="#B2F4E5" stop-opacity="0.36"/>
<stop offset="1" stop-color="#7ADAE7" stop-opacity="0.85"/>
</linearGradient>
</defs>
</svg>
