<svg width="1440" height="1503" viewBox="0 0 1440 1503" fill="none" xmlns="http://www.w3.org/2000/svg">
<g filter="url(#filter0_d)">
<mask id="mask0" mask-type="alpha" maskUnits="userSpaceOnUse" x="-6834" y="56" width="10255" height="1415">
<path fill-rule="evenodd" clip-rule="evenodd" d="M-6782.24 81.9411L-6804.81 598.935L3396.44 1044.05L3419.22 522.296C3203.58 550.964 3057.36 728.699 2741.2 599.304C2559.16 524.795 2440.42 389.13 2136.28 499.163C1901.17 584.222 1784.81 666.691 1488.94 500.392C1258.27 370.734 1101.61 389.666 880.914 489.887C572.801 629.806 425.786 478.474 234.914 401.904C-75.7147 277.293 -215.212 442.223 -380.111 477.46C-725.464 551.249 -806.32 351.336 -1044.05 317.121C-1385.62 267.954 -1379.86 448.301 -1687.41 438.16C-2017.79 427.269 -1999.43 236.089 -2347.58 261.494C-2599.97 279.904 -2656.23 454.922 -2999.28 366.795C-3172.91 322.196 -3316.21 128.525 -3629.53 234.846C-3813.17 297.161 -3969.52 421.409 -4262.71 273.137C-4979.54 -89.4002 -4796.6 541.561 -5510.57 170.423C-5807.77 15.9272 -5954.64 161.521 -6143.99 214.623C-6460.89 303.493 -6592.37 129.522 -6782.24 81.9411Z" fill="url(#paint0_linear)"/>
<path fill-rule="evenodd" clip-rule="evenodd" d="M-6832.89 999.423L-6810.31 482.43L3390.91 928.104L3368.13 1449.86C3155.81 1402.51 3025.64 1212.7 2699.4 1314.05C2511.56 1372.41 2381.46 1497.21 2088.06 1361.09C1861.26 1255.86 1752.52 1163.57 1443.29 1303.45C1202.2 1412.51 1047.79 1379.99 836.661 1260.92C541.915 1094.68 382.271 1232.62 185.451 1292.26C-134.856 1389.33 -259.447 1212.87 -420.648 1163.39C-758.256 1059.78 -856.227 1251.89 -1096.03 1265.25C-1440.59 1284.46 -1419.14 1105.31 -1726.4 1088.6C-2056.47 1070.66 -2054.85 1262.71 -2399.46 1207.06C-2649.28 1166.72 -2690.07 987.467 -3039.5 1045.36C-3216.36 1074.66 -3375.99 1255.1 -3678.85 1121.88C-3856.36 1043.79 -4001.29 906.392 -4306.28 1028.55C-5051.98 1327.23 -4814.75 714.612 -5558.34 1022.11C-5867.88 1150.12 -6001.5 992.276 -6185.5 922.873C-6493.46 806.721 -6639.59 968.572 -6832.89 999.423Z" fill="url(#paint1_linear)"/>
</mask>
<g mask="url(#mask0)">
<path fill-rule="evenodd" clip-rule="evenodd" d="M1221.84 870.808C1204.02 872.939 1176.54 856.203 1164.8 847.677C1154.43 840.148 1144.93 845.603 1128.6 845.042C1079.99 843.371 1010.94 803.799 1106.17 766.512C1132.57 756.176 1132.07 765.38 1157.7 741.063C1214.79 686.879 1201.31 746.229 1210.65 769.661C1227.8 812.666 1271.38 763.292 1298.08 776.14C1316.75 792.763 1312.92 840.755 1282.68 836.856C1268.97 835.088 1249.8 824.223 1243.03 824.272C1242.31 824.278 1206 833.702 1203.05 834.566C1207.38 846.3 1220.7 862.261 1221.84 870.808Z" fill="#0E465C" fill-opacity="0.45"/>
<rect x="-8330.93" y="-625.704" width="12723.3" height="2615.86" transform="rotate(2.5 -8330.93 -625.704)" fill="url(#paint2_linear)"/>
</g>
</g>
<defs>
<filter id="filter0_d" x="-6920" y="0.461426" width="10342.1" height="1501.84" filterUnits="userSpaceOnUse" color-interpolation-filters="sRGB">
<feFlood flood-opacity="0" result="BackgroundImageFix"/>
<feColorMatrix in="SourceAlpha" type="matrix" values="0 0 0 0 0 0 0 0 0 0 0 0 0 0 0 0 0 0 127 0"/>
<feOffset dx="-42" dy="-12"/>
<feGaussianBlur stdDeviation="22"/>
<feColorMatrix type="matrix" values="0 0 0 0 1 0 0 0 0 1 0 0 0 0 1 0 0 0 0.29 0"/>
<feBlend mode="normal" in2="BackgroundImageFix" result="effect1_dropShadow"/>
<feBlend mode="normal" in="SourceGraphic" in2="effect1_dropShadow" result="shape"/>
</filter>
<linearGradient id="paint0_linear" x1="-3069.08" y1="386.229" x2="-3058.07" y2="598.642" gradientUnits="userSpaceOnUse">
<stop stop-color="#96D5CD"/>
<stop offset="1" stop-color="#44B6C6"/>
</linearGradient>
<linearGradient id="paint1_linear" x1="-3098.27" y1="812.197" x2="-3087.25" y2="1024.61" gradientUnits="userSpaceOnUse">
<stop stop-color="#96D5CD"/>
<stop offset="1" stop-color="#44B6C6"/>
</linearGradient>
<linearGradient id="paint2_linear" x1="3007.56" y1="-3.73988" x2="369.73" y2="-771.651" gradientUnits="userSpaceOnUse">
<stop offset="0.147172" stop-color="#0079D1" stop-opacity="0.52"/>
<stop offset="1" stop-color="#95E6FF" stop-opacity="0.38"/>
</linearGradient>
</defs>
</svg>
