<svg width="56" height="45" viewBox="0 0 56 45" fill="none" xmlns="http://www.w3.org/2000/svg">
<g clip-path="url(#clip0)">
<path d="M55.9944 6.62076H53.7801C52.9579 6.62076 51.7953 7.82291 51.7953 8.59234V36.4848C51.7953 37.2551 52.9579 38.3054 53.7801 38.3054H55.9944V44.9262H35.9321V38.3054H40.1312V8.98515H39.9254L30.1196 44.9262H22.528L12.8486 8.98515H12.6037V38.3054H16.8028V44.9262H0.00634766V38.3054H2.1573C3.04283 38.3054 4.20545 37.2551 4.20545 36.4848V8.59212C4.20545 7.82268 3.04283 6.62054 2.1573 6.62054H0.00634766V0H21.0093L27.905 26.0098H28.0953L35.0542 0H55.9944V6.62076Z" fill="white"/>
</g>
<defs>
<clipPath id="clip0">
<rect width="56" height="45" fill="white"/>
</clipPath>
</defs>
</svg>
