<svg width="46" height="46" viewBox="0 0 46 46" fill="none" xmlns="http://www.w3.org/2000/svg">
<path d="M3.40167 0C1.52431 0 0 1.47149 0 3.29116V42.7088C0 44.5291 1.52431 46 3.40167 46H42.5983C44.4757 46 46 44.5291 46 42.7088V3.29116C46 1.47149 44.4757 0 42.5983 0H3.40167ZM10.5143 7.72211C12.8912 7.72211 14.3476 9.26929 14.3927 11.3079C14.3927 13.3016 12.8855 14.8936 10.4626 14.8936H10.424C8.0923 14.8936 6.58421 13.3016 6.58421 11.3079C6.58421 9.26929 8.13767 7.72211 10.5143 7.72211ZM31.0016 17.2498C35.5728 17.2498 38.9905 20.2171 38.9905 26.5983V38.5082H32.0452V27.3923C32.0452 24.5995 31.0418 22.6925 28.5276 22.6925C26.6083 22.6925 25.4607 23.9875 24.9584 25.2281C24.7749 25.672 24.7395 26.2848 24.7395 26.9057V38.5082H17.7815C17.7815 38.5082 17.8728 19.6859 17.7815 17.7364H24.7395V20.6691C25.663 19.2535 27.3176 17.2498 31.0016 17.2498ZM24.7395 20.6691C24.7229 20.6937 24.7036 20.7217 24.6883 20.7459H24.7395V20.6691ZM6.99663 17.7364H13.9416V38.5082H6.99663V17.7364Z" fill="white"/>
</svg>
