<svg width="885" height="620" viewBox="0 0 885 620" fill="none" xmlns="http://www.w3.org/2000/svg">
<path d="M544.68 259.264C545.593 257.666 546.734 256.068 547.647 254.242C554.495 242.601 569.331 229.819 565.679 219.32C562.027 209.276 543.995 204.255 532.811 196.723C526.648 192.614 522.996 192.614 519.116 199.918C511.811 213.157 503.823 225.939 495.834 238.949C491.497 246.025 487.16 253.101 483.052 260.177C503.594 259.72 524.137 259.492 544.68 259.264Z" fill="#22B8CC"/>
<path d="M352.95 241.918C356.602 247.397 360.026 252.875 363.678 258.124C381.025 258.353 398.601 259.494 415.948 260.635C415.492 254.016 414.579 247.396 412.753 241.005C405.677 217.724 387.188 198.094 373.265 177.095C365.732 165.91 360.711 146.737 349.526 145.824C338.799 144.911 326.701 159.063 314.832 166.138C307.984 170.019 307.756 173.443 312.093 179.834C326.016 200.376 339.255 221.147 352.95 241.918Z" fill="#22B8CC"/>
<path d="M644.658 109.759C645.114 134.182 629.365 157.464 606.311 167.279C601.746 169.333 599.463 167.051 596.496 165.453C588.507 160.888 580.747 156.095 572.758 151.301C551.302 138.519 547.878 128.476 557.237 104.738C562.715 91.0425 572.073 80.7711 585.768 74.3801C600.833 67.5325 615.441 60.0001 630.506 53.3808C633.701 52.0113 639.864 45.1637 641.234 52.9243C642.375 59.5436 648.538 69.815 636.44 74.1518C630.962 76.2061 624.8 76.4344 619.093 78.2604C600.148 83.7385 586.91 95.1511 580.975 114.553C579.377 120.031 579.377 125.052 585.312 127.107C591.246 129.161 594.67 125.965 596.496 120.259C601.518 103.825 613.615 96.7489 629.593 92.6403C640.092 89.9013 645.114 91.0425 644.201 102.912C643.973 105.194 644.429 107.477 644.658 109.759Z" fill="#22B8CC"/>
<path d="M430.783 261.323C441.511 261.094 452.467 260.866 463.195 260.638C467.532 253.334 472.097 246.258 476.89 239.182C488.303 222.063 486.705 202.433 482.14 185.999C479.401 176.184 459.771 184.173 447.902 182.347C444.707 181.891 441.511 182.347 438.316 182.347C433.294 182.119 430.783 183.488 430.783 189.195C430.783 213.161 430.783 237.356 430.783 261.323Z" fill="#22B8CC"/>
<path d="M445.161 113.64C435.575 94.6951 425.988 75.7501 416.401 56.8051C414.575 53.153 416.858 50.6423 418.912 48.1315C429.868 33.5233 441.053 18.9151 451.781 4.07866C456.346 -2.08418 458.856 -0.714665 462.737 4.53516C473.236 19.1434 484.192 33.2951 494.92 47.4467C497.431 50.8705 499.485 53.6095 496.975 58.4029C487.388 76.4349 478.486 94.9234 467.758 112.727C467.302 100.858 459.998 88.9888 474.834 78.7174C486.247 70.9568 485.105 53.153 475.519 43.1099C466.16 33.5233 450.868 32.8385 440.596 41.7404C430.097 50.8705 427.586 69.359 438.542 77.1196C452.922 87.1628 448.128 99.7167 448.813 112.042C447.672 112.727 446.531 113.184 445.161 113.64Z" fill="#22B8CC"/>
<path d="M547.644 155.867C549.698 157.008 551.752 158.149 553.578 159.291C562.708 164.769 571.382 170.703 580.74 175.268C589.87 179.834 590.555 183.714 585.305 192.844C579.142 203.572 574.349 204.713 564.991 197.409C558.828 192.616 551.752 189.42 545.133 185.312C533.948 178.692 534.177 164.312 545.361 157.236C546.274 156.78 546.959 156.323 547.644 155.867Z" fill="#22B8CC"/>
<path d="M434.437 165.912C437.861 154.728 441.056 144.913 444.024 135.098C445.85 129.163 451.1 130.076 455.436 130.533C460.458 130.989 466.621 127.566 470.045 134.413C470.273 134.87 470.273 135.326 470.501 135.783C484.424 164.314 483.283 166.14 452.013 166.14C446.763 165.912 441.285 165.912 434.437 165.912Z" fill="#22B8CC"/>
<path d="M336.969 131.899C325.328 139.66 314.828 146.736 302.502 154.725C299.079 140.117 299.535 125.508 289.949 113.867C286.525 109.759 295.198 108.161 298.166 105.194C300.905 102.455 303.872 101.998 305.698 106.335C311.633 119.345 324.643 124.139 336.969 131.899Z" fill="#22B8CC"/>
<path d="M280.133 97.4328C273.742 93.096 269.405 86.4767 267.807 80.3138C265.753 72.7815 275.568 73.4662 279.22 72.7815C287.665 71.6402 290.176 80.7704 291.774 86.2484C293.143 92.183 284.469 92.8678 280.133 97.4328Z" fill="#22B8CC"/>
<path d="M465.7 61.6004C465.472 67.3068 462.277 70.0458 456.799 69.8175C451.32 69.5893 448.353 66.622 448.581 60.9157C448.81 55.4376 451.777 52.4703 457.255 52.6985C463.19 52.9268 465.7 56.1224 465.7 61.6004Z" fill="#22B8CC"/>
<path d="M458.9 321.521C464.825 321.521 468 325.7 468 331.273C468 337.541 464.826 341.952 458.265 341.488C452.551 341.024 449.8 336.845 450.011 331.273C450.011 325.468 453.186 321.521 458.9 321.521Z" fill="#77CBC3"/>
<path opacity="0.39" d="M359.424 510.27C209.994 434.62 115.251 519.683 47.3279 453.097C-30.6962 376.4 -7.01033 164.44 80.0701 117.725C170.982 68.9186 278.614 228.935 416.549 177.339C491.787 149.101 486.214 91.5789 565.631 64.7352C657.24 34.0567 789.254 69.2673 851.255 168.624C932.762 299.356 853.693 476.803 751.286 556.985C743.275 563.26 640.172 641.699 522.787 614.158C446.505 596.728 443.718 552.802 359.424 510.27Z" fill="url(#paint0_linear)"/>
<path d="M458.601 564.293C397.002 564.293 335.175 564.293 273.576 564.293C244.601 564.293 230.228 549.907 230 521.136C230 444.639 230 368.143 230 291.647C230 263.332 244.373 249.174 272.207 249.174C301.637 249.174 331.068 248.946 360.499 249.403C368.256 249.631 370.309 247.347 370.537 239.584C370.765 214.009 385.595 199.851 411.147 199.623C442.403 199.395 473.658 199.623 505.142 199.623C531.835 199.623 546.436 213.324 546.893 240.04C547.121 248.489 550.087 249.631 557.387 249.403C587.731 249.174 618.074 249.174 648.645 249.403C671.688 249.403 687.43 263.789 687.658 286.852C688.114 366.545 688.114 446.238 687.658 525.931C687.43 549.907 671.46 564.521 646.592 564.521C583.852 564.293 521.341 564.293 458.601 564.293ZM245.514 358.096C245.514 414.269 245.514 468.159 245.514 522.277C245.514 542.372 252.586 549.222 273.119 549.222C397.002 549.222 520.884 549.222 644.767 549.222C665.3 549.222 672.144 542.144 672.372 522.049C672.372 470.899 672.372 419.749 672.372 368.6C672.372 365.86 673.969 362.206 669.863 359.694C651.611 369.742 633.131 379.56 613.283 386.868C605.982 389.379 606.438 393.946 606.21 399.655C605.526 434.592 605.526 434.135 570.848 434.364C558.756 434.592 553.509 430.71 555.334 418.608C556.931 408.56 554.193 404.907 543.014 407.419C486.891 419.521 430.767 419.521 374.644 407.419C365.062 405.364 360.955 406.962 362.552 417.466C364.377 429.568 360.499 434.82 346.81 434.592C312.36 433.907 312.36 434.592 311.676 399.655C311.676 394.631 312.588 389.836 305.744 387.324C285.439 379.789 266.503 369.741 245.514 358.096ZM460.426 263.103C397.914 263.103 335.175 263.103 272.663 263.103C253.271 263.103 245.742 270.639 245.514 289.363C245.286 303.749 245.742 317.907 245.286 332.293C245.058 338.686 247.111 342.568 252.814 345.537C268.1 353.757 283.386 361.978 299.584 368.828C306.428 371.797 312.132 375.222 312.36 363.119C312.588 358.096 317.836 357.639 322.17 357.411C329.015 357.411 336.087 357.411 342.932 357.411C362.552 357.411 363.236 357.411 362.324 377.049C361.868 387.553 365.518 390.978 375.328 393.033C431.452 404.222 487.575 404.222 543.699 392.805C551.912 391.206 556.931 388.466 555.562 378.647C554.878 373.167 553.509 365.631 556.475 362.434C565.601 351.93 578.833 359.009 590.24 357.639C595.716 356.954 604.613 355.356 605.298 362.891C606.667 376.592 613.283 370.883 619.443 368.143C626.059 365.175 632.903 362.434 639.519 359.009C672.6 342.797 672.372 342.797 672.372 306.033C672.372 301.466 672.372 296.899 672.372 292.104C672.372 269.497 665.528 262.647 642.713 262.647C581.799 263.103 521.112 263.103 460.426 263.103ZM458.145 248.946C477.537 248.946 496.701 249.174 516.093 248.718C521.569 248.489 529.554 252.599 532.063 245.521C534.573 238.214 532.976 229.993 528.185 223.143C523.166 215.836 515.865 214.009 507.652 214.009C475.027 214.009 442.403 213.78 409.55 214.009C392.895 214.237 385.595 222.686 384.682 238.899C384.226 246.662 386.735 249.174 394.492 248.946C415.938 248.718 437.155 248.946 458.145 248.946ZM326.049 394.403C326.049 398.513 326.505 402.623 326.049 406.734C325.136 415.411 326.733 419.521 337.456 419.749C348.407 419.978 349.091 414.954 348.635 406.505C348.179 399.198 348.179 391.891 348.635 384.584C349.091 376.592 347.951 372.482 337.912 372.482C328.33 372.71 324.68 375.222 326.049 384.812C326.505 387.781 326.049 391.206 326.049 394.403ZM591.609 397.6C591.609 393.946 591.381 390.293 591.609 386.639C592.065 378.647 592.75 372.482 580.43 372.482C567.654 372.482 569.251 379.104 569.479 386.868C569.707 393.718 569.935 400.568 569.479 407.419C569.023 415.411 569.935 419.749 580.202 419.749C590.012 419.521 593.434 416.781 592.065 407.19C591.381 403.994 591.609 400.797 591.609 397.6Z" fill="#0F7F97"/>
<path d="M326.302 394.323C326.302 391.145 326.696 387.967 326.302 384.789C324.92 375.254 328.275 372.757 336.564 372.53C345.247 372.303 346.234 376.616 345.839 384.562C345.444 391.826 345.444 399.09 345.839 406.355C346.431 414.754 345.839 419.521 336.169 419.521C327.091 419.521 325.512 415.208 326.302 406.582C326.696 402.496 326.302 398.409 326.302 394.323Z" fill="#77CBC3"/>
<path d="M591.699 397.493C591.699 400.671 591.224 403.849 591.699 407.028C593.124 416.335 589.562 419.286 579.351 419.513C568.666 419.74 567.716 415.2 568.191 407.255C568.666 400.444 568.428 393.634 568.191 386.823C567.953 379.105 566.291 372.521 579.589 372.521C592.649 372.521 591.699 378.651 591.224 386.596C591.699 390.229 591.699 393.861 591.699 397.493Z" fill="#77CBC3"/>
<path d="M482.997 331.634C482.997 344.705 471.424 355.521 457.769 355.521C444.113 355.521 432.772 344.479 433.003 331.409C433.003 318.113 444.344 307.521 458.231 307.521C471.887 307.521 483.228 318.338 482.997 331.634ZM458 321.719C451.751 321.719 448.511 325.55 448.279 330.958C448.048 336.367 451.057 340.648 457.306 340.874C464.249 341.324 467.952 337.043 467.952 330.958C467.721 325.775 464.481 321.719 458 321.719Z" fill="#77CBC3"/>
<path fill-rule="evenodd" clip-rule="evenodd" d="M414.653 331.264C415.81 328.763 417.611 328.414 419.079 322.985C426.789 294.476 447.534 294.17 451.888 289.931C457.134 284.826 454.599 274.92 446.976 273.96C441.81 273.309 431.558 278.577 427.711 280.905C390.998 303.123 388.763 357.099 427.587 381.359C431.418 383.753 441.849 389.091 446.932 388.355C454.046 387.324 457.343 378.196 452.168 372.719C449.109 369.482 443.403 369.99 434.813 363.632C426.704 357.63 421.846 350.089 419.188 339.808C417.972 335.104 416.721 334.361 414.653 331.264Z" fill="#298BA1" fill-opacity="0.6"/>
<path fill-rule="evenodd" clip-rule="evenodd" d="M501.045 331.158C499.148 334.011 497.789 334.81 496.583 339.382C493.057 352.751 485.317 362.805 472.776 368.243C469.361 369.724 465.803 370.379 463.73 372.409C458.151 377.872 461.758 387.303 468.746 388.254C477.96 389.508 495.554 377.157 502.141 369.296C526.445 340.292 518.363 299.591 488.229 280.969C459.703 263.34 458.299 284.009 463.602 289.634C466.583 292.796 472.733 292.362 480.973 298.697C495.981 310.236 494.766 320.739 498.314 327.146C499.248 328.832 500.419 329.8 501.045 331.158Z" fill="#298BA1" fill-opacity="0.6"/>
<path fill-rule="evenodd" clip-rule="evenodd" d="M461.512 355.464C446.676 357.701 434.792 346.73 432.969 334.75C430.754 320.192 441.57 308.537 454.304 306.802C469.382 304.747 481.115 315.601 482.767 327.785C484.764 342.521 473.833 353.606 461.512 355.464ZM427.115 335.421C429.47 350.773 443.839 363.826 462.663 361.105C477.824 358.913 491.367 344.555 488.586 326.56C486.224 311.279 471.605 298.562 453.369 301.096C437.835 303.255 424.358 317.451 427.115 335.421Z" fill="#298BA1" fill-opacity="0.6"/>
<path fill-rule="evenodd" clip-rule="evenodd" d="M463.832 326.184C461.699 322.668 466.773 320.255 468.592 323.166C470.608 326.392 465.738 329.324 463.832 326.184ZM460.24 320.056C460.24 319.194 460.955 318.495 461.838 318.495C462.72 318.495 463.436 319.194 463.436 320.056C463.436 320.918 462.72 321.617 461.838 321.617C460.955 321.617 460.24 320.918 460.24 320.056ZM443.116 339.724C444.279 338.303 443.969 336.006 447.049 334.514C452.004 332.113 457.578 336.773 455.607 342.049C454.656 344.596 452.92 344.945 451.356 345.776L450.783 346.113C450.712 346.154 450.583 346.227 450.492 346.296C471.281 353.111 482.403 330.891 469.377 318.84C455.471 305.975 433.223 322.589 443.116 339.724Z" fill="#298BA1" fill-opacity="0.6"/>
<path fill-rule="evenodd" clip-rule="evenodd" d="M534.21 320.887C527.899 319.341 522.391 323.723 521.305 328.559C519.818 335.18 524.197 340.047 529.289 341.189C542.823 344.226 547.898 324.239 534.21 320.887Z" fill="#298BA1" fill-opacity="0.6"/>
<path fill-rule="evenodd" clip-rule="evenodd" d="M373.689 333.274C377.055 346.917 397.634 342.047 394.437 328.559C393.327 323.874 388.183 319.485 381.772 320.827C376.626 321.904 372.143 327.008 373.689 333.274Z" fill="#298BA1" fill-opacity="0.6"/>
<defs>
<linearGradient id="paint0_linear" x1="442.386" y1="112.032" x2="442.386" y2="612.757" gradientUnits="userSpaceOnUse">
<stop stop-color="#D7F0FC"/>
<stop offset="1" stop-color="#00A5BE"/>
</linearGradient>
</defs>
</svg>
