<svg width="46" height="45" viewBox="0 0 46 45" fill="none" xmlns="http://www.w3.org/2000/svg">
<path d="M13.3142 0C5.97131 0 0 5.85901 0 13.0598V31.9434C0 39.1442 5.97131 45 13.3142 45H32.6857C40.0286 45 46 39.1442 46 31.9434V13.0598C46 5.85901 40.0286 0 32.6857 0H13.3142ZM13.3142 3.86853H32.6857C37.9118 3.86853 42.0584 7.93494 42.0584 13.0598V31.9434C42.0584 37.0683 37.9118 41.1315 32.6857 41.1315H13.3142C8.08816 41.1315 3.94481 37.0683 3.94481 31.9434V13.0598C3.94481 7.93494 8.08816 3.86853 13.3142 3.86853ZM35.3453 7.73701C33.8215 7.73701 32.5869 8.94772 32.5869 10.442C32.5869 11.9364 33.8215 13.1471 35.3453 13.1471C36.8691 13.1471 38.1037 11.9364 38.1037 10.442C38.1037 8.94772 36.8691 7.73701 35.3453 7.73701ZM23 10.9139C16.4979 10.9139 11.1853 16.1237 11.1853 22.5C11.1853 28.8763 16.4979 34.0861 23 34.0861C29.5021 34.0861 34.818 28.8763 34.818 22.5C34.818 16.1237 29.5021 10.9139 23 10.9139ZM23 14.7824C27.3706 14.7824 30.8732 18.214 30.8732 22.5C30.8732 26.786 27.3706 30.2176 23 30.2176C18.6294 30.2176 15.1301 26.786 15.1301 22.5C15.1301 18.214 18.6294 14.7824 23 14.7824Z" fill="white"/>
</svg>
