<svg width="852" height="560" viewBox="0 0 852 560" fill="none" xmlns="http://www.w3.org/2000/svg">
<path opacity="0.39" d="M345.767 453.762C202.015 381.015 110.871 462.814 45.5295 398.783C-29.5298 325.029 -6.74395 121.202 77.0276 76.28C164.485 29.3462 268.027 183.222 400.721 133.606C473.099 106.452 467.738 51.1369 544.138 25.3233C632.265 -4.17799 759.263 29.6814 818.908 125.225C897.318 250.941 821.254 421.579 722.738 498.685C715.031 504.719 615.846 580.148 502.922 553.664C429.538 536.902 426.857 494.662 345.767 453.762Z" fill="url(#paint0_linear)"/>
<path d="M236.162 112.997C204.208 113.314 177 86.7289 177 55.7132C177.316 25.647 202.626 0.644586 233.315 0.0116129C264.319 -0.62136 288.997 24.6976 288.997 57.2957C289.313 88.6278 266.534 112.681 236.162 112.997ZM277.924 58.5616C278.24 32.6097 259.257 11.7216 235.213 11.0886C210.536 10.7722 189.022 30.7108 188.073 54.7637C187.44 79.1332 208.954 101.287 233.947 101.604C258.941 102.237 277.607 83.8805 277.924 58.5616Z" fill="#77CBC3"/>
<path d="M277.996 58.414C277.682 83.8633 259.134 102.314 234.613 101.996C209.778 101.678 188.087 79.0916 189.03 54.9146C189.658 30.7377 211.035 10.3783 235.871 11.0145C259.763 11.3326 278.31 32.3284 277.996 58.414Z" fill="#77CBC3"/>
<path d="M227.754 50.1953L234.117 34.9023L240.445 50.1953H227.754ZM231.656 25.5508C231.469 25.5508 231.328 25.6445 231.234 25.832L210.668 75.3672C210.598 75.5078 210.609 75.6484 210.703 75.7891C210.797 75.9297 210.926 76 211.09 76H216.715C216.926 76 217.066 75.9062 217.137 75.7188L225.188 56.3125H243.012L251.062 75.7188C251.133 75.9062 251.273 76 251.484 76H257.109C257.273 76 257.402 75.9297 257.496 75.7891C257.59 75.6484 257.602 75.5078 257.531 75.3672L236.965 25.832C236.895 25.6445 236.754 25.5508 236.543 25.5508H231.656Z" fill="white"/>
<path d="M285.013 173.802C285.655 144.599 308.127 122.378 337.019 123.013C366.553 123.648 390.629 148.725 389.987 177.929C389.345 207.132 365.269 230.622 336.377 229.987C307.485 229.353 284.371 203.958 285.013 173.802ZM335.735 133.171C312.3 133.171 294.965 151.265 295.286 175.707C295.607 199.514 314.868 219.512 337.661 219.512C360.774 219.512 380.357 199.197 379.715 175.707C379.073 152.534 358.848 133.171 335.735 133.171Z" fill="#77CBC3"/>
<path d="M336.28 132C359.035 132 378.362 151.511 378.985 174.86C379.609 198.529 360.594 219 338.151 219C316.019 219 297.316 198.849 297.004 174.86C296.693 150.551 313.213 132.32 336.28 132Z" fill="#77CBC3"/>
<path d="M325.516 192.602V175.691H339.297C341.641 175.691 343.633 176.512 345.273 178.152C346.938 179.816 347.77 181.809 347.77 184.129C347.77 186.473 346.938 188.465 345.273 190.105C343.633 191.77 341.641 192.602 339.297 192.602H325.516ZM325.516 155.055H337.715C339.66 155.055 341.324 155.758 342.707 157.164C344.113 158.547 344.816 160.211 344.816 162.156C344.816 164.125 344.113 165.801 342.707 167.184C341.324 168.566 339.66 169.258 337.715 169.258H325.516V155.055ZM347.242 171.578C349.961 168.883 351.285 165.672 351.215 161.945C351.145 158.266 349.797 155.137 347.172 152.559C344.547 149.957 341.395 148.656 337.715 148.656H319.574C319.27 148.656 319.117 148.809 319.117 149.113V198.543C319.117 198.848 319.27 199 319.574 199H338.98C343.059 199 346.574 197.605 349.527 194.816C352.504 192.027 354.051 188.617 354.168 184.586C354.238 181.891 353.641 179.383 352.375 177.062C351.133 174.789 349.422 172.961 347.242 171.578Z" fill="white"/>
<path d="M506.486 224.971C477.937 224.028 454.781 199.198 456.05 170.595C457.319 141.364 482.696 117.791 511.562 119.048C541.063 120.305 564.219 145.45 562.95 174.681C561.364 203.598 536.304 225.914 506.486 224.971ZM552.482 172.167C552.482 149.222 533.45 129.735 510.293 129.42C486.819 128.792 466.518 148.593 466.201 172.481C465.883 195.426 485.233 214.913 508.39 214.913C532.815 215.228 552.482 195.74 552.482 172.167Z" fill="#77CBC3"/>
<path d="M552 173.005C552 196.714 532.082 216.312 508.053 215.996C484.974 215.996 465.688 196.397 466.004 173.322C466.32 149.297 486.238 129.382 509.95 130.015C533.03 130.331 552 149.93 552 173.005Z" fill="#77CBC3"/>
<path d="M522.812 186.754C522.648 186.496 522.438 186.449 522.18 186.613C519.109 188.605 515.723 189.602 512.02 189.602C506.816 189.602 502.375 187.738 498.695 184.012C494.992 180.285 493.176 175.809 493.246 170.582C493.316 165.754 495.016 161.559 498.344 157.996C501.695 154.434 505.762 152.465 510.543 152.09C514.762 151.762 518.629 152.734 522.145 155.008C522.402 155.172 522.613 155.125 522.777 154.867L525.871 150.332C526.035 150.074 525.988 149.863 525.73 149.699C520.973 146.605 515.734 145.281 510.016 145.727C503.781 146.219 498.461 148.727 494.055 153.25C489.625 157.773 487.234 163.152 486.883 169.387C486.484 176.629 488.781 182.875 493.773 188.125C496.117 190.609 498.836 192.531 501.93 193.891C505.141 195.297 508.504 196 512.02 196C517.035 196 521.617 194.641 525.766 191.922C526.023 191.758 526.07 191.547 525.906 191.289L522.812 186.754Z" fill="white"/>
<path d="M613.903 115.974C583.912 115.335 558.069 87.8964 559.026 57.9048C559.983 26.9561 587.102 2.06954 619.008 3.02672C650.275 3.66483 672.928 27.9133 671.971 59.5001C671.014 91.7251 645.489 116.931 613.903 115.974ZM660.804 56.9477C660.485 31.423 641.98 13.5556 616.455 13.8747C591.25 14.5128 570.512 34.6136 570.512 58.8621C570.512 82.7915 591.888 104.487 615.817 104.487C640.703 104.807 661.123 83.4296 660.804 56.9477Z" fill="#77CBC3"/>
<path d="M659.996 57.0014C660.311 82.694 640.185 104 615.657 104C592.072 104 570.689 82.6939 571.003 59.1946C571.003 35.382 591.758 15.3293 616.286 15.016C641.443 14.3893 659.682 32.2488 659.996 57.0014Z" fill="#77CBC3"/>
<path d="M602.551 77.5664V39.9844H612.535C617.738 39.9844 622.168 41.8125 625.824 45.4688C629.504 49.1484 631.344 53.5781 631.344 58.7578C631.344 63.9375 629.504 68.3672 625.824 72.0469C622.168 75.7266 617.738 77.5664 612.535 77.5664H602.551ZM596.574 33.5508C596.27 33.5508 596.117 33.7031 596.117 34.0078V83.543C596.117 83.8477 596.27 84 596.574 84H612.113C619.051 84 625.027 81.5977 630.043 76.793C635.059 71.9883 637.637 66.1406 637.777 59.25C637.918 52.1953 635.504 46.1484 630.535 41.1094C625.59 36.0703 619.59 33.5508 612.535 33.5508H596.574Z" fill="white"/>
<path d="M617.143 228.766C607.009 234.15 593.709 230.033 588.642 219.582C583.575 209.765 587.375 197.097 597.192 192.03C607.009 186.647 620.944 190.764 626.011 200.898C630.444 210.715 626.327 224.016 617.143 228.766ZM615.243 205.331C611.76 200.264 606.693 198.681 601.626 202.164C596.875 205.331 595.292 210.715 598.776 216.098C601.942 220.849 607.009 221.799 611.443 219.265C616.827 216.098 618.41 211.032 615.243 205.331Z" fill="#22B9D3"/>
<path d="M657.678 157.829C662.112 156.245 665.912 157.195 668.129 160.995C670.346 165.429 669.079 169.546 664.329 171.763C659.895 173.663 656.728 171.763 654.828 167.646C652.611 163.529 653.878 160.045 657.678 157.829Z" fill="#22B9D3"/>
<path d="M186.771 153.076C200.388 153.076 212.423 164.794 212.739 178.411C213.056 192.662 201.022 205.013 186.771 205.33C172.52 205.33 160.486 192.979 160.802 178.411C161.119 164.477 172.837 153.076 186.771 153.076ZM171.887 178.728C172.203 188.545 177.587 194.246 186.771 194.246C195.955 194.246 201.972 188.229 201.972 179.045C201.972 170.494 196.588 164.794 187.721 164.477C177.904 164.16 172.52 169.227 171.887 178.728Z" fill="#22B9D3"/>
<path d="M124.381 201.848C124.381 207.231 121.848 210.082 117.414 210.398C112.347 210.715 108.863 207.231 109.18 202.164C109.18 198.048 112.347 194.881 117.097 195.197C121.848 194.881 124.064 197.731 124.381 201.848Z" fill="#22B9D3"/>
<path d="M238.069 212.932C237.436 217.999 234.269 220.849 229.835 220.532C225.402 220.216 222.552 217.049 222.868 212.299C223.185 207.548 226.035 205.015 230.785 205.331C236.169 205.648 237.753 208.815 238.069 212.932Z" fill="#22B9D3"/>
<path fill-rule="evenodd" clip-rule="evenodd" d="M364.839 382.365C366.459 378.862 368.982 378.372 371.039 370.766C381.841 330.821 410.907 330.393 417.008 324.455C424.358 317.301 420.806 303.422 410.126 302.077C402.887 301.166 388.524 308.546 383.133 311.808C331.696 342.937 328.563 418.562 382.96 452.553C388.327 455.907 402.943 463.386 410.063 462.354C420.031 460.91 424.65 448.12 417.4 440.448C413.115 435.912 405.119 436.624 393.084 427.716C381.723 419.307 374.916 408.741 371.192 394.336C369.488 387.745 367.735 386.704 364.839 382.365Z" fill="#298BA1" fill-opacity="0.4"/>
<path fill-rule="evenodd" clip-rule="evenodd" d="M485.876 382.219C483.218 386.215 481.314 387.336 479.624 393.742C474.683 412.472 463.839 426.559 446.269 434.178C441.483 436.254 436.498 437.171 433.594 440.015C425.778 447.669 430.831 460.884 440.622 462.216C453.531 463.972 478.182 446.667 487.411 435.654C521.463 395.016 510.14 337.991 467.919 311.899C427.952 287.2 425.985 316.159 433.415 324.04C437.592 328.47 446.208 327.862 457.753 336.738C478.78 352.905 477.078 367.621 482.049 376.598C483.357 378.96 484.998 380.317 485.876 382.219Z" fill="#298BA1" fill-opacity="0.4"/>
<path fill-rule="evenodd" clip-rule="evenodd" d="M430.476 416.268C409.69 419.402 393.04 404.031 390.486 387.246C387.383 366.848 402.536 350.519 420.377 348.088C441.504 345.209 457.942 360.417 460.256 377.488C463.055 398.134 447.739 413.664 430.476 416.268ZM382.284 388.186C385.583 409.696 405.715 427.984 432.09 424.171C453.332 421.101 472.306 400.984 468.409 375.771C465.101 354.361 444.618 336.544 419.067 340.094C397.303 343.118 378.421 363.008 382.284 388.186Z" fill="#298BA1" fill-opacity="0.4"/>
<path fill-rule="evenodd" clip-rule="evenodd" d="M433.739 375.245C430.75 370.319 437.859 366.937 440.408 371.016C443.232 375.536 436.408 379.644 433.739 375.245ZM428.706 366.658C428.706 365.451 429.708 364.472 430.944 364.472C432.181 364.472 433.183 365.451 433.183 366.658C433.183 367.866 432.181 368.845 430.944 368.845C429.708 368.845 428.706 367.866 428.706 366.658ZM404.713 394.215C406.343 392.224 405.908 389.006 410.223 386.915C417.165 383.551 424.976 390.08 422.215 397.472C420.882 401.042 418.449 401.53 416.258 402.694L415.455 403.167C415.356 403.224 415.175 403.326 415.048 403.424C444.175 412.972 459.758 381.839 441.508 364.955C422.024 346.929 390.852 370.207 404.713 394.215Z" fill="#298BA1" fill-opacity="0.4"/>
<path fill-rule="evenodd" clip-rule="evenodd" d="M532.33 367.833C523.488 365.668 515.77 371.807 514.248 378.582C512.164 387.859 518.3 394.678 525.435 396.279C544.396 400.533 551.507 372.529 532.33 367.833Z" fill="#298BA1" fill-opacity="0.4"/>
<path fill-rule="evenodd" clip-rule="evenodd" d="M307.434 385.181C312.151 404.298 340.984 397.474 336.505 378.576C334.949 372.012 327.741 365.863 318.759 367.742C311.55 369.251 305.268 376.402 307.434 385.181Z" fill="#298BA1" fill-opacity="0.4"/>
<path d="M708 361.721C701.983 369.009 697.232 375.029 691.531 381.683C661.128 356.968 631.991 333.52 600.321 307.855C600.321 370.276 600.321 429.846 600.321 491C483.774 491 368.493 491 251.946 491C251.946 431.113 251.946 371.227 251.946 306.904C219.642 333.203 190.189 356.968 159.469 381.683C154.085 375.029 149.017 369.009 143 361.721C173.087 337.006 203.49 313.558 232.311 288.526C245.612 277.119 259.23 273 276.332 273C379.261 273.634 482.19 273 584.802 273.634C593.353 273.634 603.171 277.436 609.822 282.823C643.076 308.172 674.429 334.471 708 361.721Z" stroke="#0F7F97" stroke-width="12" stroke-miterlimit="10"/>
<line x1="150.694" y1="368.985" x2="251.3" y2="287.239" stroke="#0F7F97" stroke-width="20"/>
<path d="M600.504 289.379L700.638 371.702" stroke="#0F7F97" stroke-width="20"/>
<defs>
<linearGradient id="paint0_linear" x1="425.576" y1="70.8055" x2="425.576" y2="552.316" gradientUnits="userSpaceOnUse">
<stop stop-color="#D7F0FC"/>
<stop offset="1" stop-color="#00A5BE"/>
</linearGradient>
</defs>
</svg>
