<svg width="749" height="501" viewBox="0 0 749 501" fill="none" xmlns="http://www.w3.org/2000/svg">
<g opacity="0.9" filter="url(#filter0_d)">
<path fill-rule="evenodd" clip-rule="evenodd" d="M342.189 32.5442C350.361 14.4538 363.088 11.9243 373.462 -27.3546C427.945 -233.639 574.546 -235.853 605.318 -266.518C642.388 -303.459 624.472 -375.134 570.605 -382.08C534.095 -386.788 461.65 -348.676 434.46 -331.829C175.025 -171.072 159.227 219.476 433.587 395.016C460.66 412.338 534.375 450.961 570.29 445.631C620.567 438.171 643.861 372.124 607.297 332.502C585.68 309.076 545.351 312.754 484.653 266.751C427.351 223.322 393.018 168.759 374.235 94.3674C365.64 60.3296 356.8 54.9533 342.189 32.5442V32.5442Z" fill="#95CCD8"/>
<path fill-rule="evenodd" clip-rule="evenodd" d="M952.689 31.7881C939.28 52.4249 929.677 58.2127 921.155 91.2928C896.235 188.022 841.537 260.77 752.918 300.118C728.781 310.835 703.639 315.573 688.993 330.258C649.568 369.789 675.057 438.031 724.438 444.91C789.55 453.982 913.88 364.613 960.427 307.737C1132.18 97.8736 1075.07 -196.619 862.117 -331.364C660.535 -458.916 650.612 -309.367 688.09 -268.664C709.155 -245.785 752.614 -248.927 810.84 -203.091C916.899 -119.6 908.314 -43.6035 933.387 2.75702C939.984 14.9552 948.26 21.9626 952.689 31.7881V31.7881Z" fill="#95CCD8"/>
<path fill-rule="evenodd" clip-rule="evenodd" d="M673.261 207.644C568.42 223.831 484.442 144.452 471.561 57.7666C455.909 -47.5709 532.338 -131.901 622.323 -144.455C728.881 -159.322 811.79 -80.7839 823.463 7.37556C837.581 113.999 760.332 194.2 673.261 207.644V207.644ZM430.19 62.6246C446.835 173.704 548.374 268.152 681.401 248.46C788.538 232.602 884.238 128.713 864.586 -1.49071C847.897 -112.06 744.589 -204.072 615.717 -185.737C505.943 -170.12 410.707 -67.4019 430.19 62.6246V62.6246Z" fill="#95CCD8"/>
<path fill-rule="evenodd" clip-rule="evenodd" d="M689.719 -4.22826C674.643 -29.6678 710.502 -47.1306 723.358 -26.065C737.6 -2.72676 703.183 18.4902 689.719 -4.22826ZM664.333 -48.5701C664.333 -54.8069 669.388 -59.8615 675.625 -59.8615C681.861 -59.8615 686.916 -54.8069 686.916 -48.5701C686.916 -42.3334 681.861 -37.2788 675.625 -37.2788C669.388 -37.2788 664.333 -42.3334 664.333 -48.5701ZM543.323 93.7367C551.542 83.4565 549.349 66.8391 571.114 56.0403C606.129 38.6674 645.524 72.3841 631.597 110.56C624.872 128.993 612.604 131.516 601.551 137.527L597.5 139.969C597.004 140.264 596.089 140.79 595.45 141.294C742.357 190.604 820.952 29.8251 728.904 -57.3689C630.632 -150.457 473.412 -30.2452 543.323 93.7367V93.7367Z" fill="#95CCD8"/>
<path fill-rule="evenodd" clip-rule="evenodd" d="M52.6653 47.0893C76.4548 145.811 221.881 110.57 199.291 12.9767C191.444 -20.9203 155.09 -52.6765 109.788 -42.9698C73.4238 -35.1785 41.7397 1.75291 52.6653 47.0893V47.0893Z" fill="#95CCD8"/>
</g>
<defs>
<filter id="filter0_d" x="0.476562" y="-428.48" width="1293.62" height="928.612" filterUnits="userSpaceOnUse" color-interpolation-filters="sRGB">
<feFlood flood-opacity="0" result="BackgroundImageFix"/>
<feColorMatrix in="SourceAlpha" type="matrix" values="0 0 0 0 0 0 0 0 0 0 0 0 0 0 0 0 0 0 127 0"/>
<feOffset dy="4"/>
<feGaussianBlur stdDeviation="25"/>
<feColorMatrix type="matrix" values="0 0 0 0 0.243438 0 0 0 0 0.634304 0 0 0 0 0.854167 0 0 0 0.74 0"/>
<feBlend mode="normal" in2="BackgroundImageFix" result="effect1_dropShadow"/>
<feBlend mode="normal" in="SourceGraphic" in2="effect1_dropShadow" result="shape"/>
</filter>
</defs>
</svg>
