<svg width="544" height="175" viewBox="0 0 544 175" fill="none" xmlns="http://www.w3.org/2000/svg">
<path d="M57.7188 1.875C57.25 1.875 56.8438 2.0625 56.5 2.4375L33.5781 28.0312L10.7031 2.4375C10.3594 2.0625 9.95312 1.875 9.48438 1.875H6.76562C6.35938 1.875 6.15625 2.07812 6.15625 2.48438V68.3906C6.15625 68.7969 6.35938 69 6.76562 69H13.7031C14.1094 69 14.3125 68.7969 14.3125 68.3906V18.7031L33.1562 39.75C33.4375 40.0625 33.7344 40.0625 34.0469 39.75L52.9375 18.6562V68.3906C52.9375 68.7969 53.1406 69 53.5469 69H60.4844C60.8906 69 61.0938 68.7969 61.0938 68.3906V2.48438C61.0938 2.07812 60.8906 1.875 60.4844 1.875H57.7188ZM99.0569 34.5938L107.541 14.2031L115.979 34.5938H99.0569ZM104.26 1.73438C104.01 1.73438 103.823 1.85938 103.698 2.10938L76.2756 68.1562C76.1819 68.3438 76.1975 68.5312 76.3225 68.7188C76.4475 68.9062 76.6194 69 76.8381 69H84.3381C84.6194 69 84.8069 68.875 84.9006 68.625L95.635 42.75H119.401L130.135 68.625C130.229 68.875 130.416 69 130.698 69H138.198C138.416 69 138.588 68.9062 138.713 68.7188C138.838 68.5312 138.854 68.3438 138.76 68.1562L111.338 2.10938C111.244 1.85938 111.057 1.73438 110.776 1.73438H104.26ZM194.77 1.82812C194.364 1.82812 194.161 2.03125 194.161 2.4375V50.1562L158.161 2.10938C158.036 1.92188 157.879 1.82812 157.692 1.82812H154.598C154.192 1.82812 153.989 2.03125 153.989 2.4375V68.3906C153.989 68.7969 154.192 69 154.598 69H161.536C161.942 69 162.145 68.7969 162.145 68.3906V21L197.911 68.7656C198.036 68.9219 198.192 69 198.379 69H201.708C202.114 69 202.317 68.7969 202.317 68.3906V2.4375C202.317 2.03125 202.114 1.82812 201.708 1.82812H194.77ZM220.077 1.875C219.671 1.875 219.467 2.07812 219.467 2.48438V9.79688C219.467 10.2031 219.671 10.4062 220.077 10.4062H237.702V68.3906C237.702 68.7969 237.905 69 238.311 69H245.624C246.03 69 246.233 68.7969 246.233 68.3906V10.4062H263.811C264.217 10.4062 264.421 10.2031 264.421 9.79688V2.48438C264.421 2.07812 264.217 1.875 263.811 1.875H220.077ZM320.806 1.875C320.399 1.875 320.196 2.07812 320.196 2.48438V31.0312H288.837V2.39062C288.837 1.98437 288.634 1.78125 288.228 1.78125H280.868C280.462 1.78125 280.259 1.98437 280.259 2.39062V68.2969C280.259 68.7031 280.462 68.9062 280.868 68.9062H288.228C288.634 68.9062 288.837 68.7031 288.837 68.2969V39.6094H320.196V68.3906C320.196 68.7969 320.399 69 320.806 69H328.165C328.571 69 328.774 68.7969 328.774 68.3906V2.48438C328.774 2.07812 328.571 1.875 328.165 1.875H320.806ZM366.784 34.5938L375.269 14.2031L383.706 34.5938H366.784ZM371.987 1.73438C371.737 1.73438 371.55 1.85938 371.425 2.10938L344.003 68.1562C343.909 68.3438 343.925 68.5312 344.05 68.7188C344.175 68.9062 344.347 69 344.566 69H352.066C352.347 69 352.534 68.875 352.628 68.625L363.362 42.75H387.128L397.862 68.625C397.956 68.875 398.144 69 398.425 69H405.925C406.144 69 406.316 68.9062 406.441 68.7188C406.566 68.5312 406.581 68.3438 406.487 68.1562L379.066 2.10938C378.972 1.85938 378.784 1.73438 378.503 1.73438H371.987ZM462.497 1.82812C462.091 1.82812 461.888 2.03125 461.888 2.4375V50.1562L425.888 2.10938C425.763 1.92188 425.607 1.82812 425.419 1.82812H422.326C421.919 1.82812 421.716 2.03125 421.716 2.4375V68.3906C421.716 68.7969 421.919 69 422.326 69H429.263C429.669 69 429.872 68.7969 429.872 68.3906V21L465.638 68.7656C465.763 68.9219 465.919 69 466.107 69H469.435C469.841 69 470.044 68.7969 470.044 68.3906V2.4375C470.044 2.03125 469.841 1.82812 469.435 1.82812H462.497ZM49.75 161.672C49.5312 161.328 49.25 161.266 48.9062 161.484C44.8125 164.141 40.2969 165.469 35.3594 165.469C28.4219 165.469 22.5 162.984 17.5938 158.016C12.6562 153.047 10.2344 147.078 10.3281 140.109C10.4219 133.672 12.6875 128.078 17.125 123.328C21.5938 118.578 27.0156 115.953 33.3906 115.453C39.0156 115.016 44.1719 116.312 48.8594 119.344C49.2031 119.562 49.4844 119.5 49.7031 119.156L53.8281 113.109C54.0469 112.766 53.9844 112.484 53.6406 112.266C47.2969 108.141 40.3125 106.375 32.6875 106.969C24.375 107.625 17.2812 110.969 11.4062 117C5.5 123.031 2.3125 130.203 1.84375 138.516C1.3125 148.172 4.375 156.5 11.0312 163.5C14.1562 166.812 17.7812 169.375 21.9062 171.188C26.1875 173.062 30.6719 174 35.3594 174C42.0469 174 48.1562 172.188 53.6875 168.562C54.0312 168.344 54.0938 168.062 53.875 167.719L49.75 161.672ZM77.9163 136.359V115.359H94.6506C97.5569 115.359 100.041 116.375 102.104 118.406C104.166 120.469 105.198 122.953 105.198 125.859C105.198 128.734 104.166 131.203 102.104 133.266C100.041 135.328 97.5569 136.359 94.6506 136.359H77.9163ZM98.8225 144.328C103.01 143.328 106.494 141.203 109.276 137.953C112.088 134.609 113.573 130.766 113.729 126.422C113.885 121.047 112.088 116.438 108.338 112.594C104.588 108.75 100.026 106.828 94.6506 106.828H69.9944C69.5881 106.828 69.385 107.031 69.385 107.438V173.25C69.385 173.656 69.5881 173.859 69.9944 173.859H77.3069C77.7131 173.859 77.9163 173.656 77.9163 173.25V144.891H89.4944L89.4475 144.938L105.198 173.672C105.291 173.891 105.463 174 105.713 174H114.057C114.307 174 114.479 173.906 114.573 173.719C114.698 173.5 114.713 173.297 114.619 173.109L98.8225 144.328ZM133.036 106.875C132.629 106.875 132.426 107.078 132.426 107.484V173.391C132.426 173.797 132.629 174 133.036 174H176.629C177.036 174 177.239 173.797 177.239 173.391V166.078C177.239 165.672 177.036 165.469 176.629 165.469H140.958V144.703H166.786C167.192 144.703 167.395 144.5 167.395 144.094V136.781C167.395 136.375 167.192 136.172 166.786 136.172H140.958V115.406H176.629C177.036 115.406 177.239 115.203 177.239 114.797V107.484C177.239 107.078 177.036 106.875 176.629 106.875H133.036ZM209.858 139.594L218.342 119.203L226.78 139.594H209.858ZM215.061 106.734C214.811 106.734 214.624 106.859 214.499 107.109L187.077 173.156C186.983 173.344 186.999 173.531 187.124 173.719C187.249 173.906 187.421 174 187.639 174H195.139C195.421 174 195.608 173.875 195.702 173.625L206.436 147.75H230.202L240.936 173.625C241.03 173.875 241.217 174 241.499 174H248.999C249.217 174 249.389 173.906 249.514 173.719C249.639 173.531 249.655 173.344 249.561 173.156L222.139 107.109C222.046 106.859 221.858 106.734 221.577 106.734H215.061ZM260.056 106.875C259.649 106.875 259.446 107.078 259.446 107.484V114.797C259.446 115.203 259.649 115.406 260.056 115.406H277.681V173.391C277.681 173.797 277.884 174 278.29 174H285.603C286.009 174 286.212 173.797 286.212 173.391V115.406H303.79C304.196 115.406 304.399 115.203 304.399 114.797V107.484C304.399 107.078 304.196 106.875 303.79 106.875H260.056ZM320.847 106.875C320.441 106.875 320.237 107.078 320.237 107.484V173.391C320.237 173.797 320.441 174 320.847 174H328.206C328.612 174 328.816 173.797 328.816 173.391V107.484C328.816 107.078 328.612 106.875 328.206 106.875H320.847ZM380.044 165.422C373.138 165.422 367.247 162.984 362.372 158.109C357.497 153.234 355.06 147.344 355.06 140.438C355.06 133.562 357.497 127.672 362.372 122.766C367.247 117.891 373.138 115.453 380.044 115.453C386.919 115.453 392.81 117.891 397.716 122.766C402.591 127.672 405.029 133.562 405.029 140.438C405.029 147.344 402.591 153.234 397.716 158.109C392.81 162.984 386.919 165.422 380.044 165.422ZM380.044 106.875C370.794 106.875 362.888 110.156 356.326 116.719C349.763 123.281 346.482 131.188 346.482 140.438C346.482 149.688 349.763 157.594 356.326 164.156C362.888 170.719 370.794 174 380.044 174C389.294 174 397.201 170.719 403.763 164.156C410.326 157.594 413.607 149.688 413.607 140.438C413.607 131.188 410.326 123.281 403.763 116.719C397.201 110.156 389.294 106.875 380.044 106.875ZM473.976 106.828C473.57 106.828 473.367 107.031 473.367 107.438V155.156L437.367 107.109C437.242 106.922 437.086 106.828 436.898 106.828H433.804C433.398 106.828 433.195 107.031 433.195 107.438V173.391C433.195 173.797 433.398 174 433.804 174H440.742C441.148 174 441.351 173.797 441.351 173.391V126L477.117 173.766C477.242 173.922 477.398 174 477.586 174H480.914C481.32 174 481.523 173.797 481.523 173.391V107.438C481.523 107.031 481.32 106.828 480.914 106.828H473.976ZM521.971 134.25L521.83 134.156C517.768 132.406 514.939 130.844 513.346 129.469C511.439 127.844 510.486 125.938 510.486 123.75C510.486 118.188 514.221 115.406 521.689 115.406C524.596 115.406 527.346 116.016 529.939 117.234C530.846 117.641 531.721 118.125 532.564 118.688C532.877 118.906 533.174 119.125 533.455 119.344C533.674 119.531 533.877 119.719 534.064 119.906C534.346 120.125 534.627 120.109 534.908 119.859L537.58 117.328L540.205 114.844C540.549 114.531 540.549 114.234 540.205 113.953C539.955 113.703 539.674 113.438 539.361 113.156C538.924 112.812 538.486 112.484 538.049 112.172C536.83 111.266 535.533 110.469 534.158 109.781C530.252 107.844 526.096 106.875 521.689 106.875C515.596 106.875 510.783 108.391 507.252 111.422C503.721 114.422 501.955 118.531 501.955 123.75C501.955 128.562 503.908 132.641 507.814 135.984C509.283 137.234 511.064 138.406 513.158 139.5C513.971 139.938 514.877 140.391 515.877 140.859L517.143 141.422L518.314 141.938L520.518 143.016L520.658 143.062C525.283 145.094 528.549 146.938 530.455 148.594C532.705 150.531 533.83 152.797 533.83 155.391C533.83 162.109 529.408 165.469 520.564 165.469C517.127 165.469 513.893 164.75 510.861 163.312C509.768 162.781 508.752 162.188 507.814 161.531C507.439 161.281 507.096 161.031 506.783 160.781C506.533 160.562 506.299 160.359 506.08 160.172C505.799 159.922 505.518 159.922 505.236 160.172L499.893 165.188C499.58 165.5 499.58 165.797 499.893 166.078C500.174 166.359 500.486 166.641 500.83 166.922C501.299 167.297 501.783 167.672 502.283 168.047C503.627 169.047 505.064 169.938 506.596 170.719C510.971 172.906 515.627 174 520.564 174C527.283 174 532.596 172.328 536.502 168.984C540.408 165.672 542.361 161.141 542.361 155.391C542.361 150.109 540.189 145.625 535.846 141.938C534.221 140.562 532.236 139.25 529.893 138C528.986 137.531 527.986 137.031 526.893 136.5L525.486 135.891C525.174 135.734 524.721 135.531 524.127 135.281L521.971 134.25Z" fill="#2A8CA2"/>
<path d="M56.5 2.4375L55.7628 1.76173L55.7551 1.77035L56.5 2.4375ZM33.5781 28.0312L32.8325 28.6976L33.5774 29.531L34.323 28.6984L33.5781 28.0312ZM10.7031 2.4375L11.4488 1.77105L11.4403 1.76178L10.7031 2.4375ZM14.3125 18.7031L15.0575 18.0361L13.3125 16.087V18.7031H14.3125ZM33.1562 39.75L32.4112 40.417L32.413 40.419L33.1562 39.75ZM34.0469 39.75L34.754 40.4571L34.7734 40.4376L34.7918 40.4171L34.0469 39.75ZM52.9375 18.6562H53.9375V16.0407L52.1926 17.9891L52.9375 18.6562ZM57.7188 0.875C56.944 0.875 56.2779 1.19985 55.7628 1.76178L57.2372 3.11322C57.4096 2.92515 57.556 2.875 57.7188 2.875V0.875ZM55.7551 1.77035L32.8332 27.3641L34.323 28.6984L57.2449 3.10465L55.7551 1.77035ZM34.3237 27.3649L11.4487 1.7711L9.95753 3.1039L32.8325 28.6976L34.3237 27.3649ZM11.4403 1.76178C10.9252 1.19985 10.2591 0.875 9.48438 0.875V2.875C9.64716 2.875 9.79357 2.92515 9.96597 3.11322L11.4403 1.76178ZM9.48438 0.875H6.76562V2.875H9.48438V0.875ZM6.76562 0.875C6.40836 0.875 5.95673 0.964995 5.60149 1.32024C5.24624 1.67548 5.15625 2.12711 5.15625 2.48438H7.15625C7.15625 2.43539 7.16782 2.58233 7.0157 2.73445C6.86358 2.88657 6.71664 2.875 6.76562 2.875V0.875ZM5.15625 2.48438V68.3906H7.15625V2.48438H5.15625ZM5.15625 68.3906C5.15625 68.7479 5.24624 69.1995 5.60149 69.5548C5.95673 69.91 6.40836 70 6.76562 70V68C6.71664 68 6.86358 67.9884 7.0157 68.1405C7.16782 68.2927 7.15625 68.4396 7.15625 68.3906H5.15625ZM6.76562 70H13.7031V68H6.76562V70ZM13.7031 70C14.0604 70 14.512 69.91 14.8673 69.5548C15.2225 69.1995 15.3125 68.7479 15.3125 68.3906H13.3125C13.3125 68.4396 13.3009 68.2927 13.453 68.1405C13.6052 67.9884 13.7521 68 13.7031 68V70ZM15.3125 68.3906V18.7031H13.3125V68.3906H15.3125ZM13.5675 19.3702L32.4112 40.417L33.9013 39.083L15.0575 18.0361L13.5675 19.3702ZM32.413 40.419C32.6621 40.6958 33.0559 40.9844 33.5898 40.9844C34.109 40.9844 34.501 40.7101 34.754 40.4571L33.3398 39.0429C33.2802 39.1024 33.3675 38.9844 33.5898 38.9844C33.8269 38.9844 33.9316 39.1167 33.8995 39.081L32.413 40.419ZM34.7918 40.4171L53.6824 19.3234L52.1926 17.9891L33.3019 39.0829L34.7918 40.4171ZM51.9375 18.6562V68.3906H53.9375V18.6562H51.9375ZM51.9375 68.3906C51.9375 68.7479 52.0275 69.1995 52.3827 69.5548C52.738 69.91 53.1896 70 53.5469 70V68C53.4979 68 53.6448 67.9884 53.797 68.1405C53.9491 68.2927 53.9375 68.4396 53.9375 68.3906H51.9375ZM53.5469 70H60.4844V68H53.5469V70ZM60.4844 70C60.8416 70 61.2933 69.91 61.6485 69.5548C62.0038 69.1995 62.0938 68.7479 62.0938 68.3906H60.0938C60.0938 68.4396 60.0822 68.2927 60.2343 68.1405C60.3864 67.9884 60.5334 68 60.4844 68V70ZM62.0938 68.3906V2.48438H60.0938V68.3906H62.0938ZM62.0938 2.48438C62.0938 2.12711 62.0038 1.67548 61.6485 1.32024C61.2933 0.964995 60.8416 0.875 60.4844 0.875V2.875C60.5334 2.875 60.3864 2.88657 60.2343 2.73445C60.0822 2.58233 60.0938 2.43539 60.0938 2.48438H62.0938ZM60.4844 0.875H57.7188V2.875H60.4844V0.875ZM99.0569 34.5938L98.1336 34.2096L97.5577 35.5938H99.0569V34.5938ZM107.541 14.2031L108.465 13.8208L107.544 11.5939L106.618 13.819L107.541 14.2031ZM115.979 34.5938V35.5938H117.475L116.903 34.2114L115.979 34.5938ZM103.698 2.10938L102.803 1.66216L102.787 1.69353L102.774 1.72592L103.698 2.10938ZM76.2756 68.1562L77.1701 68.6035L77.1857 68.5721L77.1992 68.5397L76.2756 68.1562ZM84.9006 68.625L83.977 68.2418L83.9704 68.2577L83.9643 68.2739L84.9006 68.625ZM95.635 42.75V41.75H94.9672L94.7113 42.3668L95.635 42.75ZM119.401 42.75L120.324 42.3668L120.068 41.75H119.401V42.75ZM130.135 68.625L131.071 68.2739L131.065 68.2577L131.059 68.2418L130.135 68.625ZM138.76 68.1562L137.836 68.5397L137.85 68.5721L137.866 68.6035L138.76 68.1562ZM111.338 2.10938L110.402 2.4605L110.408 2.47677L110.415 2.49283L111.338 2.10938ZM99.9801 34.9779L108.465 14.5873L106.618 13.819L98.1336 34.2096L99.9801 34.9779ZM106.617 14.5855L115.055 34.9761L116.903 34.2114L108.465 13.8208L106.617 14.5855ZM115.979 33.5938H99.0569V35.5938H115.979V33.5938ZM104.26 0.734375C103.96 0.734375 103.653 0.812245 103.377 0.996075C103.108 1.17573 102.925 1.41853 102.803 1.66216L104.592 2.55659C104.595 2.55022 104.569 2.60552 104.487 2.66018C104.398 2.71901 104.31 2.73438 104.26 2.73438V0.734375ZM102.774 1.72592L75.3521 67.7728L77.1992 68.5397L104.621 2.49283L102.774 1.72592ZM75.3812 67.709C75.1128 68.2459 75.1846 68.8147 75.4905 69.2735L77.1546 68.164C77.1674 68.1833 77.2048 68.2492 77.2136 68.3545C77.2227 68.4638 77.1956 68.5524 77.1701 68.6035L75.3812 67.709ZM75.4905 69.2735C75.7942 69.7291 76.2731 70 76.8381 70V68C76.8761 68 76.9465 68.0095 77.024 68.0518C77.1004 68.0934 77.1409 68.1435 77.1546 68.164L75.4905 69.2735ZM76.8381 70H84.3381V68H76.8381V70ZM84.3381 70C84.6271 70 84.9498 69.9347 85.2444 69.7383C85.5431 69.5392 85.7304 69.2602 85.837 68.9761L83.9643 68.2739C83.9771 68.2398 84.0238 68.1483 84.135 68.0742C84.2421 68.0028 84.3304 68 84.3381 68V70ZM85.8243 69.0082L96.5587 43.1332L94.7113 42.3668L83.977 68.2418L85.8243 69.0082ZM95.635 43.75H119.401V41.75H95.635V43.75ZM118.477 43.1332L129.211 69.0082L131.059 68.2418L120.324 42.3668L118.477 43.1332ZM129.199 68.9761C129.305 69.2602 129.493 69.5392 129.791 69.7383C130.086 69.9347 130.409 70 130.698 70V68C130.705 68 130.794 68.0028 130.901 68.0742C131.012 68.1483 131.059 68.2398 131.071 68.2739L129.199 68.9761ZM130.698 70H138.198V68H130.698V70ZM138.198 70C138.763 70 139.241 69.7291 139.545 69.2735L137.881 68.164C137.895 68.1435 137.935 68.0934 138.012 68.0518C138.089 68.0095 138.16 68 138.198 68V70ZM139.545 69.2735C139.851 68.8147 139.923 68.2459 139.654 67.709L137.866 68.6035C137.84 68.5524 137.813 68.4638 137.822 68.3545C137.831 68.2492 137.868 68.1833 137.881 68.164L139.545 69.2735ZM139.684 67.7728L112.262 1.72592L110.415 2.49283L137.836 68.5397L139.684 67.7728ZM112.274 1.75825C112.168 1.47419 111.981 1.1952 111.682 0.996075C111.387 0.799682 111.065 0.734375 110.776 0.734375V2.73438C110.768 2.73438 110.68 2.73157 110.572 2.66018C110.461 2.58605 110.415 2.49456 110.402 2.4605L112.274 1.75825ZM110.776 0.734375H104.26V2.73438H110.776V0.734375ZM194.161 50.1562L193.36 50.7559L195.161 53.1586V50.1562H194.161ZM158.161 2.10938L157.329 2.66408L157.344 2.68697L157.36 2.709L158.161 2.10938ZM162.145 21L162.945 20.4006L161.145 17.9961V21H162.145ZM197.911 68.7656L197.11 69.365L197.12 69.3778L197.13 69.3903L197.911 68.7656ZM194.77 0.828125C194.413 0.828125 193.961 0.91812 193.606 1.27336C193.251 1.6286 193.161 2.08023 193.161 2.4375H195.161C195.161 2.38852 195.172 2.53546 195.02 2.68758C194.868 2.83969 194.721 2.82812 194.77 2.82812V0.828125ZM193.161 2.4375V50.1562H195.161V2.4375H193.161ZM194.961 49.5566L158.961 1.50975L157.36 2.709L193.36 50.7559L194.961 49.5566ZM158.993 1.55467C158.725 1.15346 158.284 0.828125 157.692 0.828125V2.82812C157.61 2.82812 157.517 2.8051 157.435 2.75593C157.36 2.71079 157.329 2.66504 157.329 2.66408L158.993 1.55467ZM157.692 0.828125H154.598V2.82812H157.692V0.828125ZM154.598 0.828125C154.241 0.828125 153.789 0.91812 153.434 1.27336C153.079 1.6286 152.989 2.08023 152.989 2.4375H154.989C154.989 2.38852 155 2.53546 154.848 2.68758C154.696 2.83969 154.549 2.82812 154.598 2.82812V0.828125ZM152.989 2.4375V68.3906H154.989V2.4375H152.989ZM152.989 68.3906C152.989 68.7479 153.079 69.1995 153.434 69.5548C153.789 69.91 154.241 70 154.598 70V68C154.549 68 154.696 67.9884 154.848 68.1405C155 68.2927 154.989 68.4396 154.989 68.3906H152.989ZM154.598 70H161.536V68H154.598V70ZM161.536 70C161.893 70 162.345 69.91 162.7 69.5548C163.055 69.1995 163.145 68.7479 163.145 68.3906H161.145C161.145 68.4396 161.133 68.2927 161.286 68.1405C161.438 67.9884 161.585 68 161.536 68V70ZM163.145 68.3906V21H161.145V68.3906H163.145ZM161.345 21.5994L197.11 69.365L198.711 68.1663L162.945 20.4006L161.345 21.5994ZM197.13 69.3903C197.43 69.7654 197.865 70 198.379 70V68C198.429 68 198.498 68.0116 198.569 68.047C198.638 68.0814 198.677 68.1225 198.691 68.1409L197.13 69.3903ZM198.379 70H201.708V68H198.379V70ZM201.708 70C202.065 70 202.516 69.91 202.872 69.5548C203.227 69.1995 203.317 68.7479 203.317 68.3906H201.317C201.317 68.4396 201.305 68.2927 201.457 68.1405C201.61 67.9884 201.756 68 201.708 68V70ZM203.317 68.3906V2.4375H201.317V68.3906H203.317ZM203.317 2.4375C203.317 2.08023 203.227 1.6286 202.872 1.27336C202.516 0.91812 202.065 0.828125 201.708 0.828125V2.82812C201.756 2.82812 201.61 2.83969 201.457 2.68758C201.305 2.53546 201.317 2.38852 201.317 2.4375H203.317ZM201.708 0.828125H194.77V2.82812H201.708V0.828125ZM237.702 10.4062H238.702V9.40625H237.702V10.4062ZM246.233 10.4062V9.40625H245.233V10.4062H246.233ZM220.077 0.875C219.72 0.875 219.268 0.964995 218.913 1.32024C218.557 1.67548 218.467 2.12711 218.467 2.48438H220.467C220.467 2.43539 220.479 2.58233 220.327 2.73445C220.175 2.88657 220.028 2.875 220.077 2.875V0.875ZM218.467 2.48438V9.79688H220.467V2.48438H218.467ZM218.467 9.79688C218.467 10.1541 218.557 10.6058 218.913 10.961C219.268 11.3163 219.72 11.4062 220.077 11.4062V9.40625C220.028 9.40625 220.175 9.39468 220.327 9.5468C220.479 9.69892 220.467 9.84586 220.467 9.79688H218.467ZM220.077 11.4062H237.702V9.40625H220.077V11.4062ZM236.702 10.4062V68.3906H238.702V10.4062H236.702ZM236.702 68.3906C236.702 68.7479 236.792 69.1995 237.147 69.5548C237.502 69.91 237.954 70 238.311 70V68C238.262 68 238.409 67.9884 238.561 68.1405C238.713 68.2927 238.702 68.4396 238.702 68.3906H236.702ZM238.311 70H245.624V68H238.311V70ZM245.624 70C245.981 70 246.433 69.91 246.788 69.5548C247.143 69.1995 247.233 68.7479 247.233 68.3906H245.233C245.233 68.4396 245.222 68.2927 245.374 68.1405C245.526 67.9884 245.673 68 245.624 68V70ZM247.233 68.3906V10.4062H245.233V68.3906H247.233ZM246.233 11.4062H263.811V9.40625H246.233V11.4062ZM263.811 11.4062C264.169 11.4062 264.62 11.3163 264.975 10.961C265.331 10.6058 265.421 10.1541 265.421 9.79688H263.421C263.421 9.84586 263.409 9.69892 263.561 9.5468C263.713 9.39468 263.86 9.40625 263.811 9.40625V11.4062ZM265.421 9.79688V2.48438H263.421V9.79688H265.421ZM265.421 2.48438C265.421 2.12711 265.331 1.67548 264.975 1.32024C264.62 0.964995 264.169 0.875 263.811 0.875V2.875C263.86 2.875 263.713 2.88657 263.561 2.73445C263.409 2.58233 263.421 2.43539 263.421 2.48438H265.421ZM263.811 0.875H220.077V2.875H263.811V0.875ZM320.196 31.0312V32.0312H321.196V31.0312H320.196ZM288.837 31.0312H287.837V32.0312H288.837V31.0312ZM288.837 39.6094V38.6094H287.837V39.6094H288.837ZM320.196 39.6094H321.196V38.6094H320.196V39.6094ZM320.806 0.875C320.448 0.875 319.997 0.964995 319.641 1.32024C319.286 1.67548 319.196 2.12711 319.196 2.48438H321.196C321.196 2.43539 321.208 2.58233 321.056 2.73445C320.904 2.88657 320.757 2.875 320.806 2.875V0.875ZM319.196 2.48438V31.0312H321.196V2.48438H319.196ZM320.196 30.0312H288.837V32.0312H320.196V30.0312ZM289.837 31.0312V2.39062H287.837V31.0312H289.837ZM289.837 2.39062C289.837 2.03336 289.747 1.58173 289.392 1.22649C289.036 0.871245 288.585 0.78125 288.228 0.78125V2.78125C288.276 2.78125 288.13 2.79282 287.977 2.6407C287.825 2.48858 287.837 2.34164 287.837 2.39062H289.837ZM288.228 0.78125H280.868V2.78125H288.228V0.78125ZM280.868 0.78125C280.511 0.78125 280.059 0.871245 279.704 1.22649C279.349 1.58173 279.259 2.03336 279.259 2.39062H281.259C281.259 2.34164 281.27 2.48858 281.118 2.6407C280.966 2.79282 280.819 2.78125 280.868 2.78125V0.78125ZM279.259 2.39062V68.2969H281.259V2.39062H279.259ZM279.259 68.2969C279.259 68.6541 279.349 69.1058 279.704 69.461C280.059 69.8163 280.511 69.9062 280.868 69.9062V67.9062C280.819 67.9062 280.966 67.8947 281.118 68.0468C281.27 68.1989 281.259 68.3459 281.259 68.2969H279.259ZM280.868 69.9062H288.228V67.9062H280.868V69.9062ZM288.228 69.9062C288.585 69.9062 289.036 69.8163 289.392 69.461C289.747 69.1058 289.837 68.6541 289.837 68.2969H287.837C287.837 68.3459 287.825 68.1989 287.977 68.0468C288.13 67.8947 288.276 67.9062 288.228 67.9062V69.9062ZM289.837 68.2969V39.6094H287.837V68.2969H289.837ZM288.837 40.6094H320.196V38.6094H288.837V40.6094ZM319.196 39.6094V68.3906H321.196V39.6094H319.196ZM319.196 68.3906C319.196 68.7479 319.286 69.1995 319.641 69.5548C319.997 69.91 320.448 70 320.806 70V68C320.757 68 320.904 67.9884 321.056 68.1405C321.208 68.2927 321.196 68.4396 321.196 68.3906H319.196ZM320.806 70H328.165V68H320.806V70ZM328.165 70C328.522 70 328.974 69.91 329.329 69.5548C329.684 69.1995 329.774 68.7479 329.774 68.3906H327.774C327.774 68.4396 327.763 68.2927 327.915 68.1405C328.067 67.9884 328.214 68 328.165 68V70ZM329.774 68.3906V2.48438H327.774V68.3906H329.774ZM329.774 2.48438C329.774 2.12711 329.684 1.67548 329.329 1.32024C328.974 0.964995 328.522 0.875 328.165 0.875V2.875C328.214 2.875 328.067 2.88657 327.915 2.73445C327.763 2.58233 327.774 2.43539 327.774 2.48438H329.774ZM328.165 0.875H320.806V2.875H328.165V0.875ZM366.784 34.5938L365.861 34.2096L365.285 35.5938H366.784V34.5938ZM375.269 14.2031L376.193 13.8208L375.271 11.5939L374.345 13.819L375.269 14.2031ZM383.706 34.5938V35.5938H385.202L384.63 34.2114L383.706 34.5938ZM371.425 2.10938L370.531 1.66216L370.515 1.69353L370.501 1.72592L371.425 2.10938ZM344.003 68.1562L344.898 68.6035L344.913 68.5721L344.927 68.5397L344.003 68.1562ZM352.628 68.625L351.704 68.2418L351.698 68.2577L351.692 68.2739L352.628 68.625ZM363.362 42.75V41.75H362.695L362.439 42.3668L363.362 42.75ZM387.128 42.75L388.052 42.3668L387.796 41.75H387.128V42.75ZM397.862 68.625L398.799 68.2739L398.793 68.2577L398.786 68.2418L397.862 68.625ZM406.487 68.1562L405.564 68.5397L405.577 68.5721L405.593 68.6035L406.487 68.1562ZM379.066 2.10938L378.129 2.4605L378.135 2.47677L378.142 2.49283L379.066 2.10938ZM367.708 34.9779L376.192 14.5873L374.345 13.819L365.861 34.2096L367.708 34.9779ZM374.345 14.5855L382.782 34.9761L384.63 34.2114L376.193 13.8208L374.345 14.5855ZM383.706 33.5938H366.784V35.5938H383.706V33.5938ZM371.987 0.734375C371.688 0.734375 371.38 0.812245 371.105 0.996075C370.835 1.17573 370.652 1.41853 370.531 1.66216L372.319 2.55659C372.323 2.55022 372.296 2.60552 372.214 2.66018C372.126 2.71901 372.037 2.73438 371.987 2.73438V0.734375ZM370.501 1.72592L343.08 67.7728L344.927 68.5397L372.349 2.49283L370.501 1.72592ZM343.109 67.709C342.84 68.2459 342.912 68.8147 343.218 69.2735L344.882 68.164C344.895 68.1833 344.932 68.2492 344.941 68.3545C344.95 68.4638 344.923 68.5524 344.898 68.6035L343.109 67.709ZM343.218 69.2735C343.522 69.7291 344.001 70 344.566 70V68C344.604 68 344.674 68.0095 344.751 68.0518C344.828 68.0934 344.868 68.1435 344.882 68.164L343.218 69.2735ZM344.566 70H352.066V68H344.566V70ZM352.066 70C352.355 70 352.677 69.9347 352.972 69.7383C353.271 69.5392 353.458 69.2602 353.564 68.9761L351.692 68.2739C351.705 68.2398 351.751 68.1483 351.862 68.0742C351.97 68.0028 352.058 68 352.066 68V70ZM353.552 69.0082L364.286 43.1332L362.439 42.3668L351.704 68.2418L353.552 69.0082ZM363.362 43.75H387.128V41.75H363.362V43.75ZM386.204 43.1332L396.939 69.0082L398.786 68.2418L388.052 42.3668L386.204 43.1332ZM396.926 68.9761C397.033 69.2602 397.22 69.5392 397.519 69.7383C397.813 69.9347 398.136 70 398.425 70V68C398.433 68 398.521 68.0028 398.628 68.0742C398.739 68.1483 398.786 68.2398 398.799 68.2739L396.926 68.9761ZM398.425 70H405.925V68H398.425V70ZM405.925 70C406.49 70 406.969 69.7291 407.273 69.2735L405.609 68.164C405.622 68.1435 405.663 68.0934 405.739 68.0518C405.817 68.0095 405.887 68 405.925 68V70ZM407.273 69.2735C407.578 68.8147 407.65 68.2459 407.382 67.709L405.593 68.6035C405.568 68.5524 405.54 68.4638 405.55 68.3545C405.558 68.2492 405.596 68.1833 405.609 68.164L407.273 69.2735ZM407.411 67.7728L379.989 1.72592L378.142 2.49283L405.564 68.5397L407.411 67.7728ZM380.002 1.75825C379.895 1.47419 379.708 1.1952 379.409 0.996075C379.115 0.799682 378.792 0.734375 378.503 0.734375V2.73438C378.495 2.73438 378.407 2.73157 378.3 2.66018C378.189 2.58605 378.142 2.49456 378.129 2.4605L380.002 1.75825ZM378.503 0.734375H371.987V2.73438H378.503V0.734375ZM461.888 50.1562L461.088 50.7559L462.888 53.1586V50.1562H461.888ZM425.888 2.10938L425.056 2.66408L425.071 2.68697L425.088 2.709L425.888 2.10938ZM429.872 21L430.673 20.4006L428.872 17.9961V21H429.872ZM465.638 68.7656L464.838 69.365L464.847 69.3778L464.857 69.3903L465.638 68.7656ZM462.497 0.828125C462.14 0.828125 461.689 0.91812 461.333 1.27336C460.978 1.6286 460.888 2.08023 460.888 2.4375H462.888C462.888 2.38852 462.9 2.53546 462.748 2.68758C462.595 2.83969 462.449 2.82812 462.497 2.82812V0.828125ZM460.888 2.4375V50.1562H462.888V2.4375H460.888ZM462.688 49.5566L426.688 1.50975L425.088 2.709L461.088 50.7559L462.688 49.5566ZM426.72 1.55467C426.453 1.15346 426.012 0.828125 425.419 0.828125V2.82812C425.337 2.82812 425.245 2.8051 425.163 2.75593C425.087 2.71079 425.057 2.66504 425.056 2.66408L426.72 1.55467ZM425.419 0.828125H422.326V2.82812H425.419V0.828125ZM422.326 0.828125C421.968 0.828125 421.517 0.91812 421.161 1.27336C420.806 1.6286 420.716 2.08023 420.716 2.4375H422.716C422.716 2.38852 422.728 2.53546 422.576 2.68758C422.424 2.83969 422.277 2.82812 422.326 2.82812V0.828125ZM420.716 2.4375V68.3906H422.716V2.4375H420.716ZM420.716 68.3906C420.716 68.7479 420.806 69.1995 421.161 69.5548C421.517 69.91 421.968 70 422.326 70V68C422.277 68 422.424 67.9884 422.576 68.1405C422.728 68.2927 422.716 68.4396 422.716 68.3906H420.716ZM422.326 70H429.263V68H422.326V70ZM429.263 70C429.62 70 430.072 69.91 430.427 69.5548C430.783 69.1995 430.872 68.7479 430.872 68.3906H428.872C428.872 68.4396 428.861 68.2927 429.013 68.1405C429.165 67.9884 429.312 68 429.263 68V70ZM430.872 68.3906V21H428.872V68.3906H430.872ZM429.072 21.5994L464.838 69.365L466.439 68.1663L430.673 20.4006L429.072 21.5994ZM464.857 69.3903C465.157 69.7654 465.593 70 466.107 70V68C466.157 68 466.225 68.0116 466.296 68.047C466.365 68.0814 466.404 68.1225 466.419 68.1409L464.857 69.3903ZM466.107 70H469.435V68H466.107V70ZM469.435 70C469.792 70 470.244 69.91 470.599 69.5548C470.954 69.1995 471.044 68.7479 471.044 68.3906H469.044C469.044 68.4396 469.033 68.2927 469.185 68.1405C469.337 67.9884 469.484 68 469.435 68V70ZM471.044 68.3906V2.4375H469.044V68.3906H471.044ZM471.044 2.4375C471.044 2.08023 470.954 1.6286 470.599 1.27336C470.244 0.91812 469.792 0.828125 469.435 0.828125V2.82812C469.484 2.82812 469.337 2.83969 469.185 2.68758C469.033 2.53546 469.044 2.38852 469.044 2.4375H471.044ZM469.435 0.828125H462.497V2.82812H469.435V0.828125ZM49.75 161.672L48.9063 162.209L48.9149 162.222L48.9239 162.235L49.75 161.672ZM48.9062 161.484L48.3694 160.641L48.3619 160.645L48.9062 161.484ZM17.5938 158.016L18.3053 157.313L18.3031 157.311L17.5938 158.016ZM10.3281 140.109L9.32823 140.095L9.32822 140.096L10.3281 140.109ZM17.125 123.328L16.3967 122.643L16.3943 122.645L17.125 123.328ZM33.3906 115.453L33.3131 114.456L33.3124 114.456L33.3906 115.453ZM48.8594 119.344L48.3163 120.183L48.3225 120.187L48.8594 119.344ZM49.7031 119.156L48.877 118.593L48.868 118.606L48.8595 118.619L49.7031 119.156ZM53.8281 113.109L54.6542 113.673L54.6632 113.66L54.6718 113.646L53.8281 113.109ZM53.6406 112.266L53.0955 113.104L53.1037 113.109L53.6406 112.266ZM32.6875 106.969L32.6099 105.972L32.6088 105.972L32.6875 106.969ZM11.4062 117L12.1207 117.7L12.1226 117.698L11.4062 117ZM1.84375 138.516L0.845335 138.459L0.84526 138.461L1.84375 138.516ZM11.0312 163.5L11.7586 162.814L11.7559 162.811L11.0312 163.5ZM21.9062 171.188L21.504 172.103L21.5051 172.104L21.9062 171.188ZM53.6875 168.562L53.1506 167.719L53.1394 167.726L53.6875 168.562ZM53.875 167.719L54.7187 167.182L54.7101 167.168L54.7011 167.155L53.875 167.719ZM50.5937 161.135C50.4015 160.833 50.0828 160.5 49.5919 160.391C49.1011 160.282 48.6713 160.449 48.3694 160.641L49.4431 162.328C49.485 162.301 49.3677 162.39 49.1581 162.343C48.9485 162.297 48.8797 162.167 48.9063 162.209L50.5937 161.135ZM48.3619 160.645C44.4323 163.195 40.1061 164.469 35.3594 164.469V166.469C40.4876 166.469 45.1927 165.086 49.4506 162.323L48.3619 160.645ZM35.3594 164.469C28.6912 164.469 23.0251 162.093 18.3053 157.313L16.8822 158.718C21.9749 163.876 28.1525 166.469 35.3594 166.469V164.469ZM18.3031 157.311C13.554 152.532 11.2379 146.821 11.328 140.123L9.32822 140.096C9.23083 147.335 11.7585 153.562 16.8844 158.72L18.3031 157.311ZM11.328 140.124C11.4181 133.937 13.586 128.581 17.8557 124.011L16.3943 122.645C11.789 127.575 9.42564 133.406 9.32823 140.095L11.328 140.124ZM17.8533 124.013C22.1554 119.441 27.3471 116.93 33.4688 116.45L33.3124 114.456C26.6841 114.976 21.0321 117.716 16.3967 122.643L17.8533 124.013ZM33.4682 116.45C38.8772 116.029 43.815 117.273 48.3164 120.183L49.4024 118.504C44.5287 115.352 39.154 114.002 33.3131 114.456L33.4682 116.45ZM48.3225 120.187C48.6244 120.38 49.0542 120.546 49.5451 120.437C50.0359 120.328 50.3547 119.995 50.5468 119.693L48.8595 118.619C48.8328 118.661 48.9016 118.531 49.1112 118.485C49.3208 118.438 49.4381 118.527 49.3963 118.5L48.3225 120.187ZM50.5292 119.72L54.6542 113.673L53.002 112.546L48.877 118.593L50.5292 119.72ZM54.6718 113.646C54.8639 113.344 55.0306 112.915 54.9215 112.424C54.8124 111.933 54.4794 111.614 54.1775 111.422L53.1037 113.109C53.1456 113.136 53.0157 113.067 52.9691 112.858C52.9226 112.648 53.0111 112.531 52.9845 112.572L54.6718 113.646ZM54.1858 111.427C47.6554 107.181 40.4517 105.361 32.6099 105.972L32.7651 107.966C40.1733 107.389 46.9384 109.1 53.0955 113.104L54.1858 111.427ZM32.6088 105.972C24.0519 106.647 16.7323 110.099 10.6899 116.302L12.1226 117.698C17.8302 111.838 24.6981 108.603 32.7662 107.966L32.6088 105.972ZM10.6918 116.3C4.6187 122.502 1.32793 129.901 0.845336 138.459L2.84216 138.572C3.29707 130.505 6.3813 123.561 12.1207 117.7L10.6918 116.3ZM0.84526 138.461C0.298893 148.392 3.46019 156.989 10.3066 164.189L11.7559 162.811C5.28981 156.011 2.32611 147.952 2.84224 138.571L0.84526 138.461ZM10.3039 164.186C13.5198 167.595 17.255 170.236 21.504 172.103L22.3085 170.272C18.3075 168.514 14.7927 166.03 11.7586 162.814L10.3039 164.186ZM21.5051 172.104C25.9132 174.034 30.5342 175 35.3594 175V173C30.8095 173 26.4618 172.091 22.3074 170.271L21.5051 172.104ZM35.3594 175C42.2393 175 48.5396 173.132 54.2356 169.399L53.1394 167.726C47.7729 171.243 41.8545 173 35.3594 173V175ZM54.2244 169.406C54.5263 169.214 54.8593 168.895 54.9684 168.404C55.0774 167.914 54.9108 167.484 54.7187 167.182L53.0313 168.256C53.058 168.297 52.9694 168.18 53.016 167.971C53.0626 167.761 53.1925 167.692 53.1506 167.719L54.2244 169.406ZM54.7011 167.155L50.5761 161.108L48.9239 162.235L53.0489 168.282L54.7011 167.155ZM77.9163 136.359H76.9163V137.359H77.9163V136.359ZM77.9163 115.359V114.359H76.9163V115.359H77.9163ZM102.104 118.406L102.811 117.699L102.805 117.694L102.104 118.406ZM98.8225 144.328L98.5902 143.355L97.3151 143.66L97.9459 144.809L98.8225 144.328ZM109.276 137.953L110.035 138.603L110.041 138.597L109.276 137.953ZM113.729 126.422L114.728 126.458L114.728 126.451L113.729 126.422ZM77.9163 144.891V143.891H76.9163V144.891H77.9163ZM89.4944 144.891L90.2015 145.598L91.9086 143.891H89.4944V144.891ZM89.4475 144.938L88.7404 144.23L88.2102 144.761L88.5706 145.418L89.4475 144.938ZM105.198 173.672L106.117 173.278L106.098 173.234L106.074 173.191L105.198 173.672ZM114.573 173.719L113.704 173.223L113.69 173.247L113.678 173.272L114.573 173.719ZM114.619 173.109L115.514 172.662L115.505 172.645L115.496 172.628L114.619 173.109ZM78.9163 136.359V115.359H76.9163V136.359H78.9163ZM77.9163 116.359H94.6506V114.359H77.9163V116.359ZM94.6506 116.359C97.2955 116.359 99.5275 117.273 101.402 119.119L102.805 117.694C100.555 115.477 97.8183 114.359 94.6506 114.359V116.359ZM101.397 119.113C103.272 120.989 104.198 123.219 104.198 125.859H106.198C106.198 122.687 105.06 119.948 102.811 117.699L101.397 119.113ZM104.198 125.859C104.198 128.465 103.275 130.68 101.397 132.559L102.811 133.973C105.058 131.726 106.198 129.004 106.198 125.859H104.198ZM101.397 132.559C99.5209 134.434 97.2906 135.359 94.6506 135.359V137.359C97.8232 137.359 100.562 136.222 102.811 133.973L101.397 132.559ZM94.6506 135.359H77.9163V137.359H94.6506V135.359ZM99.0548 145.301C103.446 144.252 107.116 142.015 110.035 138.603L108.516 137.303C105.873 140.391 102.574 142.404 98.5902 143.355L99.0548 145.301ZM110.041 138.597C112.996 135.083 114.564 131.026 114.728 126.458L112.729 126.386C112.581 130.505 111.18 134.135 108.51 137.309L110.041 138.597ZM114.728 126.451C114.892 120.805 112.993 115.933 109.054 111.895L107.622 113.292C111.183 116.942 112.878 121.288 112.729 126.393L114.728 126.451ZM109.054 111.895C105.116 107.859 100.295 105.828 94.6506 105.828V107.828C99.7564 107.828 104.061 109.641 107.622 113.292L109.054 111.895ZM94.6506 105.828H69.9944V107.828H94.6506V105.828ZM69.9944 105.828C69.6371 105.828 69.1855 105.918 68.8302 106.273C68.475 106.629 68.385 107.08 68.385 107.438H70.385C70.385 107.389 70.3966 107.535 70.2445 107.688C70.0923 107.84 69.9454 107.828 69.9944 107.828V105.828ZM68.385 107.438V173.25H70.385V107.438H68.385ZM68.385 173.25C68.385 173.607 68.475 174.059 68.8302 174.414C69.1855 174.769 69.6371 174.859 69.9944 174.859V172.859C69.9454 172.859 70.0923 172.848 70.2445 173C70.3966 173.152 70.385 173.299 70.385 173.25H68.385ZM69.9944 174.859H77.3069V172.859H69.9944V174.859ZM77.3069 174.859C77.6641 174.859 78.1158 174.769 78.471 174.414C78.8263 174.059 78.9163 173.607 78.9163 173.25H76.9163C76.9163 173.299 76.9047 173.152 77.0568 173C77.2089 172.848 77.3559 172.859 77.3069 172.859V174.859ZM78.9163 173.25V144.891H76.9163V173.25H78.9163ZM77.9163 145.891H89.4944V143.891H77.9163V145.891ZM88.7873 144.184L88.7404 144.23L90.1546 145.645L90.2015 145.598L88.7873 144.184ZM88.5706 145.418L104.321 174.153L106.074 173.191L90.3244 144.457L88.5706 145.418ZM104.278 174.066C104.391 174.328 104.577 174.582 104.86 174.762C105.139 174.939 105.441 175 105.713 175V173C105.735 173 105.826 173.006 105.934 173.074C106.045 173.145 106.098 173.234 106.117 173.278L104.278 174.066ZM105.713 175H114.057V173H105.713V175ZM114.057 175C114.304 175 114.584 174.954 114.852 174.808C115.13 174.656 115.336 174.429 115.467 174.166L113.678 173.272C113.716 173.196 113.788 173.11 113.894 173.052C113.991 172.999 114.06 173 114.057 173V175ZM115.441 174.215C115.693 173.773 115.789 173.212 115.514 172.662L113.725 173.557C113.693 173.493 113.674 173.41 113.681 173.326C113.687 173.249 113.71 173.212 113.704 173.223L115.441 174.215ZM115.496 172.628L99.6991 143.847L97.9459 144.809L113.743 173.591L115.496 172.628ZM140.958 165.469H139.958V166.469H140.958V165.469ZM140.958 144.703V143.703H139.958V144.703H140.958ZM140.958 136.172H139.958V137.172H140.958V136.172ZM140.958 115.406V114.406H139.958V115.406H140.958ZM133.036 105.875C132.678 105.875 132.227 105.965 131.871 106.32C131.516 106.675 131.426 107.127 131.426 107.484H133.426C133.426 107.435 133.438 107.582 133.286 107.734C133.134 107.887 132.987 107.875 133.036 107.875V105.875ZM131.426 107.484V173.391H133.426V107.484H131.426ZM131.426 173.391C131.426 173.748 131.516 174.2 131.871 174.555C132.227 174.91 132.678 175 133.036 175V173C132.987 173 133.134 172.988 133.286 173.141C133.438 173.293 133.426 173.44 133.426 173.391H131.426ZM133.036 175H176.629V173H133.036V175ZM176.629 175C176.987 175 177.438 174.91 177.794 174.555C178.149 174.2 178.239 173.748 178.239 173.391H176.239C176.239 173.44 176.227 173.293 176.379 173.141C176.531 172.988 176.678 173 176.629 173V175ZM178.239 173.391V166.078H176.239V173.391H178.239ZM178.239 166.078C178.239 165.721 178.149 165.269 177.794 164.914C177.438 164.559 176.987 164.469 176.629 164.469V166.469C176.678 166.469 176.531 166.48 176.379 166.328C176.227 166.176 176.239 166.029 176.239 166.078H178.239ZM176.629 164.469H140.958V166.469H176.629V164.469ZM141.958 165.469V144.703H139.958V165.469H141.958ZM140.958 145.703H166.786V143.703H140.958V145.703ZM166.786 145.703C167.143 145.703 167.595 145.613 167.95 145.258C168.305 144.903 168.395 144.451 168.395 144.094H166.395C166.395 144.143 166.383 143.996 166.536 143.844C166.688 143.692 166.835 143.703 166.786 143.703V145.703ZM168.395 144.094V136.781H166.395V144.094H168.395ZM168.395 136.781C168.395 136.424 168.305 135.972 167.95 135.617C167.595 135.262 167.143 135.172 166.786 135.172V137.172C166.835 137.172 166.688 137.183 166.536 137.031C166.383 136.879 166.395 136.732 166.395 136.781H168.395ZM166.786 135.172H140.958V137.172H166.786V135.172ZM141.958 136.172V115.406H139.958V136.172H141.958ZM140.958 116.406H176.629V114.406H140.958V116.406ZM176.629 116.406C176.987 116.406 177.438 116.316 177.794 115.961C178.149 115.606 178.239 115.154 178.239 114.797H176.239C176.239 114.846 176.227 114.699 176.379 114.547C176.531 114.395 176.678 114.406 176.629 114.406V116.406ZM178.239 114.797V107.484H176.239V114.797H178.239ZM178.239 107.484C178.239 107.127 178.149 106.675 177.794 106.32C177.438 105.965 176.987 105.875 176.629 105.875V107.875C176.678 107.875 176.531 107.887 176.379 107.734C176.227 107.582 176.239 107.435 176.239 107.484H178.239ZM176.629 105.875H133.036V107.875H176.629V105.875ZM209.858 139.594L208.935 139.21L208.359 140.594H209.858V139.594ZM218.342 119.203L219.267 118.821L218.345 116.594L217.419 118.819L218.342 119.203ZM226.78 139.594V140.594H228.276L227.704 139.211L226.78 139.594ZM214.499 107.109L213.604 106.662L213.589 106.694L213.575 106.726L214.499 107.109ZM187.077 173.156L187.971 173.603L187.987 173.572L188 173.54L187.077 173.156ZM195.702 173.625L194.778 173.242L194.772 173.258L194.766 173.274L195.702 173.625ZM206.436 147.75V146.75H205.768L205.513 147.367L206.436 147.75ZM230.202 147.75L231.126 147.367L230.87 146.75H230.202V147.75ZM240.936 173.625L241.873 173.274L241.867 173.258L241.86 173.242L240.936 173.625ZM249.561 173.156L248.638 173.54L248.651 173.572L248.667 173.603L249.561 173.156ZM222.139 107.109L221.203 107.46L221.209 107.477L221.216 107.493L222.139 107.109ZM210.781 139.978L219.266 119.587L217.419 118.819L208.935 139.21L210.781 139.978ZM217.418 119.585L225.856 139.976L227.704 139.211L219.267 118.821L217.418 119.585ZM226.78 138.594H209.858V140.594H226.78V138.594ZM215.061 105.734C214.761 105.734 214.454 105.812 214.178 105.996C213.909 106.176 213.726 106.419 213.604 106.662L215.393 107.557C215.396 107.55 215.37 107.606 215.288 107.66C215.2 107.719 215.111 107.734 215.061 107.734V105.734ZM213.575 106.726L186.153 172.773L188 173.54L215.422 107.493L213.575 106.726ZM186.182 172.709C185.914 173.246 185.986 173.815 186.292 174.273L187.956 173.164C187.969 173.183 188.006 173.249 188.015 173.354C188.024 173.464 187.997 173.552 187.971 173.603L186.182 172.709ZM186.292 174.273C186.595 174.729 187.074 175 187.639 175V173C187.677 173 187.748 173.009 187.825 173.052C187.902 173.093 187.942 173.144 187.956 173.164L186.292 174.273ZM187.639 175H195.139V173H187.639V175ZM195.139 175C195.428 175 195.751 174.935 196.046 174.738C196.344 174.539 196.532 174.26 196.638 173.976L194.766 173.274C194.778 173.24 194.825 173.148 194.936 173.074C195.043 173.003 195.132 173 195.139 173V175ZM196.626 174.008L207.36 148.133L205.513 147.367L194.778 173.242L196.626 174.008ZM206.436 148.75H230.202V146.75H206.436V148.75ZM229.278 148.133L240.013 174.008L241.86 173.242L231.126 147.367L229.278 148.133ZM240 173.976C240.106 174.26 240.294 174.539 240.592 174.738C240.887 174.935 241.21 175 241.499 175V173C241.506 173 241.595 173.003 241.702 173.074C241.813 173.148 241.86 173.24 241.873 173.274L240 173.976ZM241.499 175H248.999V173H241.499V175ZM248.999 175C249.564 175 250.043 174.729 250.346 174.273L248.682 173.164C248.696 173.144 248.737 173.093 248.813 173.052C248.89 173.009 248.961 173 248.999 173V175ZM250.346 174.273C250.652 173.815 250.724 173.246 250.456 172.709L248.667 173.603C248.641 173.552 248.614 173.464 248.623 173.354C248.632 173.249 248.669 173.183 248.682 173.164L250.346 174.273ZM250.485 172.773L223.063 106.726L221.216 107.493L248.638 173.54L250.485 172.773ZM223.076 106.758C222.969 106.474 222.782 106.195 222.483 105.996C222.189 105.8 221.866 105.734 221.577 105.734V107.734C221.569 107.734 221.481 107.732 221.374 107.66C221.263 107.586 221.216 107.495 221.203 107.46L223.076 106.758ZM221.577 105.734H215.061V107.734H221.577V105.734ZM277.681 115.406H278.681V114.406H277.681V115.406ZM286.212 115.406V114.406H285.212V115.406H286.212ZM260.056 105.875C259.698 105.875 259.247 105.965 258.891 106.32C258.536 106.675 258.446 107.127 258.446 107.484H260.446C260.446 107.435 260.458 107.582 260.306 107.734C260.154 107.887 260.007 107.875 260.056 107.875V105.875ZM258.446 107.484V114.797H260.446V107.484H258.446ZM258.446 114.797C258.446 115.154 258.536 115.606 258.891 115.961C259.247 116.316 259.698 116.406 260.056 116.406V114.406C260.007 114.406 260.154 114.395 260.306 114.547C260.458 114.699 260.446 114.846 260.446 114.797H258.446ZM260.056 116.406H277.681V114.406H260.056V116.406ZM276.681 115.406V173.391H278.681V115.406H276.681ZM276.681 173.391C276.681 173.748 276.771 174.2 277.126 174.555C277.481 174.91 277.933 175 278.29 175V173C278.241 173 278.388 172.988 278.54 173.141C278.692 173.293 278.681 173.44 278.681 173.391H276.681ZM278.29 175H285.603V173H278.29V175ZM285.603 175C285.96 175 286.411 174.91 286.767 174.555C287.122 174.2 287.212 173.748 287.212 173.391H285.212C285.212 173.44 285.2 173.293 285.352 173.141C285.505 172.988 285.651 173 285.603 173V175ZM287.212 173.391V115.406H285.212V173.391H287.212ZM286.212 116.406H303.79V114.406H286.212V116.406ZM303.79 116.406C304.147 116.406 304.599 116.316 304.954 115.961C305.309 115.606 305.399 115.154 305.399 114.797H303.399C303.399 114.846 303.388 114.699 303.54 114.547C303.692 114.395 303.839 114.406 303.79 114.406V116.406ZM305.399 114.797V107.484H303.399V114.797H305.399ZM305.399 107.484C305.399 107.127 305.309 106.675 304.954 106.32C304.599 105.965 304.147 105.875 303.79 105.875V107.875C303.839 107.875 303.692 107.887 303.54 107.734C303.388 107.582 303.399 107.435 303.399 107.484H305.399ZM303.79 105.875H260.056V107.875H303.79V105.875ZM320.847 105.875C320.49 105.875 320.038 105.965 319.683 106.32C319.327 106.675 319.237 107.127 319.237 107.484H321.237C321.237 107.435 321.249 107.582 321.097 107.734C320.945 107.887 320.798 107.875 320.847 107.875V105.875ZM319.237 107.484V173.391H321.237V107.484H319.237ZM319.237 173.391C319.237 173.748 319.327 174.2 319.683 174.555C320.038 174.91 320.49 175 320.847 175V173C320.798 173 320.945 172.988 321.097 173.141C321.249 173.293 321.237 173.44 321.237 173.391H319.237ZM320.847 175H328.206V173H320.847V175ZM328.206 175C328.564 175 329.015 174.91 329.37 174.555C329.726 174.2 329.816 173.748 329.816 173.391H327.816C327.816 173.44 327.804 173.293 327.956 173.141C328.108 172.988 328.255 173 328.206 173V175ZM329.816 173.391V107.484H327.816V173.391H329.816ZM329.816 107.484C329.816 107.127 329.726 106.675 329.37 106.32C329.015 105.965 328.564 105.875 328.206 105.875V107.875C328.255 107.875 328.108 107.887 327.956 107.734C327.804 107.582 327.816 107.435 327.816 107.484H329.816ZM328.206 105.875H320.847V107.875H328.206V105.875ZM362.372 122.766L361.665 122.059L361.663 122.061L362.372 122.766ZM397.716 122.766L398.426 122.061L398.421 122.056L397.716 122.766ZM397.716 158.109L398.421 158.819L398.423 158.816L397.716 158.109ZM380.044 164.422C373.403 164.422 367.767 162.089 363.08 157.402L361.665 158.816C366.728 163.879 372.873 166.422 380.044 166.422V164.422ZM363.08 157.402C358.393 152.715 356.06 147.079 356.06 140.438H354.06C354.06 147.608 356.602 153.754 361.665 158.816L363.08 157.402ZM356.06 140.438C356.06 133.828 358.392 128.191 363.082 123.47L361.663 122.061C356.603 127.153 354.06 133.297 354.06 140.438H356.06ZM363.08 123.473C367.767 118.786 373.403 116.453 380.044 116.453V114.453C372.873 114.453 366.728 116.996 361.665 122.059L363.08 123.473ZM380.044 116.453C386.653 116.453 392.291 118.785 397.011 123.475L398.421 122.056C393.329 116.996 387.185 114.453 380.044 114.453V116.453ZM397.007 123.47C401.697 128.191 404.029 133.828 404.029 140.438H406.029C406.029 133.297 403.486 127.153 398.426 122.061L397.007 123.47ZM404.029 140.438C404.029 147.079 401.696 152.715 397.009 157.402L398.423 158.816C403.486 153.754 406.029 147.608 406.029 140.438H404.029ZM397.011 157.4C392.291 162.09 386.653 164.422 380.044 164.422V166.422C387.185 166.422 393.329 163.879 398.421 158.819L397.011 157.4ZM380.044 105.875C370.528 105.875 362.368 109.262 355.619 116.012L357.033 117.426C363.408 111.05 371.061 107.875 380.044 107.875V105.875ZM355.619 116.012C348.869 122.761 345.482 130.921 345.482 140.438H347.482C347.482 131.454 350.657 123.802 357.033 117.426L355.619 116.012ZM345.482 140.438C345.482 149.954 348.869 158.114 355.619 164.863L357.033 163.449C350.657 157.073 347.482 149.421 347.482 140.438H345.482ZM355.619 164.863C362.368 171.613 370.528 175 380.044 175V173C371.061 173 363.408 169.825 357.033 163.449L355.619 164.863ZM380.044 175C389.561 175 397.721 171.613 404.47 164.863L403.056 163.449C396.68 169.825 389.028 173 380.044 173V175ZM404.47 164.863C411.22 158.114 414.607 149.954 414.607 140.438H412.607C412.607 149.421 409.432 157.073 403.056 163.449L404.47 164.863ZM414.607 140.438C414.607 130.921 411.22 122.761 404.47 116.012L403.056 117.426C409.432 123.802 412.607 131.454 412.607 140.438H414.607ZM404.47 116.012C397.721 109.262 389.561 105.875 380.044 105.875V107.875C389.028 107.875 396.68 111.05 403.056 117.426L404.47 116.012ZM473.367 155.156L472.567 155.756L474.367 158.159V155.156H473.367ZM437.367 107.109L436.535 107.664L436.55 107.687L436.567 107.709L437.367 107.109ZM441.351 126L442.152 125.401L440.351 122.996V126H441.351ZM477.117 173.766L476.316 174.365L476.326 174.378L476.336 174.39L477.117 173.766ZM473.976 105.828C473.619 105.828 473.167 105.918 472.812 106.273C472.457 106.629 472.367 107.08 472.367 107.438H474.367C474.367 107.389 474.378 107.535 474.226 107.688C474.074 107.84 473.927 107.828 473.976 107.828V105.828ZM472.367 107.438V155.156H474.367V107.438H472.367ZM474.167 154.557L438.167 106.51L436.567 107.709L472.567 155.756L474.167 154.557ZM438.199 106.555C437.931 106.153 437.491 105.828 436.898 105.828V107.828C436.816 107.828 436.723 107.805 436.641 107.756C436.566 107.711 436.535 107.665 436.535 107.664L438.199 106.555ZM436.898 105.828H433.804V107.828H436.898V105.828ZM433.804 105.828C433.447 105.828 432.995 105.918 432.64 106.273C432.285 106.629 432.195 107.08 432.195 107.438H434.195C434.195 107.389 434.207 107.535 434.054 107.688C433.902 107.84 433.755 107.828 433.804 107.828V105.828ZM432.195 107.438V173.391H434.195V107.438H432.195ZM432.195 173.391C432.195 173.748 432.285 174.2 432.64 174.555C432.995 174.91 433.447 175 433.804 175V173C433.755 173 433.902 172.988 434.054 173.141C434.207 173.293 434.195 173.44 434.195 173.391H432.195ZM433.804 175H440.742V173H433.804V175ZM440.742 175C441.099 175 441.551 174.91 441.906 174.555C442.261 174.2 442.351 173.748 442.351 173.391H440.351C440.351 173.44 440.34 173.293 440.492 173.141C440.644 172.988 440.791 173 440.742 173V175ZM442.351 173.391V126H440.351V173.391H442.351ZM440.551 126.599L476.316 174.365L477.917 173.166L442.152 125.401L440.551 126.599ZM476.336 174.39C476.636 174.765 477.072 175 477.586 175V173C477.635 173 477.704 173.012 477.775 173.047C477.844 173.081 477.883 173.122 477.898 173.141L476.336 174.39ZM477.586 175H480.914V173H477.586V175ZM480.914 175C481.271 175 481.723 174.91 482.078 174.555C482.433 174.2 482.523 173.748 482.523 173.391H480.523C480.523 173.44 480.512 173.293 480.664 173.141C480.816 172.988 480.963 173 480.914 173V175ZM482.523 173.391V107.438H480.523V173.391H482.523ZM482.523 107.438C482.523 107.08 482.433 106.629 482.078 106.273C481.723 105.918 481.271 105.828 480.914 105.828V107.828C480.963 107.828 480.816 107.84 480.664 107.688C480.512 107.535 480.523 107.389 480.523 107.438H482.523ZM480.914 105.828H473.976V107.828H480.914V105.828ZM521.971 134.25L521.416 135.082L521.475 135.121L521.539 135.152L521.971 134.25ZM521.83 134.156L522.385 133.324L522.309 133.274L522.226 133.238L521.83 134.156ZM513.346 129.469L513.999 128.712L513.994 128.708L513.346 129.469ZM529.939 117.234L529.514 118.139L529.522 118.143L529.53 118.147L529.939 117.234ZM532.564 118.688L533.138 117.868L533.129 117.862L533.119 117.855L532.564 118.688ZM533.455 119.344L534.106 118.584L534.088 118.569L534.069 118.554L533.455 119.344ZM534.064 119.906L533.357 120.613L533.401 120.657L533.45 120.696L534.064 119.906ZM534.908 119.859L535.573 120.607L535.584 120.596L535.596 120.585L534.908 119.859ZM537.58 117.328L536.893 116.602L536.892 116.602L537.58 117.328ZM540.205 114.844L539.532 114.104L539.525 114.111L539.518 114.117L540.205 114.844ZM540.205 113.953L539.498 114.66L539.533 114.695L539.572 114.727L540.205 113.953ZM539.361 113.156L540.03 112.413L540.005 112.391L539.979 112.37L539.361 113.156ZM538.049 112.172L537.452 112.974L537.46 112.98L537.468 112.986L538.049 112.172ZM534.158 109.781L534.605 108.887L534.602 108.885L534.158 109.781ZM507.252 111.422L507.899 112.184L507.903 112.181L507.252 111.422ZM507.814 135.984L507.164 136.744L507.166 136.746L507.814 135.984ZM513.158 139.5L513.632 138.619L513.621 138.614L513.158 139.5ZM515.877 140.859L515.452 141.765L515.462 141.769L515.471 141.773L515.877 140.859ZM517.143 141.422L516.736 142.336L516.74 142.337L517.143 141.422ZM518.314 141.938L518.754 141.039L518.736 141.03L518.717 141.022L518.314 141.938ZM520.518 143.016L520.078 143.914L520.138 143.943L520.201 143.964L520.518 143.016ZM520.658 143.062L521.06 142.147L521.018 142.128L520.974 142.114L520.658 143.062ZM530.455 148.594L529.799 149.349L529.802 149.352L530.455 148.594ZM510.861 163.312L510.424 164.212L510.433 164.216L510.861 163.312ZM507.814 161.531L508.388 160.712L508.379 160.706L508.369 160.699L507.814 161.531ZM506.783 160.781L506.125 161.534L506.141 161.548L506.158 161.562L506.783 160.781ZM506.08 160.172L505.416 160.919L505.422 160.925L505.429 160.931L506.08 160.172ZM505.236 160.172L504.572 159.424L504.562 159.433L504.552 159.443L505.236 160.172ZM499.893 165.188L499.208 164.458L499.197 164.469L499.185 164.48L499.893 165.188ZM499.893 166.078L500.6 165.371L500.581 165.352L500.561 165.335L499.893 166.078ZM500.83 166.922L500.197 167.696L500.205 167.703L500.83 166.922ZM502.283 168.047L501.683 168.847L501.686 168.849L502.283 168.047ZM506.596 170.719L506.141 171.61L506.148 171.613L506.596 170.719ZM536.502 168.984L535.855 168.222L535.852 168.225L536.502 168.984ZM535.846 141.938L536.493 141.175L536.492 141.174L535.846 141.938ZM529.893 138L530.363 137.118L530.352 137.112L529.893 138ZM526.893 136.5L527.329 135.6L527.31 135.591L527.29 135.582L526.893 136.5ZM525.486 135.891L525.039 136.785L525.064 136.797L525.089 136.808L525.486 135.891ZM524.127 135.281L523.695 136.183L523.717 136.194L523.739 136.203L524.127 135.281ZM522.525 133.418L522.385 133.324L521.275 134.988L521.416 135.082L522.525 133.418ZM522.226 133.238C518.177 131.494 515.47 129.981 513.999 128.712L512.692 130.226C514.409 131.707 517.358 133.319 521.434 135.075L522.226 133.238ZM513.994 128.708C512.275 127.242 511.486 125.6 511.486 123.75H509.486C509.486 126.275 510.604 128.446 512.697 130.23L513.994 128.708ZM511.486 123.75C511.486 121.215 512.321 119.458 513.884 118.294C515.503 117.089 518.05 116.406 521.689 116.406V114.406C517.86 114.406 514.806 115.114 512.69 116.69C510.518 118.307 509.486 120.722 509.486 123.75H511.486ZM521.689 116.406C524.451 116.406 527.055 116.984 529.514 118.139L530.365 116.329C527.636 115.047 524.741 114.406 521.689 114.406V116.406ZM529.53 118.147C530.385 118.53 531.211 118.987 532.01 119.52L533.119 117.855C532.23 117.263 531.306 116.751 530.348 116.322L529.53 118.147ZM531.991 119.507C532.291 119.717 532.574 119.925 532.841 120.133L534.069 118.554C533.774 118.325 533.463 118.096 533.138 117.868L531.991 119.507ZM532.804 120.103C533.005 120.275 533.189 120.445 533.357 120.613L534.771 119.199C534.564 118.992 534.342 118.787 534.106 118.584L532.804 120.103ZM533.45 120.696C533.73 120.913 534.101 121.082 534.542 121.057C534.973 121.033 535.32 120.831 535.573 120.607L534.244 119.112C534.215 119.137 534.28 119.068 534.431 119.06C534.59 119.051 534.68 119.119 534.678 119.117L533.45 120.696ZM535.596 120.585L538.268 118.054L536.892 116.602L534.22 119.133L535.596 120.585ZM538.267 118.054L540.892 115.57L539.518 114.117L536.893 116.602L538.267 118.054ZM540.878 115.584C541.142 115.343 541.463 114.943 541.463 114.387C541.463 113.814 541.125 113.413 540.838 113.179L539.572 114.727C539.629 114.774 539.463 114.663 539.463 114.387C539.463 114.128 539.612 114.032 539.532 114.104L540.878 115.584ZM540.912 113.246C540.648 112.982 540.353 112.704 540.03 112.413L538.692 113.9C538.994 114.171 539.262 114.425 539.498 114.66L540.912 113.246ZM539.979 112.37C539.53 112.017 539.08 111.68 538.63 111.358L537.468 112.986C537.892 113.289 538.318 113.608 538.743 113.943L539.979 112.37ZM538.645 111.369C537.379 110.428 536.032 109.6 534.605 108.887L533.711 110.676C535.034 111.337 536.281 112.103 537.452 112.974L538.645 111.369ZM534.602 108.885C530.557 106.879 526.248 105.875 521.689 105.875V107.875C525.943 107.875 529.947 108.809 533.714 110.677L534.602 108.885ZM521.689 105.875C515.432 105.875 510.363 107.433 506.601 110.663L507.903 112.181C511.203 109.348 515.759 107.875 521.689 107.875V105.875ZM506.604 110.66C502.82 113.875 500.955 118.279 500.955 123.75H502.955C502.955 118.783 504.622 114.969 507.899 112.184L506.604 110.66ZM500.955 123.75C500.955 128.877 503.053 133.225 507.164 136.744L508.465 135.225C504.763 132.056 502.955 128.248 502.955 123.75H500.955ZM507.166 136.746C508.703 138.054 510.549 139.265 512.695 140.386L513.621 138.614C511.579 137.547 509.863 136.415 508.463 135.223L507.166 136.746ZM512.684 140.38C513.516 140.828 514.439 141.29 515.452 141.765L516.301 139.954C515.315 139.492 514.426 139.047 513.632 138.62L512.684 140.38ZM515.471 141.773L516.736 142.336L517.549 140.508L516.283 139.946L515.471 141.773ZM516.74 142.337L517.912 142.853L518.717 141.022L517.545 140.507L516.74 142.337ZM517.875 142.836L520.078 143.914L520.957 142.117L518.754 141.039L517.875 142.836ZM520.201 143.964L520.342 144.011L520.974 142.114L520.834 142.067L520.201 143.964ZM520.256 143.978C524.862 146.001 528.012 147.796 529.799 149.349L531.111 147.839C529.086 146.079 525.705 144.187 521.06 142.147L520.256 143.978ZM529.802 149.352C531.867 151.13 532.83 153.132 532.83 155.391H534.83C534.83 152.462 533.543 149.933 531.108 147.836L529.802 149.352ZM532.83 155.391C532.83 158.511 531.818 160.703 529.909 162.153C527.948 163.643 524.888 164.469 520.564 164.469V166.469C525.084 166.469 528.657 165.615 531.119 163.745C533.632 161.836 534.83 158.989 534.83 155.391H532.83ZM520.564 164.469C517.271 164.469 514.184 163.781 511.29 162.409L510.433 164.216C513.601 165.719 516.982 166.469 520.564 166.469V164.469ZM511.298 162.413C510.249 161.903 509.279 161.336 508.388 160.712L507.241 162.35C508.224 163.039 509.286 163.659 510.424 164.212L511.298 162.413ZM508.369 160.699C508.015 160.463 507.695 160.23 507.408 160L506.158 161.562C506.496 161.832 506.864 162.099 507.26 162.363L508.369 160.699ZM507.442 160.029C507.189 159.808 506.952 159.603 506.731 159.413L505.429 160.931C505.645 161.116 505.877 161.317 506.125 161.534L507.442 160.029ZM506.744 159.424C506.483 159.193 506.116 158.984 505.658 158.984C505.2 158.984 504.833 159.193 504.572 159.424L505.901 160.919C505.921 160.901 505.835 160.984 505.658 160.984C505.481 160.984 505.395 160.901 505.416 160.919L506.744 159.424ZM504.552 159.443L499.208 164.458L500.577 165.917L505.921 160.901L504.552 159.443ZM499.185 164.48C498.932 164.733 498.658 165.125 498.658 165.645C498.658 166.178 498.947 166.572 499.224 166.821L500.561 165.335C500.526 165.303 500.658 165.407 500.658 165.645C500.658 165.867 500.54 165.954 500.6 165.895L499.185 164.48ZM499.185 166.785C499.493 167.093 499.83 167.396 500.197 167.696L501.463 166.148C501.142 165.885 500.855 165.626 500.6 165.371L499.185 166.785ZM500.205 167.703C500.683 168.085 501.175 168.466 501.683 168.847L502.883 167.247C502.391 166.878 501.915 166.509 501.455 166.141L500.205 167.703ZM501.686 168.849C503.076 169.883 504.561 170.803 506.141 171.61L507.05 169.828C505.567 169.072 504.178 168.21 502.88 167.245L501.686 168.849ZM506.148 171.613C510.664 173.871 515.473 175 520.564 175V173C515.781 173 511.278 171.942 507.043 169.824L506.148 171.613ZM520.564 175C527.447 175 533.015 173.285 537.152 169.744L535.852 168.225C532.176 171.371 527.119 173 520.564 173V175ZM537.149 169.747C541.308 166.22 543.361 161.394 543.361 155.391H541.361C541.361 160.887 539.508 165.124 535.855 168.222L537.149 169.747ZM543.361 155.391C543.361 149.79 541.04 145.036 536.493 141.175L535.198 142.7C539.338 146.214 541.361 150.428 541.361 155.391H543.361ZM536.492 141.174C534.801 139.744 532.755 138.393 530.363 137.118L529.422 138.882C531.718 140.107 533.64 141.381 535.2 142.701L536.492 141.174ZM530.352 137.112C529.437 136.639 528.429 136.135 527.329 135.6L526.456 137.4C527.543 137.928 528.536 138.424 529.433 138.888L530.352 137.112ZM527.29 135.582L525.884 134.973L525.089 136.808L526.495 137.418L527.29 135.582ZM525.933 134.996C525.592 134.825 525.115 134.612 524.515 134.36L523.739 136.203C524.326 136.45 524.756 136.643 525.039 136.785L525.933 134.996ZM524.558 134.379L522.402 133.348L521.539 135.152L523.695 136.183L524.558 134.379Z" fill="#298BA1"/>
</svg>
