<svg width="1079" height="711" viewBox="0 0 1079 711" fill="none" xmlns="http://www.w3.org/2000/svg">
<g opacity="0.9" filter="url(#filter0_d)">
<path fill-rule="evenodd" clip-rule="evenodd" d="M434.428 111.929C445.197 88.0886 461.969 84.7551 475.64 32.9924C547.439 -238.854 740.633 -241.772 781.185 -282.183C830.037 -330.865 806.427 -425.32 735.44 -434.474C687.326 -440.678 591.856 -390.453 556.025 -368.251C214.135 -156.402 193.315 358.272 554.874 589.603C590.552 612.43 687.695 663.329 735.025 656.305C801.281 646.473 831.978 559.436 783.793 507.22C755.306 476.349 702.159 481.196 622.17 420.573C546.656 363.34 501.411 291.436 476.658 193.401C465.331 148.545 453.682 141.46 434.428 111.929Z" fill="#137F97"/>
<path fill-rule="evenodd" clip-rule="evenodd" d="M1238.96 110.932C1221.29 138.128 1208.63 145.755 1197.4 189.349C1164.56 316.821 1092.48 412.69 975.694 464.544C943.886 478.667 910.753 484.91 891.452 504.264C839.497 556.358 873.087 646.288 938.163 655.354C1023.97 667.31 1187.81 549.537 1249.16 474.585C1475.49 198.021 1400.23 -190.069 1119.6 -367.639C853.95 -535.731 840.872 -338.65 890.262 -285.011C918.023 -254.861 975.293 -259.002 1052.03 -198.598C1191.79 -88.571 1180.48 11.579 1213.52 72.674C1222.22 88.7491 1233.12 97.9835 1238.96 110.932Z" fill="#137F97"/>
<path fill-rule="evenodd" clip-rule="evenodd" d="M870.726 342.678C732.564 364.01 621.895 259.403 604.92 145.167C584.293 6.35019 685.014 -104.782 803.599 -121.327C944.024 -140.918 1053.28 -37.4187 1068.67 78.76C1087.27 219.271 985.47 324.962 870.726 342.678ZM550.401 151.569C572.335 297.952 706.147 422.417 881.452 396.468C1022.64 375.57 1148.76 238.662 1122.86 67.0758C1100.87 -78.6357 964.724 -199.89 794.893 -175.729C650.23 -155.149 524.725 -19.7836 550.401 151.569Z" fill="#137F97"/>
<path fill-rule="evenodd" clip-rule="evenodd" d="M892.404 63.4685C872.537 29.9436 919.791 6.93063 936.733 34.6914C955.502 65.4472 910.146 93.4074 892.404 63.4685ZM858.95 5.0336C858.95 -3.18536 865.611 -9.84647 873.83 -9.84647C882.049 -9.84647 888.71 -3.18536 888.71 5.0336C888.71 13.2525 882.049 19.9137 873.83 19.9137C865.611 19.9137 858.95 13.2525 858.95 5.0336ZM699.479 192.569C710.31 179.022 707.42 157.123 736.102 142.892C782.246 119.997 834.162 164.43 815.808 214.739C806.946 239.031 790.779 242.355 776.214 250.277L770.875 253.496C770.222 253.883 769.015 254.577 768.173 255.242C961.771 320.224 1065.35 108.345 944.042 -6.56155C814.537 -129.236 607.349 29.1827 699.479 192.569Z" fill="#137F97"/>
<path fill-rule="evenodd" clip-rule="evenodd" d="M52.8844 131.098C84.2348 261.196 275.882 214.754 246.111 86.1435C235.771 41.4731 187.862 -0.375916 128.162 12.4158C80.2405 22.6834 38.4863 71.3525 52.8844 131.098Z" fill="#137F97"/>
</g>
<defs>
<filter id="filter0_d" x="0" y="-481" width="1672.99" height="1191.97" filterUnits="userSpaceOnUse" color-interpolation-filters="sRGB">
<feFlood flood-opacity="0" result="BackgroundImageFix"/>
<feColorMatrix in="SourceAlpha" type="matrix" values="0 0 0 0 0 0 0 0 0 0 0 0 0 0 0 0 0 0 127 0"/>
<feOffset dy="4"/>
<feGaussianBlur stdDeviation="25"/>
<feColorMatrix type="matrix" values="0 0 0 0 0.243438 0 0 0 0 0.634304 0 0 0 0 0.854167 0 0 0 0.74 0"/>
<feBlend mode="normal" in2="BackgroundImageFix" result="effect1_dropShadow"/>
<feBlend mode="normal" in="SourceGraphic" in2="effect1_dropShadow" result="shape"/>
</filter>
</defs>
</svg>
