<svg width="31" height="31" viewBox="0 0 31 31" fill="none" xmlns="http://www.w3.org/2000/svg">
<rect y="3.92578" width="4" height="38.1299" rx="2" transform="rotate(-47 0 3.92578)" fill="#0EA9A9" fill-opacity="0.52"/>
<path d="M28 1.11426V20.1495H27.9765C28.1992 21.9312 26.8154 23.8784 24.7421 24.5383C22.4041 25.2824 19.9199 24.3895 19.1893 22.4546C18.4586 20.5198 19.9199 18.1384 22.2579 17.3942C23.1888 17.0387 24.1427 16.9663 25 17.1394V5.08466L10 8.95966V24.7995H9.97813C10.1925 26.5826 8.81032 28.5274 6.74207 29.1875C4.40403 29.9338 1.91989 29.0384 1.18926 27.0981C0.45862 25.1579 1.9199 22.7699 4.25793 22.0236C5.18875 21.6671 6.14273 21.6181 7 21.8107V6.53926L28 1.11426Z" fill="#0EA9A9" fill-opacity="0.52"/>
</svg>
