<svg width="30" height="31" viewBox="0 0 30 31" fill="none" xmlns="http://www.w3.org/2000/svg">
<path d="M27 1.11426V20.1495H26.9765C27.1992 21.9312 25.8154 23.8784 23.7421 24.5383C21.4041 25.2824 18.9199 24.3895 18.1893 22.4546C17.4586 20.5198 18.9199 18.1384 21.2579 17.3942C22.1888 17.0387 23.1427 16.9663 24 17.1394V5.08466L9 8.95966V24.7995H8.97813C9.19247 26.5826 7.81032 28.5274 5.74207 29.1875C3.40403 29.9338 0.919891 29.0384 0.189255 27.0981C-0.54138 25.1579 0.9199 22.7699 3.25793 22.0236C4.18875 21.6671 5.14273 21.6181 6 21.8107V6.53926L27 1.11426Z" fill="#0EA9A9" fill-opacity="0.52"/>
</svg>
